%TF.GenerationSoftware,KiCad,Pcbnew,7.0.7*%
%TF.CreationDate,2023-10-25T17:49:02-07:00*%
%TF.ProjectId,sfh2430_breakout_panelized,73666832-3433-4305-9f62-7265616b6f75,rev?*%
%TF.SameCoordinates,Original*%
%TF.FileFunction,Soldermask,Bot*%
%TF.FilePolarity,Negative*%
%FSLAX46Y46*%
G04 Gerber Fmt 4.6, Leading zero omitted, Abs format (unit mm)*
G04 Created by KiCad (PCBNEW 7.0.7) date 2023-10-25 17:49:02*
%MOMM*%
%LPD*%
G01*
G04 APERTURE LIST*
%ADD10C,5.600000*%
%ADD11C,0.500000*%
%ADD12C,1.400000*%
%ADD13R,1.400000X1.400000*%
%ADD14R,1.700000X1.700000*%
%ADD15O,1.700000X1.700000*%
%ADD16C,3.000000*%
G04 APERTURE END LIST*
D10*
%TO.C,H3*%
X136250000Y-50800000D03*
%TD*%
%TO.C,H3*%
X90800000Y-50800000D03*
%TD*%
D11*
%TO.C,REF\u002A\u002A*%
X132400000Y-106650000D03*
%TD*%
%TO.C,REF\u002A\u002A*%
X86950000Y-106650000D03*
%TD*%
%TO.C,REF\u002A\u002A*%
X113745634Y-109432927D03*
%TD*%
%TO.C,REF\u002A\u002A*%
X68295634Y-109432927D03*
%TD*%
%TO.C,REF\u002A\u002A*%
X127950000Y-115732927D03*
%TD*%
%TO.C,REF\u002A\u002A*%
X82500000Y-115732927D03*
%TD*%
%TO.C,REF\u002A\u002A*%
X108550000Y-111632927D03*
%TD*%
%TO.C,REF\u002A\u002A*%
X63100000Y-111632927D03*
%TD*%
%TO.C,REF\u002A\u002A*%
X65950000Y-106650000D03*
%TD*%
%TO.C,REF\u002A\u002A*%
X111400000Y-106650000D03*
%TD*%
%TO.C,REF\u002A\u002A*%
X72800000Y-111682927D03*
%TD*%
%TO.C,REF\u002A\u002A*%
X118250000Y-111682927D03*
%TD*%
%TO.C,REF\u002A\u002A*%
X82500000Y-111732927D03*
%TD*%
%TO.C,REF\u002A\u002A*%
X127950000Y-111732927D03*
%TD*%
%TO.C,REF\u002A\u002A*%
X135550000Y-109450000D03*
%TD*%
%TO.C,REF\u002A\u002A*%
X90100000Y-109450000D03*
%TD*%
%TO.C,REF\u002A\u002A*%
X118250000Y-113282927D03*
%TD*%
%TO.C,REF\u002A\u002A*%
X72800000Y-113282927D03*
%TD*%
%TO.C,REF\u002A\u002A*%
X118250000Y-115682927D03*
%TD*%
%TO.C,REF\u002A\u002A*%
X72800000Y-115682927D03*
%TD*%
%TO.C,REF\u002A\u002A*%
X112145634Y-109432927D03*
%TD*%
%TO.C,REF\u002A\u002A*%
X66695634Y-109432927D03*
%TD*%
D12*
%TO.C,J6*%
X135995635Y-116217073D03*
D13*
X135995635Y-115517073D03*
D12*
X135995635Y-114817073D03*
%TD*%
%TO.C,J6*%
X90545635Y-116217073D03*
D13*
X90545635Y-115517073D03*
D12*
X90545635Y-114817073D03*
%TD*%
D11*
%TO.C,REF\u002A\u002A*%
X127950000Y-114932927D03*
%TD*%
%TO.C,REF\u002A\u002A*%
X82500000Y-114932927D03*
%TD*%
%TO.C,REF\u002A\u002A*%
X121100000Y-106650000D03*
%TD*%
%TO.C,REF\u002A\u002A*%
X75650000Y-106650000D03*
%TD*%
%TO.C,REF\u002A\u002A*%
X105700000Y-106650000D03*
%TD*%
%TO.C,REF\u002A\u002A*%
X60250000Y-106650000D03*
%TD*%
%TO.C,REF\u002A\u002A*%
X104050000Y-109432927D03*
%TD*%
%TO.C,REF\u002A\u002A*%
X58600000Y-109432927D03*
%TD*%
%TO.C,REF\u002A\u002A*%
X122700000Y-106650000D03*
%TD*%
%TO.C,REF\u002A\u002A*%
X77250000Y-106650000D03*
%TD*%
%TO.C,REF\u002A\u002A*%
X108550000Y-110032927D03*
%TD*%
%TO.C,REF\u002A\u002A*%
X63100000Y-110032927D03*
%TD*%
%TO.C,REF\u002A\u002A*%
X106500000Y-106650000D03*
%TD*%
%TO.C,REF\u002A\u002A*%
X61050000Y-106650000D03*
%TD*%
%TO.C,REF\u002A\u002A*%
X122645634Y-109432927D03*
%TD*%
%TO.C,REF\u002A\u002A*%
X77195634Y-109432927D03*
%TD*%
%TO.C,REF\u002A\u002A*%
X125100000Y-106650000D03*
%TD*%
%TO.C,REF\u002A\u002A*%
X79650000Y-106650000D03*
%TD*%
%TO.C,REF\u002A\u002A*%
X102450000Y-109432927D03*
%TD*%
%TO.C,REF\u002A\u002A*%
X57000000Y-109432927D03*
%TD*%
%TO.C,REF\u002A\u002A*%
X130000000Y-106650000D03*
%TD*%
%TO.C,REF\u002A\u002A*%
X84550000Y-106650000D03*
%TD*%
%TO.C,REF\u002A\u002A*%
X108550000Y-114832927D03*
%TD*%
%TO.C,REF\u002A\u002A*%
X63100000Y-114832927D03*
%TD*%
%TO.C,REF\u002A\u002A*%
X133200000Y-106650000D03*
%TD*%
%TO.C,REF\u002A\u002A*%
X87750000Y-106650000D03*
%TD*%
%TO.C,REF\u002A\u002A*%
X134800000Y-106650000D03*
%TD*%
%TO.C,REF\u002A\u002A*%
X89350000Y-106650000D03*
%TD*%
%TO.C,REF\u002A\u002A*%
X124300000Y-106650000D03*
%TD*%
%TO.C,REF\u002A\u002A*%
X78850000Y-106650000D03*
%TD*%
%TO.C,REF\u002A\u002A*%
X112945634Y-109432927D03*
%TD*%
%TO.C,REF\u002A\u002A*%
X67495634Y-109432927D03*
%TD*%
%TO.C,REF\u002A\u002A*%
X118250000Y-110882927D03*
%TD*%
%TO.C,REF\u002A\u002A*%
X72800000Y-110882927D03*
%TD*%
%TO.C,REF\u002A\u002A*%
X104100000Y-106650000D03*
%TD*%
%TO.C,REF\u002A\u002A*%
X58650000Y-106650000D03*
%TD*%
%TO.C,REF\u002A\u002A*%
X127950000Y-110932927D03*
%TD*%
%TO.C,REF\u002A\u002A*%
X82500000Y-110932927D03*
%TD*%
%TO.C,REF\u002A\u002A*%
X121845634Y-109432927D03*
%TD*%
%TO.C,REF\u002A\u002A*%
X76395634Y-109432927D03*
%TD*%
%TO.C,REF\u002A\u002A*%
X125045634Y-109432927D03*
%TD*%
%TO.C,REF\u002A\u002A*%
X79595634Y-109432927D03*
%TD*%
%TO.C,REF\u002A\u002A*%
X135600000Y-106650000D03*
%TD*%
%TO.C,REF\u002A\u002A*%
X90150000Y-106650000D03*
%TD*%
%TO.C,REF\u002A\u002A*%
X112200000Y-106650000D03*
%TD*%
%TO.C,REF\u002A\u002A*%
X66750000Y-106650000D03*
%TD*%
D10*
%TO.C,H2*%
X100250000Y-102100000D03*
%TD*%
%TO.C,H2*%
X54800000Y-102100000D03*
%TD*%
D11*
%TO.C,REF\u002A\u002A*%
X129950000Y-109450000D03*
%TD*%
%TO.C,REF\u002A\u002A*%
X84500000Y-109450000D03*
%TD*%
%TO.C,REF\u002A\u002A*%
X132350000Y-109450000D03*
%TD*%
%TO.C,REF\u002A\u002A*%
X86900000Y-109450000D03*
%TD*%
%TO.C,REF\u002A\u002A*%
X127950000Y-113332927D03*
%TD*%
%TO.C,REF\u002A\u002A*%
X82500000Y-113332927D03*
%TD*%
%TO.C,REF\u002A\u002A*%
X105650000Y-109432927D03*
%TD*%
%TO.C,REF\u002A\u002A*%
X60200000Y-109432927D03*
%TD*%
%TO.C,REF\u002A\u002A*%
X108550000Y-114032927D03*
%TD*%
%TO.C,REF\u002A\u002A*%
X63100000Y-114032927D03*
%TD*%
%TO.C,REF\u002A\u002A*%
X103250000Y-109432927D03*
%TD*%
%TO.C,REF\u002A\u002A*%
X57800000Y-109432927D03*
%TD*%
%TO.C,REF\u002A\u002A*%
X127950000Y-110132927D03*
%TD*%
%TO.C,REF\u002A\u002A*%
X82500000Y-110132927D03*
%TD*%
%TO.C,REF\u002A\u002A*%
X130750000Y-109450000D03*
%TD*%
%TO.C,REF\u002A\u002A*%
X85300000Y-109450000D03*
%TD*%
%TO.C,REF\u002A\u002A*%
X118250000Y-114882927D03*
%TD*%
%TO.C,REF\u002A\u002A*%
X72800000Y-114882927D03*
%TD*%
D12*
%TO.C,J10*%
X116700000Y-114800000D03*
D13*
X116700000Y-115500000D03*
D12*
X116700000Y-116200000D03*
%TD*%
%TO.C,J10*%
X71250000Y-114800000D03*
D13*
X71250000Y-115500000D03*
D12*
X71250000Y-116200000D03*
%TD*%
D11*
%TO.C,REF\u002A\u002A*%
X115345634Y-109432927D03*
%TD*%
%TO.C,REF\u002A\u002A*%
X69895634Y-109432927D03*
%TD*%
%TO.C,REF\u002A\u002A*%
X120245634Y-109432927D03*
%TD*%
%TO.C,REF\u002A\u002A*%
X74795634Y-109432927D03*
%TD*%
D12*
%TO.C,J11*%
X110200000Y-114800000D03*
D13*
X110200000Y-115500000D03*
D12*
X110200000Y-116200000D03*
%TD*%
%TO.C,J11*%
X64750000Y-114800000D03*
D13*
X64750000Y-115500000D03*
D12*
X64750000Y-116200000D03*
%TD*%
%TO.C,J7*%
X129495635Y-116217073D03*
D13*
X129495635Y-115517073D03*
D12*
X129495635Y-114817073D03*
%TD*%
%TO.C,J7*%
X84045635Y-116217073D03*
D13*
X84045635Y-115517073D03*
D12*
X84045635Y-114817073D03*
%TD*%
D11*
%TO.C,REF\u002A\u002A*%
X114600000Y-106650000D03*
%TD*%
%TO.C,REF\u002A\u002A*%
X69150000Y-106650000D03*
%TD*%
%TO.C,REF\u002A\u002A*%
X102500000Y-106650000D03*
%TD*%
%TO.C,REF\u002A\u002A*%
X57050000Y-106650000D03*
%TD*%
%TO.C,REF\u002A\u002A*%
X108550000Y-113232927D03*
%TD*%
%TO.C,REF\u002A\u002A*%
X63100000Y-113232927D03*
%TD*%
D12*
%TO.C,J8*%
X106950000Y-116200000D03*
D13*
X106950000Y-115500000D03*
D12*
X106950000Y-114800000D03*
%TD*%
%TO.C,J8*%
X61500000Y-116200000D03*
D13*
X61500000Y-115500000D03*
D12*
X61500000Y-114800000D03*
%TD*%
D11*
%TO.C,REF\u002A\u002A*%
X103300000Y-106650000D03*
%TD*%
%TO.C,REF\u002A\u002A*%
X57850000Y-106650000D03*
%TD*%
%TO.C,REF\u002A\u002A*%
X118250000Y-110082927D03*
%TD*%
%TO.C,REF\u002A\u002A*%
X72800000Y-110082927D03*
%TD*%
%TO.C,REF\u002A\u002A*%
X101700000Y-106650000D03*
%TD*%
%TO.C,REF\u002A\u002A*%
X56250000Y-106650000D03*
%TD*%
%TO.C,REF\u002A\u002A*%
X100900000Y-106650000D03*
%TD*%
%TO.C,REF\u002A\u002A*%
X55450000Y-106650000D03*
%TD*%
%TO.C,REF\u002A\u002A*%
X120300000Y-106650000D03*
%TD*%
%TO.C,REF\u002A\u002A*%
X74850000Y-106650000D03*
%TD*%
%TO.C,REF\u002A\u002A*%
X110600000Y-106650000D03*
%TD*%
%TO.C,REF\u002A\u002A*%
X65150000Y-106650000D03*
%TD*%
%TO.C,REF\u002A\u002A*%
X114545634Y-109432927D03*
%TD*%
%TO.C,REF\u002A\u002A*%
X69095634Y-109432927D03*
%TD*%
D12*
%TO.C,J12*%
X126350000Y-114800000D03*
D13*
X126350000Y-115500000D03*
D12*
X126350000Y-116200000D03*
%TD*%
%TO.C,J12*%
X80900000Y-114800000D03*
D13*
X80900000Y-115500000D03*
D12*
X80900000Y-116200000D03*
%TD*%
D11*
%TO.C,REF\u002A\u002A*%
X113800000Y-106650000D03*
%TD*%
%TO.C,REF\u002A\u002A*%
X68350000Y-106650000D03*
%TD*%
%TO.C,REF\u002A\u002A*%
X134000000Y-106650000D03*
%TD*%
%TO.C,REF\u002A\u002A*%
X88550000Y-106650000D03*
%TD*%
D12*
%TO.C,J13*%
X119850000Y-114750000D03*
D13*
X119850000Y-115450000D03*
D12*
X119850000Y-116150000D03*
%TD*%
%TO.C,J13*%
X74400000Y-114750000D03*
D13*
X74400000Y-115450000D03*
D12*
X74400000Y-116150000D03*
%TD*%
D11*
%TO.C,REF\u002A\u002A*%
X131600000Y-106650000D03*
%TD*%
%TO.C,REF\u002A\u002A*%
X86150000Y-106650000D03*
%TD*%
%TO.C,REF\u002A\u002A*%
X133150000Y-109450000D03*
%TD*%
%TO.C,REF\u002A\u002A*%
X87700000Y-109450000D03*
%TD*%
%TO.C,REF\u002A\u002A*%
X100850000Y-109432927D03*
%TD*%
%TO.C,REF\u002A\u002A*%
X55400000Y-109432927D03*
%TD*%
%TO.C,REF\u002A\u002A*%
X118250000Y-114082927D03*
%TD*%
%TO.C,REF\u002A\u002A*%
X72800000Y-114082927D03*
%TD*%
%TO.C,REF\u002A\u002A*%
X127950000Y-114132927D03*
%TD*%
%TO.C,REF\u002A\u002A*%
X82500000Y-114132927D03*
%TD*%
D14*
%TO.C,J5*%
X107125000Y-102100000D03*
D15*
X109665000Y-102100000D03*
X112205000Y-102100000D03*
X114745000Y-102100000D03*
X117285000Y-102100000D03*
X119825000Y-102100000D03*
X122365000Y-102100000D03*
X124905000Y-102100000D03*
X127445000Y-102100000D03*
X129985000Y-102100000D03*
%TD*%
D14*
%TO.C,J5*%
X61675000Y-102100000D03*
D15*
X64215000Y-102100000D03*
X66755000Y-102100000D03*
X69295000Y-102100000D03*
X71835000Y-102100000D03*
X74375000Y-102100000D03*
X76915000Y-102100000D03*
X79455000Y-102100000D03*
X81995000Y-102100000D03*
X84535000Y-102100000D03*
%TD*%
D11*
%TO.C,REF\u002A\u002A*%
X123500000Y-106650000D03*
%TD*%
%TO.C,REF\u002A\u002A*%
X78050000Y-106650000D03*
%TD*%
%TO.C,REF\u002A\u002A*%
X108550000Y-110832927D03*
%TD*%
%TO.C,REF\u002A\u002A*%
X63100000Y-110832927D03*
%TD*%
%TO.C,REF\u002A\u002A*%
X104900000Y-106650000D03*
%TD*%
%TO.C,REF\u002A\u002A*%
X59450000Y-106650000D03*
%TD*%
%TO.C,REF\u002A\u002A*%
X110545634Y-109432927D03*
%TD*%
%TO.C,REF\u002A\u002A*%
X65095634Y-109432927D03*
%TD*%
%TO.C,REF\u002A\u002A*%
X104850000Y-109432927D03*
%TD*%
%TO.C,REF\u002A\u002A*%
X59400000Y-109432927D03*
%TD*%
%TO.C,REF\u002A\u002A*%
X133950000Y-109450000D03*
%TD*%
%TO.C,REF\u002A\u002A*%
X88500000Y-109450000D03*
%TD*%
%TO.C,REF\u002A\u002A*%
X115400000Y-106650000D03*
%TD*%
%TO.C,REF\u002A\u002A*%
X69950000Y-106650000D03*
%TD*%
D10*
%TO.C,H1*%
X100250000Y-50800000D03*
%TD*%
%TO.C,H1*%
X54800000Y-50800000D03*
%TD*%
D11*
%TO.C,REF\u002A\u002A*%
X106450000Y-109432927D03*
%TD*%
%TO.C,REF\u002A\u002A*%
X61000000Y-109432927D03*
%TD*%
%TO.C,REF\u002A\u002A*%
X125845634Y-109432927D03*
%TD*%
%TO.C,REF\u002A\u002A*%
X80395634Y-109432927D03*
%TD*%
%TO.C,REF\u002A\u002A*%
X108550000Y-112432927D03*
%TD*%
%TO.C,REF\u002A\u002A*%
X63100000Y-112432927D03*
%TD*%
D10*
%TO.C,H4*%
X136250000Y-102100000D03*
%TD*%
%TO.C,H4*%
X90800000Y-102100000D03*
%TD*%
D11*
%TO.C,REF\u002A\u002A*%
X121900000Y-106650000D03*
%TD*%
%TO.C,REF\u002A\u002A*%
X76450000Y-106650000D03*
%TD*%
D12*
%TO.C,J9*%
X100450000Y-116200000D03*
D13*
X100450000Y-115500000D03*
D12*
X100450000Y-114800000D03*
%TD*%
%TO.C,J9*%
X55000000Y-116200000D03*
D13*
X55000000Y-115500000D03*
D12*
X55000000Y-114800000D03*
%TD*%
D11*
%TO.C,REF\u002A\u002A*%
X108550000Y-115632927D03*
%TD*%
%TO.C,REF\u002A\u002A*%
X63100000Y-115632927D03*
%TD*%
%TO.C,REF\u002A\u002A*%
X125900000Y-106650000D03*
%TD*%
%TO.C,REF\u002A\u002A*%
X80450000Y-106650000D03*
%TD*%
%TO.C,REF\u002A\u002A*%
X101650000Y-109432927D03*
%TD*%
%TO.C,REF\u002A\u002A*%
X56200000Y-109432927D03*
%TD*%
%TO.C,REF\u002A\u002A*%
X116200000Y-106650000D03*
%TD*%
%TO.C,REF\u002A\u002A*%
X70750000Y-106650000D03*
%TD*%
%TO.C,REF\u002A\u002A*%
X116145634Y-109432927D03*
%TD*%
%TO.C,REF\u002A\u002A*%
X70695634Y-109432927D03*
%TD*%
%TO.C,REF\u002A\u002A*%
X123445634Y-109432927D03*
%TD*%
%TO.C,REF\u002A\u002A*%
X77995634Y-109432927D03*
%TD*%
%TO.C,REF\u002A\u002A*%
X111345634Y-109432927D03*
%TD*%
%TO.C,REF\u002A\u002A*%
X65895634Y-109432927D03*
%TD*%
%TO.C,REF\u002A\u002A*%
X131550000Y-109450000D03*
%TD*%
%TO.C,REF\u002A\u002A*%
X86100000Y-109450000D03*
%TD*%
%TO.C,REF\u002A\u002A*%
X118250000Y-112482927D03*
%TD*%
%TO.C,REF\u002A\u002A*%
X72800000Y-112482927D03*
%TD*%
%TO.C,REF\u002A\u002A*%
X134750000Y-109450000D03*
%TD*%
%TO.C,REF\u002A\u002A*%
X89300000Y-109450000D03*
%TD*%
%TO.C,REF\u002A\u002A*%
X113000000Y-106650000D03*
%TD*%
%TO.C,REF\u002A\u002A*%
X67550000Y-106650000D03*
%TD*%
%TO.C,REF\u002A\u002A*%
X124245634Y-109432927D03*
%TD*%
%TO.C,REF\u002A\u002A*%
X78795634Y-109432927D03*
%TD*%
%TO.C,REF\u002A\u002A*%
X130800000Y-106650000D03*
%TD*%
%TO.C,REF\u002A\u002A*%
X85350000Y-106650000D03*
%TD*%
%TO.C,REF\u002A\u002A*%
X121045634Y-109432927D03*
%TD*%
%TO.C,REF\u002A\u002A*%
X75595634Y-109432927D03*
%TD*%
%TO.C,REF\u002A\u002A*%
X127950000Y-112532927D03*
%TD*%
%TO.C,REF\u002A\u002A*%
X82500000Y-112532927D03*
%TD*%
D16*
%TO.C,*%
X46675000Y-113675000D03*
%TD*%
%TO.C,*%
X46675000Y-48825000D03*
%TD*%
%TO.C,*%
X144375000Y-48825000D03*
%TD*%
M02*
