%TF.GenerationSoftware,KiCad,Pcbnew,7.0.7*%
%TF.CreationDate,2023-10-25T17:49:02-07:00*%
%TF.ProjectId,sfh2430_breakout_panelized,73666832-3433-4305-9f62-7265616b6f75,rev?*%
%TF.SameCoordinates,Original*%
%TF.FileFunction,Copper,L2,Bot*%
%TF.FilePolarity,Positive*%
%FSLAX46Y46*%
G04 Gerber Fmt 4.6, Leading zero omitted, Abs format (unit mm)*
G04 Created by KiCad (PCBNEW 7.0.7) date 2023-10-25 17:49:02*
%MOMM*%
%LPD*%
G01*
G04 APERTURE LIST*
%TA.AperFunction,ComponentPad*%
%ADD10C,5.600000*%
%TD*%
%TA.AperFunction,CastellatedPad*%
%ADD11C,1.400000*%
%TD*%
%TA.AperFunction,SMDPad,CuDef*%
%ADD12R,1.400000X1.400000*%
%TD*%
%TA.AperFunction,ComponentPad*%
%ADD13R,1.700000X1.700000*%
%TD*%
%TA.AperFunction,ComponentPad*%
%ADD14O,1.700000X1.700000*%
%TD*%
%TA.AperFunction,SMDPad,CuDef*%
%ADD15C,1.500000*%
%TD*%
%TA.AperFunction,ViaPad*%
%ADD16C,0.800000*%
%TD*%
%TA.AperFunction,Conductor*%
%ADD17C,0.250000*%
%TD*%
G04 APERTURE END LIST*
D10*
%TO.P,H3,1,1*%
%TO.N,GND*%
X136250000Y-50800000D03*
%TD*%
%TO.P,H3,1,1*%
%TO.N,GND*%
X90800000Y-50800000D03*
%TD*%
D11*
%TO.P,J6,1,Pin_1*%
%TO.N,Net-(D1-K)*%
X135995635Y-116217073D03*
D12*
X135995635Y-115517073D03*
D11*
X135995635Y-114817073D03*
%TD*%
%TO.P,J6,1,Pin_1*%
%TO.N,Net-(D1-K)*%
X90545635Y-116217073D03*
D12*
X90545635Y-115517073D03*
D11*
X90545635Y-114817073D03*
%TD*%
D10*
%TO.P,H2,1,1*%
%TO.N,GND*%
X100250000Y-102100000D03*
%TD*%
%TO.P,H2,1,1*%
%TO.N,GND*%
X54800000Y-102100000D03*
%TD*%
D11*
%TO.P,J10,1,Pin_1*%
%TO.N,Net-(D3-K)*%
X116700000Y-114800000D03*
D12*
X116700000Y-115500000D03*
D11*
X116700000Y-116200000D03*
%TD*%
%TO.P,J10,1,Pin_1*%
%TO.N,Net-(D3-K)*%
X71250000Y-114800000D03*
D12*
X71250000Y-115500000D03*
D11*
X71250000Y-116200000D03*
%TD*%
%TO.P,J11,1,Pin_1*%
%TO.N,Net-(D3-A)*%
X110200000Y-114800000D03*
D12*
X110200000Y-115500000D03*
D11*
X110200000Y-116200000D03*
%TD*%
%TO.P,J11,1,Pin_1*%
%TO.N,Net-(D3-A)*%
X64750000Y-114800000D03*
D12*
X64750000Y-115500000D03*
D11*
X64750000Y-116200000D03*
%TD*%
%TO.P,J7,1,Pin_1*%
%TO.N,Net-(D1-A)*%
X129495635Y-116217073D03*
D12*
X129495635Y-115517073D03*
D11*
X129495635Y-114817073D03*
%TD*%
%TO.P,J7,1,Pin_1*%
%TO.N,Net-(D1-A)*%
X84045635Y-116217073D03*
D12*
X84045635Y-115517073D03*
D11*
X84045635Y-114817073D03*
%TD*%
%TO.P,J8,1,Pin_1*%
%TO.N,Net-(D2-K)*%
X106950000Y-116200000D03*
D12*
X106950000Y-115500000D03*
D11*
X106950000Y-114800000D03*
%TD*%
%TO.P,J8,1,Pin_1*%
%TO.N,Net-(D2-K)*%
X61500000Y-116200000D03*
D12*
X61500000Y-115500000D03*
D11*
X61500000Y-114800000D03*
%TD*%
%TO.P,J12,1,Pin_1*%
%TO.N,Net-(D4-K)*%
X126350000Y-114800000D03*
D12*
X126350000Y-115500000D03*
D11*
X126350000Y-116200000D03*
%TD*%
%TO.P,J12,1,Pin_1*%
%TO.N,Net-(D4-K)*%
X80900000Y-114800000D03*
D12*
X80900000Y-115500000D03*
D11*
X80900000Y-116200000D03*
%TD*%
%TO.P,J13,1,Pin_1*%
%TO.N,Net-(D4-A)*%
X119850000Y-114750000D03*
D12*
X119850000Y-115450000D03*
D11*
X119850000Y-116150000D03*
%TD*%
%TO.P,J13,1,Pin_1*%
%TO.N,Net-(D4-A)*%
X74400000Y-114750000D03*
D12*
X74400000Y-115450000D03*
D11*
X74400000Y-116150000D03*
%TD*%
D13*
%TO.P,J5,1,Pin_1*%
%TO.N,+3V3*%
X107125000Y-102100000D03*
D14*
%TO.P,J5,2,Pin_2*%
%TO.N,GND*%
X109665000Y-102100000D03*
%TO.P,J5,3,Pin_3*%
%TO.N,/OUTA*%
X112205000Y-102100000D03*
%TO.P,J5,4,Pin_4*%
%TO.N,GND*%
X114745000Y-102100000D03*
%TO.P,J5,5,Pin_5*%
%TO.N,/OUTB*%
X117285000Y-102100000D03*
%TO.P,J5,6,Pin_6*%
%TO.N,GND*%
X119825000Y-102100000D03*
%TO.P,J5,7,Pin_7*%
%TO.N,/OUTC*%
X122365000Y-102100000D03*
%TO.P,J5,8,Pin_8*%
%TO.N,GND*%
X124905000Y-102100000D03*
%TO.P,J5,9,Pin_9*%
%TO.N,/OUTD*%
X127445000Y-102100000D03*
%TO.P,J5,10,Pin_10*%
%TO.N,GND*%
X129985000Y-102100000D03*
%TD*%
D13*
%TO.P,J5,1,Pin_1*%
%TO.N,+3V3*%
X61675000Y-102100000D03*
D14*
%TO.P,J5,2,Pin_2*%
%TO.N,GND*%
X64215000Y-102100000D03*
%TO.P,J5,3,Pin_3*%
%TO.N,/OUTA*%
X66755000Y-102100000D03*
%TO.P,J5,4,Pin_4*%
%TO.N,GND*%
X69295000Y-102100000D03*
%TO.P,J5,5,Pin_5*%
%TO.N,/OUTB*%
X71835000Y-102100000D03*
%TO.P,J5,6,Pin_6*%
%TO.N,GND*%
X74375000Y-102100000D03*
%TO.P,J5,7,Pin_7*%
%TO.N,/OUTC*%
X76915000Y-102100000D03*
%TO.P,J5,8,Pin_8*%
%TO.N,GND*%
X79455000Y-102100000D03*
%TO.P,J5,9,Pin_9*%
%TO.N,/OUTD*%
X81995000Y-102100000D03*
%TO.P,J5,10,Pin_10*%
%TO.N,GND*%
X84535000Y-102100000D03*
%TD*%
D10*
%TO.P,H1,1,1*%
%TO.N,GND*%
X100250000Y-50800000D03*
%TD*%
%TO.P,H1,1,1*%
%TO.N,GND*%
X54800000Y-50800000D03*
%TD*%
%TO.P,H4,1,1*%
%TO.N,GND*%
X136250000Y-102100000D03*
%TD*%
%TO.P,H4,1,1*%
%TO.N,GND*%
X90800000Y-102100000D03*
%TD*%
D11*
%TO.P,J9,1,Pin_1*%
%TO.N,Net-(D2-A)*%
X100450000Y-116200000D03*
D12*
X100450000Y-115500000D03*
D11*
X100450000Y-114800000D03*
%TD*%
%TO.P,J9,1,Pin_1*%
%TO.N,Net-(D2-A)*%
X55000000Y-116200000D03*
D12*
X55000000Y-115500000D03*
D11*
X55000000Y-114800000D03*
%TD*%
D15*
%TO.P,,*%
%TO.N,*%
X46675000Y-113675000D03*
%TD*%
%TO.P,,*%
%TO.N,*%
X46675000Y-48825000D03*
%TD*%
%TO.P,,*%
%TO.N,*%
X144375000Y-48825000D03*
%TD*%
D16*
%TO.N,/OUTA*%
X112750000Y-88800000D03*
X67300000Y-88800000D03*
%TO.N,Net-(J2-Pin_2)*%
X62300000Y-95800000D03*
X104300000Y-92750000D03*
X107750000Y-95800000D03*
X58850000Y-92750000D03*
%TO.N,/OUTD*%
X82000000Y-89250000D03*
X127450000Y-89250000D03*
%TO.N,GND*%
X87250000Y-61950000D03*
X87250000Y-59450000D03*
X132700000Y-61950000D03*
X132700000Y-59450000D03*
%TO.N,Net-(J3-Pin_2)*%
X134950000Y-91900000D03*
X129100000Y-91900000D03*
X83650000Y-91900000D03*
X89500000Y-91900000D03*
%TD*%
D17*
%TO.N,/OUTA*%
X66755000Y-89345000D02*
X66755000Y-102100000D01*
X67300000Y-88800000D02*
X66755000Y-89345000D01*
X112205000Y-89345000D02*
X112205000Y-102100000D01*
X112750000Y-88800000D02*
X112205000Y-89345000D01*
%TO.N,Net-(J2-Pin_2)*%
X61900000Y-95800000D02*
X62300000Y-95800000D01*
X58850000Y-92750000D02*
X61900000Y-95800000D01*
X107350000Y-95800000D02*
X107750000Y-95800000D01*
X104300000Y-92750000D02*
X107350000Y-95800000D01*
%TO.N,/OUTD*%
X127450000Y-89250000D02*
X127445000Y-89255000D01*
X127445000Y-89255000D02*
X127445000Y-102100000D01*
X81995000Y-89255000D02*
X81995000Y-102100000D01*
X82000000Y-89250000D02*
X81995000Y-89255000D01*
%TO.N,+3V3*%
X61675000Y-102100000D02*
X61675000Y-101825000D01*
X61675000Y-101825000D02*
X61400000Y-101550000D01*
X107125000Y-102100000D02*
X107125000Y-101825000D01*
X107125000Y-101825000D02*
X106850000Y-101550000D01*
%TO.N,Net-(J3-Pin_2)*%
X89500000Y-91900000D02*
X83650000Y-91900000D01*
X134950000Y-91900000D02*
X129100000Y-91900000D01*
%TD*%
%TA.AperFunction,Conductor*%
%TO.N,GND*%
G36*
X137751619Y-46300584D02*
G01*
X137883628Y-46307503D01*
X138067027Y-46317803D01*
X138073212Y-46318465D01*
X138225647Y-46342608D01*
X138388194Y-46370226D01*
X138393811Y-46371453D01*
X138546693Y-46412418D01*
X138639122Y-46439046D01*
X138701724Y-46457082D01*
X138706759Y-46458769D01*
X138856183Y-46516127D01*
X139004007Y-46577358D01*
X139008412Y-46579388D01*
X139074180Y-46612899D01*
X139151921Y-46652511D01*
X139227428Y-46694241D01*
X139291480Y-46729641D01*
X139295215Y-46731882D01*
X139369487Y-46780115D01*
X139430872Y-46819980D01*
X139518357Y-46882053D01*
X139560764Y-46912142D01*
X139563886Y-46914510D01*
X139688748Y-47015621D01*
X139691034Y-47017567D01*
X139808721Y-47122738D01*
X139811248Y-47125128D01*
X139924870Y-47238750D01*
X139927260Y-47241277D01*
X140032431Y-47358964D01*
X140034385Y-47361260D01*
X140135480Y-47486102D01*
X140137862Y-47489243D01*
X140230019Y-47619127D01*
X140283758Y-47701875D01*
X140318106Y-47754767D01*
X140320364Y-47758531D01*
X140397488Y-47898078D01*
X140470604Y-48041575D01*
X140472643Y-48045997D01*
X140533877Y-48193829D01*
X140591221Y-48343217D01*
X140592916Y-48348273D01*
X140637579Y-48503297D01*
X140678541Y-48656171D01*
X140679778Y-48661835D01*
X140707394Y-48824369D01*
X140731530Y-48976758D01*
X140732196Y-48982985D01*
X140742509Y-49166617D01*
X140749415Y-49298377D01*
X140749500Y-49301623D01*
X140749500Y-103598376D01*
X140749415Y-103601622D01*
X140742509Y-103733382D01*
X140732196Y-103917013D01*
X140731530Y-103923240D01*
X140707394Y-104075630D01*
X140679778Y-104238163D01*
X140678541Y-104243827D01*
X140637579Y-104396702D01*
X140592916Y-104551725D01*
X140591221Y-104556781D01*
X140533877Y-104706170D01*
X140472643Y-104854001D01*
X140470604Y-104858423D01*
X140397488Y-105001921D01*
X140320364Y-105141467D01*
X140318097Y-105145246D01*
X140230019Y-105280872D01*
X140137862Y-105410755D01*
X140135480Y-105413896D01*
X140034385Y-105538738D01*
X140032431Y-105541034D01*
X139927260Y-105658721D01*
X139924870Y-105661248D01*
X139811248Y-105774870D01*
X139808721Y-105777260D01*
X139691034Y-105882431D01*
X139688738Y-105884385D01*
X139563896Y-105985480D01*
X139560755Y-105987862D01*
X139430872Y-106080019D01*
X139295246Y-106168097D01*
X139291467Y-106170364D01*
X139151921Y-106247488D01*
X139008423Y-106320604D01*
X139004001Y-106322643D01*
X138856170Y-106383877D01*
X138706781Y-106441221D01*
X138701725Y-106442916D01*
X138546702Y-106487579D01*
X138393827Y-106528541D01*
X138388163Y-106529778D01*
X138225630Y-106557394D01*
X138073240Y-106581530D01*
X138067013Y-106582196D01*
X137883382Y-106592509D01*
X137751622Y-106599415D01*
X137748376Y-106599500D01*
X136981903Y-106599500D01*
X136748633Y-106636446D01*
X136725599Y-106643931D01*
X136687280Y-106650000D01*
X136214455Y-106650000D01*
X136147416Y-106630315D01*
X136101661Y-106577511D01*
X136095478Y-106560934D01*
X136059954Y-106439949D01*
X136023919Y-106383877D01*
X135982143Y-106318872D01*
X135873373Y-106224623D01*
X135814296Y-106197643D01*
X135742456Y-106164834D01*
X135662611Y-106153355D01*
X135635799Y-106149500D01*
X135564201Y-106149500D01*
X135550794Y-106151427D01*
X135457543Y-106164834D01*
X135326628Y-106224622D01*
X135326626Y-106224623D01*
X135281201Y-106263984D01*
X135217644Y-106293008D01*
X135148486Y-106283064D01*
X135118796Y-106263982D01*
X135073377Y-106224625D01*
X135073371Y-106224622D01*
X134942456Y-106164834D01*
X134862611Y-106153355D01*
X134835799Y-106149500D01*
X134764201Y-106149500D01*
X134750794Y-106151427D01*
X134657543Y-106164834D01*
X134526628Y-106224622D01*
X134526622Y-106224625D01*
X134481202Y-106263983D01*
X134417647Y-106293008D01*
X134348488Y-106283064D01*
X134318798Y-106263983D01*
X134273377Y-106224625D01*
X134273371Y-106224622D01*
X134142456Y-106164834D01*
X134062611Y-106153355D01*
X134035799Y-106149500D01*
X133964201Y-106149500D01*
X133950794Y-106151427D01*
X133857543Y-106164834D01*
X133726628Y-106224622D01*
X133726622Y-106224625D01*
X133681202Y-106263983D01*
X133617647Y-106293008D01*
X133548488Y-106283064D01*
X133518798Y-106263983D01*
X133473377Y-106224625D01*
X133473371Y-106224622D01*
X133342456Y-106164834D01*
X133262611Y-106153355D01*
X133235799Y-106149500D01*
X133164201Y-106149500D01*
X133150794Y-106151427D01*
X133057543Y-106164834D01*
X132926628Y-106224622D01*
X132926622Y-106224625D01*
X132881202Y-106263983D01*
X132817647Y-106293008D01*
X132748488Y-106283064D01*
X132718798Y-106263983D01*
X132673377Y-106224625D01*
X132673371Y-106224622D01*
X132542456Y-106164834D01*
X132462611Y-106153355D01*
X132435799Y-106149500D01*
X132364201Y-106149500D01*
X132350794Y-106151427D01*
X132257543Y-106164834D01*
X132126628Y-106224622D01*
X132126622Y-106224625D01*
X132081202Y-106263983D01*
X132017647Y-106293008D01*
X131948488Y-106283064D01*
X131918798Y-106263983D01*
X131873377Y-106224625D01*
X131873371Y-106224622D01*
X131742456Y-106164834D01*
X131662611Y-106153355D01*
X131635799Y-106149500D01*
X131564201Y-106149500D01*
X131550794Y-106151427D01*
X131457543Y-106164834D01*
X131326628Y-106224622D01*
X131326622Y-106224625D01*
X131281202Y-106263983D01*
X131217647Y-106293008D01*
X131148488Y-106283064D01*
X131118798Y-106263983D01*
X131073377Y-106224625D01*
X131073371Y-106224622D01*
X130942456Y-106164834D01*
X130862611Y-106153355D01*
X130835799Y-106149500D01*
X130764201Y-106149500D01*
X130750794Y-106151427D01*
X130657543Y-106164834D01*
X130526628Y-106224622D01*
X130526622Y-106224625D01*
X130481202Y-106263983D01*
X130417647Y-106293008D01*
X130348488Y-106283064D01*
X130318798Y-106263983D01*
X130273377Y-106224625D01*
X130273371Y-106224622D01*
X130142456Y-106164834D01*
X130062611Y-106153355D01*
X130035799Y-106149500D01*
X129964201Y-106149500D01*
X129950794Y-106151427D01*
X129857543Y-106164834D01*
X129726628Y-106224622D01*
X129726626Y-106224623D01*
X129617856Y-106318873D01*
X129540045Y-106439949D01*
X129504522Y-106560934D01*
X129466748Y-106619713D01*
X129403193Y-106648738D01*
X129385545Y-106650000D01*
X128912720Y-106650000D01*
X128874401Y-106643931D01*
X128851366Y-106636446D01*
X128618097Y-106599500D01*
X128618092Y-106599500D01*
X128500099Y-106599500D01*
X127400500Y-106599500D01*
X127400000Y-106599500D01*
X127281908Y-106599500D01*
X127281903Y-106599500D01*
X127048633Y-106636446D01*
X127025599Y-106643931D01*
X126987280Y-106650000D01*
X126514455Y-106650000D01*
X126447416Y-106630315D01*
X126401661Y-106577511D01*
X126395478Y-106560934D01*
X126359954Y-106439949D01*
X126323919Y-106383877D01*
X126282143Y-106318872D01*
X126173373Y-106224623D01*
X126114296Y-106197643D01*
X126042456Y-106164834D01*
X125962611Y-106153355D01*
X125935799Y-106149500D01*
X125864201Y-106149500D01*
X125850794Y-106151427D01*
X125757543Y-106164834D01*
X125626628Y-106224622D01*
X125626622Y-106224625D01*
X125581201Y-106263983D01*
X125517645Y-106293007D01*
X125448487Y-106283063D01*
X125418799Y-106263983D01*
X125373377Y-106224625D01*
X125373371Y-106224622D01*
X125242456Y-106164834D01*
X125162611Y-106153355D01*
X125135799Y-106149500D01*
X125064201Y-106149500D01*
X125050794Y-106151427D01*
X124957543Y-106164834D01*
X124826628Y-106224622D01*
X124826622Y-106224625D01*
X124781201Y-106263983D01*
X124717645Y-106293007D01*
X124648487Y-106283063D01*
X124618799Y-106263983D01*
X124573377Y-106224625D01*
X124573371Y-106224622D01*
X124442456Y-106164834D01*
X124362611Y-106153355D01*
X124335799Y-106149500D01*
X124264201Y-106149500D01*
X124250794Y-106151427D01*
X124157543Y-106164834D01*
X124026628Y-106224622D01*
X124026622Y-106224625D01*
X123981201Y-106263983D01*
X123917645Y-106293007D01*
X123848487Y-106283063D01*
X123818799Y-106263983D01*
X123773377Y-106224625D01*
X123773371Y-106224622D01*
X123642456Y-106164834D01*
X123562611Y-106153355D01*
X123535799Y-106149500D01*
X123464201Y-106149500D01*
X123450794Y-106151427D01*
X123357543Y-106164834D01*
X123226628Y-106224622D01*
X123226622Y-106224625D01*
X123181201Y-106263983D01*
X123117645Y-106293007D01*
X123048487Y-106283063D01*
X123018799Y-106263983D01*
X122973377Y-106224625D01*
X122973371Y-106224622D01*
X122842456Y-106164834D01*
X122762611Y-106153355D01*
X122735799Y-106149500D01*
X122664201Y-106149500D01*
X122650794Y-106151427D01*
X122557543Y-106164834D01*
X122426628Y-106224622D01*
X122426622Y-106224625D01*
X122381201Y-106263983D01*
X122317645Y-106293007D01*
X122248487Y-106283063D01*
X122218799Y-106263983D01*
X122173377Y-106224625D01*
X122173371Y-106224622D01*
X122042456Y-106164834D01*
X121962611Y-106153355D01*
X121935799Y-106149500D01*
X121864201Y-106149500D01*
X121850794Y-106151427D01*
X121757543Y-106164834D01*
X121626628Y-106224622D01*
X121626622Y-106224625D01*
X121581201Y-106263983D01*
X121517645Y-106293007D01*
X121448487Y-106283063D01*
X121418799Y-106263983D01*
X121373377Y-106224625D01*
X121373371Y-106224622D01*
X121242456Y-106164834D01*
X121162611Y-106153355D01*
X121135799Y-106149500D01*
X121064201Y-106149500D01*
X121050794Y-106151427D01*
X120957543Y-106164834D01*
X120826628Y-106224622D01*
X120826622Y-106224625D01*
X120781201Y-106263983D01*
X120717645Y-106293007D01*
X120648487Y-106283063D01*
X120618799Y-106263983D01*
X120573377Y-106224625D01*
X120573371Y-106224622D01*
X120442456Y-106164834D01*
X120362611Y-106153355D01*
X120335799Y-106149500D01*
X120264201Y-106149500D01*
X120250794Y-106151427D01*
X120157543Y-106164834D01*
X120026628Y-106224622D01*
X120026626Y-106224623D01*
X119917856Y-106318873D01*
X119840045Y-106439949D01*
X119804522Y-106560934D01*
X119766748Y-106619713D01*
X119703193Y-106648738D01*
X119685545Y-106650000D01*
X119212720Y-106650000D01*
X119174401Y-106643931D01*
X119151366Y-106636446D01*
X118918097Y-106599500D01*
X118918092Y-106599500D01*
X118800099Y-106599500D01*
X117700500Y-106599500D01*
X117700000Y-106599500D01*
X117581908Y-106599500D01*
X117581903Y-106599500D01*
X117348633Y-106636446D01*
X117325599Y-106643931D01*
X117287280Y-106650000D01*
X116814455Y-106650000D01*
X116747416Y-106630315D01*
X116701661Y-106577511D01*
X116695478Y-106560934D01*
X116659954Y-106439949D01*
X116623919Y-106383877D01*
X116582143Y-106318872D01*
X116473373Y-106224623D01*
X116414296Y-106197643D01*
X116342456Y-106164834D01*
X116262611Y-106153355D01*
X116235799Y-106149500D01*
X116164201Y-106149500D01*
X116150794Y-106151427D01*
X116057543Y-106164834D01*
X115926628Y-106224622D01*
X115926622Y-106224625D01*
X115881202Y-106263983D01*
X115817647Y-106293008D01*
X115748488Y-106283064D01*
X115718798Y-106263983D01*
X115673377Y-106224625D01*
X115673371Y-106224622D01*
X115542456Y-106164834D01*
X115462611Y-106153355D01*
X115435799Y-106149500D01*
X115364201Y-106149500D01*
X115350794Y-106151427D01*
X115257543Y-106164834D01*
X115126628Y-106224622D01*
X115126622Y-106224625D01*
X115081202Y-106263983D01*
X115017647Y-106293008D01*
X114948488Y-106283064D01*
X114918798Y-106263983D01*
X114873377Y-106224625D01*
X114873371Y-106224622D01*
X114742456Y-106164834D01*
X114662611Y-106153355D01*
X114635799Y-106149500D01*
X114564201Y-106149500D01*
X114550794Y-106151427D01*
X114457543Y-106164834D01*
X114326628Y-106224622D01*
X114326622Y-106224625D01*
X114281202Y-106263983D01*
X114217647Y-106293008D01*
X114148488Y-106283064D01*
X114118798Y-106263983D01*
X114073377Y-106224625D01*
X114073371Y-106224622D01*
X113942456Y-106164834D01*
X113862611Y-106153355D01*
X113835799Y-106149500D01*
X113764201Y-106149500D01*
X113750794Y-106151427D01*
X113657543Y-106164834D01*
X113526628Y-106224622D01*
X113526622Y-106224625D01*
X113481202Y-106263983D01*
X113417647Y-106293008D01*
X113348488Y-106283064D01*
X113318798Y-106263983D01*
X113273377Y-106224625D01*
X113273371Y-106224622D01*
X113142456Y-106164834D01*
X113062611Y-106153355D01*
X113035799Y-106149500D01*
X112964201Y-106149500D01*
X112950794Y-106151427D01*
X112857543Y-106164834D01*
X112726628Y-106224622D01*
X112726622Y-106224625D01*
X112681202Y-106263983D01*
X112617647Y-106293008D01*
X112548488Y-106283064D01*
X112518798Y-106263983D01*
X112473377Y-106224625D01*
X112473371Y-106224622D01*
X112342456Y-106164834D01*
X112262611Y-106153355D01*
X112235799Y-106149500D01*
X112164201Y-106149500D01*
X112150794Y-106151427D01*
X112057543Y-106164834D01*
X111926628Y-106224622D01*
X111926626Y-106224623D01*
X111881201Y-106263984D01*
X111817644Y-106293008D01*
X111748486Y-106283064D01*
X111718796Y-106263982D01*
X111673377Y-106224625D01*
X111673371Y-106224622D01*
X111542456Y-106164834D01*
X111462611Y-106153355D01*
X111435799Y-106149500D01*
X111364201Y-106149500D01*
X111350794Y-106151427D01*
X111257543Y-106164834D01*
X111126628Y-106224622D01*
X111126622Y-106224625D01*
X111081202Y-106263983D01*
X111017647Y-106293008D01*
X110948488Y-106283064D01*
X110918798Y-106263983D01*
X110873377Y-106224625D01*
X110873371Y-106224622D01*
X110742456Y-106164834D01*
X110662611Y-106153355D01*
X110635799Y-106149500D01*
X110564201Y-106149500D01*
X110550794Y-106151427D01*
X110457543Y-106164834D01*
X110326628Y-106224622D01*
X110326626Y-106224623D01*
X110217856Y-106318873D01*
X110140045Y-106439949D01*
X110104522Y-106560934D01*
X110066748Y-106619713D01*
X110003193Y-106648738D01*
X109985545Y-106650000D01*
X109512720Y-106650000D01*
X109474401Y-106643931D01*
X109451366Y-106636446D01*
X109218097Y-106599500D01*
X109218092Y-106599500D01*
X109100099Y-106599500D01*
X108000500Y-106599500D01*
X108000000Y-106599500D01*
X107881908Y-106599500D01*
X107881903Y-106599500D01*
X107648633Y-106636446D01*
X107625599Y-106643931D01*
X107587280Y-106650000D01*
X107114455Y-106650000D01*
X107047416Y-106630315D01*
X107001661Y-106577511D01*
X106995478Y-106560934D01*
X106959954Y-106439949D01*
X106923919Y-106383877D01*
X106882143Y-106318872D01*
X106773373Y-106224623D01*
X106714296Y-106197643D01*
X106642456Y-106164834D01*
X106562611Y-106153355D01*
X106535799Y-106149500D01*
X106464201Y-106149500D01*
X106450794Y-106151427D01*
X106357543Y-106164834D01*
X106226628Y-106224622D01*
X106226622Y-106224625D01*
X106181202Y-106263983D01*
X106117647Y-106293008D01*
X106048488Y-106283064D01*
X106018798Y-106263983D01*
X105973377Y-106224625D01*
X105973371Y-106224622D01*
X105842456Y-106164834D01*
X105762611Y-106153355D01*
X105735799Y-106149500D01*
X105664201Y-106149500D01*
X105650794Y-106151427D01*
X105557543Y-106164834D01*
X105426628Y-106224622D01*
X105426626Y-106224623D01*
X105381201Y-106263984D01*
X105317644Y-106293008D01*
X105248486Y-106283064D01*
X105218796Y-106263982D01*
X105173377Y-106224625D01*
X105173371Y-106224622D01*
X105042456Y-106164834D01*
X104962611Y-106153355D01*
X104935799Y-106149500D01*
X104864201Y-106149500D01*
X104850794Y-106151427D01*
X104757543Y-106164834D01*
X104626628Y-106224622D01*
X104626622Y-106224625D01*
X104581202Y-106263983D01*
X104517647Y-106293008D01*
X104448488Y-106283064D01*
X104418798Y-106263983D01*
X104373377Y-106224625D01*
X104373371Y-106224622D01*
X104242456Y-106164834D01*
X104162611Y-106153355D01*
X104135799Y-106149500D01*
X104064201Y-106149500D01*
X104050794Y-106151427D01*
X103957543Y-106164834D01*
X103826628Y-106224622D01*
X103826626Y-106224623D01*
X103781201Y-106263984D01*
X103717644Y-106293008D01*
X103648486Y-106283064D01*
X103618796Y-106263982D01*
X103573377Y-106224625D01*
X103573371Y-106224622D01*
X103442456Y-106164834D01*
X103362611Y-106153355D01*
X103335799Y-106149500D01*
X103264201Y-106149500D01*
X103250794Y-106151427D01*
X103157543Y-106164834D01*
X103026628Y-106224622D01*
X103026622Y-106224625D01*
X102981202Y-106263983D01*
X102917647Y-106293008D01*
X102848488Y-106283064D01*
X102818798Y-106263983D01*
X102773377Y-106224625D01*
X102773371Y-106224622D01*
X102642456Y-106164834D01*
X102562611Y-106153355D01*
X102535799Y-106149500D01*
X102464201Y-106149500D01*
X102450794Y-106151427D01*
X102357543Y-106164834D01*
X102226628Y-106224622D01*
X102226626Y-106224623D01*
X102181201Y-106263984D01*
X102117644Y-106293008D01*
X102048486Y-106283064D01*
X102018796Y-106263982D01*
X101973377Y-106224625D01*
X101973371Y-106224622D01*
X101842456Y-106164834D01*
X101762611Y-106153355D01*
X101735799Y-106149500D01*
X101664201Y-106149500D01*
X101650794Y-106151427D01*
X101557543Y-106164834D01*
X101426628Y-106224622D01*
X101426622Y-106224625D01*
X101381202Y-106263983D01*
X101317647Y-106293008D01*
X101248488Y-106283064D01*
X101218798Y-106263983D01*
X101173377Y-106224625D01*
X101173371Y-106224622D01*
X101042456Y-106164834D01*
X100962611Y-106153355D01*
X100935799Y-106149500D01*
X100864201Y-106149500D01*
X100850794Y-106151427D01*
X100757543Y-106164834D01*
X100626628Y-106224622D01*
X100626626Y-106224623D01*
X100517856Y-106318873D01*
X100440045Y-106439949D01*
X100404522Y-106560934D01*
X100366748Y-106619713D01*
X100303193Y-106648738D01*
X100285545Y-106650000D01*
X99812720Y-106650000D01*
X99774401Y-106643931D01*
X99751366Y-106636446D01*
X99518097Y-106599500D01*
X99518092Y-106599500D01*
X99400099Y-106599500D01*
X98751624Y-106599500D01*
X98748378Y-106599415D01*
X98616617Y-106592509D01*
X98432985Y-106582196D01*
X98426758Y-106581530D01*
X98274369Y-106557394D01*
X98111835Y-106529778D01*
X98106171Y-106528541D01*
X97953297Y-106487579D01*
X97798273Y-106442916D01*
X97793217Y-106441221D01*
X97643829Y-106383877D01*
X97495997Y-106322643D01*
X97491575Y-106320604D01*
X97348078Y-106247488D01*
X97208531Y-106170364D01*
X97204767Y-106168106D01*
X97151875Y-106133758D01*
X97069127Y-106080019D01*
X96939243Y-105987862D01*
X96936102Y-105985480D01*
X96811260Y-105884385D01*
X96808964Y-105882431D01*
X96691277Y-105777260D01*
X96688750Y-105774870D01*
X96575128Y-105661248D01*
X96572738Y-105658721D01*
X96467567Y-105541034D01*
X96465613Y-105538738D01*
X96426848Y-105490867D01*
X96364510Y-105413886D01*
X96362136Y-105410755D01*
X96354504Y-105399999D01*
X96327054Y-105361311D01*
X96269980Y-105280872D01*
X96237406Y-105230715D01*
X96181882Y-105145215D01*
X96179641Y-105141480D01*
X96112434Y-105019876D01*
X96102511Y-105001921D01*
X96062899Y-104924180D01*
X96029388Y-104858412D01*
X96027358Y-104854007D01*
X95966122Y-104706170D01*
X95908769Y-104556759D01*
X95907082Y-104551724D01*
X95862420Y-104396702D01*
X95857316Y-104377652D01*
X95821453Y-104243811D01*
X95820226Y-104238194D01*
X95792601Y-104075606D01*
X95768465Y-103923212D01*
X95767803Y-103917027D01*
X95757490Y-103733382D01*
X95750584Y-103601620D01*
X95750500Y-103598377D01*
X95750500Y-102100002D01*
X96945153Y-102100002D01*
X96964526Y-102457314D01*
X96964527Y-102457331D01*
X97022415Y-102810431D01*
X97022421Y-102810457D01*
X97118147Y-103155232D01*
X97118149Y-103155239D01*
X97250597Y-103487659D01*
X97250606Y-103487677D01*
X97418218Y-103803827D01*
X97619033Y-104100007D01*
X97746441Y-104250003D01*
X97746442Y-104250004D01*
X98857413Y-103139032D01*
X98918736Y-103105547D01*
X98988427Y-103110531D01*
X99039381Y-103146179D01*
X99115130Y-103234870D01*
X99160987Y-103274035D01*
X99203816Y-103310615D01*
X99242009Y-103369122D01*
X99242507Y-103438990D01*
X99210965Y-103492586D01*
X98097255Y-104606295D01*
X98097256Y-104606296D01*
X98110485Y-104618828D01*
X98110486Y-104618829D01*
X98395367Y-104835388D01*
X98395370Y-104835390D01*
X98701990Y-105019876D01*
X99026739Y-105170122D01*
X99026744Y-105170123D01*
X99365855Y-105284383D01*
X99715339Y-105361311D01*
X100071075Y-105399999D01*
X100071085Y-105400000D01*
X100428915Y-105400000D01*
X100428924Y-105399999D01*
X100784660Y-105361311D01*
X101134144Y-105284383D01*
X101473255Y-105170123D01*
X101473260Y-105170122D01*
X101798009Y-105019876D01*
X102104629Y-104835390D01*
X102104632Y-104835388D01*
X102389504Y-104618836D01*
X102402742Y-104606294D01*
X101289033Y-103492586D01*
X101255548Y-103431263D01*
X101260532Y-103361571D01*
X101296180Y-103310617D01*
X101384870Y-103234870D01*
X101460617Y-103146180D01*
X101519121Y-103107990D01*
X101588989Y-103107490D01*
X101642586Y-103139033D01*
X102753556Y-104250003D01*
X102880964Y-104100008D01*
X102880975Y-104099994D01*
X103081781Y-103803827D01*
X103249393Y-103487677D01*
X103249402Y-103487659D01*
X103381850Y-103155239D01*
X103381852Y-103155232D01*
X103425543Y-102997870D01*
X105774500Y-102997870D01*
X105774501Y-102997876D01*
X105780908Y-103057483D01*
X105831202Y-103192328D01*
X105831206Y-103192335D01*
X105917452Y-103307544D01*
X105917455Y-103307547D01*
X106032664Y-103393793D01*
X106032671Y-103393797D01*
X106167517Y-103444091D01*
X106167516Y-103444091D01*
X106174444Y-103444835D01*
X106227127Y-103450500D01*
X108022872Y-103450499D01*
X108082483Y-103444091D01*
X108217331Y-103393796D01*
X108332546Y-103307546D01*
X108418796Y-103192331D01*
X108468002Y-103060401D01*
X108509872Y-103004468D01*
X108575337Y-102980050D01*
X108643610Y-102994901D01*
X108671865Y-103016053D01*
X108793917Y-103138105D01*
X108987421Y-103273600D01*
X109201507Y-103373429D01*
X109201516Y-103373433D01*
X109415000Y-103430634D01*
X109415000Y-102712301D01*
X109434685Y-102645262D01*
X109487489Y-102599507D01*
X109556647Y-102589563D01*
X109629237Y-102600000D01*
X109629238Y-102600000D01*
X109700762Y-102600000D01*
X109700763Y-102600000D01*
X109773353Y-102589563D01*
X109842512Y-102599507D01*
X109895315Y-102645262D01*
X109915000Y-102712301D01*
X109915000Y-103430633D01*
X110128483Y-103373433D01*
X110128492Y-103373429D01*
X110342578Y-103273600D01*
X110536082Y-103138105D01*
X110703105Y-102971082D01*
X110833119Y-102785405D01*
X110887696Y-102741781D01*
X110957195Y-102734588D01*
X111019549Y-102766110D01*
X111036269Y-102785405D01*
X111166505Y-102971401D01*
X111333599Y-103138495D01*
X111430384Y-103206264D01*
X111527165Y-103274032D01*
X111527167Y-103274033D01*
X111527170Y-103274035D01*
X111741337Y-103373903D01*
X111969592Y-103435063D01*
X112146034Y-103450500D01*
X112204999Y-103455659D01*
X112205000Y-103455659D01*
X112205001Y-103455659D01*
X112263966Y-103450500D01*
X112440408Y-103435063D01*
X112668663Y-103373903D01*
X112882830Y-103274035D01*
X113076401Y-103138495D01*
X113243495Y-102971401D01*
X113373730Y-102785405D01*
X113428307Y-102741781D01*
X113497805Y-102734587D01*
X113560160Y-102766110D01*
X113576879Y-102785405D01*
X113706890Y-102971078D01*
X113873917Y-103138105D01*
X114067421Y-103273600D01*
X114281507Y-103373429D01*
X114281516Y-103373433D01*
X114495000Y-103430634D01*
X114495000Y-102712301D01*
X114514685Y-102645262D01*
X114567489Y-102599507D01*
X114636647Y-102589563D01*
X114709237Y-102600000D01*
X114709238Y-102600000D01*
X114780762Y-102600000D01*
X114780763Y-102600000D01*
X114853353Y-102589563D01*
X114922512Y-102599507D01*
X114975315Y-102645262D01*
X114995000Y-102712301D01*
X114995000Y-103430633D01*
X115208483Y-103373433D01*
X115208492Y-103373429D01*
X115422578Y-103273600D01*
X115616082Y-103138105D01*
X115783105Y-102971082D01*
X115913119Y-102785405D01*
X115967696Y-102741781D01*
X116037195Y-102734588D01*
X116099549Y-102766110D01*
X116116269Y-102785405D01*
X116246505Y-102971401D01*
X116413599Y-103138495D01*
X116510384Y-103206264D01*
X116607165Y-103274032D01*
X116607167Y-103274033D01*
X116607170Y-103274035D01*
X116821337Y-103373903D01*
X117049592Y-103435063D01*
X117226034Y-103450500D01*
X117284999Y-103455659D01*
X117285000Y-103455659D01*
X117285001Y-103455659D01*
X117343966Y-103450500D01*
X117520408Y-103435063D01*
X117748663Y-103373903D01*
X117962830Y-103274035D01*
X118156401Y-103138495D01*
X118323495Y-102971401D01*
X118453730Y-102785405D01*
X118508307Y-102741781D01*
X118577805Y-102734587D01*
X118640160Y-102766110D01*
X118656879Y-102785405D01*
X118786890Y-102971078D01*
X118953917Y-103138105D01*
X119147421Y-103273600D01*
X119361507Y-103373429D01*
X119361516Y-103373433D01*
X119575000Y-103430634D01*
X119575000Y-102712301D01*
X119594685Y-102645262D01*
X119647489Y-102599507D01*
X119716647Y-102589563D01*
X119789237Y-102600000D01*
X119789238Y-102600000D01*
X119860762Y-102600000D01*
X119860763Y-102600000D01*
X119933353Y-102589563D01*
X120002512Y-102599507D01*
X120055315Y-102645262D01*
X120075000Y-102712301D01*
X120075000Y-103430633D01*
X120288483Y-103373433D01*
X120288492Y-103373429D01*
X120502578Y-103273600D01*
X120696082Y-103138105D01*
X120863105Y-102971082D01*
X120993119Y-102785405D01*
X121047696Y-102741781D01*
X121117195Y-102734588D01*
X121179549Y-102766110D01*
X121196269Y-102785405D01*
X121326505Y-102971401D01*
X121493599Y-103138495D01*
X121590384Y-103206264D01*
X121687165Y-103274032D01*
X121687167Y-103274033D01*
X121687170Y-103274035D01*
X121901337Y-103373903D01*
X122129592Y-103435063D01*
X122306034Y-103450500D01*
X122364999Y-103455659D01*
X122365000Y-103455659D01*
X122365001Y-103455659D01*
X122423966Y-103450500D01*
X122600408Y-103435063D01*
X122828663Y-103373903D01*
X123042830Y-103274035D01*
X123236401Y-103138495D01*
X123403495Y-102971401D01*
X123533730Y-102785405D01*
X123588307Y-102741781D01*
X123657805Y-102734587D01*
X123720160Y-102766110D01*
X123736879Y-102785405D01*
X123866890Y-102971078D01*
X124033917Y-103138105D01*
X124227421Y-103273600D01*
X124441507Y-103373429D01*
X124441516Y-103373433D01*
X124655000Y-103430634D01*
X124655000Y-102712301D01*
X124674685Y-102645262D01*
X124727489Y-102599507D01*
X124796647Y-102589563D01*
X124869237Y-102600000D01*
X124869238Y-102600000D01*
X124940762Y-102600000D01*
X124940763Y-102600000D01*
X125013353Y-102589563D01*
X125082512Y-102599507D01*
X125135315Y-102645262D01*
X125155000Y-102712301D01*
X125155000Y-103430633D01*
X125368483Y-103373433D01*
X125368492Y-103373429D01*
X125582578Y-103273600D01*
X125776082Y-103138105D01*
X125943105Y-102971082D01*
X126073119Y-102785405D01*
X126127696Y-102741781D01*
X126197195Y-102734588D01*
X126259549Y-102766110D01*
X126276269Y-102785405D01*
X126406505Y-102971401D01*
X126573599Y-103138495D01*
X126670384Y-103206264D01*
X126767165Y-103274032D01*
X126767167Y-103274033D01*
X126767170Y-103274035D01*
X126981337Y-103373903D01*
X127209592Y-103435063D01*
X127386034Y-103450500D01*
X127444999Y-103455659D01*
X127445000Y-103455659D01*
X127445001Y-103455659D01*
X127503966Y-103450500D01*
X127680408Y-103435063D01*
X127908663Y-103373903D01*
X128122830Y-103274035D01*
X128316401Y-103138495D01*
X128483495Y-102971401D01*
X128613730Y-102785405D01*
X128668307Y-102741781D01*
X128737805Y-102734587D01*
X128800160Y-102766110D01*
X128816879Y-102785405D01*
X128946890Y-102971078D01*
X129113917Y-103138105D01*
X129307421Y-103273600D01*
X129521507Y-103373429D01*
X129521516Y-103373433D01*
X129735000Y-103430634D01*
X129735000Y-102712301D01*
X129754685Y-102645262D01*
X129807489Y-102599507D01*
X129876647Y-102589563D01*
X129949237Y-102600000D01*
X129949238Y-102600000D01*
X130020762Y-102600000D01*
X130020763Y-102600000D01*
X130093352Y-102589563D01*
X130162510Y-102599507D01*
X130215314Y-102645261D01*
X130234999Y-102712301D01*
X130234999Y-103430634D01*
X130448483Y-103373433D01*
X130448492Y-103373429D01*
X130662578Y-103273600D01*
X130856082Y-103138105D01*
X131023105Y-102971082D01*
X131158600Y-102777578D01*
X131258429Y-102563492D01*
X131258432Y-102563486D01*
X131315636Y-102350000D01*
X130598347Y-102350000D01*
X130531308Y-102330315D01*
X130485553Y-102277511D01*
X130475609Y-102208353D01*
X130479369Y-102191067D01*
X130485000Y-102171888D01*
X130485000Y-102100002D01*
X132945153Y-102100002D01*
X132964526Y-102457314D01*
X132964527Y-102457331D01*
X133022415Y-102810431D01*
X133022421Y-102810457D01*
X133118147Y-103155232D01*
X133118149Y-103155239D01*
X133250597Y-103487659D01*
X133250606Y-103487677D01*
X133418218Y-103803827D01*
X133619033Y-104100007D01*
X133746441Y-104250003D01*
X133746442Y-104250004D01*
X134857413Y-103139032D01*
X134918736Y-103105547D01*
X134988427Y-103110531D01*
X135039381Y-103146179D01*
X135115130Y-103234870D01*
X135160987Y-103274035D01*
X135203816Y-103310615D01*
X135242009Y-103369122D01*
X135242507Y-103438990D01*
X135210965Y-103492586D01*
X134097255Y-104606295D01*
X134097256Y-104606296D01*
X134110485Y-104618828D01*
X134110486Y-104618829D01*
X134395367Y-104835388D01*
X134395370Y-104835390D01*
X134701990Y-105019876D01*
X135026739Y-105170122D01*
X135026744Y-105170123D01*
X135365855Y-105284383D01*
X135715339Y-105361311D01*
X136071075Y-105399999D01*
X136071085Y-105400000D01*
X136428915Y-105400000D01*
X136428924Y-105399999D01*
X136784660Y-105361311D01*
X137134144Y-105284383D01*
X137473255Y-105170123D01*
X137473260Y-105170122D01*
X137798009Y-105019876D01*
X138104629Y-104835390D01*
X138104632Y-104835388D01*
X138389504Y-104618836D01*
X138402742Y-104606294D01*
X137289033Y-103492586D01*
X137255548Y-103431263D01*
X137260532Y-103361571D01*
X137296180Y-103310617D01*
X137384870Y-103234870D01*
X137460617Y-103146180D01*
X137519121Y-103107990D01*
X137588989Y-103107490D01*
X137642586Y-103139033D01*
X138753556Y-104250003D01*
X138880964Y-104100008D01*
X138880975Y-104099994D01*
X139081781Y-103803827D01*
X139249393Y-103487677D01*
X139249402Y-103487659D01*
X139381850Y-103155239D01*
X139381852Y-103155232D01*
X139477578Y-102810457D01*
X139477584Y-102810431D01*
X139535472Y-102457331D01*
X139535473Y-102457314D01*
X139554847Y-102100002D01*
X139554847Y-102099997D01*
X139535473Y-101742685D01*
X139535472Y-101742668D01*
X139477584Y-101389568D01*
X139477578Y-101389542D01*
X139381852Y-101044767D01*
X139381850Y-101044760D01*
X139249402Y-100712340D01*
X139249393Y-100712322D01*
X139081781Y-100396172D01*
X138880966Y-100099992D01*
X138753557Y-99949995D01*
X138753556Y-99949994D01*
X137642586Y-101060965D01*
X137581263Y-101094450D01*
X137511571Y-101089466D01*
X137460615Y-101053816D01*
X137421203Y-101007671D01*
X137384870Y-100965130D01*
X137296179Y-100889381D01*
X137257989Y-100830878D01*
X137257489Y-100761010D01*
X137289032Y-100707413D01*
X138402743Y-99593703D01*
X138402742Y-99593702D01*
X138389514Y-99581171D01*
X138389513Y-99581170D01*
X138104632Y-99364611D01*
X138104629Y-99364609D01*
X137798009Y-99180123D01*
X137473260Y-99029877D01*
X137473255Y-99029876D01*
X137134144Y-98915616D01*
X136784660Y-98838688D01*
X136428924Y-98800000D01*
X136071075Y-98800000D01*
X135715339Y-98838688D01*
X135365855Y-98915616D01*
X135026744Y-99029876D01*
X135026739Y-99029877D01*
X134701990Y-99180123D01*
X134395370Y-99364609D01*
X134395367Y-99364611D01*
X134110491Y-99581166D01*
X134097256Y-99593703D01*
X134097255Y-99593703D01*
X135210966Y-100707413D01*
X135244451Y-100768736D01*
X135239467Y-100838428D01*
X135203817Y-100889384D01*
X135115130Y-100965130D01*
X135039384Y-101053817D01*
X134980877Y-101092010D01*
X134911009Y-101092508D01*
X134857413Y-101060966D01*
X133746442Y-99949994D01*
X133746441Y-99949995D01*
X133619040Y-100099983D01*
X133619033Y-100099993D01*
X133418218Y-100396172D01*
X133250606Y-100712322D01*
X133250597Y-100712340D01*
X133118149Y-101044760D01*
X133118147Y-101044767D01*
X133022421Y-101389542D01*
X133022415Y-101389568D01*
X132964527Y-101742668D01*
X132964526Y-101742685D01*
X132945153Y-102099997D01*
X132945153Y-102100002D01*
X130485000Y-102100002D01*
X130485000Y-102028111D01*
X130479369Y-102008933D01*
X130479370Y-101939064D01*
X130517145Y-101880286D01*
X130580701Y-101851262D01*
X130598347Y-101850000D01*
X131315636Y-101850000D01*
X131315635Y-101849999D01*
X131258432Y-101636513D01*
X131258429Y-101636507D01*
X131158600Y-101422422D01*
X131158599Y-101422420D01*
X131023113Y-101228926D01*
X131023108Y-101228920D01*
X130856082Y-101061894D01*
X130662578Y-100926399D01*
X130448492Y-100826570D01*
X130448486Y-100826567D01*
X130235000Y-100769364D01*
X130234999Y-100769364D01*
X130234999Y-101487698D01*
X130215314Y-101554738D01*
X130162510Y-101600492D01*
X130093353Y-101610436D01*
X130020764Y-101600000D01*
X130020763Y-101600000D01*
X129949237Y-101600000D01*
X129949233Y-101600000D01*
X129876645Y-101610436D01*
X129807487Y-101600492D01*
X129754684Y-101554736D01*
X129735000Y-101487698D01*
X129735000Y-100769364D01*
X129734999Y-100769364D01*
X129521513Y-100826567D01*
X129521507Y-100826570D01*
X129307422Y-100926399D01*
X129307420Y-100926400D01*
X129113926Y-101061886D01*
X129113920Y-101061891D01*
X128946891Y-101228920D01*
X128946890Y-101228922D01*
X128816880Y-101414595D01*
X128762303Y-101458219D01*
X128692804Y-101465412D01*
X128630450Y-101433890D01*
X128613730Y-101414594D01*
X128483494Y-101228597D01*
X128316402Y-101061506D01*
X128316401Y-101061505D01*
X128178763Y-100965130D01*
X128123376Y-100926347D01*
X128079751Y-100871770D01*
X128070500Y-100824772D01*
X128070500Y-92380627D01*
X128090185Y-92313588D01*
X128142989Y-92267833D01*
X128212147Y-92257889D01*
X128275703Y-92286914D01*
X128301884Y-92318624D01*
X128367466Y-92432214D01*
X128367467Y-92432216D01*
X128494129Y-92572888D01*
X128647265Y-92684148D01*
X128647270Y-92684151D01*
X128820192Y-92761142D01*
X128820197Y-92761144D01*
X129005354Y-92800500D01*
X129005355Y-92800500D01*
X129194644Y-92800500D01*
X129194646Y-92800500D01*
X129379803Y-92761144D01*
X129552730Y-92684151D01*
X129705871Y-92572888D01*
X129708788Y-92569647D01*
X129711600Y-92566526D01*
X129771087Y-92529879D01*
X129803748Y-92525500D01*
X134246252Y-92525500D01*
X134313291Y-92545185D01*
X134338400Y-92566526D01*
X134344126Y-92572885D01*
X134344130Y-92572889D01*
X134497265Y-92684148D01*
X134497270Y-92684151D01*
X134670192Y-92761142D01*
X134670197Y-92761144D01*
X134855354Y-92800500D01*
X134855355Y-92800500D01*
X135044644Y-92800500D01*
X135044646Y-92800500D01*
X135229803Y-92761144D01*
X135402730Y-92684151D01*
X135555871Y-92572888D01*
X135682533Y-92432216D01*
X135777179Y-92268284D01*
X135835674Y-92088256D01*
X135855460Y-91900000D01*
X135835674Y-91711744D01*
X135777179Y-91531716D01*
X135682533Y-91367784D01*
X135555871Y-91227112D01*
X135555870Y-91227111D01*
X135402734Y-91115851D01*
X135402729Y-91115848D01*
X135229807Y-91038857D01*
X135229802Y-91038855D01*
X135084000Y-91007865D01*
X135044646Y-90999500D01*
X134855354Y-90999500D01*
X134822897Y-91006398D01*
X134670197Y-91038855D01*
X134670192Y-91038857D01*
X134497270Y-91115848D01*
X134497265Y-91115851D01*
X134344130Y-91227110D01*
X134344126Y-91227114D01*
X134338400Y-91233474D01*
X134278913Y-91270121D01*
X134246252Y-91274500D01*
X129803748Y-91274500D01*
X129736709Y-91254815D01*
X129711600Y-91233474D01*
X129705873Y-91227114D01*
X129705869Y-91227110D01*
X129552734Y-91115851D01*
X129552729Y-91115848D01*
X129379807Y-91038857D01*
X129379802Y-91038855D01*
X129234001Y-91007865D01*
X129194646Y-90999500D01*
X129005354Y-90999500D01*
X128972897Y-91006398D01*
X128820197Y-91038855D01*
X128820192Y-91038857D01*
X128647270Y-91115848D01*
X128647265Y-91115851D01*
X128494129Y-91227111D01*
X128367466Y-91367785D01*
X128301887Y-91481372D01*
X128251320Y-91529587D01*
X128182713Y-91542811D01*
X128117849Y-91516843D01*
X128077320Y-91459929D01*
X128070500Y-91419372D01*
X128070500Y-89954240D01*
X128090185Y-89887201D01*
X128102350Y-89871268D01*
X128122079Y-89849356D01*
X128182533Y-89782216D01*
X128277179Y-89618284D01*
X128335674Y-89438256D01*
X128355460Y-89250000D01*
X128335674Y-89061744D01*
X128277179Y-88881716D01*
X128182533Y-88717784D01*
X128055871Y-88577112D01*
X128055870Y-88577111D01*
X127902734Y-88465851D01*
X127902729Y-88465848D01*
X127729807Y-88388857D01*
X127729802Y-88388855D01*
X127584001Y-88357865D01*
X127544646Y-88349500D01*
X127355354Y-88349500D01*
X127322897Y-88356398D01*
X127170197Y-88388855D01*
X127170192Y-88388857D01*
X126997270Y-88465848D01*
X126997265Y-88465851D01*
X126844129Y-88577111D01*
X126717466Y-88717785D01*
X126622821Y-88881715D01*
X126622818Y-88881722D01*
X126564327Y-89061740D01*
X126564326Y-89061744D01*
X126544540Y-89250000D01*
X126564326Y-89438256D01*
X126564327Y-89438259D01*
X126622818Y-89618277D01*
X126622821Y-89618284D01*
X126717467Y-89782216D01*
X126737009Y-89803919D01*
X126787650Y-89860162D01*
X126817880Y-89923153D01*
X126819500Y-89943134D01*
X126819500Y-100824773D01*
X126799815Y-100891812D01*
X126766623Y-100926348D01*
X126573597Y-101061505D01*
X126406508Y-101228594D01*
X126276269Y-101414595D01*
X126221692Y-101458219D01*
X126152193Y-101465412D01*
X126089839Y-101433890D01*
X126073119Y-101414594D01*
X125943113Y-101228926D01*
X125943108Y-101228920D01*
X125776082Y-101061894D01*
X125582578Y-100926399D01*
X125368492Y-100826570D01*
X125368486Y-100826567D01*
X125155000Y-100769364D01*
X125155000Y-101487698D01*
X125135315Y-101554737D01*
X125082511Y-101600492D01*
X125013355Y-101610436D01*
X124940766Y-101600000D01*
X124940763Y-101600000D01*
X124869237Y-101600000D01*
X124869233Y-101600000D01*
X124796645Y-101610436D01*
X124727487Y-101600492D01*
X124674684Y-101554736D01*
X124655000Y-101487698D01*
X124655000Y-100769364D01*
X124654999Y-100769364D01*
X124441513Y-100826567D01*
X124441507Y-100826570D01*
X124227422Y-100926399D01*
X124227420Y-100926400D01*
X124033926Y-101061886D01*
X124033920Y-101061891D01*
X123866891Y-101228920D01*
X123866890Y-101228922D01*
X123736880Y-101414595D01*
X123682303Y-101458219D01*
X123612804Y-101465412D01*
X123550450Y-101433890D01*
X123533730Y-101414594D01*
X123403494Y-101228597D01*
X123236402Y-101061506D01*
X123236395Y-101061501D01*
X123042834Y-100925967D01*
X123042830Y-100925965D01*
X122990500Y-100901563D01*
X122828663Y-100826097D01*
X122828659Y-100826096D01*
X122828655Y-100826094D01*
X122600413Y-100764938D01*
X122600403Y-100764936D01*
X122365001Y-100744341D01*
X122364999Y-100744341D01*
X122129596Y-100764936D01*
X122129586Y-100764938D01*
X121901344Y-100826094D01*
X121901335Y-100826098D01*
X121687171Y-100925964D01*
X121687169Y-100925965D01*
X121493597Y-101061505D01*
X121326508Y-101228594D01*
X121196269Y-101414595D01*
X121141692Y-101458219D01*
X121072193Y-101465412D01*
X121009839Y-101433890D01*
X120993119Y-101414594D01*
X120863113Y-101228926D01*
X120863108Y-101228920D01*
X120696082Y-101061894D01*
X120502578Y-100926399D01*
X120288492Y-100826570D01*
X120288486Y-100826567D01*
X120075000Y-100769364D01*
X120075000Y-101487698D01*
X120055315Y-101554737D01*
X120002511Y-101600492D01*
X119933355Y-101610436D01*
X119860766Y-101600000D01*
X119860763Y-101600000D01*
X119789237Y-101600000D01*
X119789233Y-101600000D01*
X119716645Y-101610436D01*
X119647487Y-101600492D01*
X119594684Y-101554736D01*
X119575000Y-101487698D01*
X119575000Y-100769364D01*
X119574999Y-100769364D01*
X119361513Y-100826567D01*
X119361507Y-100826570D01*
X119147422Y-100926399D01*
X119147420Y-100926400D01*
X118953926Y-101061886D01*
X118953920Y-101061891D01*
X118786891Y-101228920D01*
X118786890Y-101228922D01*
X118656880Y-101414595D01*
X118602303Y-101458219D01*
X118532804Y-101465412D01*
X118470450Y-101433890D01*
X118453730Y-101414594D01*
X118323494Y-101228597D01*
X118156402Y-101061506D01*
X118156395Y-101061501D01*
X117962834Y-100925967D01*
X117962830Y-100925965D01*
X117910500Y-100901563D01*
X117748663Y-100826097D01*
X117748659Y-100826096D01*
X117748655Y-100826094D01*
X117520413Y-100764938D01*
X117520403Y-100764936D01*
X117285001Y-100744341D01*
X117284999Y-100744341D01*
X117049596Y-100764936D01*
X117049586Y-100764938D01*
X116821344Y-100826094D01*
X116821335Y-100826098D01*
X116607171Y-100925964D01*
X116607169Y-100925965D01*
X116413597Y-101061505D01*
X116246508Y-101228594D01*
X116116269Y-101414595D01*
X116061692Y-101458219D01*
X115992193Y-101465412D01*
X115929839Y-101433890D01*
X115913119Y-101414594D01*
X115783113Y-101228926D01*
X115783108Y-101228920D01*
X115616082Y-101061894D01*
X115422578Y-100926399D01*
X115208492Y-100826570D01*
X115208486Y-100826567D01*
X114995000Y-100769364D01*
X114995000Y-101487698D01*
X114975315Y-101554737D01*
X114922511Y-101600492D01*
X114853355Y-101610436D01*
X114780766Y-101600000D01*
X114780763Y-101600000D01*
X114709237Y-101600000D01*
X114709233Y-101600000D01*
X114636645Y-101610436D01*
X114567487Y-101600492D01*
X114514684Y-101554736D01*
X114495000Y-101487698D01*
X114495000Y-100769364D01*
X114494999Y-100769364D01*
X114281513Y-100826567D01*
X114281507Y-100826570D01*
X114067422Y-100926399D01*
X114067420Y-100926400D01*
X113873926Y-101061886D01*
X113873920Y-101061891D01*
X113706891Y-101228920D01*
X113706890Y-101228922D01*
X113576880Y-101414595D01*
X113522303Y-101458219D01*
X113452804Y-101465412D01*
X113390450Y-101433890D01*
X113373730Y-101414594D01*
X113243494Y-101228597D01*
X113076402Y-101061506D01*
X113076401Y-101061505D01*
X112938763Y-100965130D01*
X112883376Y-100926347D01*
X112839751Y-100871770D01*
X112830500Y-100824772D01*
X112830500Y-89803919D01*
X112850185Y-89736880D01*
X112902989Y-89691125D01*
X112928705Y-89682632D01*
X113029803Y-89661144D01*
X113029807Y-89661142D01*
X113029808Y-89661142D01*
X113126067Y-89618284D01*
X113202730Y-89584151D01*
X113355871Y-89472888D01*
X113482533Y-89332216D01*
X113577179Y-89168284D01*
X113635674Y-88988256D01*
X113655460Y-88800000D01*
X113635674Y-88611744D01*
X113577179Y-88431716D01*
X113482533Y-88267784D01*
X113355871Y-88127112D01*
X113355870Y-88127111D01*
X113202734Y-88015851D01*
X113202729Y-88015848D01*
X113029807Y-87938857D01*
X113029802Y-87938855D01*
X112884001Y-87907865D01*
X112844646Y-87899500D01*
X112655354Y-87899500D01*
X112622897Y-87906398D01*
X112470197Y-87938855D01*
X112470192Y-87938857D01*
X112297270Y-88015848D01*
X112297265Y-88015851D01*
X112144129Y-88127111D01*
X112017466Y-88267785D01*
X111922821Y-88431715D01*
X111922818Y-88431722D01*
X111864327Y-88611740D01*
X111864326Y-88611744D01*
X111853181Y-88717784D01*
X111846957Y-88777001D01*
X111820372Y-88841615D01*
X111804803Y-88857424D01*
X111755772Y-88909636D01*
X111734889Y-88930519D01*
X111734877Y-88930532D01*
X111730621Y-88936017D01*
X111726837Y-88940447D01*
X111694937Y-88974418D01*
X111694936Y-88974420D01*
X111685284Y-88991976D01*
X111674610Y-89008226D01*
X111662329Y-89024061D01*
X111662324Y-89024068D01*
X111643815Y-89066838D01*
X111641245Y-89072084D01*
X111618803Y-89112906D01*
X111613822Y-89132307D01*
X111607521Y-89150710D01*
X111599562Y-89169102D01*
X111599561Y-89169106D01*
X111592271Y-89215127D01*
X111591087Y-89220846D01*
X111579499Y-89265983D01*
X111579499Y-89286019D01*
X111577973Y-89305407D01*
X111574840Y-89325192D01*
X111574840Y-89325195D01*
X111579225Y-89371583D01*
X111579500Y-89377421D01*
X111579499Y-100824773D01*
X111559814Y-100891812D01*
X111526623Y-100926348D01*
X111333594Y-101061508D01*
X111166508Y-101228594D01*
X111036269Y-101414595D01*
X110981692Y-101458219D01*
X110912193Y-101465412D01*
X110849839Y-101433890D01*
X110833119Y-101414594D01*
X110703113Y-101228926D01*
X110703108Y-101228920D01*
X110536082Y-101061894D01*
X110342578Y-100926399D01*
X110128492Y-100826570D01*
X110128486Y-100826567D01*
X109915000Y-100769364D01*
X109915000Y-101487698D01*
X109895315Y-101554737D01*
X109842511Y-101600492D01*
X109773355Y-101610436D01*
X109700766Y-101600000D01*
X109700763Y-101600000D01*
X109629237Y-101600000D01*
X109629233Y-101600000D01*
X109556645Y-101610436D01*
X109487487Y-101600492D01*
X109434684Y-101554736D01*
X109415000Y-101487698D01*
X109414999Y-100769364D01*
X109201513Y-100826567D01*
X109201507Y-100826570D01*
X108987422Y-100926399D01*
X108987420Y-100926400D01*
X108793926Y-101061886D01*
X108671865Y-101183947D01*
X108610542Y-101217431D01*
X108540850Y-101212447D01*
X108484917Y-101170575D01*
X108468002Y-101139598D01*
X108418797Y-101007671D01*
X108418793Y-101007664D01*
X108332547Y-100892455D01*
X108332544Y-100892452D01*
X108217335Y-100806206D01*
X108217328Y-100806202D01*
X108082482Y-100755908D01*
X108082483Y-100755908D01*
X108022883Y-100749501D01*
X108022881Y-100749500D01*
X108022873Y-100749500D01*
X108022864Y-100749500D01*
X106227129Y-100749500D01*
X106227123Y-100749501D01*
X106167516Y-100755908D01*
X106032671Y-100806202D01*
X106032664Y-100806206D01*
X105917455Y-100892452D01*
X105917452Y-100892455D01*
X105831206Y-101007664D01*
X105831202Y-101007671D01*
X105780908Y-101142517D01*
X105774501Y-101202116D01*
X105774500Y-101202135D01*
X105774500Y-102997870D01*
X103425543Y-102997870D01*
X103477578Y-102810457D01*
X103477584Y-102810431D01*
X103535472Y-102457331D01*
X103535473Y-102457314D01*
X103554847Y-102100002D01*
X103554847Y-102099997D01*
X103535473Y-101742685D01*
X103535472Y-101742668D01*
X103477584Y-101389568D01*
X103477578Y-101389542D01*
X103381852Y-101044767D01*
X103381850Y-101044760D01*
X103249402Y-100712340D01*
X103249393Y-100712322D01*
X103081781Y-100396172D01*
X102880966Y-100099992D01*
X102753557Y-99949995D01*
X102753556Y-99949994D01*
X101642586Y-101060965D01*
X101581263Y-101094450D01*
X101511571Y-101089466D01*
X101460615Y-101053816D01*
X101421203Y-101007671D01*
X101384870Y-100965130D01*
X101296179Y-100889381D01*
X101257989Y-100830878D01*
X101257489Y-100761010D01*
X101289032Y-100707413D01*
X102402743Y-99593703D01*
X102402742Y-99593702D01*
X102389514Y-99581171D01*
X102389513Y-99581170D01*
X102104632Y-99364611D01*
X102104629Y-99364609D01*
X101798009Y-99180123D01*
X101473260Y-99029877D01*
X101473255Y-99029876D01*
X101134144Y-98915616D01*
X100784660Y-98838688D01*
X100428924Y-98800000D01*
X100071075Y-98800000D01*
X99715339Y-98838688D01*
X99365855Y-98915616D01*
X99026744Y-99029876D01*
X99026739Y-99029877D01*
X98701990Y-99180123D01*
X98395370Y-99364609D01*
X98395367Y-99364611D01*
X98110491Y-99581166D01*
X98097256Y-99593703D01*
X98097255Y-99593703D01*
X99210966Y-100707413D01*
X99244451Y-100768736D01*
X99239467Y-100838428D01*
X99203817Y-100889384D01*
X99115130Y-100965130D01*
X99039384Y-101053817D01*
X98980877Y-101092010D01*
X98911009Y-101092508D01*
X98857413Y-101060966D01*
X97746442Y-99949994D01*
X97746441Y-99949995D01*
X97619040Y-100099983D01*
X97619033Y-100099993D01*
X97418218Y-100396172D01*
X97250606Y-100712322D01*
X97250597Y-100712340D01*
X97118149Y-101044760D01*
X97118147Y-101044767D01*
X97022421Y-101389542D01*
X97022415Y-101389568D01*
X96964527Y-101742668D01*
X96964526Y-101742685D01*
X96945153Y-102099997D01*
X96945153Y-102100002D01*
X95750500Y-102100002D01*
X95750500Y-92750000D01*
X103394540Y-92750000D01*
X103414326Y-92938256D01*
X103414327Y-92938259D01*
X103472818Y-93118277D01*
X103472821Y-93118284D01*
X103567467Y-93282216D01*
X103694128Y-93422888D01*
X103694129Y-93422888D01*
X103847265Y-93534148D01*
X103847270Y-93534151D01*
X104020192Y-93611142D01*
X104020197Y-93611144D01*
X104205354Y-93650500D01*
X104264548Y-93650500D01*
X104331587Y-93670185D01*
X104352229Y-93686819D01*
X106849197Y-96183788D01*
X106859022Y-96196051D01*
X106859243Y-96195869D01*
X106864214Y-96201878D01*
X106890217Y-96226295D01*
X106914635Y-96249226D01*
X106935529Y-96270120D01*
X106941011Y-96274373D01*
X106945443Y-96278157D01*
X106979418Y-96310062D01*
X106979421Y-96310064D01*
X106979423Y-96310065D01*
X106996882Y-96319663D01*
X107029292Y-96345350D01*
X107144129Y-96472888D01*
X107144133Y-96472892D01*
X107144135Y-96472893D01*
X107297265Y-96584148D01*
X107297270Y-96584151D01*
X107470192Y-96661142D01*
X107470197Y-96661144D01*
X107655354Y-96700500D01*
X107655355Y-96700500D01*
X107844644Y-96700500D01*
X107844646Y-96700500D01*
X108029803Y-96661144D01*
X108202730Y-96584151D01*
X108355871Y-96472888D01*
X108482533Y-96332216D01*
X108577179Y-96168284D01*
X108635674Y-95988256D01*
X108655460Y-95800000D01*
X108635674Y-95611744D01*
X108577179Y-95431716D01*
X108482533Y-95267784D01*
X108355871Y-95127112D01*
X108355870Y-95127111D01*
X108202734Y-95015851D01*
X108202729Y-95015848D01*
X108029807Y-94938857D01*
X108029802Y-94938855D01*
X107884001Y-94907865D01*
X107844646Y-94899500D01*
X107655354Y-94899500D01*
X107618322Y-94907371D01*
X107470193Y-94938856D01*
X107469426Y-94939106D01*
X107468958Y-94939119D01*
X107463841Y-94940207D01*
X107463641Y-94939270D01*
X107399585Y-94941092D01*
X107343442Y-94908851D01*
X105238960Y-92804369D01*
X105205475Y-92743046D01*
X105203323Y-92729668D01*
X105185674Y-92561744D01*
X105127179Y-92381716D01*
X105032533Y-92217784D01*
X104905871Y-92077112D01*
X104905870Y-92077111D01*
X104752734Y-91965851D01*
X104752729Y-91965848D01*
X104579807Y-91888857D01*
X104579802Y-91888855D01*
X104434000Y-91857865D01*
X104394646Y-91849500D01*
X104205354Y-91849500D01*
X104172897Y-91856398D01*
X104020197Y-91888855D01*
X104020192Y-91888857D01*
X103847270Y-91965848D01*
X103847265Y-91965851D01*
X103694129Y-92077111D01*
X103567466Y-92217785D01*
X103472821Y-92381715D01*
X103472818Y-92381722D01*
X103419706Y-92545185D01*
X103414326Y-92561744D01*
X103394540Y-92750000D01*
X95750500Y-92750000D01*
X95750500Y-78758503D01*
X105241485Y-78758503D01*
X105261992Y-78953600D01*
X105262234Y-78956613D01*
X105266551Y-79033660D01*
X105272197Y-79050702D01*
X105275456Y-79081706D01*
X105323164Y-79306144D01*
X105333975Y-79369773D01*
X105339072Y-79380990D01*
X105343024Y-79399582D01*
X105343027Y-79399591D01*
X105426495Y-79656475D01*
X105438052Y-79696590D01*
X105441340Y-79702161D01*
X105443457Y-79708677D01*
X105575635Y-80005547D01*
X105575638Y-80005553D01*
X105575639Y-80005554D01*
X105738132Y-80286996D01*
X105746815Y-80298947D01*
X105929156Y-80549915D01*
X105929157Y-80549916D01*
X106146610Y-80791419D01*
X106260296Y-80893780D01*
X106388124Y-81008875D01*
X106651042Y-81199893D01*
X106932487Y-81362382D01*
X107229375Y-81494562D01*
X107234906Y-81496359D01*
X107235872Y-81496673D01*
X107240127Y-81499582D01*
X107281580Y-81511524D01*
X107380989Y-81543823D01*
X107538435Y-81594979D01*
X107538438Y-81594979D01*
X107538454Y-81594985D01*
X107557058Y-81598939D01*
X107565688Y-81603598D01*
X107631898Y-81614846D01*
X107795966Y-81649718D01*
X107856316Y-81662546D01*
X107856326Y-81662548D01*
X107856327Y-81662548D01*
X107856336Y-81662550D01*
X107887343Y-81665808D01*
X107900503Y-81671223D01*
X107981372Y-81675763D01*
X107984354Y-81676004D01*
X108179539Y-81696517D01*
X108341933Y-81696515D01*
X128106149Y-81708436D01*
X128106258Y-81708468D01*
X128157968Y-81708468D01*
X128320459Y-81708470D01*
X128515633Y-81687958D01*
X128518614Y-81687717D01*
X128595657Y-81683392D01*
X128612652Y-81677761D01*
X128643660Y-81674503D01*
X128643670Y-81674500D01*
X128643675Y-81674500D01*
X128685674Y-81665572D01*
X128868142Y-81626789D01*
X128931727Y-81615987D01*
X128942944Y-81610890D01*
X128961541Y-81606938D01*
X129087397Y-81566045D01*
X129218465Y-81523460D01*
X129258557Y-81511910D01*
X129264124Y-81508625D01*
X129266393Y-81507887D01*
X129270617Y-81506515D01*
X129567503Y-81374334D01*
X129848946Y-81211844D01*
X130111862Y-81020826D01*
X130353371Y-80803371D01*
X130570826Y-80561862D01*
X130761844Y-80298946D01*
X130924334Y-80017503D01*
X131056515Y-79720617D01*
X131058624Y-79714124D01*
X131061530Y-79709873D01*
X131073460Y-79668465D01*
X131156934Y-79411553D01*
X131156933Y-79411553D01*
X131156938Y-79411541D01*
X131160890Y-79392945D01*
X131165546Y-79384319D01*
X131176789Y-79318142D01*
X131224503Y-79093660D01*
X131227754Y-79062717D01*
X131233248Y-79049365D01*
X131237734Y-78968481D01*
X131237974Y-78965476D01*
X131258470Y-78770459D01*
X131258468Y-78607968D01*
X131258468Y-78607468D01*
X131258468Y-78596323D01*
X131258563Y-78592890D01*
X131259277Y-78580000D01*
X131258468Y-78575723D01*
X131258468Y-78556263D01*
X131258449Y-78556087D01*
X131258449Y-58788000D01*
X131258400Y-58787504D01*
X131258405Y-58637510D01*
X131237894Y-58442307D01*
X131237653Y-58439319D01*
X131233318Y-58362276D01*
X131227704Y-58345323D01*
X131224445Y-58314311D01*
X131190709Y-58155577D01*
X131176739Y-58089844D01*
X131165935Y-58026247D01*
X131160838Y-58015024D01*
X131156888Y-57996437D01*
X131156887Y-57996434D01*
X131156886Y-57996429D01*
X131073430Y-57739561D01*
X131061868Y-57699425D01*
X131058577Y-57693844D01*
X131056468Y-57687352D01*
X130924293Y-57390465D01*
X130924290Y-57390460D01*
X130924288Y-57390455D01*
X130924286Y-57390453D01*
X130761810Y-57109025D01*
X130761804Y-57109017D01*
X130570794Y-56846107D01*
X130570792Y-56846104D01*
X130444967Y-56706359D01*
X130353339Y-56604593D01*
X130111838Y-56387142D01*
X130111837Y-56387141D01*
X129848919Y-56196119D01*
X129848918Y-56196118D01*
X129567482Y-56033631D01*
X129567471Y-56033626D01*
X129270588Y-55901446D01*
X129264089Y-55899335D01*
X129259837Y-55896427D01*
X129218388Y-55884486D01*
X128961537Y-55801032D01*
X128961523Y-55801028D01*
X128961519Y-55801027D01*
X128942907Y-55797071D01*
X128934275Y-55792410D01*
X128868030Y-55781156D01*
X128643647Y-55733464D01*
X128643642Y-55733463D01*
X128643640Y-55733463D01*
X128612617Y-55730202D01*
X128599455Y-55724787D01*
X128518582Y-55720246D01*
X128515577Y-55720004D01*
X128392403Y-55707059D01*
X128320439Y-55699497D01*
X128320436Y-55699497D01*
X128158044Y-55699499D01*
X108342531Y-55691531D01*
X108342031Y-55691531D01*
X108179541Y-55691531D01*
X108082978Y-55701680D01*
X107984408Y-55712040D01*
X107981403Y-55712282D01*
X107904360Y-55716609D01*
X107887356Y-55722240D01*
X107856348Y-55725499D01*
X107856335Y-55725502D01*
X107818877Y-55733464D01*
X107631939Y-55773198D01*
X107568295Y-55784012D01*
X107557068Y-55789112D01*
X107538466Y-55793066D01*
X107538463Y-55793067D01*
X107281586Y-55876531D01*
X107241466Y-55888089D01*
X107235899Y-55891374D01*
X107229405Y-55893484D01*
X107229394Y-55893488D01*
X106932502Y-56025673D01*
X106651063Y-56188161D01*
X106651058Y-56188164D01*
X106388151Y-56379177D01*
X106388142Y-56379184D01*
X106146637Y-56596637D01*
X105929184Y-56838142D01*
X105929177Y-56838151D01*
X105738164Y-57101058D01*
X105738161Y-57101063D01*
X105575673Y-57382502D01*
X105443488Y-57679394D01*
X105443484Y-57679405D01*
X105441374Y-57685899D01*
X105438470Y-57690143D01*
X105426531Y-57731586D01*
X105343067Y-57988463D01*
X105343066Y-57988466D01*
X105339112Y-58007068D01*
X105334454Y-58015694D01*
X105323198Y-58081943D01*
X105275502Y-58306335D01*
X105275499Y-58306348D01*
X105272240Y-58337356D01*
X105266825Y-58350515D01*
X105262282Y-58431403D01*
X105262040Y-58434408D01*
X105241531Y-58629544D01*
X105241531Y-78544606D01*
X105241485Y-78544762D01*
X105241485Y-78758503D01*
X95750500Y-78758503D01*
X95750500Y-50800002D01*
X96945153Y-50800002D01*
X96964526Y-51157314D01*
X96964527Y-51157331D01*
X97022415Y-51510431D01*
X97022421Y-51510457D01*
X97118147Y-51855232D01*
X97118149Y-51855239D01*
X97250597Y-52187659D01*
X97250606Y-52187677D01*
X97418218Y-52503827D01*
X97619033Y-52800007D01*
X97746441Y-52950003D01*
X97746442Y-52950004D01*
X98857413Y-51839032D01*
X98918736Y-51805547D01*
X98988427Y-51810531D01*
X99039381Y-51846179D01*
X99115130Y-51934870D01*
X99178855Y-51989296D01*
X99203816Y-52010615D01*
X99242009Y-52069122D01*
X99242507Y-52138990D01*
X99210965Y-52192586D01*
X98097255Y-53306295D01*
X98097256Y-53306296D01*
X98110485Y-53318828D01*
X98110486Y-53318829D01*
X98395367Y-53535388D01*
X98395370Y-53535390D01*
X98701990Y-53719876D01*
X99026739Y-53870122D01*
X99026744Y-53870123D01*
X99365855Y-53984383D01*
X99715339Y-54061311D01*
X100071075Y-54099999D01*
X100071085Y-54100000D01*
X100428915Y-54100000D01*
X100428924Y-54099999D01*
X100784660Y-54061311D01*
X101134144Y-53984383D01*
X101473255Y-53870123D01*
X101473260Y-53870122D01*
X101798009Y-53719876D01*
X102104629Y-53535390D01*
X102104632Y-53535388D01*
X102389504Y-53318836D01*
X102402742Y-53306294D01*
X101289033Y-52192586D01*
X101255548Y-52131263D01*
X101260532Y-52061571D01*
X101296180Y-52010617D01*
X101384870Y-51934870D01*
X101460617Y-51846180D01*
X101519121Y-51807990D01*
X101588989Y-51807490D01*
X101642586Y-51839033D01*
X102753556Y-52950003D01*
X102880964Y-52800008D01*
X102880975Y-52799994D01*
X103081781Y-52503827D01*
X103249393Y-52187677D01*
X103249402Y-52187659D01*
X103381850Y-51855239D01*
X103381852Y-51855232D01*
X103477578Y-51510457D01*
X103477584Y-51510431D01*
X103535472Y-51157331D01*
X103535473Y-51157314D01*
X103554847Y-50800002D01*
X132945153Y-50800002D01*
X132964526Y-51157314D01*
X132964527Y-51157331D01*
X133022415Y-51510431D01*
X133022421Y-51510457D01*
X133118147Y-51855232D01*
X133118149Y-51855239D01*
X133250597Y-52187659D01*
X133250606Y-52187677D01*
X133418218Y-52503827D01*
X133619033Y-52800007D01*
X133746441Y-52950003D01*
X133746442Y-52950004D01*
X134857413Y-51839032D01*
X134918736Y-51805547D01*
X134988427Y-51810531D01*
X135039381Y-51846179D01*
X135115130Y-51934870D01*
X135178855Y-51989296D01*
X135203816Y-52010615D01*
X135242009Y-52069122D01*
X135242507Y-52138990D01*
X135210965Y-52192586D01*
X134097255Y-53306295D01*
X134097256Y-53306296D01*
X134110485Y-53318828D01*
X134110486Y-53318829D01*
X134395367Y-53535388D01*
X134395370Y-53535390D01*
X134701990Y-53719876D01*
X135026739Y-53870122D01*
X135026744Y-53870123D01*
X135365855Y-53984383D01*
X135715339Y-54061311D01*
X136071075Y-54099999D01*
X136071085Y-54100000D01*
X136428915Y-54100000D01*
X136428924Y-54099999D01*
X136784660Y-54061311D01*
X137134144Y-53984383D01*
X137473255Y-53870123D01*
X137473260Y-53870122D01*
X137798009Y-53719876D01*
X138104629Y-53535390D01*
X138104632Y-53535388D01*
X138389504Y-53318836D01*
X138402742Y-53306294D01*
X137289033Y-52192586D01*
X137255548Y-52131263D01*
X137260532Y-52061571D01*
X137296180Y-52010617D01*
X137384870Y-51934870D01*
X137460617Y-51846180D01*
X137519121Y-51807990D01*
X137588989Y-51807490D01*
X137642586Y-51839033D01*
X138753556Y-52950003D01*
X138880964Y-52800008D01*
X138880975Y-52799994D01*
X139081781Y-52503827D01*
X139249393Y-52187677D01*
X139249402Y-52187659D01*
X139381850Y-51855239D01*
X139381852Y-51855232D01*
X139477578Y-51510457D01*
X139477584Y-51510431D01*
X139535472Y-51157331D01*
X139535473Y-51157314D01*
X139554847Y-50800002D01*
X139554847Y-50799997D01*
X139535473Y-50442685D01*
X139535472Y-50442668D01*
X139477584Y-50089568D01*
X139477578Y-50089542D01*
X139381852Y-49744767D01*
X139381850Y-49744760D01*
X139249402Y-49412340D01*
X139249393Y-49412322D01*
X139081781Y-49096172D01*
X138880966Y-48799992D01*
X138753557Y-48649995D01*
X138753556Y-48649994D01*
X137642586Y-49760965D01*
X137581263Y-49794450D01*
X137511571Y-49789466D01*
X137460615Y-49753816D01*
X137439296Y-49728855D01*
X137384870Y-49665130D01*
X137296179Y-49589381D01*
X137257989Y-49530878D01*
X137257489Y-49461010D01*
X137289032Y-49407413D01*
X138402743Y-48293703D01*
X138402742Y-48293702D01*
X138389514Y-48281171D01*
X138389513Y-48281170D01*
X138104632Y-48064611D01*
X138104629Y-48064609D01*
X137798009Y-47880123D01*
X137473260Y-47729877D01*
X137473255Y-47729876D01*
X137134144Y-47615616D01*
X136784660Y-47538688D01*
X136428924Y-47500000D01*
X136071075Y-47500000D01*
X135715339Y-47538688D01*
X135365855Y-47615616D01*
X135026744Y-47729876D01*
X135026739Y-47729877D01*
X134701990Y-47880123D01*
X134395370Y-48064609D01*
X134395367Y-48064611D01*
X134110491Y-48281166D01*
X134097256Y-48293703D01*
X134097255Y-48293703D01*
X135210966Y-49407413D01*
X135244451Y-49468736D01*
X135239467Y-49538428D01*
X135203817Y-49589384D01*
X135115130Y-49665130D01*
X135039384Y-49753817D01*
X134980877Y-49792010D01*
X134911009Y-49792508D01*
X134857413Y-49760966D01*
X133746442Y-48649994D01*
X133746441Y-48649995D01*
X133619040Y-48799983D01*
X133619033Y-48799993D01*
X133418218Y-49096172D01*
X133250606Y-49412322D01*
X133250597Y-49412340D01*
X133118149Y-49744760D01*
X133118147Y-49744767D01*
X133022421Y-50089542D01*
X133022415Y-50089568D01*
X132964527Y-50442668D01*
X132964526Y-50442685D01*
X132945153Y-50799997D01*
X132945153Y-50800002D01*
X103554847Y-50800002D01*
X103554847Y-50799997D01*
X103535473Y-50442685D01*
X103535472Y-50442668D01*
X103477584Y-50089568D01*
X103477578Y-50089542D01*
X103381852Y-49744767D01*
X103381850Y-49744760D01*
X103249402Y-49412340D01*
X103249393Y-49412322D01*
X103081781Y-49096172D01*
X102880966Y-48799992D01*
X102753557Y-48649995D01*
X102753556Y-48649994D01*
X101642586Y-49760965D01*
X101581263Y-49794450D01*
X101511571Y-49789466D01*
X101460615Y-49753816D01*
X101439296Y-49728855D01*
X101384870Y-49665130D01*
X101296179Y-49589381D01*
X101257989Y-49530878D01*
X101257489Y-49461010D01*
X101289032Y-49407413D01*
X102402743Y-48293703D01*
X102402742Y-48293702D01*
X102389514Y-48281171D01*
X102389513Y-48281170D01*
X102104632Y-48064611D01*
X102104629Y-48064609D01*
X101798009Y-47880123D01*
X101473260Y-47729877D01*
X101473255Y-47729876D01*
X101134144Y-47615616D01*
X100784660Y-47538688D01*
X100428924Y-47500000D01*
X100071075Y-47500000D01*
X99715339Y-47538688D01*
X99365855Y-47615616D01*
X99026744Y-47729876D01*
X99026739Y-47729877D01*
X98701990Y-47880123D01*
X98395370Y-48064609D01*
X98395367Y-48064611D01*
X98110491Y-48281166D01*
X98097256Y-48293703D01*
X98097255Y-48293703D01*
X99210966Y-49407413D01*
X99244451Y-49468736D01*
X99239467Y-49538428D01*
X99203817Y-49589384D01*
X99115130Y-49665130D01*
X99039384Y-49753817D01*
X98980877Y-49792010D01*
X98911009Y-49792508D01*
X98857413Y-49760966D01*
X97746442Y-48649994D01*
X97746441Y-48649995D01*
X97619040Y-48799983D01*
X97619033Y-48799993D01*
X97418218Y-49096172D01*
X97250606Y-49412322D01*
X97250597Y-49412340D01*
X97118149Y-49744760D01*
X97118147Y-49744767D01*
X97022421Y-50089542D01*
X97022415Y-50089568D01*
X96964527Y-50442668D01*
X96964526Y-50442685D01*
X96945153Y-50799997D01*
X96945153Y-50800002D01*
X95750500Y-50800002D01*
X95750500Y-49301622D01*
X95750585Y-49298376D01*
X95751883Y-49273604D01*
X95757497Y-49166486D01*
X95767803Y-48982968D01*
X95768464Y-48976791D01*
X95792611Y-48824331D01*
X95820227Y-48661796D01*
X95821451Y-48656196D01*
X95862425Y-48503279D01*
X95907083Y-48348268D01*
X95908764Y-48343254D01*
X95966127Y-48193815D01*
X96027366Y-48045972D01*
X96029379Y-48041606D01*
X96102511Y-47898078D01*
X96112434Y-47880123D01*
X96179655Y-47758494D01*
X96181867Y-47754808D01*
X96269980Y-47619127D01*
X96284130Y-47599182D01*
X96362154Y-47489220D01*
X96364486Y-47486143D01*
X96465655Y-47361209D01*
X96467537Y-47358998D01*
X96572773Y-47241239D01*
X96575092Y-47238787D01*
X96688787Y-47125092D01*
X96691239Y-47122773D01*
X96808998Y-47017537D01*
X96811209Y-47015655D01*
X96936143Y-46914486D01*
X96939220Y-46912154D01*
X97069127Y-46819980D01*
X97079046Y-46813537D01*
X97204808Y-46731867D01*
X97208494Y-46729655D01*
X97348078Y-46652511D01*
X97360063Y-46646403D01*
X97491606Y-46579379D01*
X97495972Y-46577366D01*
X97643815Y-46516127D01*
X97793254Y-46458764D01*
X97798268Y-46457083D01*
X97953279Y-46412425D01*
X98106196Y-46371451D01*
X98111796Y-46370227D01*
X98274284Y-46342618D01*
X98426791Y-46318464D01*
X98432968Y-46317803D01*
X98616566Y-46307493D01*
X98748380Y-46300584D01*
X98751622Y-46300500D01*
X137748378Y-46300500D01*
X137751619Y-46300584D01*
G37*
%TD.AperFunction*%
%TD*%
%TA.AperFunction,Conductor*%
%TO.N,GND*%
G36*
X92301619Y-46300584D02*
G01*
X92433628Y-46307503D01*
X92617027Y-46317803D01*
X92623212Y-46318465D01*
X92775647Y-46342608D01*
X92938194Y-46370226D01*
X92943811Y-46371453D01*
X93096693Y-46412418D01*
X93189122Y-46439046D01*
X93251724Y-46457082D01*
X93256759Y-46458769D01*
X93406183Y-46516127D01*
X93554007Y-46577358D01*
X93558412Y-46579388D01*
X93624180Y-46612899D01*
X93701921Y-46652511D01*
X93777428Y-46694241D01*
X93841480Y-46729641D01*
X93845215Y-46731882D01*
X93919487Y-46780115D01*
X93980872Y-46819980D01*
X94068357Y-46882053D01*
X94110764Y-46912142D01*
X94113886Y-46914510D01*
X94238748Y-47015621D01*
X94241034Y-47017567D01*
X94358721Y-47122738D01*
X94361248Y-47125128D01*
X94474870Y-47238750D01*
X94477260Y-47241277D01*
X94582431Y-47358964D01*
X94584385Y-47361260D01*
X94685480Y-47486102D01*
X94687862Y-47489243D01*
X94780019Y-47619127D01*
X94833758Y-47701875D01*
X94868106Y-47754767D01*
X94870364Y-47758531D01*
X94947488Y-47898078D01*
X95020604Y-48041575D01*
X95022643Y-48045997D01*
X95083877Y-48193829D01*
X95141221Y-48343217D01*
X95142916Y-48348273D01*
X95187579Y-48503297D01*
X95228541Y-48656171D01*
X95229778Y-48661835D01*
X95257394Y-48824369D01*
X95281530Y-48976758D01*
X95282196Y-48982985D01*
X95292509Y-49166617D01*
X95299415Y-49298377D01*
X95299500Y-49301623D01*
X95299500Y-103598376D01*
X95299415Y-103601622D01*
X95292509Y-103733382D01*
X95282196Y-103917013D01*
X95281530Y-103923240D01*
X95257394Y-104075630D01*
X95229778Y-104238163D01*
X95228541Y-104243827D01*
X95187579Y-104396702D01*
X95142916Y-104551725D01*
X95141221Y-104556781D01*
X95083877Y-104706170D01*
X95022643Y-104854001D01*
X95020604Y-104858423D01*
X94947488Y-105001921D01*
X94870364Y-105141467D01*
X94868097Y-105145246D01*
X94780019Y-105280872D01*
X94687862Y-105410755D01*
X94685480Y-105413896D01*
X94584385Y-105538738D01*
X94582431Y-105541034D01*
X94477260Y-105658721D01*
X94474870Y-105661248D01*
X94361248Y-105774870D01*
X94358721Y-105777260D01*
X94241034Y-105882431D01*
X94238738Y-105884385D01*
X94113896Y-105985480D01*
X94110755Y-105987862D01*
X93980872Y-106080019D01*
X93845246Y-106168097D01*
X93841467Y-106170364D01*
X93701921Y-106247488D01*
X93558423Y-106320604D01*
X93554001Y-106322643D01*
X93406170Y-106383877D01*
X93256781Y-106441221D01*
X93251725Y-106442916D01*
X93096702Y-106487579D01*
X92943827Y-106528541D01*
X92938163Y-106529778D01*
X92775630Y-106557394D01*
X92623240Y-106581530D01*
X92617013Y-106582196D01*
X92433382Y-106592509D01*
X92301622Y-106599415D01*
X92298376Y-106599500D01*
X91531903Y-106599500D01*
X91298633Y-106636446D01*
X91275599Y-106643931D01*
X91237280Y-106650000D01*
X90764455Y-106650000D01*
X90697416Y-106630315D01*
X90651661Y-106577511D01*
X90645478Y-106560934D01*
X90609954Y-106439949D01*
X90573919Y-106383877D01*
X90532143Y-106318872D01*
X90423373Y-106224623D01*
X90364296Y-106197643D01*
X90292456Y-106164834D01*
X90212611Y-106153355D01*
X90185799Y-106149500D01*
X90114201Y-106149500D01*
X90100794Y-106151427D01*
X90007543Y-106164834D01*
X89876628Y-106224622D01*
X89876626Y-106224623D01*
X89831201Y-106263984D01*
X89767644Y-106293008D01*
X89698486Y-106283064D01*
X89668796Y-106263982D01*
X89623377Y-106224625D01*
X89623371Y-106224622D01*
X89492456Y-106164834D01*
X89412611Y-106153355D01*
X89385799Y-106149500D01*
X89314201Y-106149500D01*
X89300794Y-106151427D01*
X89207543Y-106164834D01*
X89076628Y-106224622D01*
X89076622Y-106224625D01*
X89031202Y-106263983D01*
X88967647Y-106293008D01*
X88898488Y-106283064D01*
X88868798Y-106263983D01*
X88823377Y-106224625D01*
X88823371Y-106224622D01*
X88692456Y-106164834D01*
X88612611Y-106153355D01*
X88585799Y-106149500D01*
X88514201Y-106149500D01*
X88500794Y-106151427D01*
X88407543Y-106164834D01*
X88276628Y-106224622D01*
X88276622Y-106224625D01*
X88231202Y-106263983D01*
X88167647Y-106293008D01*
X88098488Y-106283064D01*
X88068798Y-106263983D01*
X88023377Y-106224625D01*
X88023371Y-106224622D01*
X87892456Y-106164834D01*
X87812611Y-106153355D01*
X87785799Y-106149500D01*
X87714201Y-106149500D01*
X87700794Y-106151427D01*
X87607543Y-106164834D01*
X87476628Y-106224622D01*
X87476622Y-106224625D01*
X87431202Y-106263983D01*
X87367647Y-106293008D01*
X87298488Y-106283064D01*
X87268798Y-106263983D01*
X87223377Y-106224625D01*
X87223371Y-106224622D01*
X87092456Y-106164834D01*
X87012611Y-106153355D01*
X86985799Y-106149500D01*
X86914201Y-106149500D01*
X86900794Y-106151427D01*
X86807543Y-106164834D01*
X86676628Y-106224622D01*
X86676622Y-106224625D01*
X86631202Y-106263983D01*
X86567647Y-106293008D01*
X86498488Y-106283064D01*
X86468798Y-106263983D01*
X86423377Y-106224625D01*
X86423371Y-106224622D01*
X86292456Y-106164834D01*
X86212611Y-106153355D01*
X86185799Y-106149500D01*
X86114201Y-106149500D01*
X86100794Y-106151427D01*
X86007543Y-106164834D01*
X85876628Y-106224622D01*
X85876622Y-106224625D01*
X85831202Y-106263983D01*
X85767647Y-106293008D01*
X85698488Y-106283064D01*
X85668798Y-106263983D01*
X85623377Y-106224625D01*
X85623371Y-106224622D01*
X85492456Y-106164834D01*
X85412611Y-106153355D01*
X85385799Y-106149500D01*
X85314201Y-106149500D01*
X85300794Y-106151427D01*
X85207543Y-106164834D01*
X85076628Y-106224622D01*
X85076622Y-106224625D01*
X85031202Y-106263983D01*
X84967647Y-106293008D01*
X84898488Y-106283064D01*
X84868798Y-106263983D01*
X84823377Y-106224625D01*
X84823371Y-106224622D01*
X84692456Y-106164834D01*
X84612611Y-106153355D01*
X84585799Y-106149500D01*
X84514201Y-106149500D01*
X84500794Y-106151427D01*
X84407543Y-106164834D01*
X84276628Y-106224622D01*
X84276626Y-106224623D01*
X84167856Y-106318873D01*
X84090045Y-106439949D01*
X84054522Y-106560934D01*
X84016748Y-106619713D01*
X83953193Y-106648738D01*
X83935545Y-106650000D01*
X83462720Y-106650000D01*
X83424401Y-106643931D01*
X83401366Y-106636446D01*
X83168097Y-106599500D01*
X83168092Y-106599500D01*
X83050099Y-106599500D01*
X81950500Y-106599500D01*
X81950000Y-106599500D01*
X81831908Y-106599500D01*
X81831903Y-106599500D01*
X81598633Y-106636446D01*
X81575599Y-106643931D01*
X81537280Y-106650000D01*
X81064455Y-106650000D01*
X80997416Y-106630315D01*
X80951661Y-106577511D01*
X80945478Y-106560934D01*
X80909954Y-106439949D01*
X80873919Y-106383877D01*
X80832143Y-106318872D01*
X80723373Y-106224623D01*
X80664296Y-106197643D01*
X80592456Y-106164834D01*
X80512611Y-106153355D01*
X80485799Y-106149500D01*
X80414201Y-106149500D01*
X80400794Y-106151427D01*
X80307543Y-106164834D01*
X80176628Y-106224622D01*
X80176622Y-106224625D01*
X80131201Y-106263983D01*
X80067645Y-106293007D01*
X79998487Y-106283063D01*
X79968799Y-106263983D01*
X79923377Y-106224625D01*
X79923371Y-106224622D01*
X79792456Y-106164834D01*
X79712611Y-106153355D01*
X79685799Y-106149500D01*
X79614201Y-106149500D01*
X79600794Y-106151427D01*
X79507543Y-106164834D01*
X79376628Y-106224622D01*
X79376622Y-106224625D01*
X79331201Y-106263983D01*
X79267645Y-106293007D01*
X79198487Y-106283063D01*
X79168799Y-106263983D01*
X79123377Y-106224625D01*
X79123371Y-106224622D01*
X78992456Y-106164834D01*
X78912611Y-106153355D01*
X78885799Y-106149500D01*
X78814201Y-106149500D01*
X78800794Y-106151427D01*
X78707543Y-106164834D01*
X78576628Y-106224622D01*
X78576622Y-106224625D01*
X78531201Y-106263983D01*
X78467645Y-106293007D01*
X78398487Y-106283063D01*
X78368799Y-106263983D01*
X78323377Y-106224625D01*
X78323371Y-106224622D01*
X78192456Y-106164834D01*
X78112611Y-106153355D01*
X78085799Y-106149500D01*
X78014201Y-106149500D01*
X78000794Y-106151427D01*
X77907543Y-106164834D01*
X77776628Y-106224622D01*
X77776622Y-106224625D01*
X77731201Y-106263983D01*
X77667645Y-106293007D01*
X77598487Y-106283063D01*
X77568799Y-106263983D01*
X77523377Y-106224625D01*
X77523371Y-106224622D01*
X77392456Y-106164834D01*
X77312611Y-106153355D01*
X77285799Y-106149500D01*
X77214201Y-106149500D01*
X77200794Y-106151427D01*
X77107543Y-106164834D01*
X76976628Y-106224622D01*
X76976622Y-106224625D01*
X76931201Y-106263983D01*
X76867645Y-106293007D01*
X76798487Y-106283063D01*
X76768799Y-106263983D01*
X76723377Y-106224625D01*
X76723371Y-106224622D01*
X76592456Y-106164834D01*
X76512611Y-106153355D01*
X76485799Y-106149500D01*
X76414201Y-106149500D01*
X76400794Y-106151427D01*
X76307543Y-106164834D01*
X76176628Y-106224622D01*
X76176622Y-106224625D01*
X76131201Y-106263983D01*
X76067645Y-106293007D01*
X75998487Y-106283063D01*
X75968799Y-106263983D01*
X75923377Y-106224625D01*
X75923371Y-106224622D01*
X75792456Y-106164834D01*
X75712611Y-106153355D01*
X75685799Y-106149500D01*
X75614201Y-106149500D01*
X75600794Y-106151427D01*
X75507543Y-106164834D01*
X75376628Y-106224622D01*
X75376622Y-106224625D01*
X75331201Y-106263983D01*
X75267645Y-106293007D01*
X75198487Y-106283063D01*
X75168799Y-106263983D01*
X75123377Y-106224625D01*
X75123371Y-106224622D01*
X74992456Y-106164834D01*
X74912611Y-106153355D01*
X74885799Y-106149500D01*
X74814201Y-106149500D01*
X74800794Y-106151427D01*
X74707543Y-106164834D01*
X74576628Y-106224622D01*
X74576626Y-106224623D01*
X74467856Y-106318873D01*
X74390045Y-106439949D01*
X74354522Y-106560934D01*
X74316748Y-106619713D01*
X74253193Y-106648738D01*
X74235545Y-106650000D01*
X73762720Y-106650000D01*
X73724401Y-106643931D01*
X73701366Y-106636446D01*
X73468097Y-106599500D01*
X73468092Y-106599500D01*
X73350099Y-106599500D01*
X72250500Y-106599500D01*
X72250000Y-106599500D01*
X72131908Y-106599500D01*
X72131903Y-106599500D01*
X71898633Y-106636446D01*
X71875599Y-106643931D01*
X71837280Y-106650000D01*
X71364455Y-106650000D01*
X71297416Y-106630315D01*
X71251661Y-106577511D01*
X71245478Y-106560934D01*
X71209954Y-106439949D01*
X71173919Y-106383877D01*
X71132143Y-106318872D01*
X71023373Y-106224623D01*
X70964296Y-106197643D01*
X70892456Y-106164834D01*
X70812611Y-106153355D01*
X70785799Y-106149500D01*
X70714201Y-106149500D01*
X70700794Y-106151427D01*
X70607543Y-106164834D01*
X70476628Y-106224622D01*
X70476622Y-106224625D01*
X70431202Y-106263983D01*
X70367647Y-106293008D01*
X70298488Y-106283064D01*
X70268798Y-106263983D01*
X70223377Y-106224625D01*
X70223371Y-106224622D01*
X70092456Y-106164834D01*
X70012611Y-106153355D01*
X69985799Y-106149500D01*
X69914201Y-106149500D01*
X69900794Y-106151427D01*
X69807543Y-106164834D01*
X69676628Y-106224622D01*
X69676622Y-106224625D01*
X69631202Y-106263983D01*
X69567647Y-106293008D01*
X69498488Y-106283064D01*
X69468798Y-106263983D01*
X69423377Y-106224625D01*
X69423371Y-106224622D01*
X69292456Y-106164834D01*
X69212611Y-106153355D01*
X69185799Y-106149500D01*
X69114201Y-106149500D01*
X69100794Y-106151427D01*
X69007543Y-106164834D01*
X68876628Y-106224622D01*
X68876622Y-106224625D01*
X68831202Y-106263983D01*
X68767647Y-106293008D01*
X68698488Y-106283064D01*
X68668798Y-106263983D01*
X68623377Y-106224625D01*
X68623371Y-106224622D01*
X68492456Y-106164834D01*
X68412611Y-106153355D01*
X68385799Y-106149500D01*
X68314201Y-106149500D01*
X68300794Y-106151427D01*
X68207543Y-106164834D01*
X68076628Y-106224622D01*
X68076622Y-106224625D01*
X68031202Y-106263983D01*
X67967647Y-106293008D01*
X67898488Y-106283064D01*
X67868798Y-106263983D01*
X67823377Y-106224625D01*
X67823371Y-106224622D01*
X67692456Y-106164834D01*
X67612611Y-106153355D01*
X67585799Y-106149500D01*
X67514201Y-106149500D01*
X67500794Y-106151427D01*
X67407543Y-106164834D01*
X67276628Y-106224622D01*
X67276622Y-106224625D01*
X67231202Y-106263983D01*
X67167647Y-106293008D01*
X67098488Y-106283064D01*
X67068798Y-106263983D01*
X67023377Y-106224625D01*
X67023371Y-106224622D01*
X66892456Y-106164834D01*
X66812611Y-106153355D01*
X66785799Y-106149500D01*
X66714201Y-106149500D01*
X66700794Y-106151427D01*
X66607543Y-106164834D01*
X66476628Y-106224622D01*
X66476626Y-106224623D01*
X66431201Y-106263984D01*
X66367644Y-106293008D01*
X66298486Y-106283064D01*
X66268796Y-106263982D01*
X66223377Y-106224625D01*
X66223371Y-106224622D01*
X66092456Y-106164834D01*
X66012611Y-106153355D01*
X65985799Y-106149500D01*
X65914201Y-106149500D01*
X65900794Y-106151427D01*
X65807543Y-106164834D01*
X65676628Y-106224622D01*
X65676622Y-106224625D01*
X65631202Y-106263983D01*
X65567647Y-106293008D01*
X65498488Y-106283064D01*
X65468798Y-106263983D01*
X65423377Y-106224625D01*
X65423371Y-106224622D01*
X65292456Y-106164834D01*
X65212611Y-106153355D01*
X65185799Y-106149500D01*
X65114201Y-106149500D01*
X65100794Y-106151427D01*
X65007543Y-106164834D01*
X64876628Y-106224622D01*
X64876626Y-106224623D01*
X64767856Y-106318873D01*
X64690045Y-106439949D01*
X64654522Y-106560934D01*
X64616748Y-106619713D01*
X64553193Y-106648738D01*
X64535545Y-106650000D01*
X64062720Y-106650000D01*
X64024401Y-106643931D01*
X64001366Y-106636446D01*
X63768097Y-106599500D01*
X63768092Y-106599500D01*
X63650099Y-106599500D01*
X62550500Y-106599500D01*
X62550000Y-106599500D01*
X62431908Y-106599500D01*
X62431903Y-106599500D01*
X62198633Y-106636446D01*
X62175599Y-106643931D01*
X62137280Y-106650000D01*
X61664455Y-106650000D01*
X61597416Y-106630315D01*
X61551661Y-106577511D01*
X61545478Y-106560934D01*
X61509954Y-106439949D01*
X61473919Y-106383877D01*
X61432143Y-106318872D01*
X61323373Y-106224623D01*
X61264296Y-106197643D01*
X61192456Y-106164834D01*
X61112611Y-106153355D01*
X61085799Y-106149500D01*
X61014201Y-106149500D01*
X61000794Y-106151427D01*
X60907543Y-106164834D01*
X60776628Y-106224622D01*
X60776622Y-106224625D01*
X60731202Y-106263983D01*
X60667647Y-106293008D01*
X60598488Y-106283064D01*
X60568798Y-106263983D01*
X60523377Y-106224625D01*
X60523371Y-106224622D01*
X60392456Y-106164834D01*
X60312611Y-106153355D01*
X60285799Y-106149500D01*
X60214201Y-106149500D01*
X60200794Y-106151427D01*
X60107543Y-106164834D01*
X59976628Y-106224622D01*
X59976626Y-106224623D01*
X59931201Y-106263984D01*
X59867644Y-106293008D01*
X59798486Y-106283064D01*
X59768796Y-106263982D01*
X59723377Y-106224625D01*
X59723371Y-106224622D01*
X59592456Y-106164834D01*
X59512611Y-106153355D01*
X59485799Y-106149500D01*
X59414201Y-106149500D01*
X59400794Y-106151427D01*
X59307543Y-106164834D01*
X59176628Y-106224622D01*
X59176622Y-106224625D01*
X59131202Y-106263983D01*
X59067647Y-106293008D01*
X58998488Y-106283064D01*
X58968798Y-106263983D01*
X58923377Y-106224625D01*
X58923371Y-106224622D01*
X58792456Y-106164834D01*
X58712611Y-106153355D01*
X58685799Y-106149500D01*
X58614201Y-106149500D01*
X58600794Y-106151427D01*
X58507543Y-106164834D01*
X58376628Y-106224622D01*
X58376626Y-106224623D01*
X58331201Y-106263984D01*
X58267644Y-106293008D01*
X58198486Y-106283064D01*
X58168796Y-106263982D01*
X58123377Y-106224625D01*
X58123371Y-106224622D01*
X57992456Y-106164834D01*
X57912611Y-106153355D01*
X57885799Y-106149500D01*
X57814201Y-106149500D01*
X57800794Y-106151427D01*
X57707543Y-106164834D01*
X57576628Y-106224622D01*
X57576622Y-106224625D01*
X57531202Y-106263983D01*
X57467647Y-106293008D01*
X57398488Y-106283064D01*
X57368798Y-106263983D01*
X57323377Y-106224625D01*
X57323371Y-106224622D01*
X57192456Y-106164834D01*
X57112611Y-106153355D01*
X57085799Y-106149500D01*
X57014201Y-106149500D01*
X57000794Y-106151427D01*
X56907543Y-106164834D01*
X56776628Y-106224622D01*
X56776626Y-106224623D01*
X56731201Y-106263984D01*
X56667644Y-106293008D01*
X56598486Y-106283064D01*
X56568796Y-106263982D01*
X56523377Y-106224625D01*
X56523371Y-106224622D01*
X56392456Y-106164834D01*
X56312611Y-106153355D01*
X56285799Y-106149500D01*
X56214201Y-106149500D01*
X56200794Y-106151427D01*
X56107543Y-106164834D01*
X55976628Y-106224622D01*
X55976622Y-106224625D01*
X55931202Y-106263983D01*
X55867647Y-106293008D01*
X55798488Y-106283064D01*
X55768798Y-106263983D01*
X55723377Y-106224625D01*
X55723371Y-106224622D01*
X55592456Y-106164834D01*
X55512611Y-106153355D01*
X55485799Y-106149500D01*
X55414201Y-106149500D01*
X55400794Y-106151427D01*
X55307543Y-106164834D01*
X55176628Y-106224622D01*
X55176626Y-106224623D01*
X55067856Y-106318873D01*
X54990045Y-106439949D01*
X54954522Y-106560934D01*
X54916748Y-106619713D01*
X54853193Y-106648738D01*
X54835545Y-106650000D01*
X54362720Y-106650000D01*
X54324401Y-106643931D01*
X54301366Y-106636446D01*
X54068097Y-106599500D01*
X54068092Y-106599500D01*
X53950099Y-106599500D01*
X53301624Y-106599500D01*
X53298378Y-106599415D01*
X53166617Y-106592509D01*
X52982985Y-106582196D01*
X52976758Y-106581530D01*
X52824369Y-106557394D01*
X52661835Y-106529778D01*
X52656171Y-106528541D01*
X52503297Y-106487579D01*
X52348273Y-106442916D01*
X52343217Y-106441221D01*
X52193829Y-106383877D01*
X52045997Y-106322643D01*
X52041575Y-106320604D01*
X51898078Y-106247488D01*
X51758531Y-106170364D01*
X51754767Y-106168106D01*
X51701875Y-106133758D01*
X51619127Y-106080019D01*
X51489243Y-105987862D01*
X51486102Y-105985480D01*
X51361260Y-105884385D01*
X51358964Y-105882431D01*
X51241277Y-105777260D01*
X51238750Y-105774870D01*
X51125128Y-105661248D01*
X51122738Y-105658721D01*
X51017567Y-105541034D01*
X51015613Y-105538738D01*
X50976848Y-105490867D01*
X50914510Y-105413886D01*
X50912136Y-105410755D01*
X50904504Y-105399999D01*
X50877054Y-105361311D01*
X50819980Y-105280872D01*
X50787406Y-105230715D01*
X50731882Y-105145215D01*
X50729641Y-105141480D01*
X50662434Y-105019876D01*
X50652511Y-105001921D01*
X50612899Y-104924180D01*
X50579388Y-104858412D01*
X50577358Y-104854007D01*
X50516122Y-104706170D01*
X50458769Y-104556759D01*
X50457082Y-104551724D01*
X50412420Y-104396702D01*
X50407316Y-104377652D01*
X50371453Y-104243811D01*
X50370226Y-104238194D01*
X50342601Y-104075606D01*
X50318465Y-103923212D01*
X50317803Y-103917027D01*
X50307490Y-103733382D01*
X50300584Y-103601620D01*
X50300500Y-103598377D01*
X50300500Y-102100002D01*
X51495153Y-102100002D01*
X51514526Y-102457314D01*
X51514527Y-102457331D01*
X51572415Y-102810431D01*
X51572421Y-102810457D01*
X51668147Y-103155232D01*
X51668149Y-103155239D01*
X51800597Y-103487659D01*
X51800606Y-103487677D01*
X51968218Y-103803827D01*
X52169033Y-104100007D01*
X52296441Y-104250003D01*
X52296442Y-104250004D01*
X53407413Y-103139032D01*
X53468736Y-103105547D01*
X53538427Y-103110531D01*
X53589381Y-103146179D01*
X53665130Y-103234870D01*
X53710987Y-103274035D01*
X53753816Y-103310615D01*
X53792009Y-103369122D01*
X53792507Y-103438990D01*
X53760965Y-103492586D01*
X52647255Y-104606295D01*
X52647256Y-104606296D01*
X52660485Y-104618828D01*
X52660486Y-104618829D01*
X52945367Y-104835388D01*
X52945370Y-104835390D01*
X53251990Y-105019876D01*
X53576739Y-105170122D01*
X53576744Y-105170123D01*
X53915855Y-105284383D01*
X54265339Y-105361311D01*
X54621075Y-105399999D01*
X54621085Y-105400000D01*
X54978915Y-105400000D01*
X54978924Y-105399999D01*
X55334660Y-105361311D01*
X55684144Y-105284383D01*
X56023255Y-105170123D01*
X56023260Y-105170122D01*
X56348009Y-105019876D01*
X56654629Y-104835390D01*
X56654632Y-104835388D01*
X56939504Y-104618836D01*
X56952742Y-104606294D01*
X55839033Y-103492586D01*
X55805548Y-103431263D01*
X55810532Y-103361571D01*
X55846180Y-103310617D01*
X55934870Y-103234870D01*
X56010617Y-103146180D01*
X56069121Y-103107990D01*
X56138989Y-103107490D01*
X56192586Y-103139033D01*
X57303556Y-104250003D01*
X57430964Y-104100008D01*
X57430975Y-104099994D01*
X57631781Y-103803827D01*
X57799393Y-103487677D01*
X57799402Y-103487659D01*
X57931850Y-103155239D01*
X57931852Y-103155232D01*
X57975543Y-102997870D01*
X60324500Y-102997870D01*
X60324501Y-102997876D01*
X60330908Y-103057483D01*
X60381202Y-103192328D01*
X60381206Y-103192335D01*
X60467452Y-103307544D01*
X60467455Y-103307547D01*
X60582664Y-103393793D01*
X60582671Y-103393797D01*
X60717517Y-103444091D01*
X60717516Y-103444091D01*
X60724444Y-103444835D01*
X60777127Y-103450500D01*
X62572872Y-103450499D01*
X62632483Y-103444091D01*
X62767331Y-103393796D01*
X62882546Y-103307546D01*
X62968796Y-103192331D01*
X63018002Y-103060401D01*
X63059872Y-103004468D01*
X63125337Y-102980050D01*
X63193610Y-102994901D01*
X63221865Y-103016053D01*
X63343917Y-103138105D01*
X63537421Y-103273600D01*
X63751507Y-103373429D01*
X63751516Y-103373433D01*
X63965000Y-103430634D01*
X63965000Y-102712301D01*
X63984685Y-102645262D01*
X64037489Y-102599507D01*
X64106647Y-102589563D01*
X64179237Y-102600000D01*
X64179238Y-102600000D01*
X64250762Y-102600000D01*
X64250763Y-102600000D01*
X64323353Y-102589563D01*
X64392512Y-102599507D01*
X64445315Y-102645262D01*
X64465000Y-102712301D01*
X64465000Y-103430633D01*
X64678483Y-103373433D01*
X64678492Y-103373429D01*
X64892578Y-103273600D01*
X65086082Y-103138105D01*
X65253105Y-102971082D01*
X65383119Y-102785405D01*
X65437696Y-102741781D01*
X65507195Y-102734588D01*
X65569549Y-102766110D01*
X65586269Y-102785405D01*
X65716505Y-102971401D01*
X65883599Y-103138495D01*
X65980384Y-103206264D01*
X66077165Y-103274032D01*
X66077167Y-103274033D01*
X66077170Y-103274035D01*
X66291337Y-103373903D01*
X66519592Y-103435063D01*
X66696034Y-103450500D01*
X66754999Y-103455659D01*
X66755000Y-103455659D01*
X66755001Y-103455659D01*
X66813966Y-103450500D01*
X66990408Y-103435063D01*
X67218663Y-103373903D01*
X67432830Y-103274035D01*
X67626401Y-103138495D01*
X67793495Y-102971401D01*
X67923730Y-102785405D01*
X67978307Y-102741781D01*
X68047805Y-102734587D01*
X68110160Y-102766110D01*
X68126879Y-102785405D01*
X68256890Y-102971078D01*
X68423917Y-103138105D01*
X68617421Y-103273600D01*
X68831507Y-103373429D01*
X68831516Y-103373433D01*
X69045000Y-103430634D01*
X69045000Y-102712301D01*
X69064685Y-102645262D01*
X69117489Y-102599507D01*
X69186647Y-102589563D01*
X69259237Y-102600000D01*
X69259238Y-102600000D01*
X69330762Y-102600000D01*
X69330763Y-102600000D01*
X69403353Y-102589563D01*
X69472512Y-102599507D01*
X69525315Y-102645262D01*
X69545000Y-102712301D01*
X69545000Y-103430633D01*
X69758483Y-103373433D01*
X69758492Y-103373429D01*
X69972578Y-103273600D01*
X70166082Y-103138105D01*
X70333105Y-102971082D01*
X70463119Y-102785405D01*
X70517696Y-102741781D01*
X70587195Y-102734588D01*
X70649549Y-102766110D01*
X70666269Y-102785405D01*
X70796505Y-102971401D01*
X70963599Y-103138495D01*
X71060384Y-103206264D01*
X71157165Y-103274032D01*
X71157167Y-103274033D01*
X71157170Y-103274035D01*
X71371337Y-103373903D01*
X71599592Y-103435063D01*
X71776034Y-103450500D01*
X71834999Y-103455659D01*
X71835000Y-103455659D01*
X71835001Y-103455659D01*
X71893966Y-103450500D01*
X72070408Y-103435063D01*
X72298663Y-103373903D01*
X72512830Y-103274035D01*
X72706401Y-103138495D01*
X72873495Y-102971401D01*
X73003730Y-102785405D01*
X73058307Y-102741781D01*
X73127805Y-102734587D01*
X73190160Y-102766110D01*
X73206879Y-102785405D01*
X73336890Y-102971078D01*
X73503917Y-103138105D01*
X73697421Y-103273600D01*
X73911507Y-103373429D01*
X73911516Y-103373433D01*
X74125000Y-103430634D01*
X74125000Y-102712301D01*
X74144685Y-102645262D01*
X74197489Y-102599507D01*
X74266647Y-102589563D01*
X74339237Y-102600000D01*
X74339238Y-102600000D01*
X74410762Y-102600000D01*
X74410763Y-102600000D01*
X74483353Y-102589563D01*
X74552512Y-102599507D01*
X74605315Y-102645262D01*
X74625000Y-102712301D01*
X74625000Y-103430633D01*
X74838483Y-103373433D01*
X74838492Y-103373429D01*
X75052578Y-103273600D01*
X75246082Y-103138105D01*
X75413105Y-102971082D01*
X75543119Y-102785405D01*
X75597696Y-102741781D01*
X75667195Y-102734588D01*
X75729549Y-102766110D01*
X75746269Y-102785405D01*
X75876505Y-102971401D01*
X76043599Y-103138495D01*
X76140384Y-103206264D01*
X76237165Y-103274032D01*
X76237167Y-103274033D01*
X76237170Y-103274035D01*
X76451337Y-103373903D01*
X76679592Y-103435063D01*
X76856034Y-103450500D01*
X76914999Y-103455659D01*
X76915000Y-103455659D01*
X76915001Y-103455659D01*
X76973966Y-103450500D01*
X77150408Y-103435063D01*
X77378663Y-103373903D01*
X77592830Y-103274035D01*
X77786401Y-103138495D01*
X77953495Y-102971401D01*
X78083730Y-102785405D01*
X78138307Y-102741781D01*
X78207805Y-102734587D01*
X78270160Y-102766110D01*
X78286879Y-102785405D01*
X78416890Y-102971078D01*
X78583917Y-103138105D01*
X78777421Y-103273600D01*
X78991507Y-103373429D01*
X78991516Y-103373433D01*
X79205000Y-103430634D01*
X79205000Y-102712301D01*
X79224685Y-102645262D01*
X79277489Y-102599507D01*
X79346647Y-102589563D01*
X79419237Y-102600000D01*
X79419238Y-102600000D01*
X79490762Y-102600000D01*
X79490763Y-102600000D01*
X79563353Y-102589563D01*
X79632512Y-102599507D01*
X79685315Y-102645262D01*
X79705000Y-102712301D01*
X79705000Y-103430633D01*
X79918483Y-103373433D01*
X79918492Y-103373429D01*
X80132578Y-103273600D01*
X80326082Y-103138105D01*
X80493105Y-102971082D01*
X80623119Y-102785405D01*
X80677696Y-102741781D01*
X80747195Y-102734588D01*
X80809549Y-102766110D01*
X80826269Y-102785405D01*
X80956505Y-102971401D01*
X81123599Y-103138495D01*
X81220384Y-103206264D01*
X81317165Y-103274032D01*
X81317167Y-103274033D01*
X81317170Y-103274035D01*
X81531337Y-103373903D01*
X81759592Y-103435063D01*
X81936034Y-103450500D01*
X81994999Y-103455659D01*
X81995000Y-103455659D01*
X81995001Y-103455659D01*
X82053966Y-103450500D01*
X82230408Y-103435063D01*
X82458663Y-103373903D01*
X82672830Y-103274035D01*
X82866401Y-103138495D01*
X83033495Y-102971401D01*
X83163730Y-102785405D01*
X83218307Y-102741781D01*
X83287805Y-102734587D01*
X83350160Y-102766110D01*
X83366879Y-102785405D01*
X83496890Y-102971078D01*
X83663917Y-103138105D01*
X83857421Y-103273600D01*
X84071507Y-103373429D01*
X84071516Y-103373433D01*
X84285000Y-103430634D01*
X84285000Y-102712301D01*
X84304685Y-102645262D01*
X84357489Y-102599507D01*
X84426647Y-102589563D01*
X84499237Y-102600000D01*
X84499238Y-102600000D01*
X84570762Y-102600000D01*
X84570763Y-102600000D01*
X84643352Y-102589563D01*
X84712510Y-102599507D01*
X84765314Y-102645261D01*
X84784999Y-102712301D01*
X84784999Y-103430634D01*
X84998483Y-103373433D01*
X84998492Y-103373429D01*
X85212578Y-103273600D01*
X85406082Y-103138105D01*
X85573105Y-102971082D01*
X85708600Y-102777578D01*
X85808429Y-102563492D01*
X85808432Y-102563486D01*
X85865636Y-102350000D01*
X85148347Y-102350000D01*
X85081308Y-102330315D01*
X85035553Y-102277511D01*
X85025609Y-102208353D01*
X85029369Y-102191067D01*
X85035000Y-102171888D01*
X85035000Y-102100002D01*
X87495153Y-102100002D01*
X87514526Y-102457314D01*
X87514527Y-102457331D01*
X87572415Y-102810431D01*
X87572421Y-102810457D01*
X87668147Y-103155232D01*
X87668149Y-103155239D01*
X87800597Y-103487659D01*
X87800606Y-103487677D01*
X87968218Y-103803827D01*
X88169033Y-104100007D01*
X88296441Y-104250003D01*
X88296442Y-104250004D01*
X89407413Y-103139032D01*
X89468736Y-103105547D01*
X89538427Y-103110531D01*
X89589381Y-103146179D01*
X89665130Y-103234870D01*
X89710987Y-103274035D01*
X89753816Y-103310615D01*
X89792009Y-103369122D01*
X89792507Y-103438990D01*
X89760965Y-103492586D01*
X88647255Y-104606295D01*
X88647256Y-104606296D01*
X88660485Y-104618828D01*
X88660486Y-104618829D01*
X88945367Y-104835388D01*
X88945370Y-104835390D01*
X89251990Y-105019876D01*
X89576739Y-105170122D01*
X89576744Y-105170123D01*
X89915855Y-105284383D01*
X90265339Y-105361311D01*
X90621075Y-105399999D01*
X90621085Y-105400000D01*
X90978915Y-105400000D01*
X90978924Y-105399999D01*
X91334660Y-105361311D01*
X91684144Y-105284383D01*
X92023255Y-105170123D01*
X92023260Y-105170122D01*
X92348009Y-105019876D01*
X92654629Y-104835390D01*
X92654632Y-104835388D01*
X92939504Y-104618836D01*
X92952742Y-104606294D01*
X91839033Y-103492586D01*
X91805548Y-103431263D01*
X91810532Y-103361571D01*
X91846180Y-103310617D01*
X91934870Y-103234870D01*
X92010617Y-103146180D01*
X92069121Y-103107990D01*
X92138989Y-103107490D01*
X92192586Y-103139033D01*
X93303556Y-104250003D01*
X93430964Y-104100008D01*
X93430975Y-104099994D01*
X93631781Y-103803827D01*
X93799393Y-103487677D01*
X93799402Y-103487659D01*
X93931850Y-103155239D01*
X93931852Y-103155232D01*
X94027578Y-102810457D01*
X94027584Y-102810431D01*
X94085472Y-102457331D01*
X94085473Y-102457314D01*
X94104847Y-102100002D01*
X94104847Y-102099997D01*
X94085473Y-101742685D01*
X94085472Y-101742668D01*
X94027584Y-101389568D01*
X94027578Y-101389542D01*
X93931852Y-101044767D01*
X93931850Y-101044760D01*
X93799402Y-100712340D01*
X93799393Y-100712322D01*
X93631781Y-100396172D01*
X93430966Y-100099992D01*
X93303557Y-99949995D01*
X93303556Y-99949994D01*
X92192586Y-101060965D01*
X92131263Y-101094450D01*
X92061571Y-101089466D01*
X92010615Y-101053816D01*
X91971203Y-101007671D01*
X91934870Y-100965130D01*
X91846179Y-100889381D01*
X91807989Y-100830878D01*
X91807489Y-100761010D01*
X91839032Y-100707413D01*
X92952743Y-99593703D01*
X92952742Y-99593702D01*
X92939514Y-99581171D01*
X92939513Y-99581170D01*
X92654632Y-99364611D01*
X92654629Y-99364609D01*
X92348009Y-99180123D01*
X92023260Y-99029877D01*
X92023255Y-99029876D01*
X91684144Y-98915616D01*
X91334660Y-98838688D01*
X90978924Y-98800000D01*
X90621075Y-98800000D01*
X90265339Y-98838688D01*
X89915855Y-98915616D01*
X89576744Y-99029876D01*
X89576739Y-99029877D01*
X89251990Y-99180123D01*
X88945370Y-99364609D01*
X88945367Y-99364611D01*
X88660491Y-99581166D01*
X88647256Y-99593703D01*
X88647255Y-99593703D01*
X89760966Y-100707413D01*
X89794451Y-100768736D01*
X89789467Y-100838428D01*
X89753817Y-100889384D01*
X89665130Y-100965130D01*
X89589384Y-101053817D01*
X89530877Y-101092010D01*
X89461009Y-101092508D01*
X89407413Y-101060966D01*
X88296442Y-99949994D01*
X88296441Y-99949995D01*
X88169040Y-100099983D01*
X88169033Y-100099993D01*
X87968218Y-100396172D01*
X87800606Y-100712322D01*
X87800597Y-100712340D01*
X87668149Y-101044760D01*
X87668147Y-101044767D01*
X87572421Y-101389542D01*
X87572415Y-101389568D01*
X87514527Y-101742668D01*
X87514526Y-101742685D01*
X87495153Y-102099997D01*
X87495153Y-102100002D01*
X85035000Y-102100002D01*
X85035000Y-102028111D01*
X85029369Y-102008933D01*
X85029370Y-101939064D01*
X85067145Y-101880286D01*
X85130701Y-101851262D01*
X85148347Y-101850000D01*
X85865636Y-101850000D01*
X85865635Y-101849999D01*
X85808432Y-101636513D01*
X85808429Y-101636507D01*
X85708600Y-101422422D01*
X85708599Y-101422420D01*
X85573113Y-101228926D01*
X85573108Y-101228920D01*
X85406082Y-101061894D01*
X85212578Y-100926399D01*
X84998492Y-100826570D01*
X84998486Y-100826567D01*
X84785000Y-100769364D01*
X84784999Y-100769364D01*
X84784999Y-101487698D01*
X84765314Y-101554738D01*
X84712510Y-101600492D01*
X84643353Y-101610436D01*
X84570764Y-101600000D01*
X84570763Y-101600000D01*
X84499237Y-101600000D01*
X84499233Y-101600000D01*
X84426645Y-101610436D01*
X84357487Y-101600492D01*
X84304684Y-101554736D01*
X84285000Y-101487698D01*
X84285000Y-100769364D01*
X84284999Y-100769364D01*
X84071513Y-100826567D01*
X84071507Y-100826570D01*
X83857422Y-100926399D01*
X83857420Y-100926400D01*
X83663926Y-101061886D01*
X83663920Y-101061891D01*
X83496891Y-101228920D01*
X83496890Y-101228922D01*
X83366880Y-101414595D01*
X83312303Y-101458219D01*
X83242804Y-101465412D01*
X83180450Y-101433890D01*
X83163730Y-101414594D01*
X83033494Y-101228597D01*
X82866402Y-101061506D01*
X82866401Y-101061505D01*
X82728763Y-100965130D01*
X82673376Y-100926347D01*
X82629751Y-100871770D01*
X82620500Y-100824772D01*
X82620500Y-92380627D01*
X82640185Y-92313588D01*
X82692989Y-92267833D01*
X82762147Y-92257889D01*
X82825703Y-92286914D01*
X82851884Y-92318624D01*
X82917466Y-92432214D01*
X82917467Y-92432216D01*
X83044129Y-92572888D01*
X83197265Y-92684148D01*
X83197270Y-92684151D01*
X83370192Y-92761142D01*
X83370197Y-92761144D01*
X83555354Y-92800500D01*
X83555355Y-92800500D01*
X83744644Y-92800500D01*
X83744646Y-92800500D01*
X83929803Y-92761144D01*
X84102730Y-92684151D01*
X84255871Y-92572888D01*
X84258788Y-92569647D01*
X84261600Y-92566526D01*
X84321087Y-92529879D01*
X84353748Y-92525500D01*
X88796252Y-92525500D01*
X88863291Y-92545185D01*
X88888400Y-92566526D01*
X88894126Y-92572885D01*
X88894130Y-92572889D01*
X89047265Y-92684148D01*
X89047270Y-92684151D01*
X89220192Y-92761142D01*
X89220197Y-92761144D01*
X89405354Y-92800500D01*
X89405355Y-92800500D01*
X89594644Y-92800500D01*
X89594646Y-92800500D01*
X89779803Y-92761144D01*
X89952730Y-92684151D01*
X90105871Y-92572888D01*
X90232533Y-92432216D01*
X90327179Y-92268284D01*
X90385674Y-92088256D01*
X90405460Y-91900000D01*
X90385674Y-91711744D01*
X90327179Y-91531716D01*
X90232533Y-91367784D01*
X90105871Y-91227112D01*
X90105870Y-91227111D01*
X89952734Y-91115851D01*
X89952729Y-91115848D01*
X89779807Y-91038857D01*
X89779802Y-91038855D01*
X89634000Y-91007865D01*
X89594646Y-90999500D01*
X89405354Y-90999500D01*
X89372897Y-91006398D01*
X89220197Y-91038855D01*
X89220192Y-91038857D01*
X89047270Y-91115848D01*
X89047265Y-91115851D01*
X88894130Y-91227110D01*
X88894126Y-91227114D01*
X88888400Y-91233474D01*
X88828913Y-91270121D01*
X88796252Y-91274500D01*
X84353748Y-91274500D01*
X84286709Y-91254815D01*
X84261600Y-91233474D01*
X84255873Y-91227114D01*
X84255869Y-91227110D01*
X84102734Y-91115851D01*
X84102729Y-91115848D01*
X83929807Y-91038857D01*
X83929802Y-91038855D01*
X83784001Y-91007865D01*
X83744646Y-90999500D01*
X83555354Y-90999500D01*
X83522897Y-91006398D01*
X83370197Y-91038855D01*
X83370192Y-91038857D01*
X83197270Y-91115848D01*
X83197265Y-91115851D01*
X83044129Y-91227111D01*
X82917466Y-91367785D01*
X82851887Y-91481372D01*
X82801320Y-91529587D01*
X82732713Y-91542811D01*
X82667849Y-91516843D01*
X82627320Y-91459929D01*
X82620500Y-91419372D01*
X82620500Y-89954240D01*
X82640185Y-89887201D01*
X82652350Y-89871268D01*
X82672079Y-89849356D01*
X82732533Y-89782216D01*
X82827179Y-89618284D01*
X82885674Y-89438256D01*
X82905460Y-89250000D01*
X82885674Y-89061744D01*
X82827179Y-88881716D01*
X82732533Y-88717784D01*
X82605871Y-88577112D01*
X82605870Y-88577111D01*
X82452734Y-88465851D01*
X82452729Y-88465848D01*
X82279807Y-88388857D01*
X82279802Y-88388855D01*
X82134001Y-88357865D01*
X82094646Y-88349500D01*
X81905354Y-88349500D01*
X81872897Y-88356398D01*
X81720197Y-88388855D01*
X81720192Y-88388857D01*
X81547270Y-88465848D01*
X81547265Y-88465851D01*
X81394129Y-88577111D01*
X81267466Y-88717785D01*
X81172821Y-88881715D01*
X81172818Y-88881722D01*
X81114327Y-89061740D01*
X81114326Y-89061744D01*
X81094540Y-89250000D01*
X81114326Y-89438256D01*
X81114327Y-89438259D01*
X81172818Y-89618277D01*
X81172821Y-89618284D01*
X81267467Y-89782216D01*
X81287009Y-89803919D01*
X81337650Y-89860162D01*
X81367880Y-89923153D01*
X81369500Y-89943134D01*
X81369500Y-100824773D01*
X81349815Y-100891812D01*
X81316623Y-100926348D01*
X81123597Y-101061505D01*
X80956508Y-101228594D01*
X80826269Y-101414595D01*
X80771692Y-101458219D01*
X80702193Y-101465412D01*
X80639839Y-101433890D01*
X80623119Y-101414594D01*
X80493113Y-101228926D01*
X80493108Y-101228920D01*
X80326082Y-101061894D01*
X80132578Y-100926399D01*
X79918492Y-100826570D01*
X79918486Y-100826567D01*
X79705000Y-100769364D01*
X79705000Y-101487698D01*
X79685315Y-101554737D01*
X79632511Y-101600492D01*
X79563355Y-101610436D01*
X79490766Y-101600000D01*
X79490763Y-101600000D01*
X79419237Y-101600000D01*
X79419233Y-101600000D01*
X79346645Y-101610436D01*
X79277487Y-101600492D01*
X79224684Y-101554736D01*
X79205000Y-101487698D01*
X79205000Y-100769364D01*
X79204999Y-100769364D01*
X78991513Y-100826567D01*
X78991507Y-100826570D01*
X78777422Y-100926399D01*
X78777420Y-100926400D01*
X78583926Y-101061886D01*
X78583920Y-101061891D01*
X78416891Y-101228920D01*
X78416890Y-101228922D01*
X78286880Y-101414595D01*
X78232303Y-101458219D01*
X78162804Y-101465412D01*
X78100450Y-101433890D01*
X78083730Y-101414594D01*
X77953494Y-101228597D01*
X77786402Y-101061506D01*
X77786395Y-101061501D01*
X77592834Y-100925967D01*
X77592830Y-100925965D01*
X77540500Y-100901563D01*
X77378663Y-100826097D01*
X77378659Y-100826096D01*
X77378655Y-100826094D01*
X77150413Y-100764938D01*
X77150403Y-100764936D01*
X76915001Y-100744341D01*
X76914999Y-100744341D01*
X76679596Y-100764936D01*
X76679586Y-100764938D01*
X76451344Y-100826094D01*
X76451335Y-100826098D01*
X76237171Y-100925964D01*
X76237169Y-100925965D01*
X76043597Y-101061505D01*
X75876508Y-101228594D01*
X75746269Y-101414595D01*
X75691692Y-101458219D01*
X75622193Y-101465412D01*
X75559839Y-101433890D01*
X75543119Y-101414594D01*
X75413113Y-101228926D01*
X75413108Y-101228920D01*
X75246082Y-101061894D01*
X75052578Y-100926399D01*
X74838492Y-100826570D01*
X74838486Y-100826567D01*
X74625000Y-100769364D01*
X74625000Y-101487698D01*
X74605315Y-101554737D01*
X74552511Y-101600492D01*
X74483355Y-101610436D01*
X74410766Y-101600000D01*
X74410763Y-101600000D01*
X74339237Y-101600000D01*
X74339233Y-101600000D01*
X74266645Y-101610436D01*
X74197487Y-101600492D01*
X74144684Y-101554736D01*
X74125000Y-101487698D01*
X74125000Y-100769364D01*
X74124999Y-100769364D01*
X73911513Y-100826567D01*
X73911507Y-100826570D01*
X73697422Y-100926399D01*
X73697420Y-100926400D01*
X73503926Y-101061886D01*
X73503920Y-101061891D01*
X73336891Y-101228920D01*
X73336890Y-101228922D01*
X73206880Y-101414595D01*
X73152303Y-101458219D01*
X73082804Y-101465412D01*
X73020450Y-101433890D01*
X73003730Y-101414594D01*
X72873494Y-101228597D01*
X72706402Y-101061506D01*
X72706395Y-101061501D01*
X72512834Y-100925967D01*
X72512830Y-100925965D01*
X72460500Y-100901563D01*
X72298663Y-100826097D01*
X72298659Y-100826096D01*
X72298655Y-100826094D01*
X72070413Y-100764938D01*
X72070403Y-100764936D01*
X71835001Y-100744341D01*
X71834999Y-100744341D01*
X71599596Y-100764936D01*
X71599586Y-100764938D01*
X71371344Y-100826094D01*
X71371335Y-100826098D01*
X71157171Y-100925964D01*
X71157169Y-100925965D01*
X70963597Y-101061505D01*
X70796508Y-101228594D01*
X70666269Y-101414595D01*
X70611692Y-101458219D01*
X70542193Y-101465412D01*
X70479839Y-101433890D01*
X70463119Y-101414594D01*
X70333113Y-101228926D01*
X70333108Y-101228920D01*
X70166082Y-101061894D01*
X69972578Y-100926399D01*
X69758492Y-100826570D01*
X69758486Y-100826567D01*
X69545000Y-100769364D01*
X69545000Y-101487698D01*
X69525315Y-101554737D01*
X69472511Y-101600492D01*
X69403355Y-101610436D01*
X69330766Y-101600000D01*
X69330763Y-101600000D01*
X69259237Y-101600000D01*
X69259233Y-101600000D01*
X69186645Y-101610436D01*
X69117487Y-101600492D01*
X69064684Y-101554736D01*
X69045000Y-101487698D01*
X69045000Y-100769364D01*
X69044999Y-100769364D01*
X68831513Y-100826567D01*
X68831507Y-100826570D01*
X68617422Y-100926399D01*
X68617420Y-100926400D01*
X68423926Y-101061886D01*
X68423920Y-101061891D01*
X68256891Y-101228920D01*
X68256890Y-101228922D01*
X68126880Y-101414595D01*
X68072303Y-101458219D01*
X68002804Y-101465412D01*
X67940450Y-101433890D01*
X67923730Y-101414594D01*
X67793494Y-101228597D01*
X67626402Y-101061506D01*
X67626401Y-101061505D01*
X67488763Y-100965130D01*
X67433376Y-100926347D01*
X67389751Y-100871770D01*
X67380500Y-100824772D01*
X67380500Y-89803919D01*
X67400185Y-89736880D01*
X67452989Y-89691125D01*
X67478705Y-89682632D01*
X67579803Y-89661144D01*
X67579807Y-89661142D01*
X67579808Y-89661142D01*
X67676067Y-89618284D01*
X67752730Y-89584151D01*
X67905871Y-89472888D01*
X68032533Y-89332216D01*
X68127179Y-89168284D01*
X68185674Y-88988256D01*
X68205460Y-88800000D01*
X68185674Y-88611744D01*
X68127179Y-88431716D01*
X68032533Y-88267784D01*
X67905871Y-88127112D01*
X67905870Y-88127111D01*
X67752734Y-88015851D01*
X67752729Y-88015848D01*
X67579807Y-87938857D01*
X67579802Y-87938855D01*
X67434001Y-87907865D01*
X67394646Y-87899500D01*
X67205354Y-87899500D01*
X67172897Y-87906398D01*
X67020197Y-87938855D01*
X67020192Y-87938857D01*
X66847270Y-88015848D01*
X66847265Y-88015851D01*
X66694129Y-88127111D01*
X66567466Y-88267785D01*
X66472821Y-88431715D01*
X66472818Y-88431722D01*
X66414327Y-88611740D01*
X66414326Y-88611744D01*
X66403181Y-88717784D01*
X66396957Y-88777001D01*
X66370372Y-88841615D01*
X66354803Y-88857424D01*
X66305772Y-88909636D01*
X66284889Y-88930519D01*
X66284877Y-88930532D01*
X66280621Y-88936017D01*
X66276837Y-88940447D01*
X66244937Y-88974418D01*
X66244936Y-88974420D01*
X66235284Y-88991976D01*
X66224610Y-89008226D01*
X66212329Y-89024061D01*
X66212324Y-89024068D01*
X66193815Y-89066838D01*
X66191245Y-89072084D01*
X66168803Y-89112906D01*
X66163822Y-89132307D01*
X66157521Y-89150710D01*
X66149562Y-89169102D01*
X66149561Y-89169106D01*
X66142271Y-89215127D01*
X66141087Y-89220846D01*
X66129499Y-89265983D01*
X66129499Y-89286019D01*
X66127973Y-89305407D01*
X66124840Y-89325192D01*
X66124840Y-89325195D01*
X66129225Y-89371583D01*
X66129500Y-89377421D01*
X66129499Y-100824773D01*
X66109814Y-100891812D01*
X66076623Y-100926348D01*
X65883594Y-101061508D01*
X65716508Y-101228594D01*
X65586269Y-101414595D01*
X65531692Y-101458219D01*
X65462193Y-101465412D01*
X65399839Y-101433890D01*
X65383119Y-101414594D01*
X65253113Y-101228926D01*
X65253108Y-101228920D01*
X65086082Y-101061894D01*
X64892578Y-100926399D01*
X64678492Y-100826570D01*
X64678486Y-100826567D01*
X64465000Y-100769364D01*
X64465000Y-101487698D01*
X64445315Y-101554737D01*
X64392511Y-101600492D01*
X64323355Y-101610436D01*
X64250766Y-101600000D01*
X64250763Y-101600000D01*
X64179237Y-101600000D01*
X64179233Y-101600000D01*
X64106645Y-101610436D01*
X64037487Y-101600492D01*
X63984684Y-101554736D01*
X63965000Y-101487698D01*
X63964999Y-100769364D01*
X63751513Y-100826567D01*
X63751507Y-100826570D01*
X63537422Y-100926399D01*
X63537420Y-100926400D01*
X63343926Y-101061886D01*
X63221865Y-101183947D01*
X63160542Y-101217431D01*
X63090850Y-101212447D01*
X63034917Y-101170575D01*
X63018002Y-101139598D01*
X62968797Y-101007671D01*
X62968793Y-101007664D01*
X62882547Y-100892455D01*
X62882544Y-100892452D01*
X62767335Y-100806206D01*
X62767328Y-100806202D01*
X62632482Y-100755908D01*
X62632483Y-100755908D01*
X62572883Y-100749501D01*
X62572881Y-100749500D01*
X62572873Y-100749500D01*
X62572864Y-100749500D01*
X60777129Y-100749500D01*
X60777123Y-100749501D01*
X60717516Y-100755908D01*
X60582671Y-100806202D01*
X60582664Y-100806206D01*
X60467455Y-100892452D01*
X60467452Y-100892455D01*
X60381206Y-101007664D01*
X60381202Y-101007671D01*
X60330908Y-101142517D01*
X60324501Y-101202116D01*
X60324500Y-101202135D01*
X60324500Y-102997870D01*
X57975543Y-102997870D01*
X58027578Y-102810457D01*
X58027584Y-102810431D01*
X58085472Y-102457331D01*
X58085473Y-102457314D01*
X58104847Y-102100002D01*
X58104847Y-102099997D01*
X58085473Y-101742685D01*
X58085472Y-101742668D01*
X58027584Y-101389568D01*
X58027578Y-101389542D01*
X57931852Y-101044767D01*
X57931850Y-101044760D01*
X57799402Y-100712340D01*
X57799393Y-100712322D01*
X57631781Y-100396172D01*
X57430966Y-100099992D01*
X57303557Y-99949995D01*
X57303556Y-99949994D01*
X56192586Y-101060965D01*
X56131263Y-101094450D01*
X56061571Y-101089466D01*
X56010615Y-101053816D01*
X55971203Y-101007671D01*
X55934870Y-100965130D01*
X55846179Y-100889381D01*
X55807989Y-100830878D01*
X55807489Y-100761010D01*
X55839032Y-100707413D01*
X56952743Y-99593703D01*
X56952742Y-99593702D01*
X56939514Y-99581171D01*
X56939513Y-99581170D01*
X56654632Y-99364611D01*
X56654629Y-99364609D01*
X56348009Y-99180123D01*
X56023260Y-99029877D01*
X56023255Y-99029876D01*
X55684144Y-98915616D01*
X55334660Y-98838688D01*
X54978924Y-98800000D01*
X54621075Y-98800000D01*
X54265339Y-98838688D01*
X53915855Y-98915616D01*
X53576744Y-99029876D01*
X53576739Y-99029877D01*
X53251990Y-99180123D01*
X52945370Y-99364609D01*
X52945367Y-99364611D01*
X52660491Y-99581166D01*
X52647256Y-99593703D01*
X52647255Y-99593703D01*
X53760966Y-100707413D01*
X53794451Y-100768736D01*
X53789467Y-100838428D01*
X53753817Y-100889384D01*
X53665130Y-100965130D01*
X53589384Y-101053817D01*
X53530877Y-101092010D01*
X53461009Y-101092508D01*
X53407413Y-101060966D01*
X52296442Y-99949994D01*
X52296441Y-99949995D01*
X52169040Y-100099983D01*
X52169033Y-100099993D01*
X51968218Y-100396172D01*
X51800606Y-100712322D01*
X51800597Y-100712340D01*
X51668149Y-101044760D01*
X51668147Y-101044767D01*
X51572421Y-101389542D01*
X51572415Y-101389568D01*
X51514527Y-101742668D01*
X51514526Y-101742685D01*
X51495153Y-102099997D01*
X51495153Y-102100002D01*
X50300500Y-102100002D01*
X50300500Y-92750000D01*
X57944540Y-92750000D01*
X57964326Y-92938256D01*
X57964327Y-92938259D01*
X58022818Y-93118277D01*
X58022821Y-93118284D01*
X58117467Y-93282216D01*
X58244128Y-93422888D01*
X58244129Y-93422888D01*
X58397265Y-93534148D01*
X58397270Y-93534151D01*
X58570192Y-93611142D01*
X58570197Y-93611144D01*
X58755354Y-93650500D01*
X58814548Y-93650500D01*
X58881587Y-93670185D01*
X58902229Y-93686819D01*
X61399197Y-96183788D01*
X61409022Y-96196051D01*
X61409243Y-96195869D01*
X61414214Y-96201878D01*
X61440217Y-96226295D01*
X61464635Y-96249226D01*
X61485529Y-96270120D01*
X61491011Y-96274373D01*
X61495443Y-96278157D01*
X61529418Y-96310062D01*
X61529421Y-96310064D01*
X61529423Y-96310065D01*
X61546882Y-96319663D01*
X61579292Y-96345350D01*
X61694129Y-96472888D01*
X61694133Y-96472892D01*
X61694135Y-96472893D01*
X61847265Y-96584148D01*
X61847270Y-96584151D01*
X62020192Y-96661142D01*
X62020197Y-96661144D01*
X62205354Y-96700500D01*
X62205355Y-96700500D01*
X62394644Y-96700500D01*
X62394646Y-96700500D01*
X62579803Y-96661144D01*
X62752730Y-96584151D01*
X62905871Y-96472888D01*
X63032533Y-96332216D01*
X63127179Y-96168284D01*
X63185674Y-95988256D01*
X63205460Y-95800000D01*
X63185674Y-95611744D01*
X63127179Y-95431716D01*
X63032533Y-95267784D01*
X62905871Y-95127112D01*
X62905870Y-95127111D01*
X62752734Y-95015851D01*
X62752729Y-95015848D01*
X62579807Y-94938857D01*
X62579802Y-94938855D01*
X62434001Y-94907865D01*
X62394646Y-94899500D01*
X62205354Y-94899500D01*
X62168322Y-94907371D01*
X62020193Y-94938856D01*
X62019426Y-94939106D01*
X62018958Y-94939119D01*
X62013841Y-94940207D01*
X62013641Y-94939270D01*
X61949585Y-94941092D01*
X61893442Y-94908851D01*
X59788960Y-92804369D01*
X59755475Y-92743046D01*
X59753323Y-92729668D01*
X59735674Y-92561744D01*
X59677179Y-92381716D01*
X59582533Y-92217784D01*
X59455871Y-92077112D01*
X59455870Y-92077111D01*
X59302734Y-91965851D01*
X59302729Y-91965848D01*
X59129807Y-91888857D01*
X59129802Y-91888855D01*
X58984000Y-91857865D01*
X58944646Y-91849500D01*
X58755354Y-91849500D01*
X58722897Y-91856398D01*
X58570197Y-91888855D01*
X58570192Y-91888857D01*
X58397270Y-91965848D01*
X58397265Y-91965851D01*
X58244129Y-92077111D01*
X58117466Y-92217785D01*
X58022821Y-92381715D01*
X58022818Y-92381722D01*
X57969706Y-92545185D01*
X57964326Y-92561744D01*
X57944540Y-92750000D01*
X50300500Y-92750000D01*
X50300500Y-78758503D01*
X59791485Y-78758503D01*
X59811992Y-78953600D01*
X59812234Y-78956613D01*
X59816551Y-79033660D01*
X59822197Y-79050702D01*
X59825456Y-79081706D01*
X59873164Y-79306144D01*
X59883975Y-79369773D01*
X59889072Y-79380990D01*
X59893024Y-79399582D01*
X59893027Y-79399591D01*
X59976495Y-79656475D01*
X59988052Y-79696590D01*
X59991340Y-79702161D01*
X59993457Y-79708677D01*
X60125635Y-80005547D01*
X60125638Y-80005553D01*
X60125639Y-80005554D01*
X60288132Y-80286996D01*
X60296815Y-80298947D01*
X60479156Y-80549915D01*
X60479157Y-80549916D01*
X60696610Y-80791419D01*
X60810296Y-80893780D01*
X60938124Y-81008875D01*
X61201042Y-81199893D01*
X61482487Y-81362382D01*
X61779375Y-81494562D01*
X61784906Y-81496359D01*
X61785872Y-81496673D01*
X61790127Y-81499582D01*
X61831580Y-81511524D01*
X61930989Y-81543823D01*
X62088435Y-81594979D01*
X62088438Y-81594979D01*
X62088454Y-81594985D01*
X62107058Y-81598939D01*
X62115688Y-81603598D01*
X62181898Y-81614846D01*
X62345966Y-81649718D01*
X62406316Y-81662546D01*
X62406326Y-81662548D01*
X62406327Y-81662548D01*
X62406336Y-81662550D01*
X62437343Y-81665808D01*
X62450503Y-81671223D01*
X62531372Y-81675763D01*
X62534354Y-81676004D01*
X62729539Y-81696517D01*
X62891933Y-81696515D01*
X82656149Y-81708436D01*
X82656258Y-81708468D01*
X82707968Y-81708468D01*
X82870459Y-81708470D01*
X83065633Y-81687958D01*
X83068614Y-81687717D01*
X83145657Y-81683392D01*
X83162652Y-81677761D01*
X83193660Y-81674503D01*
X83193670Y-81674500D01*
X83193675Y-81674500D01*
X83235674Y-81665572D01*
X83418142Y-81626789D01*
X83481727Y-81615987D01*
X83492944Y-81610890D01*
X83511541Y-81606938D01*
X83637397Y-81566045D01*
X83768465Y-81523460D01*
X83808557Y-81511910D01*
X83814124Y-81508625D01*
X83816393Y-81507887D01*
X83820617Y-81506515D01*
X84117503Y-81374334D01*
X84398946Y-81211844D01*
X84661862Y-81020826D01*
X84903371Y-80803371D01*
X85120826Y-80561862D01*
X85311844Y-80298946D01*
X85474334Y-80017503D01*
X85606515Y-79720617D01*
X85608624Y-79714124D01*
X85611530Y-79709873D01*
X85623460Y-79668465D01*
X85706934Y-79411553D01*
X85706933Y-79411553D01*
X85706938Y-79411541D01*
X85710890Y-79392945D01*
X85715546Y-79384319D01*
X85726789Y-79318142D01*
X85774503Y-79093660D01*
X85777754Y-79062717D01*
X85783248Y-79049365D01*
X85787734Y-78968481D01*
X85787974Y-78965476D01*
X85808470Y-78770459D01*
X85808468Y-78607968D01*
X85808468Y-78607468D01*
X85808468Y-78596323D01*
X85808563Y-78592890D01*
X85809277Y-78580000D01*
X85808468Y-78575723D01*
X85808468Y-78556263D01*
X85808449Y-78556087D01*
X85808449Y-58788000D01*
X85808400Y-58787504D01*
X85808405Y-58637510D01*
X85787894Y-58442307D01*
X85787653Y-58439319D01*
X85783318Y-58362276D01*
X85777704Y-58345323D01*
X85774445Y-58314311D01*
X85740709Y-58155577D01*
X85726739Y-58089844D01*
X85715935Y-58026247D01*
X85710838Y-58015024D01*
X85706888Y-57996437D01*
X85706887Y-57996434D01*
X85706886Y-57996429D01*
X85623430Y-57739561D01*
X85611868Y-57699425D01*
X85608577Y-57693844D01*
X85606468Y-57687352D01*
X85474293Y-57390465D01*
X85474290Y-57390460D01*
X85474288Y-57390455D01*
X85474286Y-57390453D01*
X85311810Y-57109025D01*
X85311804Y-57109017D01*
X85120794Y-56846107D01*
X85120792Y-56846104D01*
X84994967Y-56706359D01*
X84903339Y-56604593D01*
X84661838Y-56387142D01*
X84661837Y-56387141D01*
X84398919Y-56196119D01*
X84398918Y-56196118D01*
X84117482Y-56033631D01*
X84117471Y-56033626D01*
X83820588Y-55901446D01*
X83814089Y-55899335D01*
X83809837Y-55896427D01*
X83768388Y-55884486D01*
X83511537Y-55801032D01*
X83511523Y-55801028D01*
X83511519Y-55801027D01*
X83492907Y-55797071D01*
X83484275Y-55792410D01*
X83418030Y-55781156D01*
X83193647Y-55733464D01*
X83193642Y-55733463D01*
X83193640Y-55733463D01*
X83162617Y-55730202D01*
X83149455Y-55724787D01*
X83068582Y-55720246D01*
X83065577Y-55720004D01*
X82942403Y-55707059D01*
X82870439Y-55699497D01*
X82870436Y-55699497D01*
X82708044Y-55699499D01*
X62892531Y-55691531D01*
X62892031Y-55691531D01*
X62729541Y-55691531D01*
X62632978Y-55701680D01*
X62534408Y-55712040D01*
X62531403Y-55712282D01*
X62454360Y-55716609D01*
X62437356Y-55722240D01*
X62406348Y-55725499D01*
X62406335Y-55725502D01*
X62368877Y-55733464D01*
X62181939Y-55773198D01*
X62118295Y-55784012D01*
X62107068Y-55789112D01*
X62088466Y-55793066D01*
X62088463Y-55793067D01*
X61831586Y-55876531D01*
X61791466Y-55888089D01*
X61785899Y-55891374D01*
X61779405Y-55893484D01*
X61779394Y-55893488D01*
X61482502Y-56025673D01*
X61201063Y-56188161D01*
X61201058Y-56188164D01*
X60938151Y-56379177D01*
X60938142Y-56379184D01*
X60696637Y-56596637D01*
X60479184Y-56838142D01*
X60479177Y-56838151D01*
X60288164Y-57101058D01*
X60288161Y-57101063D01*
X60125673Y-57382502D01*
X59993488Y-57679394D01*
X59993484Y-57679405D01*
X59991374Y-57685899D01*
X59988470Y-57690143D01*
X59976531Y-57731586D01*
X59893067Y-57988463D01*
X59893066Y-57988466D01*
X59889112Y-58007068D01*
X59884454Y-58015694D01*
X59873198Y-58081943D01*
X59825502Y-58306335D01*
X59825499Y-58306348D01*
X59822240Y-58337356D01*
X59816825Y-58350515D01*
X59812282Y-58431403D01*
X59812040Y-58434408D01*
X59791531Y-58629544D01*
X59791531Y-78544606D01*
X59791485Y-78544762D01*
X59791485Y-78758503D01*
X50300500Y-78758503D01*
X50300500Y-50800002D01*
X51495153Y-50800002D01*
X51514526Y-51157314D01*
X51514527Y-51157331D01*
X51572415Y-51510431D01*
X51572421Y-51510457D01*
X51668147Y-51855232D01*
X51668149Y-51855239D01*
X51800597Y-52187659D01*
X51800606Y-52187677D01*
X51968218Y-52503827D01*
X52169033Y-52800007D01*
X52296441Y-52950003D01*
X52296442Y-52950004D01*
X53407413Y-51839032D01*
X53468736Y-51805547D01*
X53538427Y-51810531D01*
X53589381Y-51846179D01*
X53665130Y-51934870D01*
X53728855Y-51989296D01*
X53753816Y-52010615D01*
X53792009Y-52069122D01*
X53792507Y-52138990D01*
X53760965Y-52192586D01*
X52647255Y-53306295D01*
X52647256Y-53306296D01*
X52660485Y-53318828D01*
X52660486Y-53318829D01*
X52945367Y-53535388D01*
X52945370Y-53535390D01*
X53251990Y-53719876D01*
X53576739Y-53870122D01*
X53576744Y-53870123D01*
X53915855Y-53984383D01*
X54265339Y-54061311D01*
X54621075Y-54099999D01*
X54621085Y-54100000D01*
X54978915Y-54100000D01*
X54978924Y-54099999D01*
X55334660Y-54061311D01*
X55684144Y-53984383D01*
X56023255Y-53870123D01*
X56023260Y-53870122D01*
X56348009Y-53719876D01*
X56654629Y-53535390D01*
X56654632Y-53535388D01*
X56939504Y-53318836D01*
X56952742Y-53306294D01*
X55839033Y-52192586D01*
X55805548Y-52131263D01*
X55810532Y-52061571D01*
X55846180Y-52010617D01*
X55934870Y-51934870D01*
X56010617Y-51846180D01*
X56069121Y-51807990D01*
X56138989Y-51807490D01*
X56192586Y-51839033D01*
X57303556Y-52950003D01*
X57430964Y-52800008D01*
X57430975Y-52799994D01*
X57631781Y-52503827D01*
X57799393Y-52187677D01*
X57799402Y-52187659D01*
X57931850Y-51855239D01*
X57931852Y-51855232D01*
X58027578Y-51510457D01*
X58027584Y-51510431D01*
X58085472Y-51157331D01*
X58085473Y-51157314D01*
X58104847Y-50800002D01*
X87495153Y-50800002D01*
X87514526Y-51157314D01*
X87514527Y-51157331D01*
X87572415Y-51510431D01*
X87572421Y-51510457D01*
X87668147Y-51855232D01*
X87668149Y-51855239D01*
X87800597Y-52187659D01*
X87800606Y-52187677D01*
X87968218Y-52503827D01*
X88169033Y-52800007D01*
X88296441Y-52950003D01*
X88296442Y-52950004D01*
X89407413Y-51839032D01*
X89468736Y-51805547D01*
X89538427Y-51810531D01*
X89589381Y-51846179D01*
X89665130Y-51934870D01*
X89728855Y-51989296D01*
X89753816Y-52010615D01*
X89792009Y-52069122D01*
X89792507Y-52138990D01*
X89760965Y-52192586D01*
X88647255Y-53306295D01*
X88647256Y-53306296D01*
X88660485Y-53318828D01*
X88660486Y-53318829D01*
X88945367Y-53535388D01*
X88945370Y-53535390D01*
X89251990Y-53719876D01*
X89576739Y-53870122D01*
X89576744Y-53870123D01*
X89915855Y-53984383D01*
X90265339Y-54061311D01*
X90621075Y-54099999D01*
X90621085Y-54100000D01*
X90978915Y-54100000D01*
X90978924Y-54099999D01*
X91334660Y-54061311D01*
X91684144Y-53984383D01*
X92023255Y-53870123D01*
X92023260Y-53870122D01*
X92348009Y-53719876D01*
X92654629Y-53535390D01*
X92654632Y-53535388D01*
X92939504Y-53318836D01*
X92952742Y-53306294D01*
X91839033Y-52192586D01*
X91805548Y-52131263D01*
X91810532Y-52061571D01*
X91846180Y-52010617D01*
X91934870Y-51934870D01*
X92010617Y-51846180D01*
X92069121Y-51807990D01*
X92138989Y-51807490D01*
X92192586Y-51839033D01*
X93303556Y-52950003D01*
X93430964Y-52800008D01*
X93430975Y-52799994D01*
X93631781Y-52503827D01*
X93799393Y-52187677D01*
X93799402Y-52187659D01*
X93931850Y-51855239D01*
X93931852Y-51855232D01*
X94027578Y-51510457D01*
X94027584Y-51510431D01*
X94085472Y-51157331D01*
X94085473Y-51157314D01*
X94104847Y-50800002D01*
X94104847Y-50799997D01*
X94085473Y-50442685D01*
X94085472Y-50442668D01*
X94027584Y-50089568D01*
X94027578Y-50089542D01*
X93931852Y-49744767D01*
X93931850Y-49744760D01*
X93799402Y-49412340D01*
X93799393Y-49412322D01*
X93631781Y-49096172D01*
X93430966Y-48799992D01*
X93303557Y-48649995D01*
X93303556Y-48649994D01*
X92192586Y-49760965D01*
X92131263Y-49794450D01*
X92061571Y-49789466D01*
X92010615Y-49753816D01*
X91989296Y-49728855D01*
X91934870Y-49665130D01*
X91846179Y-49589381D01*
X91807989Y-49530878D01*
X91807489Y-49461010D01*
X91839032Y-49407413D01*
X92952743Y-48293703D01*
X92952742Y-48293702D01*
X92939514Y-48281171D01*
X92939513Y-48281170D01*
X92654632Y-48064611D01*
X92654629Y-48064609D01*
X92348009Y-47880123D01*
X92023260Y-47729877D01*
X92023255Y-47729876D01*
X91684144Y-47615616D01*
X91334660Y-47538688D01*
X90978924Y-47500000D01*
X90621075Y-47500000D01*
X90265339Y-47538688D01*
X89915855Y-47615616D01*
X89576744Y-47729876D01*
X89576739Y-47729877D01*
X89251990Y-47880123D01*
X88945370Y-48064609D01*
X88945367Y-48064611D01*
X88660491Y-48281166D01*
X88647256Y-48293703D01*
X88647255Y-48293703D01*
X89760966Y-49407413D01*
X89794451Y-49468736D01*
X89789467Y-49538428D01*
X89753817Y-49589384D01*
X89665130Y-49665130D01*
X89589384Y-49753817D01*
X89530877Y-49792010D01*
X89461009Y-49792508D01*
X89407413Y-49760966D01*
X88296442Y-48649994D01*
X88296441Y-48649995D01*
X88169040Y-48799983D01*
X88169033Y-48799993D01*
X87968218Y-49096172D01*
X87800606Y-49412322D01*
X87800597Y-49412340D01*
X87668149Y-49744760D01*
X87668147Y-49744767D01*
X87572421Y-50089542D01*
X87572415Y-50089568D01*
X87514527Y-50442668D01*
X87514526Y-50442685D01*
X87495153Y-50799997D01*
X87495153Y-50800002D01*
X58104847Y-50800002D01*
X58104847Y-50799997D01*
X58085473Y-50442685D01*
X58085472Y-50442668D01*
X58027584Y-50089568D01*
X58027578Y-50089542D01*
X57931852Y-49744767D01*
X57931850Y-49744760D01*
X57799402Y-49412340D01*
X57799393Y-49412322D01*
X57631781Y-49096172D01*
X57430966Y-48799992D01*
X57303557Y-48649995D01*
X57303556Y-48649994D01*
X56192586Y-49760965D01*
X56131263Y-49794450D01*
X56061571Y-49789466D01*
X56010615Y-49753816D01*
X55989296Y-49728855D01*
X55934870Y-49665130D01*
X55846179Y-49589381D01*
X55807989Y-49530878D01*
X55807489Y-49461010D01*
X55839032Y-49407413D01*
X56952743Y-48293703D01*
X56952742Y-48293702D01*
X56939514Y-48281171D01*
X56939513Y-48281170D01*
X56654632Y-48064611D01*
X56654629Y-48064609D01*
X56348009Y-47880123D01*
X56023260Y-47729877D01*
X56023255Y-47729876D01*
X55684144Y-47615616D01*
X55334660Y-47538688D01*
X54978924Y-47500000D01*
X54621075Y-47500000D01*
X54265339Y-47538688D01*
X53915855Y-47615616D01*
X53576744Y-47729876D01*
X53576739Y-47729877D01*
X53251990Y-47880123D01*
X52945370Y-48064609D01*
X52945367Y-48064611D01*
X52660491Y-48281166D01*
X52647256Y-48293703D01*
X52647255Y-48293703D01*
X53760966Y-49407413D01*
X53794451Y-49468736D01*
X53789467Y-49538428D01*
X53753817Y-49589384D01*
X53665130Y-49665130D01*
X53589384Y-49753817D01*
X53530877Y-49792010D01*
X53461009Y-49792508D01*
X53407413Y-49760966D01*
X52296442Y-48649994D01*
X52296441Y-48649995D01*
X52169040Y-48799983D01*
X52169033Y-48799993D01*
X51968218Y-49096172D01*
X51800606Y-49412322D01*
X51800597Y-49412340D01*
X51668149Y-49744760D01*
X51668147Y-49744767D01*
X51572421Y-50089542D01*
X51572415Y-50089568D01*
X51514527Y-50442668D01*
X51514526Y-50442685D01*
X51495153Y-50799997D01*
X51495153Y-50800002D01*
X50300500Y-50800002D01*
X50300500Y-49301622D01*
X50300585Y-49298376D01*
X50301883Y-49273604D01*
X50307497Y-49166486D01*
X50317803Y-48982968D01*
X50318464Y-48976791D01*
X50342611Y-48824331D01*
X50370227Y-48661796D01*
X50371451Y-48656196D01*
X50412425Y-48503279D01*
X50457083Y-48348268D01*
X50458764Y-48343254D01*
X50516127Y-48193815D01*
X50577366Y-48045972D01*
X50579379Y-48041606D01*
X50652511Y-47898078D01*
X50662434Y-47880123D01*
X50729655Y-47758494D01*
X50731867Y-47754808D01*
X50819980Y-47619127D01*
X50834130Y-47599182D01*
X50912154Y-47489220D01*
X50914486Y-47486143D01*
X51015655Y-47361209D01*
X51017537Y-47358998D01*
X51122773Y-47241239D01*
X51125092Y-47238787D01*
X51238787Y-47125092D01*
X51241239Y-47122773D01*
X51358998Y-47017537D01*
X51361209Y-47015655D01*
X51486143Y-46914486D01*
X51489220Y-46912154D01*
X51619127Y-46819980D01*
X51629046Y-46813537D01*
X51754808Y-46731867D01*
X51758494Y-46729655D01*
X51898078Y-46652511D01*
X51910063Y-46646403D01*
X52041606Y-46579379D01*
X52045972Y-46577366D01*
X52193815Y-46516127D01*
X52343254Y-46458764D01*
X52348268Y-46457083D01*
X52503279Y-46412425D01*
X52656196Y-46371451D01*
X52661796Y-46370227D01*
X52824284Y-46342618D01*
X52976791Y-46318464D01*
X52982968Y-46317803D01*
X53166566Y-46307493D01*
X53298380Y-46300584D01*
X53301622Y-46300500D01*
X92298378Y-46300500D01*
X92301619Y-46300584D01*
G37*
%TD.AperFunction*%
%TD*%
M02*
