%TF.GenerationSoftware,KiCad,Pcbnew,7.0.7*%
%TF.CreationDate,2023-10-25T15:55:26-07:00*%
%TF.ProjectId,sfh2430_breakout,73666832-3433-4305-9f62-7265616b6f75,rev?*%
%TF.SameCoordinates,Original*%
%TF.FileFunction,Soldermask,Top*%
%TF.FilePolarity,Negative*%
%FSLAX46Y46*%
G04 Gerber Fmt 4.6, Leading zero omitted, Abs format (unit mm)*
G04 Created by KiCad (PCBNEW 7.0.7) date 2023-10-25 15:55:26*
%MOMM*%
%LPD*%
G01*
G04 APERTURE LIST*
G04 Aperture macros list*
%AMRoundRect*
0 Rectangle with rounded corners*
0 $1 Rounding radius*
0 $2 $3 $4 $5 $6 $7 $8 $9 X,Y pos of 4 corners*
0 Add a 4 corners polygon primitive as box body*
4,1,4,$2,$3,$4,$5,$6,$7,$8,$9,$2,$3,0*
0 Add four circle primitives for the rounded corners*
1,1,$1+$1,$2,$3*
1,1,$1+$1,$4,$5*
1,1,$1+$1,$6,$7*
1,1,$1+$1,$8,$9*
0 Add four rect primitives between the rounded corners*
20,1,$1+$1,$2,$3,$4,$5,0*
20,1,$1+$1,$4,$5,$6,$7,0*
20,1,$1+$1,$6,$7,$8,$9,0*
20,1,$1+$1,$8,$9,$2,$3,0*%
G04 Aperture macros list end*
%ADD10C,0.500000*%
%ADD11C,1.400000*%
%ADD12R,1.400000X1.400000*%
%ADD13C,5.600000*%
%ADD14RoundRect,0.225000X0.250000X-0.225000X0.250000X0.225000X-0.250000X0.225000X-0.250000X-0.225000X0*%
%ADD15RoundRect,0.200000X0.275000X-0.200000X0.275000X0.200000X-0.275000X0.200000X-0.275000X-0.200000X0*%
%ADD16RoundRect,0.375000X0.375000X0.375000X-0.375000X0.375000X-0.375000X-0.375000X0.375000X-0.375000X0*%
%ADD17RoundRect,0.375000X0.375000X0.387000X-0.375000X0.387000X-0.375000X-0.387000X0.375000X-0.387000X0*%
%ADD18RoundRect,0.375000X-0.375000X0.375000X-0.375000X-0.375000X0.375000X-0.375000X0.375000X0.375000X0*%
%ADD19RoundRect,0.375000X-0.387000X0.375000X-0.387000X-0.375000X0.387000X-0.375000X0.387000X0.375000X0*%
%ADD20RoundRect,0.225000X-0.250000X0.225000X-0.250000X-0.225000X0.250000X-0.225000X0.250000X0.225000X0*%
%ADD21RoundRect,0.200000X-0.275000X0.200000X-0.275000X-0.200000X0.275000X-0.200000X0.275000X0.200000X0*%
%ADD22RoundRect,0.375000X-0.375000X-0.375000X0.375000X-0.375000X0.375000X0.375000X-0.375000X0.375000X0*%
%ADD23RoundRect,0.375000X-0.375000X-0.387000X0.375000X-0.387000X0.375000X0.387000X-0.375000X0.387000X0*%
%ADD24RoundRect,0.187500X0.862500X-0.562500X0.862500X0.562500X-0.862500X0.562500X-0.862500X-0.562500X0*%
%ADD25RoundRect,0.162500X0.487500X-0.587500X0.487500X0.587500X-0.487500X0.587500X-0.487500X-0.587500X0*%
%ADD26RoundRect,0.175000X0.825000X-0.525000X0.825000X0.525000X-0.825000X0.525000X-0.825000X-0.525000X0*%
%ADD27RoundRect,0.150000X0.450000X-0.550000X0.450000X0.550000X-0.450000X0.550000X-0.450000X-0.550000X0*%
%ADD28RoundRect,0.187500X-0.862500X0.562500X-0.862500X-0.562500X0.862500X-0.562500X0.862500X0.562500X0*%
%ADD29RoundRect,0.162500X-0.487500X0.587500X-0.487500X-0.587500X0.487500X-0.587500X0.487500X0.587500X0*%
%ADD30RoundRect,0.175000X-0.825000X0.525000X-0.825000X-0.525000X0.825000X-0.525000X0.825000X0.525000X0*%
%ADD31RoundRect,0.150000X-0.450000X0.550000X-0.450000X-0.550000X0.450000X-0.550000X0.450000X0.550000X0*%
%ADD32RoundRect,0.102000X-0.990600X-0.266700X0.990600X-0.266700X0.990600X0.266700X-0.990600X0.266700X0*%
%ADD33R,1.700000X1.700000*%
%ADD34O,1.700000X1.700000*%
%ADD35RoundRect,0.187500X0.562500X0.862500X-0.562500X0.862500X-0.562500X-0.862500X0.562500X-0.862500X0*%
%ADD36RoundRect,0.162500X0.587500X0.487500X-0.587500X0.487500X-0.587500X-0.487500X0.587500X-0.487500X0*%
%ADD37RoundRect,0.175000X0.525000X0.825000X-0.525000X0.825000X-0.525000X-0.825000X0.525000X-0.825000X0*%
%ADD38RoundRect,0.150000X0.550000X0.450000X-0.550000X0.450000X-0.550000X-0.450000X0.550000X-0.450000X0*%
%ADD39RoundRect,0.375000X0.375000X-0.375000X0.375000X0.375000X-0.375000X0.375000X-0.375000X-0.375000X0*%
%ADD40RoundRect,0.375000X0.387000X-0.375000X0.387000X0.375000X-0.387000X0.375000X-0.387000X-0.375000X0*%
%ADD41RoundRect,0.187500X-0.562500X-0.862500X0.562500X-0.862500X0.562500X0.862500X-0.562500X0.862500X0*%
%ADD42RoundRect,0.162500X-0.587500X-0.487500X0.587500X-0.487500X0.587500X0.487500X-0.587500X0.487500X0*%
%ADD43RoundRect,0.175000X-0.525000X-0.825000X0.525000X-0.825000X0.525000X0.825000X-0.525000X0.825000X0*%
%ADD44RoundRect,0.150000X-0.550000X-0.450000X0.550000X-0.450000X0.550000X0.450000X-0.550000X0.450000X0*%
G04 APERTURE END LIST*
D10*
%TO.C,REF\u002A\u002A*%
X74400000Y-79600000D03*
%TD*%
D11*
%TO.C,J9*%
X61900000Y-65450000D03*
D12*
X62600000Y-65450000D03*
D11*
X63300000Y-65450000D03*
%TD*%
D13*
%TO.C,H3*%
X90800000Y-50800000D03*
%TD*%
D10*
%TO.C,REF\u002A\u002A*%
X71200000Y-79600000D03*
%TD*%
D11*
%TO.C,J10*%
X69500000Y-59200000D03*
D12*
X69500000Y-58500000D03*
D11*
X69500000Y-57800000D03*
%TD*%
%TO.C,J7*%
X69550000Y-79600000D03*
D12*
X69550000Y-78900000D03*
D11*
X69550000Y-78200000D03*
%TD*%
D10*
%TO.C,REF\u002A\u002A*%
X70900000Y-68200000D03*
%TD*%
%TO.C,REF\u002A\u002A*%
X72800000Y-55700000D03*
%TD*%
D14*
%TO.C,C1*%
X63700000Y-91795000D03*
X63700000Y-90245000D03*
%TD*%
D15*
%TO.C,R3*%
X78400000Y-91950000D03*
X78400000Y-90300000D03*
%TD*%
D16*
%TO.C,J3*%
X76050000Y-54700000D03*
D17*
X69550000Y-54700000D03*
%TD*%
D10*
%TO.C,REF\u002A\u002A*%
X72800000Y-79600000D03*
%TD*%
%TO.C,REF\u002A\u002A*%
X74400000Y-57800000D03*
%TD*%
D14*
%TO.C,C2*%
X65500000Y-91800000D03*
X65500000Y-90250000D03*
%TD*%
D18*
%TO.C,J2*%
X58800000Y-65450000D03*
D19*
X58800000Y-71950000D03*
%TD*%
D11*
%TO.C,J8*%
X61900000Y-71950000D03*
D12*
X62600000Y-71950000D03*
D11*
X63300000Y-71950000D03*
%TD*%
D10*
%TO.C,REF\u002A\u002A*%
X74700000Y-68250000D03*
%TD*%
%TO.C,REF\u002A\u002A*%
X85800000Y-67900000D03*
%TD*%
%TO.C,REF\u002A\u002A*%
X71200000Y-57800000D03*
%TD*%
%TO.C,REF\u002A\u002A*%
X74400000Y-81700000D03*
%TD*%
D20*
%TO.C,C7*%
X82000000Y-95850000D03*
X82000000Y-97400000D03*
%TD*%
%TO.C,C4*%
X65500000Y-95800000D03*
X65500000Y-97350000D03*
%TD*%
D10*
%TO.C,REF\u002A\u002A*%
X72000000Y-55700000D03*
%TD*%
D21*
%TO.C,R2*%
X67300000Y-95770000D03*
X67300000Y-97420000D03*
%TD*%
D10*
%TO.C,REF\u002A\u002A*%
X73250000Y-66750000D03*
%TD*%
%TO.C,REF\u002A\u002A*%
X74050000Y-64650000D03*
%TD*%
%TO.C,REF\u002A\u002A*%
X72400000Y-70600000D03*
%TD*%
%TO.C,REF\u002A\u002A*%
X74000000Y-72700000D03*
%TD*%
%TO.C,REF\u002A\u002A*%
X83700000Y-67900000D03*
%TD*%
%TO.C,REF\u002A\u002A*%
X74700000Y-69050000D03*
%TD*%
D22*
%TO.C,J1*%
X69550000Y-82700000D03*
D23*
X76050000Y-82700000D03*
%TD*%
D10*
%TO.C,REF\u002A\u002A*%
X61900000Y-69500000D03*
%TD*%
D24*
%TO.C,D4*%
X79850000Y-65650000D03*
D25*
X79850000Y-71750000D03*
D26*
X79850000Y-65650000D03*
D27*
X79850000Y-71750000D03*
%TD*%
D10*
%TO.C,REF\u002A\u002A*%
X85800000Y-69500000D03*
%TD*%
%TO.C,REF\u002A\u002A*%
X73600000Y-55700000D03*
%TD*%
%TO.C,REF\u002A\u002A*%
X76800000Y-69050000D03*
%TD*%
D15*
%TO.C,R1*%
X67300000Y-91850000D03*
X67300000Y-90200000D03*
%TD*%
D10*
%TO.C,REF\u002A\u002A*%
X85800000Y-67100000D03*
%TD*%
%TO.C,REF\u002A\u002A*%
X72800000Y-57800000D03*
%TD*%
%TO.C,REF\u002A\u002A*%
X73600000Y-81700000D03*
%TD*%
D28*
%TO.C,D2*%
X65750000Y-71750000D03*
D29*
X65750000Y-65650000D03*
D30*
X65750000Y-71750000D03*
D31*
X65750000Y-65650000D03*
%TD*%
D11*
%TO.C,J6*%
X76050000Y-79600000D03*
D12*
X76050000Y-78900000D03*
D11*
X76050000Y-78200000D03*
%TD*%
D10*
%TO.C,REF\u002A\u002A*%
X61900000Y-67100000D03*
%TD*%
%TO.C,REF\u002A\u002A*%
X59800000Y-69500000D03*
%TD*%
%TO.C,REF\u002A\u002A*%
X72000000Y-79600000D03*
%TD*%
D13*
%TO.C,H2*%
X54800000Y-102100000D03*
%TD*%
D10*
%TO.C,REF\u002A\u002A*%
X73250000Y-64650000D03*
%TD*%
%TO.C,REF\u002A\u002A*%
X71200000Y-55700000D03*
%TD*%
%TO.C,REF\u002A\u002A*%
X76800000Y-69850000D03*
%TD*%
%TO.C,REF\u002A\u002A*%
X61900000Y-70300000D03*
%TD*%
%TO.C,REF\u002A\u002A*%
X72000000Y-81700000D03*
%TD*%
%TO.C,REF\u002A\u002A*%
X73600000Y-57800000D03*
%TD*%
%TO.C,REF\u002A\u002A*%
X59800000Y-67100000D03*
%TD*%
%TO.C,REF\u002A\u002A*%
X71650000Y-64650000D03*
%TD*%
%TO.C,REF\u002A\u002A*%
X72450000Y-66750000D03*
%TD*%
%TO.C,REF\u002A\u002A*%
X59800000Y-70300000D03*
%TD*%
%TO.C,REF\u002A\u002A*%
X76800000Y-68250000D03*
%TD*%
%TO.C,REF\u002A\u002A*%
X72400000Y-72700000D03*
%TD*%
D32*
%TO.C,U1*%
X70372400Y-90010000D03*
X70372400Y-91280000D03*
X70372400Y-92550000D03*
X70372400Y-93820000D03*
X70372400Y-95090000D03*
X70372400Y-96360000D03*
X70372400Y-97630000D03*
X75300000Y-97630000D03*
X75300000Y-96360000D03*
X75300000Y-95090000D03*
X75300000Y-93820000D03*
X75300000Y-92550000D03*
X75300000Y-91280000D03*
X75300000Y-90010000D03*
%TD*%
D10*
%TO.C,REF\u002A\u002A*%
X85800000Y-70300000D03*
%TD*%
%TO.C,REF\u002A\u002A*%
X83700000Y-69500000D03*
%TD*%
D20*
%TO.C,C3*%
X63700000Y-95800000D03*
X63700000Y-97350000D03*
%TD*%
D10*
%TO.C,REF\u002A\u002A*%
X76800000Y-67450000D03*
%TD*%
%TO.C,REF\u002A\u002A*%
X70900000Y-69000000D03*
%TD*%
%TO.C,REF\u002A\u002A*%
X61900000Y-68700000D03*
%TD*%
D21*
%TO.C,R4*%
X78400000Y-95800000D03*
X78400000Y-97450000D03*
%TD*%
D10*
%TO.C,REF\u002A\u002A*%
X72450000Y-64650000D03*
%TD*%
%TO.C,REF\u002A\u002A*%
X74400000Y-55700000D03*
%TD*%
D14*
%TO.C,C6*%
X80200000Y-91900000D03*
X80200000Y-90350000D03*
%TD*%
D33*
%TO.C,J5*%
X61675000Y-102100000D03*
D34*
X64215000Y-102100000D03*
X66755000Y-102100000D03*
X69295000Y-102100000D03*
X71835000Y-102100000D03*
X74375000Y-102100000D03*
X76915000Y-102100000D03*
X79455000Y-102100000D03*
X81995000Y-102100000D03*
X84535000Y-102100000D03*
%TD*%
D10*
%TO.C,REF\u002A\u002A*%
X73200000Y-72700000D03*
%TD*%
%TO.C,REF\u002A\u002A*%
X59800000Y-68700000D03*
%TD*%
%TO.C,REF\u002A\u002A*%
X59800000Y-67900000D03*
%TD*%
D35*
%TO.C,D3*%
X69750000Y-61650000D03*
D36*
X75850000Y-61650000D03*
D37*
X69750000Y-61650000D03*
D38*
X75850000Y-61650000D03*
%TD*%
D13*
%TO.C,H1*%
X54800000Y-50800000D03*
%TD*%
D10*
%TO.C,REF\u002A\u002A*%
X83700000Y-68700000D03*
%TD*%
D20*
%TO.C,C8*%
X80200000Y-95850000D03*
X80200000Y-97400000D03*
%TD*%
D10*
%TO.C,REF\u002A\u002A*%
X68800000Y-67400000D03*
%TD*%
D11*
%TO.C,J13*%
X82250000Y-71950000D03*
D12*
X82950000Y-71950000D03*
D11*
X83650000Y-71950000D03*
%TD*%
D39*
%TO.C,J4*%
X86800000Y-71950000D03*
D40*
X86800000Y-65450000D03*
%TD*%
D13*
%TO.C,H4*%
X90800000Y-102100000D03*
%TD*%
D41*
%TO.C,D1*%
X75850000Y-75650000D03*
D42*
X69750000Y-75650000D03*
D43*
X75850000Y-75650000D03*
D44*
X69750000Y-75650000D03*
%TD*%
D10*
%TO.C,REF\u002A\u002A*%
X68800000Y-69000000D03*
%TD*%
%TO.C,REF\u002A\u002A*%
X72800000Y-81700000D03*
%TD*%
%TO.C,REF\u002A\u002A*%
X73600000Y-79600000D03*
%TD*%
%TO.C,REF\u002A\u002A*%
X68800000Y-68200000D03*
%TD*%
D11*
%TO.C,J11*%
X76000000Y-59200000D03*
D12*
X76000000Y-58500000D03*
D11*
X76000000Y-57800000D03*
%TD*%
D10*
%TO.C,REF\u002A\u002A*%
X72000000Y-57800000D03*
%TD*%
D11*
%TO.C,J12*%
X82300000Y-65450000D03*
D12*
X83000000Y-65450000D03*
D11*
X83700000Y-65450000D03*
%TD*%
D10*
%TO.C,REF\u002A\u002A*%
X85800000Y-68700000D03*
%TD*%
%TO.C,REF\u002A\u002A*%
X61900000Y-67900000D03*
%TD*%
D14*
%TO.C,C5*%
X82000000Y-91900000D03*
X82000000Y-90350000D03*
%TD*%
D10*
%TO.C,REF\u002A\u002A*%
X83700000Y-67100000D03*
%TD*%
%TO.C,REF\u002A\u002A*%
X73200000Y-70600000D03*
%TD*%
%TO.C,REF\u002A\u002A*%
X71200000Y-81700000D03*
%TD*%
%TO.C,REF\u002A\u002A*%
X71600000Y-72700000D03*
%TD*%
%TO.C,REF\u002A\u002A*%
X83700000Y-70300000D03*
%TD*%
%TO.C,REF\u002A\u002A*%
X68800000Y-69800000D03*
%TD*%
M02*
