  0
SECTION
  2
HEADER
  9
$ANGBASE
  50
0.0
  9
$ANGDIR
  70
1
  9
$MEASUREMENT
  70
1
  0
ENDSEC
  0
SECTION
  2
TABLES
  0
TABLE
  2
LTYPE
  70
4
  0
LTYPE
  5
40F
  2
CONTINUOUS
  70
0
  3
Solid line
  72
65
  73
0
  40
0.0
  0
LTYPE
  5
410
  2
DASHDOT
 70
0
  3
Dash Dot ____ _ ____ _
 72
65
 73
4
 40
2.0
 49
1.25
 49
-0.25
 49
0.25
 49
-0.25
  0
LTYPE
  5
411
  2
DASHED
 70
0
  3
Dashed __ __ __ __ __
 72
65
 73
2
 40
0.75
 49
0.5
 49
-0.25
  0
LTYPE
  5
43B
  2
DOTTED
 70
0
  3
Dotted .  .  .  .
 72
65
 73
2
 40
0.2
 49
0.0
 49
-0.2
  0
ENDTAB
  0
TABLE
  2
STYLE
  70
4
  0
STYLE
  2
KICAD
  70
0
  40
0
  41
1
  42
1
  50
0
  71
0
  3
isocp.shx
  0
STYLE
  2
KICADB
  70
0
  40
0
  41
1
  42
1
  50
0
  71
0
  3
isocp.shx
  0
STYLE
  2
KICADI
  70
0
  40
0
  41
1
  42
1
  50
15
  71
0
  3
isocp.shx
  0
STYLE
  2
KICADBI
  70
0
  40
0
  41
1
  42
1
  50
15
  71
0
  3
isocp.shx
  0
ENDTAB
  0
TABLE
  2
LAYER
  70
1
  0
LAYER
  2
BLACK
  70
0
  62
7
  6
CONTINUOUS
  0
ENDTAB
  0
ENDSEC
  0
SECTION
  2
ENTITIES
0
ARC
8
BLACK
10
84.75
20
-66.25
40
1.05
50
-180
51
-0
0
LINE
8
BLACK
6
CONTINUOUS
10
53.3
20
-46.3
11
92.2787
21
-46.3
0
LINE
8
BLACK
6
CONTINUOUS
10
77.1
20
-57.8
11
75.3
21
-57.8
0
ARC
8
BLACK
10
53.3
20
-103.6
40
3
50
-180
51
-90
0
LINE
8
BLACK
6
CONTINUOUS
10
95.2787
20
-49.3
11
95.2787
21
-103.6
0
LINE
8
BLACK
6
CONTINUOUS
10
61.9
20
-71.15
11
61.9
21
-73
0
ARC
8
BLACK
10
60.85
20
-71.15
40
1.05
50
-0
51
180
0
LINE
8
BLACK
6
CONTINUOUS
10
75.25
20
-81.7
11
82.708
21
-81.708
0
ARC
8
BLACK
10
70.35
20
-62.9919
40
1.84995
50
-180.001
51
-90
0
LINE
8
BLACK
6
CONTINUOUS
10
67.0919
20
-64.4
11
61.9
21
-64.4
0
ARC
8
BLACK
10
70.3429
20
-74.4081
40
1.85001
50
-270
51
-179.999
0
ARC
8
BLACK
10
75.25
20
-80.65
40
1.05
50
-270
51
-90
0
LINE
8
BLACK
6
CONTINUOUS
10
62.892
20
-55.692
11
70.35
21
-55.7
0
LINE
8
BLACK
6
CONTINUOUS
10
78.5
20
-73
11
83.7
21
-73
0
ARC
8
BLACK
10
75.25
20
-74.4081
40
1.84995
50
-0.00148659
51
90
0
LINE
8
BLACK
6
CONTINUOUS
10
68.5
20
-62.9919
11
68.5
21
-57.8
0
ARC
8
BLACK
10
75.3
20
-56.75
40
1.05
50
-270
51
-90
0
LINE
8
BLACK
6
CONTINUOUS
10
77.1
20
-74.4081
11
77.1
21
-79.6
0
ARC
8
BLACK
10
75.2003
20
-71.0929
40
1.459
50
-2.24298
51
271.962
0
LINE
8
BLACK
6
CONTINUOUS
10
68.4929
20
-74.4081
11
68.5
21
-79.6
0
LINE
8
BLACK
6
CONTINUOUS
10
59.792
20
-78.587
11
59.8
21
-71.15
0
ARC
8
BLACK
10
92.2787
20
-49.3
40
3
50
-0
51
90.0004
0
ARC
8
BLACK
10
92.2787
20
-103.6
40
2.99998
50
-90.0004
51
-0
0
LINE
8
BLACK
6
CONTINUOUS
10
75.25
20
-79.6
11
77.1
21
-79.6
0
LINE
8
BLACK
6
CONTINUOUS
10
77.1071
20
-62.9919
11
77.1
21
-57.8
0
ARC
8
BLACK
10
70.35
20
-56.75
40
1.05
50
-90
51
90
0
ARC
8
BLACK
10
84.75
20
-71.2
40
1.05
50
-0
51
180
0
LINE
8
BLACK
6
CONTINUOUS
10
62.892
20
-81.696
11
70.3
21
-81.7
0
LINE
8
BLACK
6
CONTINUOUS
10
50.3
20
-49.3
11
50.3
21
-103.6
0
LINE
8
BLACK
6
CONTINUOUS
10
61.9
20
-64.4
11
61.9
21
-66.2
0
ARC
8
BLACK
10
82.708
20
-78.608
40
3.09997
50
-90.0006
51
0.000591446
0
ARC
8
BLACK
10
62.892
20
-78.596
40
3.10001
50
-180
51
-89.9994
0
ARC
8
BLACK
10
78.5082
20
-66.2497
40
1.85004
50
-269.999
51
-179.999
0
LINE
8
BLACK
6
CONTINUOUS
10
85.8
20
-66.25
11
85.8079
21
-58.8
0
LINE
8
BLACK
6
CONTINUOUS
10
83.7
20
-66.25
11
83.7
21
-64.4
0
ARC
8
BLACK
10
70.3
20
-80.65
40
1.05
50
-90
51
90
0
ARC
8
BLACK
10
70.4
20
-71.1
40
1.459
50
-92.2428
51
181.964
0
LINE
8
BLACK
6
CONTINUOUS
10
75.3
20
-55.7
11
82.7079
21
-55.7
0
LINE
8
BLACK
6
CONTINUOUS
10
68.5
20
-79.6
11
70.3
21
-79.6
0
LINE
8
BLACK
6
CONTINUOUS
10
78.5082
20
-64.3997
11
83.7
21
-64.4
0
ARC
8
BLACK
10
70.4
20
-66.3
40
1.459
50
-182.243
51
91.9639
0
ARC
8
BLACK
10
62.892
20
-58.792
40
3.1
50
-270
51
-180
0
LINE
8
BLACK
6
CONTINUOUS
10
67.0919
20
-73
11
61.9
21
-73
0
ARC
8
BLACK
10
67.0919
20
-66.25
40
1.85
50
-0
51
90.0015
0
ARC
8
BLACK
10
75.2571
20
-62.9919
40
1.85001
50
-89.9998
51
0.00148659
0
LINE
8
BLACK
6
CONTINUOUS
10
70.35
20
-57.8
11
68.5
21
-57.8
0
ARC
8
BLACK
10
78.5081
20
-71.15
40
1.85
50
-180
51
-89.9985
0
ARC
8
BLACK
10
67.0919
20
-71.15
40
1.84995
50
-90.0015
51
-0
0
ARC
8
BLACK
10
75.2
20
-66.2997
40
1.45901
50
-272.243
51
1.9624
0
LINE
8
BLACK
6
CONTINUOUS
10
85.808
20
-78.608
11
85.8
21
-71.2
0
ARC
8
BLACK
10
82.708
20
-58.7999
40
3.0999
50
-0.00184828
51
90.0009
0
LINE
8
BLACK
6
CONTINUOUS
10
59.8
20
-66.2
11
59.792
21
-58.792
0
LINE
8
BLACK
6
CONTINUOUS
10
92.2787
20
-106.6
11
53.3
21
-106.6
0
ARC
8
BLACK
10
53.3
20
-49.3
40
3
50
90
51
180
0
LINE
8
BLACK
6
CONTINUOUS
10
83.7
20
-73
11
83.7
21
-71.2
0
ARC
8
BLACK
10
60.85
20
-66.2
40
1.05
50
-180
51
-0
0
LINE
8
BLACK
6
CONTINUOUS
10
59.55
20
-66.85
11
60.05
21
-67.35
0
LINE
8
BLACK
6
CONTINUOUS
10
60.05
20
-66.85
11
59.55
21
-67.35
0
LINE
8
BLACK
6
CONTINUOUS
10
59.55
20
-67.65
11
60.05
21
-68.15
0
LINE
8
BLACK
6
CONTINUOUS
10
60.05
20
-67.65
11
59.55
21
-68.15
0
LINE
8
BLACK
6
CONTINUOUS
10
59.55
20
-68.45
11
60.05
21
-68.95
0
LINE
8
BLACK
6
CONTINUOUS
10
60.05
20
-68.45
11
59.55
21
-68.95
0
LINE
8
BLACK
6
CONTINUOUS
10
59.55
20
-69.25
11
60.05
21
-69.75
0
LINE
8
BLACK
6
CONTINUOUS
10
60.05
20
-69.25
11
59.55
21
-69.75
0
LINE
8
BLACK
6
CONTINUOUS
10
59.55
20
-70.05
11
60.05
21
-70.55
0
LINE
8
BLACK
6
CONTINUOUS
10
60.05
20
-70.05
11
59.55
21
-70.55
0
LINE
8
BLACK
6
CONTINUOUS
10
61.65
20
-66.85
11
62.15
21
-67.35
0
LINE
8
BLACK
6
CONTINUOUS
10
62.15
20
-66.85
11
61.65
21
-67.35
0
LINE
8
BLACK
6
CONTINUOUS
10
61.65
20
-67.65
11
62.15
21
-68.15
0
LINE
8
BLACK
6
CONTINUOUS
10
62.15
20
-67.65
11
61.65
21
-68.15
0
LINE
8
BLACK
6
CONTINUOUS
10
61.65
20
-68.45
11
62.15
21
-68.95
0
LINE
8
BLACK
6
CONTINUOUS
10
62.15
20
-68.45
11
61.65
21
-68.95
0
LINE
8
BLACK
6
CONTINUOUS
10
61.65
20
-69.25
11
62.15
21
-69.75
0
LINE
8
BLACK
6
CONTINUOUS
10
62.15
20
-69.25
11
61.65
21
-69.75
0
LINE
8
BLACK
6
CONTINUOUS
10
61.65
20
-70.05
11
62.15
21
-70.55
0
LINE
8
BLACK
6
CONTINUOUS
10
62.15
20
-70.05
11
61.65
21
-70.55
0
LINE
8
BLACK
6
CONTINUOUS
10
68.55
20
-67.15
11
69.05
21
-67.65
0
LINE
8
BLACK
6
CONTINUOUS
10
69.05
20
-67.15
11
68.55
21
-67.65
0
LINE
8
BLACK
6
CONTINUOUS
10
68.55
20
-67.95
11
69.05
21
-68.45
0
LINE
8
BLACK
6
CONTINUOUS
10
69.05
20
-67.95
11
68.55
21
-68.45
0
LINE
8
BLACK
6
CONTINUOUS
10
68.55
20
-68.75
11
69.05
21
-69.25
0
LINE
8
BLACK
6
CONTINUOUS
10
69.05
20
-68.75
11
68.55
21
-69.25
0
LINE
8
BLACK
6
CONTINUOUS
10
68.55
20
-69.55
11
69.05
21
-70.05
0
LINE
8
BLACK
6
CONTINUOUS
10
69.05
20
-69.55
11
68.55
21
-70.05
0
LINE
8
BLACK
6
CONTINUOUS
10
70.65
20
-67.95
11
71.15
21
-68.45
0
LINE
8
BLACK
6
CONTINUOUS
10
71.15
20
-67.95
11
70.65
21
-68.45
0
LINE
8
BLACK
6
CONTINUOUS
10
70.65
20
-68.75
11
71.15
21
-69.25
0
LINE
8
BLACK
6
CONTINUOUS
10
71.15
20
-68.75
11
70.65
21
-69.25
0
LINE
8
BLACK
6
CONTINUOUS
10
70.95
20
-55.45
11
71.45
21
-55.95
0
LINE
8
BLACK
6
CONTINUOUS
10
71.45
20
-55.45
11
70.95
21
-55.95
0
LINE
8
BLACK
6
CONTINUOUS
10
70.95
20
-57.55
11
71.45
21
-58.05
0
LINE
8
BLACK
6
CONTINUOUS
10
71.45
20
-57.55
11
70.95
21
-58.05
0
LINE
8
BLACK
6
CONTINUOUS
10
70.95
20
-79.35
11
71.45
21
-79.85
0
LINE
8
BLACK
6
CONTINUOUS
10
71.45
20
-79.35
11
70.95
21
-79.85
0
LINE
8
BLACK
6
CONTINUOUS
10
70.95
20
-81.45
11
71.45
21
-81.95
0
LINE
8
BLACK
6
CONTINUOUS
10
71.45
20
-81.45
11
70.95
21
-81.95
0
LINE
8
BLACK
6
CONTINUOUS
10
71.35
20
-72.45
11
71.85
21
-72.95
0
LINE
8
BLACK
6
CONTINUOUS
10
71.85
20
-72.45
11
71.35
21
-72.95
0
LINE
8
BLACK
6
CONTINUOUS
10
71.4
20
-64.4
11
71.9
21
-64.9
0
LINE
8
BLACK
6
CONTINUOUS
10
71.9
20
-64.4
11
71.4
21
-64.9
0
LINE
8
BLACK
6
CONTINUOUS
10
71.75
20
-55.45
11
72.25
21
-55.95
0
LINE
8
BLACK
6
CONTINUOUS
10
72.25
20
-55.45
11
71.75
21
-55.95
0
LINE
8
BLACK
6
CONTINUOUS
10
71.75
20
-57.55
11
72.25
21
-58.05
0
LINE
8
BLACK
6
CONTINUOUS
10
72.25
20
-57.55
11
71.75
21
-58.05
0
LINE
8
BLACK
6
CONTINUOUS
10
71.75
20
-79.35
11
72.25
21
-79.85
0
LINE
8
BLACK
6
CONTINUOUS
10
72.25
20
-79.35
11
71.75
21
-79.85
0
LINE
8
BLACK
6
CONTINUOUS
10
71.75
20
-81.45
11
72.25
21
-81.95
0
LINE
8
BLACK
6
CONTINUOUS
10
72.25
20
-81.45
11
71.75
21
-81.95
0
LINE
8
BLACK
6
CONTINUOUS
10
72.15
20
-70.35
11
72.65
21
-70.85
0
LINE
8
BLACK
6
CONTINUOUS
10
72.65
20
-70.35
11
72.15
21
-70.85
0
LINE
8
BLACK
6
CONTINUOUS
10
72.15
20
-72.45
11
72.65
21
-72.95
0
LINE
8
BLACK
6
CONTINUOUS
10
72.65
20
-72.45
11
72.15
21
-72.95
0
LINE
8
BLACK
6
CONTINUOUS
10
72.2
20
-64.4
11
72.7
21
-64.9
0
LINE
8
BLACK
6
CONTINUOUS
10
72.7
20
-64.4
11
72.2
21
-64.9
0
LINE
8
BLACK
6
CONTINUOUS
10
72.2
20
-66.5
11
72.7
21
-67
0
LINE
8
BLACK
6
CONTINUOUS
10
72.7
20
-66.5
11
72.2
21
-67
0
LINE
8
BLACK
6
CONTINUOUS
10
72.55
20
-55.45
11
73.05
21
-55.95
0
LINE
8
BLACK
6
CONTINUOUS
10
73.05
20
-55.45
11
72.55
21
-55.95
0
LINE
8
BLACK
6
CONTINUOUS
10
72.55
20
-57.55
11
73.05
21
-58.05
0
LINE
8
BLACK
6
CONTINUOUS
10
73.05
20
-57.55
11
72.55
21
-58.05
0
LINE
8
BLACK
6
CONTINUOUS
10
72.55
20
-79.35
11
73.05
21
-79.85
0
LINE
8
BLACK
6
CONTINUOUS
10
73.05
20
-79.35
11
72.55
21
-79.85
0
LINE
8
BLACK
6
CONTINUOUS
10
72.55
20
-81.45
11
73.05
21
-81.95
0
LINE
8
BLACK
6
CONTINUOUS
10
73.05
20
-81.45
11
72.55
21
-81.95
0
LINE
8
BLACK
6
CONTINUOUS
10
72.95
20
-70.35
11
73.45
21
-70.85
0
LINE
8
BLACK
6
CONTINUOUS
10
73.45
20
-70.35
11
72.95
21
-70.85
0
LINE
8
BLACK
6
CONTINUOUS
10
72.95
20
-72.45
11
73.45
21
-72.95
0
LINE
8
BLACK
6
CONTINUOUS
10
73.45
20
-72.45
11
72.95
21
-72.95
0
LINE
8
BLACK
6
CONTINUOUS
10
73
20
-64.4
11
73.5
21
-64.9
0
LINE
8
BLACK
6
CONTINUOUS
10
73.5
20
-64.4
11
73
21
-64.9
0
LINE
8
BLACK
6
CONTINUOUS
10
73
20
-66.5
11
73.5
21
-67
0
LINE
8
BLACK
6
CONTINUOUS
10
73.5
20
-66.5
11
73
21
-67
0
LINE
8
BLACK
6
CONTINUOUS
10
73.35
20
-55.45
11
73.85
21
-55.95
0
LINE
8
BLACK
6
CONTINUOUS
10
73.85
20
-55.45
11
73.35
21
-55.95
0
LINE
8
BLACK
6
CONTINUOUS
10
73.35
20
-57.55
11
73.85
21
-58.05
0
LINE
8
BLACK
6
CONTINUOUS
10
73.85
20
-57.55
11
73.35
21
-58.05
0
LINE
8
BLACK
6
CONTINUOUS
10
73.35
20
-79.35
11
73.85
21
-79.85
0
LINE
8
BLACK
6
CONTINUOUS
10
73.85
20
-79.35
11
73.35
21
-79.85
0
LINE
8
BLACK
6
CONTINUOUS
10
73.35
20
-81.45
11
73.85
21
-81.95
0
LINE
8
BLACK
6
CONTINUOUS
10
73.85
20
-81.45
11
73.35
21
-81.95
0
LINE
8
BLACK
6
CONTINUOUS
10
73.75
20
-72.45
11
74.25
21
-72.95
0
LINE
8
BLACK
6
CONTINUOUS
10
74.25
20
-72.45
11
73.75
21
-72.95
0
LINE
8
BLACK
6
CONTINUOUS
10
73.8
20
-64.4
11
74.3
21
-64.9
0
LINE
8
BLACK
6
CONTINUOUS
10
74.3
20
-64.4
11
73.8
21
-64.9
0
LINE
8
BLACK
6
CONTINUOUS
10
74.15
20
-55.45
11
74.65
21
-55.95
0
LINE
8
BLACK
6
CONTINUOUS
10
74.65
20
-55.45
11
74.15
21
-55.95
0
LINE
8
BLACK
6
CONTINUOUS
10
74.15
20
-57.55
11
74.65
21
-58.05
0
LINE
8
BLACK
6
CONTINUOUS
10
74.65
20
-57.55
11
74.15
21
-58.05
0
LINE
8
BLACK
6
CONTINUOUS
10
74.15
20
-79.35
11
74.65
21
-79.85
0
LINE
8
BLACK
6
CONTINUOUS
10
74.65
20
-79.35
11
74.15
21
-79.85
0
LINE
8
BLACK
6
CONTINUOUS
10
74.15
20
-81.45
11
74.65
21
-81.95
0
LINE
8
BLACK
6
CONTINUOUS
10
74.65
20
-81.45
11
74.15
21
-81.95
0
LINE
8
BLACK
6
CONTINUOUS
10
74.45
20
-68
11
74.95
21
-68.5
0
LINE
8
BLACK
6
CONTINUOUS
10
74.95
20
-68
11
74.45
21
-68.5
0
LINE
8
BLACK
6
CONTINUOUS
10
74.45
20
-68.8
11
74.95
21
-69.3
0
LINE
8
BLACK
6
CONTINUOUS
10
74.95
20
-68.8
11
74.45
21
-69.3
0
LINE
8
BLACK
6
CONTINUOUS
10
76.55
20
-67.2
11
77.05
21
-67.7
0
LINE
8
BLACK
6
CONTINUOUS
10
77.05
20
-67.2
11
76.55
21
-67.7
0
LINE
8
BLACK
6
CONTINUOUS
10
76.55
20
-68
11
77.05
21
-68.5
0
LINE
8
BLACK
6
CONTINUOUS
10
77.05
20
-68
11
76.55
21
-68.5
0
LINE
8
BLACK
6
CONTINUOUS
10
76.55
20
-68.8
11
77.05
21
-69.3
0
LINE
8
BLACK
6
CONTINUOUS
10
77.05
20
-68.8
11
76.55
21
-69.3
0
LINE
8
BLACK
6
CONTINUOUS
10
76.55
20
-69.6
11
77.05
21
-70.1
0
LINE
8
BLACK
6
CONTINUOUS
10
77.05
20
-69.6
11
76.55
21
-70.1
0
LINE
8
BLACK
6
CONTINUOUS
10
83.45
20
-66.85
11
83.95
21
-67.35
0
LINE
8
BLACK
6
CONTINUOUS
10
83.95
20
-66.85
11
83.45
21
-67.35
0
LINE
8
BLACK
6
CONTINUOUS
10
83.45
20
-67.65
11
83.95
21
-68.15
0
LINE
8
BLACK
6
CONTINUOUS
10
83.95
20
-67.65
11
83.45
21
-68.15
0
LINE
8
BLACK
6
CONTINUOUS
10
83.45
20
-68.45
11
83.95
21
-68.95
0
LINE
8
BLACK
6
CONTINUOUS
10
83.95
20
-68.45
11
83.45
21
-68.95
0
LINE
8
BLACK
6
CONTINUOUS
10
83.45
20
-69.25
11
83.95
21
-69.75
0
LINE
8
BLACK
6
CONTINUOUS
10
83.95
20
-69.25
11
83.45
21
-69.75
0
LINE
8
BLACK
6
CONTINUOUS
10
83.45
20
-70.05
11
83.95
21
-70.55
0
LINE
8
BLACK
6
CONTINUOUS
10
83.95
20
-70.05
11
83.45
21
-70.55
0
LINE
8
BLACK
6
CONTINUOUS
10
85.55
20
-66.85
11
86.05
21
-67.35
0
LINE
8
BLACK
6
CONTINUOUS
10
86.05
20
-66.85
11
85.55
21
-67.35
0
LINE
8
BLACK
6
CONTINUOUS
10
85.55
20
-67.65
11
86.05
21
-68.15
0
LINE
8
BLACK
6
CONTINUOUS
10
86.05
20
-67.65
11
85.55
21
-68.15
0
LINE
8
BLACK
6
CONTINUOUS
10
85.55
20
-68.45
11
86.05
21
-68.95
0
LINE
8
BLACK
6
CONTINUOUS
10
86.05
20
-68.45
11
85.55
21
-68.95
0
LINE
8
BLACK
6
CONTINUOUS
10
85.55
20
-69.25
11
86.05
21
-69.75
0
LINE
8
BLACK
6
CONTINUOUS
10
86.05
20
-69.25
11
85.55
21
-69.75
0
LINE
8
BLACK
6
CONTINUOUS
10
85.55
20
-70.05
11
86.05
21
-70.55
0
LINE
8
BLACK
6
CONTINUOUS
10
86.05
20
-70.05
11
85.55
21
-70.55
0
LINE
8
BLACK
6
CONTINUOUS
10
52.8328
20
-109.79
11
52.8328
21
-107.79
0
LINE
8
BLACK
6
CONTINUOUS
10
52.8328
20
-107.79
11
53.309
21
-107.79
0
LINE
8
BLACK
6
CONTINUOUS
10
53.309
20
-107.79
11
53.5947
21
-107.885
0
LINE
8
BLACK
6
CONTINUOUS
10
53.5947
20
-107.885
11
53.7851
21
-108.076
0
LINE
8
BLACK
6
CONTINUOUS
10
53.7851
20
-108.076
11
53.8804
21
-108.266
0
LINE
8
BLACK
6
CONTINUOUS
10
53.8804
20
-108.266
11
53.9756
21
-108.647
0
LINE
8
BLACK
6
CONTINUOUS
10
53.9756
20
-108.647
11
53.9756
21
-108.933
0
LINE
8
BLACK
6
CONTINUOUS
10
53.9756
20
-108.933
11
53.8804
21
-109.314
0
LINE
8
BLACK
6
CONTINUOUS
10
53.8804
20
-109.314
11
53.7851
21
-109.504
0
LINE
8
BLACK
6
CONTINUOUS
10
53.7851
20
-109.504
11
53.5947
21
-109.695
0
LINE
8
BLACK
6
CONTINUOUS
10
53.5947
20
-109.695
11
53.309
21
-109.79
0
LINE
8
BLACK
6
CONTINUOUS
10
53.309
20
-109.79
11
52.8328
21
-109.79
0
LINE
8
BLACK
6
CONTINUOUS
10
54.8328
20
-109.79
11
54.8328
21
-108.457
0
LINE
8
BLACK
6
CONTINUOUS
10
54.8328
20
-108.837
11
54.928
21
-108.647
0
LINE
8
BLACK
6
CONTINUOUS
10
54.928
20
-108.647
11
55.0232
21
-108.552
0
LINE
8
BLACK
6
CONTINUOUS
10
55.0232
20
-108.552
11
55.2137
21
-108.457
0
LINE
8
BLACK
6
CONTINUOUS
10
55.2137
20
-108.457
11
55.4042
21
-108.457
0
LINE
8
BLACK
6
CONTINUOUS
10
56.0709
20
-109.79
11
56.0709
21
-108.457
0
LINE
8
BLACK
6
CONTINUOUS
10
56.0709
20
-107.79
11
55.9756
21
-107.885
0
LINE
8
BLACK
6
CONTINUOUS
10
55.9756
20
-107.885
11
56.0709
21
-107.98
0
LINE
8
BLACK
6
CONTINUOUS
10
56.0709
20
-107.98
11
56.1661
21
-107.885
0
LINE
8
BLACK
6
CONTINUOUS
10
56.1661
20
-107.885
11
56.0709
21
-107.79
0
LINE
8
BLACK
6
CONTINUOUS
10
56.0709
20
-107.79
11
56.0709
21
-107.98
0
LINE
8
BLACK
6
CONTINUOUS
10
57.309
20
-109.79
11
57.1185
21
-109.695
0
LINE
8
BLACK
6
CONTINUOUS
10
57.1185
20
-109.695
11
57.0232
21
-109.504
0
LINE
8
BLACK
6
CONTINUOUS
10
57.0232
20
-109.504
11
57.0232
21
-107.79
0
LINE
8
BLACK
6
CONTINUOUS
10
58.3566
20
-109.79
11
58.1661
21
-109.695
0
LINE
8
BLACK
6
CONTINUOUS
10
58.1661
20
-109.695
11
58.0709
21
-109.504
0
LINE
8
BLACK
6
CONTINUOUS
10
58.0709
20
-109.504
11
58.0709
21
-107.79
0
LINE
8
BLACK
6
CONTINUOUS
10
60.6423
20
-109.79
11
60.6423
21
-107.79
0
LINE
8
BLACK
6
CONTINUOUS
10
60.6423
20
-107.79
11
61.309
21
-109.218
0
LINE
8
BLACK
6
CONTINUOUS
10
61.309
20
-109.218
11
61.9756
21
-107.79
0
LINE
8
BLACK
6
CONTINUOUS
10
61.9756
20
-107.79
11
61.9756
21
-109.79
0
LINE
8
BLACK
6
CONTINUOUS
10
63.7851
20
-109.79
11
63.7851
21
-108.742
0
LINE
8
BLACK
6
CONTINUOUS
10
63.7851
20
-108.742
11
63.6899
21
-108.552
0
LINE
8
BLACK
6
CONTINUOUS
10
63.6899
20
-108.552
11
63.4994
21
-108.457
0
LINE
8
BLACK
6
CONTINUOUS
10
63.4994
20
-108.457
11
63.1185
21
-108.457
0
LINE
8
BLACK
6
CONTINUOUS
10
63.1185
20
-108.457
11
62.928
21
-108.552
0
LINE
8
BLACK
6
CONTINUOUS
10
63.7851
20
-109.695
11
63.5947
21
-109.79
0
LINE
8
BLACK
6
CONTINUOUS
10
63.5947
20
-109.79
11
63.1185
21
-109.79
0
LINE
8
BLACK
6
CONTINUOUS
10
63.1185
20
-109.79
11
62.928
21
-109.695
0
LINE
8
BLACK
6
CONTINUOUS
10
62.928
20
-109.695
11
62.8328
21
-109.504
0
LINE
8
BLACK
6
CONTINUOUS
10
62.8328
20
-109.504
11
62.8328
21
-109.314
0
LINE
8
BLACK
6
CONTINUOUS
10
62.8328
20
-109.314
11
62.928
21
-109.123
0
LINE
8
BLACK
6
CONTINUOUS
10
62.928
20
-109.123
11
63.1185
21
-109.028
0
LINE
8
BLACK
6
CONTINUOUS
10
63.1185
20
-109.028
11
63.5947
21
-109.028
0
LINE
8
BLACK
6
CONTINUOUS
10
63.5947
20
-109.028
11
63.7851
21
-108.933
0
LINE
8
BLACK
6
CONTINUOUS
10
64.7375
20
-108.457
11
64.7375
21
-110.457
0
LINE
8
BLACK
6
CONTINUOUS
10
64.7375
20
-108.552
11
64.928
21
-108.457
0
LINE
8
BLACK
6
CONTINUOUS
10
64.928
20
-108.457
11
65.309
21
-108.457
0
LINE
8
BLACK
6
CONTINUOUS
10
65.309
20
-108.457
11
65.4994
21
-108.552
0
LINE
8
BLACK
6
CONTINUOUS
10
65.4994
20
-108.552
11
65.5947
21
-108.647
0
LINE
8
BLACK
6
CONTINUOUS
10
65.5947
20
-108.647
11
65.6899
21
-108.837
0
LINE
8
BLACK
6
CONTINUOUS
10
65.6899
20
-108.837
11
65.6899
21
-109.409
0
LINE
8
BLACK
6
CONTINUOUS
10
65.6899
20
-109.409
11
65.5947
21
-109.599
0
LINE
8
BLACK
6
CONTINUOUS
10
65.5947
20
-109.599
11
65.4994
21
-109.695
0
LINE
8
BLACK
6
CONTINUOUS
10
65.4994
20
-109.695
11
65.309
21
-109.79
0
LINE
8
BLACK
6
CONTINUOUS
10
65.309
20
-109.79
11
64.928
21
-109.79
0
LINE
8
BLACK
6
CONTINUOUS
10
64.928
20
-109.79
11
64.7375
21
-109.695
0
LINE
8
BLACK
6
CONTINUOUS
10
66.5471
20
-109.599
11
66.6423
21
-109.695
0
LINE
8
BLACK
6
CONTINUOUS
10
66.6423
20
-109.695
11
66.5471
21
-109.79
0
LINE
8
BLACK
6
CONTINUOUS
10
66.5471
20
-109.79
11
66.4518
21
-109.695
0
LINE
8
BLACK
6
CONTINUOUS
10
66.4518
20
-109.695
11
66.5471
21
-109.599
0
LINE
8
BLACK
6
CONTINUOUS
10
66.5471
20
-109.599
11
66.5471
21
-109.79
0
LINE
8
BLACK
6
CONTINUOUS
10
66.5471
20
-108.552
11
66.6423
21
-108.647
0
LINE
8
BLACK
6
CONTINUOUS
10
66.6423
20
-108.647
11
66.5471
21
-108.742
0
LINE
8
BLACK
6
CONTINUOUS
10
66.5471
20
-108.742
11
66.4518
21
-108.647
0
LINE
8
BLACK
6
CONTINUOUS
10
66.4518
20
-108.647
11
66.5471
21
-108.552
0
LINE
8
BLACK
6
CONTINUOUS
10
66.5471
20
-108.552
11
66.5471
21
-108.742
0
LINE
8
BLACK
6
CONTINUOUS
10
49.725
20
-112.825
11
50.225
21
-113.325
0
LINE
8
BLACK
6
CONTINUOUS
10
50.225
20
-112.825
11
49.725
21
-113.325
0
LINE
8
BLACK
6
CONTINUOUS
10
53.2137
20
-111.99
11
53.4042
21
-111.99
0
LINE
8
BLACK
6
CONTINUOUS
10
53.4042
20
-111.99
11
53.5947
21
-112.085
0
LINE
8
BLACK
6
CONTINUOUS
10
53.5947
20
-112.085
11
53.6899
21
-112.18
0
LINE
8
BLACK
6
CONTINUOUS
10
53.6899
20
-112.18
11
53.7851
21
-112.371
0
LINE
8
BLACK
6
CONTINUOUS
10
53.7851
20
-112.371
11
53.8804
21
-112.752
0
LINE
8
BLACK
6
CONTINUOUS
10
53.8804
20
-112.752
11
53.8804
21
-113.228
0
LINE
8
BLACK
6
CONTINUOUS
10
53.8804
20
-113.228
11
53.7851
21
-113.609
0
LINE
8
BLACK
6
CONTINUOUS
10
53.7851
20
-113.609
11
53.6899
21
-113.799
0
LINE
8
BLACK
6
CONTINUOUS
10
53.6899
20
-113.799
11
53.5947
21
-113.895
0
LINE
8
BLACK
6
CONTINUOUS
10
53.5947
20
-113.895
11
53.4042
21
-113.99
0
LINE
8
BLACK
6
CONTINUOUS
10
53.4042
20
-113.99
11
53.2137
21
-113.99
0
LINE
8
BLACK
6
CONTINUOUS
10
53.2137
20
-113.99
11
53.0232
21
-113.895
0
LINE
8
BLACK
6
CONTINUOUS
10
53.0232
20
-113.895
11
52.928
21
-113.799
0
LINE
8
BLACK
6
CONTINUOUS
10
52.928
20
-113.799
11
52.8328
21
-113.609
0
LINE
8
BLACK
6
CONTINUOUS
10
52.8328
20
-113.609
11
52.7375
21
-113.228
0
LINE
8
BLACK
6
CONTINUOUS
10
52.7375
20
-113.228
11
52.7375
21
-112.752
0
LINE
8
BLACK
6
CONTINUOUS
10
52.7375
20
-112.752
11
52.8328
21
-112.371
0
LINE
8
BLACK
6
CONTINUOUS
10
52.8328
20
-112.371
11
52.928
21
-112.18
0
LINE
8
BLACK
6
CONTINUOUS
10
52.928
20
-112.18
11
53.0232
21
-112.085
0
LINE
8
BLACK
6
CONTINUOUS
10
53.0232
20
-112.085
11
53.2137
21
-111.99
0
LINE
8
BLACK
6
CONTINUOUS
10
54.7375
20
-113.799
11
54.8328
21
-113.895
0
LINE
8
BLACK
6
CONTINUOUS
10
54.8328
20
-113.895
11
54.7375
21
-113.99
0
LINE
8
BLACK
6
CONTINUOUS
10
54.7375
20
-113.99
11
54.6423
21
-113.895
0
LINE
8
BLACK
6
CONTINUOUS
10
54.6423
20
-113.895
11
54.7375
21
-113.799
0
LINE
8
BLACK
6
CONTINUOUS
10
54.7375
20
-113.799
11
54.7375
21
-113.99
0
LINE
8
BLACK
6
CONTINUOUS
10
56.6423
20
-111.99
11
55.6899
21
-111.99
0
LINE
8
BLACK
6
CONTINUOUS
10
55.6899
20
-111.99
11
55.5947
21
-112.942
0
LINE
8
BLACK
6
CONTINUOUS
10
55.5947
20
-112.942
11
55.6899
21
-112.847
0
LINE
8
BLACK
6
CONTINUOUS
10
55.6899
20
-112.847
11
55.8804
21
-112.752
0
LINE
8
BLACK
6
CONTINUOUS
10
55.8804
20
-112.752
11
56.3566
21
-112.752
0
LINE
8
BLACK
6
CONTINUOUS
10
56.3566
20
-112.752
11
56.5471
21
-112.847
0
LINE
8
BLACK
6
CONTINUOUS
10
56.5471
20
-112.847
11
56.6423
21
-112.942
0
LINE
8
BLACK
6
CONTINUOUS
10
56.6423
20
-112.942
11
56.7375
21
-113.133
0
LINE
8
BLACK
6
CONTINUOUS
10
56.7375
20
-113.133
11
56.7375
21
-113.609
0
LINE
8
BLACK
6
CONTINUOUS
10
56.7375
20
-113.609
11
56.6423
21
-113.799
0
LINE
8
BLACK
6
CONTINUOUS
10
56.6423
20
-113.799
11
56.5471
21
-113.895
0
LINE
8
BLACK
6
CONTINUOUS
10
56.5471
20
-113.895
11
56.3566
21
-113.99
0
LINE
8
BLACK
6
CONTINUOUS
10
56.3566
20
-113.99
11
55.8804
21
-113.99
0
LINE
8
BLACK
6
CONTINUOUS
10
55.8804
20
-113.99
11
55.6899
21
-113.895
0
LINE
8
BLACK
6
CONTINUOUS
10
55.6899
20
-113.895
11
55.5947
21
-113.799
0
LINE
8
BLACK
6
CONTINUOUS
10
57.9756
20
-111.99
11
58.1661
21
-111.99
0
LINE
8
BLACK
6
CONTINUOUS
10
58.1661
20
-111.99
11
58.3566
21
-112.085
0
LINE
8
BLACK
6
CONTINUOUS
10
58.3566
20
-112.085
11
58.4518
21
-112.18
0
LINE
8
BLACK
6
CONTINUOUS
10
58.4518
20
-112.18
11
58.5471
21
-112.371
0
LINE
8
BLACK
6
CONTINUOUS
10
58.5471
20
-112.371
11
58.6423
21
-112.752
0
LINE
8
BLACK
6
CONTINUOUS
10
58.6423
20
-112.752
11
58.6423
21
-113.228
0
LINE
8
BLACK
6
CONTINUOUS
10
58.6423
20
-113.228
11
58.5471
21
-113.609
0
LINE
8
BLACK
6
CONTINUOUS
10
58.5471
20
-113.609
11
58.4518
21
-113.799
0
LINE
8
BLACK
6
CONTINUOUS
10
58.4518
20
-113.799
11
58.3566
21
-113.895
0
LINE
8
BLACK
6
CONTINUOUS
10
58.3566
20
-113.895
11
58.1661
21
-113.99
0
LINE
8
BLACK
6
CONTINUOUS
10
58.1661
20
-113.99
11
57.9756
21
-113.99
0
LINE
8
BLACK
6
CONTINUOUS
10
57.9756
20
-113.99
11
57.7851
21
-113.895
0
LINE
8
BLACK
6
CONTINUOUS
10
57.7851
20
-113.895
11
57.6899
21
-113.799
0
LINE
8
BLACK
6
CONTINUOUS
10
57.6899
20
-113.799
11
57.5947
21
-113.609
0
LINE
8
BLACK
6
CONTINUOUS
10
57.5947
20
-113.609
11
57.4994
21
-113.228
0
LINE
8
BLACK
6
CONTINUOUS
10
57.4994
20
-113.228
11
57.4994
21
-112.752
0
LINE
8
BLACK
6
CONTINUOUS
10
57.4994
20
-112.752
11
57.5947
21
-112.371
0
LINE
8
BLACK
6
CONTINUOUS
10
57.5947
20
-112.371
11
57.6899
21
-112.18
0
LINE
8
BLACK
6
CONTINUOUS
10
57.6899
20
-112.18
11
57.7851
21
-112.085
0
LINE
8
BLACK
6
CONTINUOUS
10
57.7851
20
-112.085
11
57.9756
21
-111.99
0
LINE
8
BLACK
6
CONTINUOUS
10
59.8804
20
-111.99
11
60.0709
21
-111.99
0
LINE
8
BLACK
6
CONTINUOUS
10
60.0709
20
-111.99
11
60.2613
21
-112.085
0
LINE
8
BLACK
6
CONTINUOUS
10
60.2613
20
-112.085
11
60.3566
21
-112.18
0
LINE
8
BLACK
6
CONTINUOUS
10
60.3566
20
-112.18
11
60.4518
21
-112.371
0
LINE
8
BLACK
6
CONTINUOUS
10
60.4518
20
-112.371
11
60.5471
21
-112.752
0
LINE
8
BLACK
6
CONTINUOUS
10
60.5471
20
-112.752
11
60.5471
21
-113.228
0
LINE
8
BLACK
6
CONTINUOUS
10
60.5471
20
-113.228
11
60.4518
21
-113.609
0
LINE
8
BLACK
6
CONTINUOUS
10
60.4518
20
-113.609
11
60.3566
21
-113.799
0
LINE
8
BLACK
6
CONTINUOUS
10
60.3566
20
-113.799
11
60.2613
21
-113.895
0
LINE
8
BLACK
6
CONTINUOUS
10
60.2613
20
-113.895
11
60.0709
21
-113.99
0
LINE
8
BLACK
6
CONTINUOUS
10
60.0709
20
-113.99
11
59.8804
21
-113.99
0
LINE
8
BLACK
6
CONTINUOUS
10
59.8804
20
-113.99
11
59.6899
21
-113.895
0
LINE
8
BLACK
6
CONTINUOUS
10
59.6899
20
-113.895
11
59.5947
21
-113.799
0
LINE
8
BLACK
6
CONTINUOUS
10
59.5947
20
-113.799
11
59.4994
21
-113.609
0
LINE
8
BLACK
6
CONTINUOUS
10
59.4994
20
-113.609
11
59.4042
21
-113.228
0
LINE
8
BLACK
6
CONTINUOUS
10
59.4042
20
-113.228
11
59.4042
21
-112.752
0
LINE
8
BLACK
6
CONTINUOUS
10
59.4042
20
-112.752
11
59.4994
21
-112.371
0
LINE
8
BLACK
6
CONTINUOUS
10
59.4994
20
-112.371
11
59.5947
21
-112.18
0
LINE
8
BLACK
6
CONTINUOUS
10
59.5947
20
-112.18
11
59.6899
21
-112.085
0
LINE
8
BLACK
6
CONTINUOUS
10
59.6899
20
-112.085
11
59.8804
21
-111.99
0
LINE
8
BLACK
6
CONTINUOUS
10
61.4042
20
-113.99
11
61.4042
21
-112.657
0
LINE
8
BLACK
6
CONTINUOUS
10
61.4042
20
-112.847
11
61.4994
21
-112.752
0
LINE
8
BLACK
6
CONTINUOUS
10
61.4994
20
-112.752
11
61.6899
21
-112.657
0
LINE
8
BLACK
6
CONTINUOUS
10
61.6899
20
-112.657
11
61.9756
21
-112.657
0
LINE
8
BLACK
6
CONTINUOUS
10
61.9756
20
-112.657
11
62.1661
21
-112.752
0
LINE
8
BLACK
6
CONTINUOUS
10
62.1661
20
-112.752
11
62.2613
21
-112.942
0
LINE
8
BLACK
6
CONTINUOUS
10
62.2613
20
-112.942
11
62.2613
21
-113.99
0
LINE
8
BLACK
6
CONTINUOUS
10
62.2613
20
-112.942
11
62.3566
21
-112.752
0
LINE
8
BLACK
6
CONTINUOUS
10
62.3566
20
-112.752
11
62.5471
21
-112.657
0
LINE
8
BLACK
6
CONTINUOUS
10
62.5471
20
-112.657
11
62.8328
21
-112.657
0
LINE
8
BLACK
6
CONTINUOUS
10
62.8328
20
-112.657
11
63.0232
21
-112.752
0
LINE
8
BLACK
6
CONTINUOUS
10
63.0232
20
-112.752
11
63.1185
21
-112.942
0
LINE
8
BLACK
6
CONTINUOUS
10
63.1185
20
-112.942
11
63.1185
21
-113.99
0
LINE
8
BLACK
6
CONTINUOUS
10
64.0709
20
-113.99
11
64.0709
21
-112.657
0
LINE
8
BLACK
6
CONTINUOUS
10
64.0709
20
-112.847
11
64.1661
21
-112.752
0
LINE
8
BLACK
6
CONTINUOUS
10
64.1661
20
-112.752
11
64.3566
21
-112.657
0
LINE
8
BLACK
6
CONTINUOUS
10
64.3566
20
-112.657
11
64.6423
21
-112.657
0
LINE
8
BLACK
6
CONTINUOUS
10
64.6423
20
-112.657
11
64.8328
21
-112.752
0
LINE
8
BLACK
6
CONTINUOUS
10
64.8328
20
-112.752
11
64.928
21
-112.942
0
LINE
8
BLACK
6
CONTINUOUS
10
64.928
20
-112.942
11
64.928
21
-113.99
0
LINE
8
BLACK
6
CONTINUOUS
10
64.928
20
-112.942
11
65.0232
21
-112.752
0
LINE
8
BLACK
6
CONTINUOUS
10
65.0232
20
-112.752
11
65.2137
21
-112.657
0
LINE
8
BLACK
6
CONTINUOUS
10
65.2137
20
-112.657
11
65.4994
21
-112.657
0
LINE
8
BLACK
6
CONTINUOUS
10
65.4994
20
-112.657
11
65.6899
21
-112.752
0
LINE
8
BLACK
6
CONTINUOUS
10
65.6899
20
-112.752
11
65.7852
21
-112.942
0
LINE
8
BLACK
6
CONTINUOUS
10
65.7852
20
-112.942
11
65.7852
21
-113.99
0
LINE
8
BLACK
6
CONTINUOUS
10
69.6899
20
-111.895
11
67.9756
21
-114.466
0
LINE
8
BLACK
6
CONTINUOUS
10
72.2613
20
-111.99
11
72.4518
21
-111.99
0
LINE
8
BLACK
6
CONTINUOUS
10
72.4518
20
-111.99
11
72.6423
21
-112.085
0
LINE
8
BLACK
6
CONTINUOUS
10
72.6423
20
-112.085
11
72.7375
21
-112.18
0
LINE
8
BLACK
6
CONTINUOUS
10
72.7375
20
-112.18
11
72.8328
21
-112.371
0
LINE
8
BLACK
6
CONTINUOUS
10
72.8328
20
-112.371
11
72.928
21
-112.752
0
LINE
8
BLACK
6
CONTINUOUS
10
72.928
20
-112.752
11
72.928
21
-113.228
0
LINE
8
BLACK
6
CONTINUOUS
10
72.928
20
-113.228
11
72.8328
21
-113.609
0
LINE
8
BLACK
6
CONTINUOUS
10
72.8328
20
-113.609
11
72.7375
21
-113.799
0
LINE
8
BLACK
6
CONTINUOUS
10
72.7375
20
-113.799
11
72.6423
21
-113.895
0
LINE
8
BLACK
6
CONTINUOUS
10
72.6423
20
-113.895
11
72.4518
21
-113.99
0
LINE
8
BLACK
6
CONTINUOUS
10
72.4518
20
-113.99
11
72.2613
21
-113.99
0
LINE
8
BLACK
6
CONTINUOUS
10
72.2613
20
-113.99
11
72.0709
21
-113.895
0
LINE
8
BLACK
6
CONTINUOUS
10
72.0709
20
-113.895
11
71.9756
21
-113.799
0
LINE
8
BLACK
6
CONTINUOUS
10
71.9756
20
-113.799
11
71.8804
21
-113.609
0
LINE
8
BLACK
6
CONTINUOUS
10
71.8804
20
-113.609
11
71.7852
21
-113.228
0
LINE
8
BLACK
6
CONTINUOUS
10
71.7852
20
-113.228
11
71.7852
21
-112.752
0
LINE
8
BLACK
6
CONTINUOUS
10
71.7852
20
-112.752
11
71.8804
21
-112.371
0
LINE
8
BLACK
6
CONTINUOUS
10
71.8804
20
-112.371
11
71.9756
21
-112.18
0
LINE
8
BLACK
6
CONTINUOUS
10
71.9756
20
-112.18
11
72.0709
21
-112.085
0
LINE
8
BLACK
6
CONTINUOUS
10
72.0709
20
-112.085
11
72.2613
21
-111.99
0
LINE
8
BLACK
6
CONTINUOUS
10
73.7852
20
-113.799
11
73.8804
21
-113.895
0
LINE
8
BLACK
6
CONTINUOUS
10
73.8804
20
-113.895
11
73.7852
21
-113.99
0
LINE
8
BLACK
6
CONTINUOUS
10
73.7852
20
-113.99
11
73.6899
21
-113.895
0
LINE
8
BLACK
6
CONTINUOUS
10
73.6899
20
-113.895
11
73.7852
21
-113.799
0
LINE
8
BLACK
6
CONTINUOUS
10
73.7852
20
-113.799
11
73.7852
21
-113.99
0
LINE
8
BLACK
6
CONTINUOUS
10
75.1185
20
-111.99
11
75.309
21
-111.99
0
LINE
8
BLACK
6
CONTINUOUS
10
75.309
20
-111.99
11
75.4994
21
-112.085
0
LINE
8
BLACK
6
CONTINUOUS
10
75.4994
20
-112.085
11
75.5947
21
-112.18
0
LINE
8
BLACK
6
CONTINUOUS
10
75.5947
20
-112.18
11
75.6899
21
-112.371
0
LINE
8
BLACK
6
CONTINUOUS
10
75.6899
20
-112.371
11
75.7852
21
-112.752
0
LINE
8
BLACK
6
CONTINUOUS
10
75.7852
20
-112.752
11
75.7852
21
-113.228
0
LINE
8
BLACK
6
CONTINUOUS
10
75.7852
20
-113.228
11
75.6899
21
-113.609
0
LINE
8
BLACK
6
CONTINUOUS
10
75.6899
20
-113.609
11
75.5947
21
-113.799
0
LINE
8
BLACK
6
CONTINUOUS
10
75.5947
20
-113.799
11
75.4994
21
-113.895
0
LINE
8
BLACK
6
CONTINUOUS
10
75.4994
20
-113.895
11
75.309
21
-113.99
0
LINE
8
BLACK
6
CONTINUOUS
10
75.309
20
-113.99
11
75.1185
21
-113.99
0
LINE
8
BLACK
6
CONTINUOUS
10
75.1185
20
-113.99
11
74.928
21
-113.895
0
LINE
8
BLACK
6
CONTINUOUS
10
74.928
20
-113.895
11
74.8328
21
-113.799
0
LINE
8
BLACK
6
CONTINUOUS
10
74.8328
20
-113.799
11
74.7375
21
-113.609
0
LINE
8
BLACK
6
CONTINUOUS
10
74.7375
20
-113.609
11
74.6423
21
-113.228
0
LINE
8
BLACK
6
CONTINUOUS
10
74.6423
20
-113.228
11
74.6423
21
-112.752
0
LINE
8
BLACK
6
CONTINUOUS
10
74.6423
20
-112.752
11
74.7375
21
-112.371
0
LINE
8
BLACK
6
CONTINUOUS
10
74.7375
20
-112.371
11
74.8328
21
-112.18
0
LINE
8
BLACK
6
CONTINUOUS
10
74.8328
20
-112.18
11
74.928
21
-112.085
0
LINE
8
BLACK
6
CONTINUOUS
10
74.928
20
-112.085
11
75.1185
21
-111.99
0
LINE
8
BLACK
6
CONTINUOUS
10
77.6899
20
-113.99
11
76.5471
21
-113.99
0
LINE
8
BLACK
6
CONTINUOUS
10
77.1185
20
-113.99
11
77.1185
21
-111.99
0
LINE
8
BLACK
6
CONTINUOUS
10
77.1185
20
-111.99
11
76.928
21
-112.276
0
LINE
8
BLACK
6
CONTINUOUS
10
76.928
20
-112.276
11
76.7375
21
-112.466
0
LINE
8
BLACK
6
CONTINUOUS
10
76.7375
20
-112.466
11
76.5471
21
-112.561
0
LINE
8
BLACK
6
CONTINUOUS
10
78.6423
20
-113.99
11
79.0232
21
-113.99
0
LINE
8
BLACK
6
CONTINUOUS
10
79.0232
20
-113.99
11
79.2137
21
-113.895
0
LINE
8
BLACK
6
CONTINUOUS
10
79.2137
20
-113.895
11
79.309
21
-113.799
0
LINE
8
BLACK
6
CONTINUOUS
10
79.309
20
-113.799
11
79.4994
21
-113.514
0
LINE
8
BLACK
6
CONTINUOUS
10
79.4994
20
-113.514
11
79.5947
21
-113.133
0
LINE
8
BLACK
6
CONTINUOUS
10
79.5947
20
-113.133
11
79.5947
21
-112.371
0
LINE
8
BLACK
6
CONTINUOUS
10
79.5947
20
-112.371
11
79.4994
21
-112.18
0
LINE
8
BLACK
6
CONTINUOUS
10
79.4994
20
-112.18
11
79.4042
21
-112.085
0
LINE
8
BLACK
6
CONTINUOUS
10
79.4042
20
-112.085
11
79.2137
21
-111.99
0
LINE
8
BLACK
6
CONTINUOUS
10
79.2137
20
-111.99
11
78.8328
21
-111.99
0
LINE
8
BLACK
6
CONTINUOUS
10
78.8328
20
-111.99
11
78.6423
21
-112.085
0
LINE
8
BLACK
6
CONTINUOUS
10
78.6423
20
-112.085
11
78.5471
21
-112.18
0
LINE
8
BLACK
6
CONTINUOUS
10
78.5471
20
-112.18
11
78.4518
21
-112.371
0
LINE
8
BLACK
6
CONTINUOUS
10
78.4518
20
-112.371
11
78.4518
21
-112.847
0
LINE
8
BLACK
6
CONTINUOUS
10
78.4518
20
-112.847
11
78.5471
21
-113.037
0
LINE
8
BLACK
6
CONTINUOUS
10
78.5471
20
-113.037
11
78.6423
21
-113.133
0
LINE
8
BLACK
6
CONTINUOUS
10
78.6423
20
-113.133
11
78.8328
21
-113.228
0
LINE
8
BLACK
6
CONTINUOUS
10
78.8328
20
-113.228
11
79.2137
21
-113.228
0
LINE
8
BLACK
6
CONTINUOUS
10
79.2137
20
-113.228
11
79.4042
21
-113.133
0
LINE
8
BLACK
6
CONTINUOUS
10
79.4042
20
-113.133
11
79.4994
21
-113.037
0
LINE
8
BLACK
6
CONTINUOUS
10
79.4994
20
-113.037
11
79.5947
21
-112.847
0
LINE
8
BLACK
6
CONTINUOUS
10
80.2613
20
-111.99
11
81.5947
21
-111.99
0
LINE
8
BLACK
6
CONTINUOUS
10
81.5947
20
-111.99
11
80.7375
21
-113.99
0
LINE
8
BLACK
6
CONTINUOUS
10
82.2613
20
-111.99
11
82.2613
21
-112.371
0
LINE
8
BLACK
6
CONTINUOUS
10
83.0232
20
-111.99
11
83.0232
21
-112.371
0
LINE
8
BLACK
6
CONTINUOUS
10
85.9756
20
-114.752
11
85.8804
21
-114.657
0
LINE
8
BLACK
6
CONTINUOUS
10
85.8804
20
-114.657
11
85.6899
21
-114.371
0
LINE
8
BLACK
6
CONTINUOUS
10
85.6899
20
-114.371
11
85.5947
21
-114.18
0
LINE
8
BLACK
6
CONTINUOUS
10
85.5947
20
-114.18
11
85.4994
21
-113.895
0
LINE
8
BLACK
6
CONTINUOUS
10
85.4994
20
-113.895
11
85.4042
21
-113.418
0
LINE
8
BLACK
6
CONTINUOUS
10
85.4042
20
-113.418
11
85.4042
21
-113.037
0
LINE
8
BLACK
6
CONTINUOUS
10
85.4042
20
-113.037
11
85.4994
21
-112.561
0
LINE
8
BLACK
6
CONTINUOUS
10
85.4994
20
-112.561
11
85.5947
21
-112.276
0
LINE
8
BLACK
6
CONTINUOUS
10
85.5947
20
-112.276
11
85.6899
21
-112.085
0
LINE
8
BLACK
6
CONTINUOUS
10
85.6899
20
-112.085
11
85.8804
21
-111.799
0
LINE
8
BLACK
6
CONTINUOUS
10
85.8804
20
-111.799
11
85.9756
21
-111.704
0
LINE
8
BLACK
6
CONTINUOUS
10
87.5947
20
-111.99
11
87.2137
21
-111.99
0
LINE
8
BLACK
6
CONTINUOUS
10
87.2137
20
-111.99
11
87.0232
21
-112.085
0
LINE
8
BLACK
6
CONTINUOUS
10
87.0232
20
-112.085
11
86.928
21
-112.18
0
LINE
8
BLACK
6
CONTINUOUS
10
86.928
20
-112.18
11
86.7375
21
-112.466
0
LINE
8
BLACK
6
CONTINUOUS
10
86.7375
20
-112.466
11
86.6423
21
-112.847
0
LINE
8
BLACK
6
CONTINUOUS
10
86.6423
20
-112.847
11
86.6423
21
-113.609
0
LINE
8
BLACK
6
CONTINUOUS
10
86.6423
20
-113.609
11
86.7375
21
-113.799
0
LINE
8
BLACK
6
CONTINUOUS
10
86.7375
20
-113.799
11
86.8328
21
-113.895
0
LINE
8
BLACK
6
CONTINUOUS
10
86.8328
20
-113.895
11
87.0232
21
-113.99
0
LINE
8
BLACK
6
CONTINUOUS
10
87.0232
20
-113.99
11
87.4042
21
-113.99
0
LINE
8
BLACK
6
CONTINUOUS
10
87.4042
20
-113.99
11
87.5947
21
-113.895
0
LINE
8
BLACK
6
CONTINUOUS
10
87.5947
20
-113.895
11
87.6899
21
-113.799
0
LINE
8
BLACK
6
CONTINUOUS
10
87.6899
20
-113.799
11
87.7852
21
-113.609
0
LINE
8
BLACK
6
CONTINUOUS
10
87.7852
20
-113.609
11
87.7852
21
-113.133
0
LINE
8
BLACK
6
CONTINUOUS
10
87.7852
20
-113.133
11
87.6899
21
-112.942
0
LINE
8
BLACK
6
CONTINUOUS
10
87.6899
20
-112.942
11
87.5947
21
-112.847
0
LINE
8
BLACK
6
CONTINUOUS
10
87.5947
20
-112.847
11
87.4042
21
-112.752
0
LINE
8
BLACK
6
CONTINUOUS
10
87.4042
20
-112.752
11
87.0232
21
-112.752
0
LINE
8
BLACK
6
CONTINUOUS
10
87.0232
20
-112.752
11
86.8328
21
-112.847
0
LINE
8
BLACK
6
CONTINUOUS
10
86.8328
20
-112.847
11
86.7375
21
-112.942
0
LINE
8
BLACK
6
CONTINUOUS
10
86.7375
20
-112.942
11
86.6423
21
-113.133
0
LINE
8
BLACK
6
CONTINUOUS
10
89.4994
20
-112.657
11
89.4994
21
-113.99
0
LINE
8
BLACK
6
CONTINUOUS
10
89.0232
20
-111.895
11
88.5471
21
-113.323
0
LINE
8
BLACK
6
CONTINUOUS
10
88.5471
20
-113.323
11
89.7852
21
-113.323
0
LINE
8
BLACK
6
CONTINUOUS
10
92.0709
20
-113.99
11
92.0709
21
-111.99
0
LINE
8
BLACK
6
CONTINUOUS
10
92.928
20
-113.99
11
92.928
21
-112.942
0
LINE
8
BLACK
6
CONTINUOUS
10
92.928
20
-112.942
11
92.8328
21
-112.752
0
LINE
8
BLACK
6
CONTINUOUS
10
92.8328
20
-112.752
11
92.6423
21
-112.657
0
LINE
8
BLACK
6
CONTINUOUS
10
92.6423
20
-112.657
11
92.3566
21
-112.657
0
LINE
8
BLACK
6
CONTINUOUS
10
92.3566
20
-112.657
11
92.1661
21
-112.752
0
LINE
8
BLACK
6
CONTINUOUS
10
92.1661
20
-112.752
11
92.0709
21
-112.847
0
LINE
8
BLACK
6
CONTINUOUS
10
94.1661
20
-113.99
11
93.9756
21
-113.895
0
LINE
8
BLACK
6
CONTINUOUS
10
93.9756
20
-113.895
11
93.8804
21
-113.799
0
LINE
8
BLACK
6
CONTINUOUS
10
93.8804
20
-113.799
11
93.7852
21
-113.609
0
LINE
8
BLACK
6
CONTINUOUS
10
93.7852
20
-113.609
11
93.7852
21
-113.037
0
LINE
8
BLACK
6
CONTINUOUS
10
93.7852
20
-113.037
11
93.8804
21
-112.847
0
LINE
8
BLACK
6
CONTINUOUS
10
93.8804
20
-112.847
11
93.9756
21
-112.752
0
LINE
8
BLACK
6
CONTINUOUS
10
93.9756
20
-112.752
11
94.1661
21
-112.657
0
LINE
8
BLACK
6
CONTINUOUS
10
94.1661
20
-112.657
11
94.4518
21
-112.657
0
LINE
8
BLACK
6
CONTINUOUS
10
94.4518
20
-112.657
11
94.6423
21
-112.752
0
LINE
8
BLACK
6
CONTINUOUS
10
94.6423
20
-112.752
11
94.7375
21
-112.847
0
LINE
8
BLACK
6
CONTINUOUS
10
94.7375
20
-112.847
11
94.8328
21
-113.037
0
LINE
8
BLACK
6
CONTINUOUS
10
94.8328
20
-113.037
11
94.8328
21
-113.609
0
LINE
8
BLACK
6
CONTINUOUS
10
94.8328
20
-113.609
11
94.7375
21
-113.799
0
LINE
8
BLACK
6
CONTINUOUS
10
94.7375
20
-113.799
11
94.6423
21
-113.895
0
LINE
8
BLACK
6
CONTINUOUS
10
94.6423
20
-113.895
11
94.4518
21
-113.99
0
LINE
8
BLACK
6
CONTINUOUS
10
94.4518
20
-113.99
11
94.1661
21
-113.99
0
LINE
8
BLACK
6
CONTINUOUS
10
95.9756
20
-113.99
11
95.7852
21
-113.895
0
LINE
8
BLACK
6
CONTINUOUS
10
95.7852
20
-113.895
11
95.6899
21
-113.704
0
LINE
8
BLACK
6
CONTINUOUS
10
95.6899
20
-113.704
11
95.6899
21
-111.99
0
LINE
8
BLACK
6
CONTINUOUS
10
97.4994
20
-113.895
11
97.309
21
-113.99
0
LINE
8
BLACK
6
CONTINUOUS
10
97.309
20
-113.99
11
96.928
21
-113.99
0
LINE
8
BLACK
6
CONTINUOUS
10
96.928
20
-113.99
11
96.7375
21
-113.895
0
LINE
8
BLACK
6
CONTINUOUS
10
96.7375
20
-113.895
11
96.6423
21
-113.704
0
LINE
8
BLACK
6
CONTINUOUS
10
96.6423
20
-113.704
11
96.6423
21
-112.942
0
LINE
8
BLACK
6
CONTINUOUS
10
96.6423
20
-112.942
11
96.7375
21
-112.752
0
LINE
8
BLACK
6
CONTINUOUS
10
96.7375
20
-112.752
11
96.928
21
-112.657
0
LINE
8
BLACK
6
CONTINUOUS
10
96.928
20
-112.657
11
97.309
21
-112.657
0
LINE
8
BLACK
6
CONTINUOUS
10
97.309
20
-112.657
11
97.4994
21
-112.752
0
LINE
8
BLACK
6
CONTINUOUS
10
97.4994
20
-112.752
11
97.5947
21
-112.942
0
LINE
8
BLACK
6
CONTINUOUS
10
97.5947
20
-112.942
11
97.5947
21
-113.133
0
LINE
8
BLACK
6
CONTINUOUS
10
97.5947
20
-113.133
11
96.6423
21
-113.323
0
LINE
8
BLACK
6
CONTINUOUS
10
98.3566
20
-113.895
11
98.5471
21
-113.99
0
LINE
8
BLACK
6
CONTINUOUS
10
98.5471
20
-113.99
11
98.928
21
-113.99
0
LINE
8
BLACK
6
CONTINUOUS
10
98.928
20
-113.99
11
99.1185
21
-113.895
0
LINE
8
BLACK
6
CONTINUOUS
10
99.1185
20
-113.895
11
99.2137
21
-113.704
0
LINE
8
BLACK
6
CONTINUOUS
10
99.2137
20
-113.704
11
99.2137
21
-113.609
0
LINE
8
BLACK
6
CONTINUOUS
10
99.2137
20
-113.609
11
99.1185
21
-113.418
0
LINE
8
BLACK
6
CONTINUOUS
10
99.1185
20
-113.418
11
98.928
21
-113.323
0
LINE
8
BLACK
6
CONTINUOUS
10
98.928
20
-113.323
11
98.6423
21
-113.323
0
LINE
8
BLACK
6
CONTINUOUS
10
98.6423
20
-113.323
11
98.4518
21
-113.228
0
LINE
8
BLACK
6
CONTINUOUS
10
98.4518
20
-113.228
11
98.3566
21
-113.037
0
LINE
8
BLACK
6
CONTINUOUS
10
98.3566
20
-113.037
11
98.3566
21
-112.942
0
LINE
8
BLACK
6
CONTINUOUS
10
98.3566
20
-112.942
11
98.4518
21
-112.752
0
LINE
8
BLACK
6
CONTINUOUS
10
98.4518
20
-112.752
11
98.6423
21
-112.657
0
LINE
8
BLACK
6
CONTINUOUS
10
98.6423
20
-112.657
11
98.928
21
-112.657
0
LINE
8
BLACK
6
CONTINUOUS
10
98.928
20
-112.657
11
99.1185
21
-112.752
0
LINE
8
BLACK
6
CONTINUOUS
10
99.8804
20
-114.752
11
99.9756
21
-114.657
0
LINE
8
BLACK
6
CONTINUOUS
10
99.9756
20
-114.657
11
100.166
21
-114.371
0
LINE
8
BLACK
6
CONTINUOUS
10
100.166
20
-114.371
11
100.261
21
-114.18
0
LINE
8
BLACK
6
CONTINUOUS
10
100.261
20
-114.18
11
100.357
21
-113.895
0
LINE
8
BLACK
6
CONTINUOUS
10
100.357
20
-113.895
11
100.452
21
-113.418
0
LINE
8
BLACK
6
CONTINUOUS
10
100.452
20
-113.418
11
100.452
21
-113.037
0
LINE
8
BLACK
6
CONTINUOUS
10
100.452
20
-113.037
11
100.357
21
-112.561
0
LINE
8
BLACK
6
CONTINUOUS
10
100.357
20
-112.561
11
100.261
21
-112.276
0
LINE
8
BLACK
6
CONTINUOUS
10
100.261
20
-112.276
11
100.166
21
-112.085
0
LINE
8
BLACK
6
CONTINUOUS
10
100.166
20
-112.085
11
99.9756
21
-111.799
0
LINE
8
BLACK
6
CONTINUOUS
10
99.9756
20
-111.799
11
99.8804
21
-111.704
0
LINE
8
BLACK
6
CONTINUOUS
10
103.499
20
-114.752
11
103.404
21
-114.657
0
LINE
8
BLACK
6
CONTINUOUS
10
103.404
20
-114.657
11
103.214
21
-114.371
0
LINE
8
BLACK
6
CONTINUOUS
10
103.214
20
-114.371
11
103.118
21
-114.18
0
LINE
8
BLACK
6
CONTINUOUS
10
103.118
20
-114.18
11
103.023
21
-113.895
0
LINE
8
BLACK
6
CONTINUOUS
10
103.023
20
-113.895
11
102.928
21
-113.418
0
LINE
8
BLACK
6
CONTINUOUS
10
102.928
20
-113.418
11
102.928
21
-113.037
0
LINE
8
BLACK
6
CONTINUOUS
10
102.928
20
-113.037
11
103.023
21
-112.561
0
LINE
8
BLACK
6
CONTINUOUS
10
103.023
20
-112.561
11
103.118
21
-112.276
0
LINE
8
BLACK
6
CONTINUOUS
10
103.118
20
-112.276
11
103.214
21
-112.085
0
LINE
8
BLACK
6
CONTINUOUS
10
103.214
20
-112.085
11
103.404
21
-111.799
0
LINE
8
BLACK
6
CONTINUOUS
10
103.404
20
-111.799
11
103.499
21
-111.704
0
LINE
8
BLACK
6
CONTINUOUS
10
104.261
20
-112.657
11
104.261
21
-113.99
0
LINE
8
BLACK
6
CONTINUOUS
10
104.261
20
-112.847
11
104.357
21
-112.752
0
LINE
8
BLACK
6
CONTINUOUS
10
104.357
20
-112.752
11
104.547
21
-112.657
0
LINE
8
BLACK
6
CONTINUOUS
10
104.547
20
-112.657
11
104.833
21
-112.657
0
LINE
8
BLACK
6
CONTINUOUS
10
104.833
20
-112.657
11
105.023
21
-112.752
0
LINE
8
BLACK
6
CONTINUOUS
10
105.023
20
-112.752
11
105.118
21
-112.942
0
LINE
8
BLACK
6
CONTINUOUS
10
105.118
20
-112.942
11
105.118
21
-113.99
0
LINE
8
BLACK
6
CONTINUOUS
10
106.357
20
-113.99
11
106.166
21
-113.895
0
LINE
8
BLACK
6
CONTINUOUS
10
106.166
20
-113.895
11
106.071
21
-113.799
0
LINE
8
BLACK
6
CONTINUOUS
10
106.071
20
-113.799
11
105.976
21
-113.609
0
LINE
8
BLACK
6
CONTINUOUS
10
105.976
20
-113.609
11
105.976
21
-113.037
0
LINE
8
BLACK
6
CONTINUOUS
10
105.976
20
-113.037
11
106.071
21
-112.847
0
LINE
8
BLACK
6
CONTINUOUS
10
106.071
20
-112.847
11
106.166
21
-112.752
0
LINE
8
BLACK
6
CONTINUOUS
10
106.166
20
-112.752
11
106.357
21
-112.657
0
LINE
8
BLACK
6
CONTINUOUS
10
106.357
20
-112.657
11
106.642
21
-112.657
0
LINE
8
BLACK
6
CONTINUOUS
10
106.642
20
-112.657
11
106.833
21
-112.752
0
LINE
8
BLACK
6
CONTINUOUS
10
106.833
20
-112.752
11
106.928
21
-112.847
0
LINE
8
BLACK
6
CONTINUOUS
10
106.928
20
-112.847
11
107.023
21
-113.037
0
LINE
8
BLACK
6
CONTINUOUS
10
107.023
20
-113.037
11
107.023
21
-113.609
0
LINE
8
BLACK
6
CONTINUOUS
10
107.023
20
-113.609
11
106.928
21
-113.799
0
LINE
8
BLACK
6
CONTINUOUS
10
106.928
20
-113.799
11
106.833
21
-113.895
0
LINE
8
BLACK
6
CONTINUOUS
10
106.833
20
-113.895
11
106.642
21
-113.99
0
LINE
8
BLACK
6
CONTINUOUS
10
106.642
20
-113.99
11
106.357
21
-113.99
0
LINE
8
BLACK
6
CONTINUOUS
10
107.595
20
-112.657
11
108.357
21
-112.657
0
LINE
8
BLACK
6
CONTINUOUS
10
107.88
20
-111.99
11
107.88
21
-113.704
0
LINE
8
BLACK
6
CONTINUOUS
10
107.88
20
-113.704
11
107.976
21
-113.895
0
LINE
8
BLACK
6
CONTINUOUS
10
107.976
20
-113.895
11
108.166
21
-113.99
0
LINE
8
BLACK
6
CONTINUOUS
10
108.166
20
-113.99
11
108.357
21
-113.99
0
LINE
8
BLACK
6
CONTINUOUS
10
110.547
20
-112.657
11
110.547
21
-114.657
0
LINE
8
BLACK
6
CONTINUOUS
10
110.547
20
-112.752
11
110.738
21
-112.657
0
LINE
8
BLACK
6
CONTINUOUS
10
110.738
20
-112.657
11
111.118
21
-112.657
0
LINE
8
BLACK
6
CONTINUOUS
10
111.118
20
-112.657
11
111.309
21
-112.752
0
LINE
8
BLACK
6
CONTINUOUS
10
111.309
20
-112.752
11
111.404
21
-112.847
0
LINE
8
BLACK
6
CONTINUOUS
10
111.404
20
-112.847
11
111.499
21
-113.037
0
LINE
8
BLACK
6
CONTINUOUS
10
111.499
20
-113.037
11
111.499
21
-113.609
0
LINE
8
BLACK
6
CONTINUOUS
10
111.499
20
-113.609
11
111.404
21
-113.799
0
LINE
8
BLACK
6
CONTINUOUS
10
111.404
20
-113.799
11
111.309
21
-113.895
0
LINE
8
BLACK
6
CONTINUOUS
10
111.309
20
-113.895
11
111.118
21
-113.99
0
LINE
8
BLACK
6
CONTINUOUS
10
111.118
20
-113.99
11
110.738
21
-113.99
0
LINE
8
BLACK
6
CONTINUOUS
10
110.738
20
-113.99
11
110.547
21
-113.895
0
LINE
8
BLACK
6
CONTINUOUS
10
112.642
20
-113.99
11
112.452
21
-113.895
0
LINE
8
BLACK
6
CONTINUOUS
10
112.452
20
-113.895
11
112.357
21
-113.704
0
LINE
8
BLACK
6
CONTINUOUS
10
112.357
20
-113.704
11
112.357
21
-111.99
0
LINE
8
BLACK
6
CONTINUOUS
10
114.261
20
-113.99
11
114.261
21
-112.942
0
LINE
8
BLACK
6
CONTINUOUS
10
114.261
20
-112.942
11
114.166
21
-112.752
0
LINE
8
BLACK
6
CONTINUOUS
10
114.166
20
-112.752
11
113.976
21
-112.657
0
LINE
8
BLACK
6
CONTINUOUS
10
113.976
20
-112.657
11
113.595
21
-112.657
0
LINE
8
BLACK
6
CONTINUOUS
10
113.595
20
-112.657
11
113.404
21
-112.752
0
LINE
8
BLACK
6
CONTINUOUS
10
114.261
20
-113.895
11
114.071
21
-113.99
0
LINE
8
BLACK
6
CONTINUOUS
10
114.071
20
-113.99
11
113.595
21
-113.99
0
LINE
8
BLACK
6
CONTINUOUS
10
113.595
20
-113.99
11
113.404
21
-113.895
0
LINE
8
BLACK
6
CONTINUOUS
10
113.404
20
-113.895
11
113.309
21
-113.704
0
LINE
8
BLACK
6
CONTINUOUS
10
113.309
20
-113.704
11
113.309
21
-113.514
0
LINE
8
BLACK
6
CONTINUOUS
10
113.309
20
-113.514
11
113.404
21
-113.323
0
LINE
8
BLACK
6
CONTINUOUS
10
113.404
20
-113.323
11
113.595
21
-113.228
0
LINE
8
BLACK
6
CONTINUOUS
10
113.595
20
-113.228
11
114.071
21
-113.228
0
LINE
8
BLACK
6
CONTINUOUS
10
114.071
20
-113.228
11
114.261
21
-113.133
0
LINE
8
BLACK
6
CONTINUOUS
10
114.928
20
-112.657
11
115.69
21
-112.657
0
LINE
8
BLACK
6
CONTINUOUS
10
115.214
20
-111.99
11
115.214
21
-113.704
0
LINE
8
BLACK
6
CONTINUOUS
10
115.214
20
-113.704
11
115.309
21
-113.895
0
LINE
8
BLACK
6
CONTINUOUS
10
115.309
20
-113.895
11
115.499
21
-113.99
0
LINE
8
BLACK
6
CONTINUOUS
10
115.499
20
-113.99
11
115.69
21
-113.99
0
LINE
8
BLACK
6
CONTINUOUS
10
117.118
20
-113.895
11
116.928
21
-113.99
0
LINE
8
BLACK
6
CONTINUOUS
10
116.928
20
-113.99
11
116.547
21
-113.99
0
LINE
8
BLACK
6
CONTINUOUS
10
116.547
20
-113.99
11
116.357
21
-113.895
0
LINE
8
BLACK
6
CONTINUOUS
10
116.357
20
-113.895
11
116.261
21
-113.704
0
LINE
8
BLACK
6
CONTINUOUS
10
116.261
20
-113.704
11
116.261
21
-112.942
0
LINE
8
BLACK
6
CONTINUOUS
10
116.261
20
-112.942
11
116.357
21
-112.752
0
LINE
8
BLACK
6
CONTINUOUS
10
116.357
20
-112.752
11
116.547
21
-112.657
0
LINE
8
BLACK
6
CONTINUOUS
10
116.547
20
-112.657
11
116.928
21
-112.657
0
LINE
8
BLACK
6
CONTINUOUS
10
116.928
20
-112.657
11
117.118
21
-112.752
0
LINE
8
BLACK
6
CONTINUOUS
10
117.118
20
-112.752
11
117.214
21
-112.942
0
LINE
8
BLACK
6
CONTINUOUS
10
117.214
20
-112.942
11
117.214
21
-113.133
0
LINE
8
BLACK
6
CONTINUOUS
10
117.214
20
-113.133
11
116.261
21
-113.323
0
LINE
8
BLACK
6
CONTINUOUS
10
118.928
20
-113.99
11
118.928
21
-111.99
0
LINE
8
BLACK
6
CONTINUOUS
10
118.928
20
-113.895
11
118.738
21
-113.99
0
LINE
8
BLACK
6
CONTINUOUS
10
118.738
20
-113.99
11
118.357
21
-113.99
0
LINE
8
BLACK
6
CONTINUOUS
10
118.357
20
-113.99
11
118.166
21
-113.895
0
LINE
8
BLACK
6
CONTINUOUS
10
118.166
20
-113.895
11
118.071
21
-113.799
0
LINE
8
BLACK
6
CONTINUOUS
10
118.071
20
-113.799
11
117.976
21
-113.609
0
LINE
8
BLACK
6
CONTINUOUS
10
117.976
20
-113.609
11
117.976
21
-113.037
0
LINE
8
BLACK
6
CONTINUOUS
10
117.976
20
-113.037
11
118.071
21
-112.847
0
LINE
8
BLACK
6
CONTINUOUS
10
118.071
20
-112.847
11
118.166
21
-112.752
0
LINE
8
BLACK
6
CONTINUOUS
10
118.166
20
-112.752
11
118.357
21
-112.657
0
LINE
8
BLACK
6
CONTINUOUS
10
118.357
20
-112.657
11
118.738
21
-112.657
0
LINE
8
BLACK
6
CONTINUOUS
10
118.738
20
-112.657
11
118.928
21
-112.752
0
LINE
8
BLACK
6
CONTINUOUS
10
119.69
20
-114.752
11
119.785
21
-114.657
0
LINE
8
BLACK
6
CONTINUOUS
10
119.785
20
-114.657
11
119.976
21
-114.371
0
LINE
8
BLACK
6
CONTINUOUS
10
119.976
20
-114.371
11
120.071
21
-114.18
0
LINE
8
BLACK
6
CONTINUOUS
10
120.071
20
-114.18
11
120.166
21
-113.895
0
LINE
8
BLACK
6
CONTINUOUS
10
120.166
20
-113.895
11
120.261
21
-113.418
0
LINE
8
BLACK
6
CONTINUOUS
10
120.261
20
-113.418
11
120.261
21
-113.037
0
LINE
8
BLACK
6
CONTINUOUS
10
120.261
20
-113.037
11
120.166
21
-112.561
0
LINE
8
BLACK
6
CONTINUOUS
10
120.166
20
-112.561
11
120.071
21
-112.276
0
LINE
8
BLACK
6
CONTINUOUS
10
120.071
20
-112.276
11
119.976
21
-112.085
0
LINE
8
BLACK
6
CONTINUOUS
10
119.976
20
-112.085
11
119.785
21
-111.799
0
LINE
8
BLACK
6
CONTINUOUS
10
119.785
20
-111.799
11
119.69
21
-111.704
  0
ENDSEC
  0
EOF
