M48
; DRILL file {KiCad 7.0.7} date 2023 October 25, Wednesday 15:55:30
; FORMAT={-:-/ absolute / metric / decimal}
; #@! TF.CreationDate,2023-10-25T15:55:30-07:00
; #@! TF.GenerationSoftware,Kicad,Pcbnew,7.0.7
; #@! TF.FileFunction,Plated,1,2,PTH
FMAT,2
METRIC
; #@! TA.AperFunction,Plated,PTH,ViaDrill
T1C0.400
; #@! TA.AperFunction,Plated,PTH,ComponentDrill
T2C1.000
; #@! TA.AperFunction,Plated,PTH,ComponentDrill
T3C3.200
%
G90
G05
T1
X58.85Y-92.75
X62.3Y-95.8
X67.3Y-88.8
X82.0Y-89.25
X83.65Y-91.9
X87.25Y-59.45
X87.25Y-61.95
X89.5Y-91.9
T2
X61.675Y-102.1
X61.9Y-65.45
X61.9Y-71.95
X63.3Y-65.45
X63.3Y-71.95
X64.215Y-102.1
X66.755Y-102.1
X69.295Y-102.1
X69.5Y-57.8
X69.5Y-59.2
X69.55Y-78.2
X69.55Y-79.6
X71.835Y-102.1
X74.375Y-102.1
X76.0Y-57.8
X76.0Y-59.2
X76.05Y-78.2
X76.05Y-79.6
X76.915Y-102.1
X79.455Y-102.1
X81.995Y-102.1
X82.25Y-71.95
X82.3Y-65.45
X83.65Y-71.95
X83.7Y-65.45
X84.535Y-102.1
T3
X54.8Y-50.8
X54.8Y-102.1
X90.8Y-50.8
X90.8Y-102.1
T0
M30
