%TF.GenerationSoftware,KiCad,Pcbnew,7.0.7*%
%TF.CreationDate,2023-10-25T15:55:26-07:00*%
%TF.ProjectId,sfh2430_breakout,73666832-3433-4305-9f62-7265616b6f75,rev?*%
%TF.SameCoordinates,Original*%
%TF.FileFunction,Profile,NP*%
%FSLAX46Y46*%
G04 Gerber Fmt 4.6, Leading zero omitted, Abs format (unit mm)*
G04 Created by KiCad (PCBNEW 7.0.7) date 2023-10-25 15:55:26*
%MOMM*%
%LPD*%
G01*
G04 APERTURE LIST*
%TA.AperFunction,Profile*%
%ADD10C,0.100000*%
%TD*%
%TA.AperFunction,Profile*%
%ADD11C,0.150000*%
%TD*%
G04 APERTURE END LIST*
D10*
X83700000Y-66250000D02*
G75*
G03*
X85800000Y-66250000I1050000J0D01*
G01*
D11*
X53300000Y-46300000D02*
X92278680Y-46300000D01*
D10*
X77100000Y-57800000D02*
X75300000Y-57800000D01*
D11*
X50300000Y-103600000D02*
G75*
G03*
X53300000Y-106600000I3000000J0D01*
G01*
X95278680Y-49300000D02*
X95278680Y-103600000D01*
D10*
X61900000Y-71150000D02*
X61900000Y-73000000D01*
X61900000Y-71150000D02*
G75*
G03*
X59800000Y-71150000I-1050000J0D01*
G01*
X75250000Y-81700000D02*
X82707968Y-81707968D01*
X68500048Y-62991852D02*
G75*
G03*
X70350000Y-64841852I1849952J-48D01*
G01*
X67091852Y-64400000D02*
X61900000Y-64400000D01*
X70342893Y-72558093D02*
G75*
G03*
X68492893Y-74408148I7J-1850007D01*
G01*
X75250000Y-79600000D02*
G75*
G03*
X75250000Y-81700000I0J-1050000D01*
G01*
X62892031Y-55692031D02*
X70350000Y-55700000D01*
X78500000Y-73000000D02*
X83700000Y-73000000D01*
X77099952Y-74408148D02*
G75*
G03*
X75250000Y-72558148I-1849952J48D01*
G01*
X68500000Y-62991852D02*
X68500000Y-57800000D01*
X75300000Y-55700000D02*
G75*
G03*
X75300000Y-57800000I0J-1050000D01*
G01*
X77100000Y-74408148D02*
X77100000Y-79600000D01*
X76658187Y-71150002D02*
G75*
G03*
X75250262Y-72551049I-1457887J57102D01*
G01*
X68492893Y-74408148D02*
X68500000Y-79600000D01*
X59792031Y-78586953D02*
X59800000Y-71150000D01*
D11*
X95278700Y-49300000D02*
G75*
G03*
X92278680Y-46300000I-3000000J0D01*
G01*
X92278680Y-106599980D02*
G75*
G03*
X95278680Y-103600000I20J2999980D01*
G01*
D10*
X75250000Y-79600000D02*
X77100000Y-79600000D01*
X77107107Y-62991852D02*
X77100000Y-57800000D01*
X70350000Y-57800000D02*
G75*
G03*
X70350000Y-55700000I0J1050000D01*
G01*
X85800000Y-71200000D02*
G75*
G03*
X83700000Y-71200000I-1050000J0D01*
G01*
X62892031Y-81696015D02*
X70300000Y-81700000D01*
D11*
X50300000Y-49300000D02*
X50300000Y-103600000D01*
D10*
X61900000Y-64400000D02*
X61900000Y-66200000D01*
X82707968Y-81707968D02*
G75*
G03*
X85807968Y-78607968I32J3099968D01*
G01*
D11*
X59791985Y-78596015D02*
G75*
G03*
X62892031Y-81696015I3100015J15D01*
G01*
D10*
X78508157Y-64399657D02*
G75*
G03*
X76658157Y-66249738I43J-1850043D01*
G01*
X85800000Y-66250000D02*
X85807949Y-58800000D01*
X83700000Y-66250000D02*
X83700000Y-64400000D01*
X70300000Y-81700000D02*
G75*
G03*
X70300000Y-79600000I0J1050000D01*
G01*
X70342903Y-72557886D02*
G75*
G03*
X68941853Y-71150000I57097J1457886D01*
G01*
X75300000Y-55700000D02*
X82707949Y-55700000D01*
X68500000Y-79600000D02*
X70300000Y-79600000D01*
X78508157Y-64399738D02*
X83700000Y-64400000D01*
X68942114Y-66242902D02*
G75*
G03*
X70350000Y-64841853I1457886J-57098D01*
G01*
X62892031Y-55692031D02*
G75*
G03*
X59792031Y-58792031I-1J-3099999D01*
G01*
X67091852Y-73000000D02*
X61900000Y-73000000D01*
X68941900Y-66250000D02*
G75*
G03*
X67091852Y-64400000I-1850000J0D01*
G01*
X75257107Y-64841907D02*
G75*
G03*
X77107107Y-62991852I-7J1850007D01*
G01*
X70350000Y-57800000D02*
X68500000Y-57800000D01*
X76658100Y-71150000D02*
G75*
G03*
X78508148Y-73000000I1850000J0D01*
G01*
X67091852Y-72999952D02*
G75*
G03*
X68941852Y-71150000I48J1849952D01*
G01*
X75257109Y-64841806D02*
G75*
G03*
X76658156Y-66249738I-57109J-1457894D01*
G01*
X85807968Y-78607968D02*
X85800000Y-71200000D01*
X85807900Y-58800000D02*
G75*
G03*
X82707949Y-55700000I-3099900J100D01*
G01*
X59800000Y-66200000D02*
X59792031Y-58792031D01*
D11*
X92278680Y-106600000D02*
X53300000Y-106600000D01*
X53300000Y-46300000D02*
G75*
G03*
X50300000Y-49300000I0J-3000000D01*
G01*
D10*
X83700000Y-73000000D02*
X83700000Y-71200000D01*
X59800000Y-66200000D02*
G75*
G03*
X61900000Y-66200000I1050000J0D01*
G01*
M02*
