M48
; DRILL file {KiCad 7.0.7} date 2023 October 25, Wednesday 15:55:30
; FORMAT={-:-/ absolute / metric / decimal}
; #@! TF.CreationDate,2023-10-25T15:55:30-07:00
; #@! TF.GenerationSoftware,Kicad,Pcbnew,7.0.7
; #@! TF.FileFunction,NonPlated,1,2,NPTH
FMAT,2
METRIC
; #@! TA.AperFunction,NonPlated,NPTH,ComponentDrill
T1C0.500
%
G90
G05
T1
X59.8Y-67.1
X59.8Y-67.9
X59.8Y-68.7
X59.8Y-69.5
X59.8Y-70.3
X61.9Y-67.1
X61.9Y-67.9
X61.9Y-68.7
X61.9Y-69.5
X61.9Y-70.3
X68.8Y-67.4
X68.8Y-68.2
X68.8Y-69.0
X68.8Y-69.8
X70.9Y-68.2
X70.9Y-69.0
X71.2Y-55.7
X71.2Y-57.8
X71.2Y-79.6
X71.2Y-81.7
X71.6Y-72.7
X71.65Y-64.65
X72.0Y-55.7
X72.0Y-57.8
X72.0Y-79.6
X72.0Y-81.7
X72.4Y-70.6
X72.4Y-72.7
X72.45Y-64.65
X72.45Y-66.75
X72.8Y-55.7
X72.8Y-57.8
X72.8Y-79.6
X72.8Y-81.7
X73.2Y-70.6
X73.2Y-72.7
X73.25Y-64.65
X73.25Y-66.75
X73.6Y-55.7
X73.6Y-57.8
X73.6Y-79.6
X73.6Y-81.7
X74.0Y-72.7
X74.05Y-64.65
X74.4Y-55.7
X74.4Y-57.8
X74.4Y-79.6
X74.4Y-81.7
X74.7Y-68.25
X74.7Y-69.05
X76.8Y-67.45
X76.8Y-68.25
X76.8Y-69.05
X76.8Y-69.85
X83.7Y-67.1
X83.7Y-67.9
X83.7Y-68.7
X83.7Y-69.5
X83.7Y-70.3
X85.8Y-67.1
X85.8Y-67.9
X85.8Y-68.7
X85.8Y-69.5
X85.8Y-70.3
T0
M30
