%TF.GenerationSoftware,KiCad,Pcbnew,7.0.7*%
%TF.CreationDate,2023-10-25T15:55:26-07:00*%
%TF.ProjectId,sfh2430_breakout,73666832-3433-4305-9f62-7265616b6f75,rev?*%
%TF.SameCoordinates,Original*%
%TF.FileFunction,Paste,Top*%
%TF.FilePolarity,Positive*%
%FSLAX46Y46*%
G04 Gerber Fmt 4.6, Leading zero omitted, Abs format (unit mm)*
G04 Created by KiCad (PCBNEW 7.0.7) date 2023-10-25 15:55:26*
%MOMM*%
%LPD*%
G01*
G04 APERTURE LIST*
G04 Aperture macros list*
%AMRoundRect*
0 Rectangle with rounded corners*
0 $1 Rounding radius*
0 $2 $3 $4 $5 $6 $7 $8 $9 X,Y pos of 4 corners*
0 Add a 4 corners polygon primitive as box body*
4,1,4,$2,$3,$4,$5,$6,$7,$8,$9,$2,$3,0*
0 Add four circle primitives for the rounded corners*
1,1,$1+$1,$2,$3*
1,1,$1+$1,$4,$5*
1,1,$1+$1,$6,$7*
1,1,$1+$1,$8,$9*
0 Add four rect primitives between the rounded corners*
20,1,$1+$1,$2,$3,$4,$5,0*
20,1,$1+$1,$4,$5,$6,$7,0*
20,1,$1+$1,$6,$7,$8,$9,0*
20,1,$1+$1,$8,$9,$2,$3,0*%
G04 Aperture macros list end*
%ADD10RoundRect,0.225000X0.250000X-0.225000X0.250000X0.225000X-0.250000X0.225000X-0.250000X-0.225000X0*%
%ADD11RoundRect,0.200000X0.275000X-0.200000X0.275000X0.200000X-0.275000X0.200000X-0.275000X-0.200000X0*%
%ADD12RoundRect,0.375000X0.375000X0.375000X-0.375000X0.375000X-0.375000X-0.375000X0.375000X-0.375000X0*%
%ADD13RoundRect,0.375000X0.375000X0.387000X-0.375000X0.387000X-0.375000X-0.387000X0.375000X-0.387000X0*%
%ADD14RoundRect,0.375000X-0.375000X0.375000X-0.375000X-0.375000X0.375000X-0.375000X0.375000X0.375000X0*%
%ADD15RoundRect,0.375000X-0.387000X0.375000X-0.387000X-0.375000X0.387000X-0.375000X0.387000X0.375000X0*%
%ADD16RoundRect,0.225000X-0.250000X0.225000X-0.250000X-0.225000X0.250000X-0.225000X0.250000X0.225000X0*%
%ADD17RoundRect,0.200000X-0.275000X0.200000X-0.275000X-0.200000X0.275000X-0.200000X0.275000X0.200000X0*%
%ADD18RoundRect,0.375000X-0.375000X-0.375000X0.375000X-0.375000X0.375000X0.375000X-0.375000X0.375000X0*%
%ADD19RoundRect,0.375000X-0.375000X-0.387000X0.375000X-0.387000X0.375000X0.387000X-0.375000X0.387000X0*%
%ADD20RoundRect,0.162500X0.787500X-0.487500X0.787500X0.487500X-0.787500X0.487500X-0.787500X-0.487500X0*%
%ADD21RoundRect,0.137500X0.412500X-0.512500X0.412500X0.512500X-0.412500X0.512500X-0.412500X-0.512500X0*%
%ADD22RoundRect,0.162500X-0.787500X0.487500X-0.787500X-0.487500X0.787500X-0.487500X0.787500X0.487500X0*%
%ADD23RoundRect,0.137500X-0.412500X0.512500X-0.412500X-0.512500X0.412500X-0.512500X0.412500X0.512500X0*%
%ADD24R,1.981200X0.533400*%
%ADD25RoundRect,0.162500X0.487500X0.787500X-0.487500X0.787500X-0.487500X-0.787500X0.487500X-0.787500X0*%
%ADD26RoundRect,0.137500X0.512500X0.412500X-0.512500X0.412500X-0.512500X-0.412500X0.512500X-0.412500X0*%
%ADD27RoundRect,0.375000X0.375000X-0.375000X0.375000X0.375000X-0.375000X0.375000X-0.375000X-0.375000X0*%
%ADD28RoundRect,0.375000X0.387000X-0.375000X0.387000X0.375000X-0.387000X0.375000X-0.387000X-0.375000X0*%
%ADD29RoundRect,0.162500X-0.487500X-0.787500X0.487500X-0.787500X0.487500X0.787500X-0.487500X0.787500X0*%
%ADD30RoundRect,0.137500X-0.512500X-0.412500X0.512500X-0.412500X0.512500X0.412500X-0.512500X0.412500X0*%
G04 APERTURE END LIST*
D10*
%TO.C,C1*%
X63700000Y-91795000D03*
X63700000Y-90245000D03*
%TD*%
D11*
%TO.C,R3*%
X78400000Y-91950000D03*
X78400000Y-90300000D03*
%TD*%
D12*
%TO.C,J3*%
X76050000Y-54700000D03*
D13*
X69550000Y-54700000D03*
%TD*%
D10*
%TO.C,C2*%
X65500000Y-91800000D03*
X65500000Y-90250000D03*
%TD*%
D14*
%TO.C,J2*%
X58800000Y-65450000D03*
D15*
X58800000Y-71950000D03*
%TD*%
D16*
%TO.C,C7*%
X82000000Y-95850000D03*
X82000000Y-97400000D03*
%TD*%
%TO.C,C4*%
X65500000Y-95800000D03*
X65500000Y-97350000D03*
%TD*%
D17*
%TO.C,R2*%
X67300000Y-95770000D03*
X67300000Y-97420000D03*
%TD*%
D18*
%TO.C,J1*%
X69550000Y-82700000D03*
D19*
X76050000Y-82700000D03*
%TD*%
D20*
%TO.C,D4*%
X79850000Y-65650000D03*
D21*
X79850000Y-71750000D03*
%TD*%
D11*
%TO.C,R1*%
X67300000Y-91850000D03*
X67300000Y-90200000D03*
%TD*%
D22*
%TO.C,D2*%
X65750000Y-71750000D03*
D23*
X65750000Y-65650000D03*
%TD*%
D24*
%TO.C,U1*%
X70372400Y-90010000D03*
X70372400Y-91280000D03*
X70372400Y-92550000D03*
X70372400Y-93820000D03*
X70372400Y-95090000D03*
X70372400Y-96360000D03*
X70372400Y-97630000D03*
X75300000Y-97630000D03*
X75300000Y-96360000D03*
X75300000Y-95090000D03*
X75300000Y-93820000D03*
X75300000Y-92550000D03*
X75300000Y-91280000D03*
X75300000Y-90010000D03*
%TD*%
D16*
%TO.C,C3*%
X63700000Y-95800000D03*
X63700000Y-97350000D03*
%TD*%
D17*
%TO.C,R4*%
X78400000Y-95800000D03*
X78400000Y-97450000D03*
%TD*%
D10*
%TO.C,C6*%
X80200000Y-91900000D03*
X80200000Y-90350000D03*
%TD*%
D25*
%TO.C,D3*%
X69750000Y-61650000D03*
D26*
X75850000Y-61650000D03*
%TD*%
D16*
%TO.C,C8*%
X80200000Y-95850000D03*
X80200000Y-97400000D03*
%TD*%
D27*
%TO.C,J4*%
X86800000Y-71950000D03*
D28*
X86800000Y-65450000D03*
%TD*%
D29*
%TO.C,D1*%
X75850000Y-75650000D03*
D30*
X69750000Y-75650000D03*
%TD*%
D10*
%TO.C,C5*%
X82000000Y-91900000D03*
X82000000Y-90350000D03*
%TD*%
M02*
