  0
SECTION
  2
HEADER
  9
$ANGBASE
  50
0.0
  9
$ANGDIR
  70
1
  9
$MEASUREMENT
  70
1
  0
ENDSEC
  0
SECTION
  2
TABLES
  0
TABLE
  2
LTYPE
  70
4
  0
LTYPE
  5
40F
  2
CONTINUOUS
  70
0
  3
Solid line
  72
65
  73
0
  40
0.0
  0
LTYPE
  5
410
  2
DASHDOT
 70
0
  3
Dash Dot ____ _ ____ _
 72
65
 73
4
 40
2.0
 49
1.25
 49
-0.25
 49
0.25
 49
-0.25
  0
LTYPE
  5
411
  2
DASHED
 70
0
  3
Dashed __ __ __ __ __
 72
65
 73
2
 40
0.75
 49
0.5
 49
-0.25
  0
LTYPE
  5
43B
  2
DOTTED
 70
0
  3
Dotted .  .  .  .
 72
65
 73
2
 40
0.2
 49
0.0
 49
-0.2
  0
ENDTAB
  0
TABLE
  2
STYLE
  70
4
  0
STYLE
  2
KICAD
  70
0
  40
0
  41
1
  42
1
  50
0
  71
0
  3
isocp.shx
  0
STYLE
  2
KICADB
  70
0
  40
0
  41
1
  42
1
  50
0
  71
0
  3
isocp.shx
  0
STYLE
  2
KICADI
  70
0
  40
0
  41
1
  42
1
  50
15
  71
0
  3
isocp.shx
  0
STYLE
  2
KICADBI
  70
0
  40
0
  41
1
  42
1
  50
15
  71
0
  3
isocp.shx
  0
ENDTAB
  0
TABLE
  2
LAYER
  70
1
  0
LAYER
  2
BLACK
  70
0
  62
7
  6
CONTINUOUS
  0
ENDTAB
  0
ENDSEC
  0
SECTION
  2
ENTITIES
0
ARC
8
BLACK
10
84.75
20
-66.25
40
1.05
50
-180
51
-0
0
LINE
8
BLACK
6
CONTINUOUS
10
53.3
20
-46.3
11
92.2787
21
-46.3
0
LINE
8
BLACK
6
CONTINUOUS
10
77.1
20
-57.8
11
75.3
21
-57.8
0
ARC
8
BLACK
10
53.3
20
-103.6
40
3
50
-180
51
-90
0
LINE
8
BLACK
6
CONTINUOUS
10
95.2787
20
-49.3
11
95.2787
21
-103.6
0
LINE
8
BLACK
6
CONTINUOUS
10
61.9
20
-71.15
11
61.9
21
-73
0
ARC
8
BLACK
10
60.85
20
-71.15
40
1.05
50
-0
51
180
0
LINE
8
BLACK
6
CONTINUOUS
10
75.25
20
-81.7
11
82.708
21
-81.708
0
ARC
8
BLACK
10
70.35
20
-62.9919
40
1.84995
50
-180.001
51
-90
0
LINE
8
BLACK
6
CONTINUOUS
10
67.0919
20
-64.4
11
61.9
21
-64.4
0
ARC
8
BLACK
10
70.3429
20
-74.4081
40
1.85001
50
-270
51
-179.999
0
ARC
8
BLACK
10
75.25
20
-80.65
40
1.05
50
-270
51
-90
0
LINE
8
BLACK
6
CONTINUOUS
10
62.892
20
-55.692
11
70.35
21
-55.7
0
LINE
8
BLACK
6
CONTINUOUS
10
78.5
20
-73
11
83.7
21
-73
0
ARC
8
BLACK
10
75.25
20
-74.4081
40
1.84995
50
-0.00148659
51
90
0
LINE
8
BLACK
6
CONTINUOUS
10
68.5
20
-62.9919
11
68.5
21
-57.8
0
ARC
8
BLACK
10
75.3
20
-56.75
40
1.05
50
-270
51
-90
0
LINE
8
BLACK
6
CONTINUOUS
10
77.1
20
-74.4081
11
77.1
21
-79.6
0
ARC
8
BLACK
10
75.2003
20
-71.0929
40
1.459
50
-2.24298
51
271.962
0
LINE
8
BLACK
6
CONTINUOUS
10
68.4929
20
-74.4081
11
68.5
21
-79.6
0
LINE
8
BLACK
6
CONTINUOUS
10
59.792
20
-78.587
11
59.8
21
-71.15
0
ARC
8
BLACK
10
92.2787
20
-49.3
40
3
50
-0
51
90.0004
0
ARC
8
BLACK
10
92.2787
20
-103.6
40
2.99998
50
-90.0004
51
-0
0
LINE
8
BLACK
6
CONTINUOUS
10
75.25
20
-79.6
11
77.1
21
-79.6
0
LINE
8
BLACK
6
CONTINUOUS
10
77.1071
20
-62.9919
11
77.1
21
-57.8
0
ARC
8
BLACK
10
70.35
20
-56.75
40
1.05
50
-90
51
90
0
ARC
8
BLACK
10
84.75
20
-71.2
40
1.05
50
-0
51
180
0
LINE
8
BLACK
6
CONTINUOUS
10
62.892
20
-81.696
11
70.3
21
-81.7
0
LINE
8
BLACK
6
CONTINUOUS
10
50.3
20
-49.3
11
50.3
21
-103.6
0
LINE
8
BLACK
6
CONTINUOUS
10
61.9
20
-64.4
11
61.9
21
-66.2
0
ARC
8
BLACK
10
82.708
20
-78.608
40
3.09997
50
-90.0006
51
0.000591446
0
ARC
8
BLACK
10
62.892
20
-78.596
40
3.10001
50
-180
51
-89.9994
0
ARC
8
BLACK
10
78.5082
20
-66.2497
40
1.85004
50
-269.999
51
-179.999
0
LINE
8
BLACK
6
CONTINUOUS
10
85.8
20
-66.25
11
85.8079
21
-58.8
0
LINE
8
BLACK
6
CONTINUOUS
10
83.7
20
-66.25
11
83.7
21
-64.4
0
ARC
8
BLACK
10
70.3
20
-80.65
40
1.05
50
-90
51
90
0
ARC
8
BLACK
10
70.4
20
-71.1
40
1.459
50
-92.2428
51
181.964
0
LINE
8
BLACK
6
CONTINUOUS
10
75.3
20
-55.7
11
82.7079
21
-55.7
0
LINE
8
BLACK
6
CONTINUOUS
10
68.5
20
-79.6
11
70.3
21
-79.6
0
LINE
8
BLACK
6
CONTINUOUS
10
78.5082
20
-64.3997
11
83.7
21
-64.4
0
ARC
8
BLACK
10
70.4
20
-66.3
40
1.459
50
-182.243
51
91.9639
0
ARC
8
BLACK
10
62.892
20
-58.792
40
3.1
50
-270
51
-180
0
LINE
8
BLACK
6
CONTINUOUS
10
67.0919
20
-73
11
61.9
21
-73
0
ARC
8
BLACK
10
67.0919
20
-66.25
40
1.85
50
-0
51
90.0015
0
ARC
8
BLACK
10
75.2571
20
-62.9919
40
1.85001
50
-89.9998
51
0.00148659
0
LINE
8
BLACK
6
CONTINUOUS
10
70.35
20
-57.8
11
68.5
21
-57.8
0
ARC
8
BLACK
10
78.5081
20
-71.15
40
1.85
50
-180
51
-89.9985
0
ARC
8
BLACK
10
67.0919
20
-71.15
40
1.84995
50
-90.0015
51
-0
0
ARC
8
BLACK
10
75.2
20
-66.2997
40
1.45901
50
-272.243
51
1.9624
0
LINE
8
BLACK
6
CONTINUOUS
10
85.808
20
-78.608
11
85.8
21
-71.2
0
ARC
8
BLACK
10
82.708
20
-58.7999
40
3.0999
50
-0.00184828
51
90.0009
0
LINE
8
BLACK
6
CONTINUOUS
10
59.8
20
-66.2
11
59.792
21
-58.792
0
LINE
8
BLACK
6
CONTINUOUS
10
92.2787
20
-106.6
11
53.3
21
-106.6
0
ARC
8
BLACK
10
53.3
20
-49.3
40
3
50
90
51
180
0
LINE
8
BLACK
6
CONTINUOUS
10
83.7
20
-73
11
83.7
21
-71.2
0
ARC
8
BLACK
10
60.85
20
-66.2
40
1.05
50
-180
51
-0
0
LINE
8
BLACK
6
CONTINUOUS
10
58.65
20
-92.55
11
59.05
21
-92.95
0
LINE
8
BLACK
6
CONTINUOUS
10
59.05
20
-92.55
11
58.65
21
-92.95
0
LINE
8
BLACK
6
CONTINUOUS
10
62.1
20
-95.6
11
62.5
21
-96
0
LINE
8
BLACK
6
CONTINUOUS
10
62.5
20
-95.6
11
62.1
21
-96
0
LINE
8
BLACK
6
CONTINUOUS
10
67.1
20
-88.6
11
67.5
21
-89
0
LINE
8
BLACK
6
CONTINUOUS
10
67.5
20
-88.6
11
67.1
21
-89
0
LINE
8
BLACK
6
CONTINUOUS
10
81.8
20
-89.05
11
82.2
21
-89.45
0
LINE
8
BLACK
6
CONTINUOUS
10
82.2
20
-89.05
11
81.8
21
-89.45
0
LINE
8
BLACK
6
CONTINUOUS
10
83.45
20
-91.7
11
83.85
21
-92.1
0
LINE
8
BLACK
6
CONTINUOUS
10
83.85
20
-91.7
11
83.45
21
-92.1
0
LINE
8
BLACK
6
CONTINUOUS
10
87.05
20
-59.25
11
87.45
21
-59.65
0
LINE
8
BLACK
6
CONTINUOUS
10
87.45
20
-59.25
11
87.05
21
-59.65
0
LINE
8
BLACK
6
CONTINUOUS
10
87.05
20
-61.75
11
87.45
21
-62.15
0
LINE
8
BLACK
6
CONTINUOUS
10
87.45
20
-61.75
11
87.05
21
-62.15
0
LINE
8
BLACK
6
CONTINUOUS
10
89.3
20
-91.7
11
89.7
21
-92.1
0
LINE
8
BLACK
6
CONTINUOUS
10
89.7
20
-91.7
11
89.3
21
-92.1
0
CIRCLE
8
BLACK
10
61.675
20
-102.1
40
0.5
0
CIRCLE
8
BLACK
10
61.9
20
-65.45
40
0.5
0
CIRCLE
8
BLACK
10
61.9
20
-71.95
40
0.5
0
CIRCLE
8
BLACK
10
63.3
20
-65.45
40
0.5
0
CIRCLE
8
BLACK
10
63.3
20
-71.95
40
0.5
0
CIRCLE
8
BLACK
10
64.215
20
-102.1
40
0.5
0
CIRCLE
8
BLACK
10
66.755
20
-102.1
40
0.5
0
CIRCLE
8
BLACK
10
69.295
20
-102.1
40
0.5
0
CIRCLE
8
BLACK
10
69.5
20
-57.8
40
0.5
0
CIRCLE
8
BLACK
10
69.5
20
-59.2
40
0.5
0
CIRCLE
8
BLACK
10
69.55
20
-78.2
40
0.5
0
CIRCLE
8
BLACK
10
69.55
20
-79.6
40
0.5
0
CIRCLE
8
BLACK
10
71.835
20
-102.1
40
0.5
0
CIRCLE
8
BLACK
10
74.375
20
-102.1
40
0.5
0
CIRCLE
8
BLACK
10
76
20
-57.8
40
0.5
0
CIRCLE
8
BLACK
10
76
20
-59.2
40
0.5
0
CIRCLE
8
BLACK
10
76.05
20
-78.2
40
0.5
0
CIRCLE
8
BLACK
10
76.05
20
-79.6
40
0.5
0
CIRCLE
8
BLACK
10
76.915
20
-102.1
40
0.5
0
CIRCLE
8
BLACK
10
79.455
20
-102.1
40
0.5
0
CIRCLE
8
BLACK
10
81.995
20
-102.1
40
0.5
0
CIRCLE
8
BLACK
10
82.25
20
-71.95
40
0.5
0
CIRCLE
8
BLACK
10
82.3
20
-65.45
40
0.5
0
CIRCLE
8
BLACK
10
83.65
20
-71.95
40
0.5
0
CIRCLE
8
BLACK
10
83.7
20
-65.45
40
0.5
0
CIRCLE
8
BLACK
10
84.535
20
-102.1
40
0.5
0
LINE
8
BLACK
6
CONTINUOUS
10
54.8
20
-49.2
11
54.8
21
-52.4
0
LINE
8
BLACK
6
CONTINUOUS
10
53.2
20
-50.8
11
56.4
21
-50.8
0
LINE
8
BLACK
6
CONTINUOUS
10
54.8
20
-100.5
11
54.8
21
-103.7
0
LINE
8
BLACK
6
CONTINUOUS
10
53.2
20
-102.1
11
56.4
21
-102.1
0
LINE
8
BLACK
6
CONTINUOUS
10
90.8
20
-49.2
11
90.8
21
-52.4
0
LINE
8
BLACK
6
CONTINUOUS
10
89.2
20
-50.8
11
92.4
21
-50.8
0
LINE
8
BLACK
6
CONTINUOUS
10
90.8
20
-100.5
11
90.8
21
-103.7
0
LINE
8
BLACK
6
CONTINUOUS
10
89.2
20
-102.1
11
92.4
21
-102.1
0
LINE
8
BLACK
6
CONTINUOUS
10
52.8328
20
-109.79
11
52.8328
21
-107.79
0
LINE
8
BLACK
6
CONTINUOUS
10
52.8328
20
-107.79
11
53.309
21
-107.79
0
LINE
8
BLACK
6
CONTINUOUS
10
53.309
20
-107.79
11
53.5947
21
-107.885
0
LINE
8
BLACK
6
CONTINUOUS
10
53.5947
20
-107.885
11
53.7851
21
-108.076
0
LINE
8
BLACK
6
CONTINUOUS
10
53.7851
20
-108.076
11
53.8804
21
-108.266
0
LINE
8
BLACK
6
CONTINUOUS
10
53.8804
20
-108.266
11
53.9756
21
-108.647
0
LINE
8
BLACK
6
CONTINUOUS
10
53.9756
20
-108.647
11
53.9756
21
-108.933
0
LINE
8
BLACK
6
CONTINUOUS
10
53.9756
20
-108.933
11
53.8804
21
-109.314
0
LINE
8
BLACK
6
CONTINUOUS
10
53.8804
20
-109.314
11
53.7851
21
-109.504
0
LINE
8
BLACK
6
CONTINUOUS
10
53.7851
20
-109.504
11
53.5947
21
-109.695
0
LINE
8
BLACK
6
CONTINUOUS
10
53.5947
20
-109.695
11
53.309
21
-109.79
0
LINE
8
BLACK
6
CONTINUOUS
10
53.309
20
-109.79
11
52.8328
21
-109.79
0
LINE
8
BLACK
6
CONTINUOUS
10
54.8328
20
-109.79
11
54.8328
21
-108.457
0
LINE
8
BLACK
6
CONTINUOUS
10
54.8328
20
-108.837
11
54.928
21
-108.647
0
LINE
8
BLACK
6
CONTINUOUS
10
54.928
20
-108.647
11
55.0232
21
-108.552
0
LINE
8
BLACK
6
CONTINUOUS
10
55.0232
20
-108.552
11
55.2137
21
-108.457
0
LINE
8
BLACK
6
CONTINUOUS
10
55.2137
20
-108.457
11
55.4042
21
-108.457
0
LINE
8
BLACK
6
CONTINUOUS
10
56.0709
20
-109.79
11
56.0709
21
-108.457
0
LINE
8
BLACK
6
CONTINUOUS
10
56.0709
20
-107.79
11
55.9756
21
-107.885
0
LINE
8
BLACK
6
CONTINUOUS
10
55.9756
20
-107.885
11
56.0709
21
-107.98
0
LINE
8
BLACK
6
CONTINUOUS
10
56.0709
20
-107.98
11
56.1661
21
-107.885
0
LINE
8
BLACK
6
CONTINUOUS
10
56.1661
20
-107.885
11
56.0709
21
-107.79
0
LINE
8
BLACK
6
CONTINUOUS
10
56.0709
20
-107.79
11
56.0709
21
-107.98
0
LINE
8
BLACK
6
CONTINUOUS
10
57.309
20
-109.79
11
57.1185
21
-109.695
0
LINE
8
BLACK
6
CONTINUOUS
10
57.1185
20
-109.695
11
57.0232
21
-109.504
0
LINE
8
BLACK
6
CONTINUOUS
10
57.0232
20
-109.504
11
57.0232
21
-107.79
0
LINE
8
BLACK
6
CONTINUOUS
10
58.3566
20
-109.79
11
58.1661
21
-109.695
0
LINE
8
BLACK
6
CONTINUOUS
10
58.1661
20
-109.695
11
58.0709
21
-109.504
0
LINE
8
BLACK
6
CONTINUOUS
10
58.0709
20
-109.504
11
58.0709
21
-107.79
0
LINE
8
BLACK
6
CONTINUOUS
10
60.6423
20
-109.79
11
60.6423
21
-107.79
0
LINE
8
BLACK
6
CONTINUOUS
10
60.6423
20
-107.79
11
61.309
21
-109.218
0
LINE
8
BLACK
6
CONTINUOUS
10
61.309
20
-109.218
11
61.9756
21
-107.79
0
LINE
8
BLACK
6
CONTINUOUS
10
61.9756
20
-107.79
11
61.9756
21
-109.79
0
LINE
8
BLACK
6
CONTINUOUS
10
63.7851
20
-109.79
11
63.7851
21
-108.742
0
LINE
8
BLACK
6
CONTINUOUS
10
63.7851
20
-108.742
11
63.6899
21
-108.552
0
LINE
8
BLACK
6
CONTINUOUS
10
63.6899
20
-108.552
11
63.4994
21
-108.457
0
LINE
8
BLACK
6
CONTINUOUS
10
63.4994
20
-108.457
11
63.1185
21
-108.457
0
LINE
8
BLACK
6
CONTINUOUS
10
63.1185
20
-108.457
11
62.928
21
-108.552
0
LINE
8
BLACK
6
CONTINUOUS
10
63.7851
20
-109.695
11
63.5947
21
-109.79
0
LINE
8
BLACK
6
CONTINUOUS
10
63.5947
20
-109.79
11
63.1185
21
-109.79
0
LINE
8
BLACK
6
CONTINUOUS
10
63.1185
20
-109.79
11
62.928
21
-109.695
0
LINE
8
BLACK
6
CONTINUOUS
10
62.928
20
-109.695
11
62.8328
21
-109.504
0
LINE
8
BLACK
6
CONTINUOUS
10
62.8328
20
-109.504
11
62.8328
21
-109.314
0
LINE
8
BLACK
6
CONTINUOUS
10
62.8328
20
-109.314
11
62.928
21
-109.123
0
LINE
8
BLACK
6
CONTINUOUS
10
62.928
20
-109.123
11
63.1185
21
-109.028
0
LINE
8
BLACK
6
CONTINUOUS
10
63.1185
20
-109.028
11
63.5947
21
-109.028
0
LINE
8
BLACK
6
CONTINUOUS
10
63.5947
20
-109.028
11
63.7851
21
-108.933
0
LINE
8
BLACK
6
CONTINUOUS
10
64.7375
20
-108.457
11
64.7375
21
-110.457
0
LINE
8
BLACK
6
CONTINUOUS
10
64.7375
20
-108.552
11
64.928
21
-108.457
0
LINE
8
BLACK
6
CONTINUOUS
10
64.928
20
-108.457
11
65.309
21
-108.457
0
LINE
8
BLACK
6
CONTINUOUS
10
65.309
20
-108.457
11
65.4994
21
-108.552
0
LINE
8
BLACK
6
CONTINUOUS
10
65.4994
20
-108.552
11
65.5947
21
-108.647
0
LINE
8
BLACK
6
CONTINUOUS
10
65.5947
20
-108.647
11
65.6899
21
-108.837
0
LINE
8
BLACK
6
CONTINUOUS
10
65.6899
20
-108.837
11
65.6899
21
-109.409
0
LINE
8
BLACK
6
CONTINUOUS
10
65.6899
20
-109.409
11
65.5947
21
-109.599
0
LINE
8
BLACK
6
CONTINUOUS
10
65.5947
20
-109.599
11
65.4994
21
-109.695
0
LINE
8
BLACK
6
CONTINUOUS
10
65.4994
20
-109.695
11
65.309
21
-109.79
0
LINE
8
BLACK
6
CONTINUOUS
10
65.309
20
-109.79
11
64.928
21
-109.79
0
LINE
8
BLACK
6
CONTINUOUS
10
64.928
20
-109.79
11
64.7375
21
-109.695
0
LINE
8
BLACK
6
CONTINUOUS
10
66.5471
20
-109.599
11
66.6423
21
-109.695
0
LINE
8
BLACK
6
CONTINUOUS
10
66.6423
20
-109.695
11
66.5471
21
-109.79
0
LINE
8
BLACK
6
CONTINUOUS
10
66.5471
20
-109.79
11
66.4518
21
-109.695
0
LINE
8
BLACK
6
CONTINUOUS
10
66.4518
20
-109.695
11
66.5471
21
-109.599
0
LINE
8
BLACK
6
CONTINUOUS
10
66.5471
20
-109.599
11
66.5471
21
-109.79
0
LINE
8
BLACK
6
CONTINUOUS
10
66.5471
20
-108.552
11
66.6423
21
-108.647
0
LINE
8
BLACK
6
CONTINUOUS
10
66.6423
20
-108.647
11
66.5471
21
-108.742
0
LINE
8
BLACK
6
CONTINUOUS
10
66.5471
20
-108.742
11
66.4518
21
-108.647
0
LINE
8
BLACK
6
CONTINUOUS
10
66.4518
20
-108.647
11
66.5471
21
-108.552
0
LINE
8
BLACK
6
CONTINUOUS
10
66.5471
20
-108.552
11
66.5471
21
-108.742
0
LINE
8
BLACK
6
CONTINUOUS
10
49.825
20
-112.875
11
50.225
21
-113.275
0
LINE
8
BLACK
6
CONTINUOUS
10
50.225
20
-112.875
11
49.825
21
-113.275
0
LINE
8
BLACK
6
CONTINUOUS
10
53.2137
20
-111.99
11
53.4042
21
-111.99
0
LINE
8
BLACK
6
CONTINUOUS
10
53.4042
20
-111.99
11
53.5947
21
-112.085
0
LINE
8
BLACK
6
CONTINUOUS
10
53.5947
20
-112.085
11
53.6899
21
-112.18
0
LINE
8
BLACK
6
CONTINUOUS
10
53.6899
20
-112.18
11
53.7851
21
-112.371
0
LINE
8
BLACK
6
CONTINUOUS
10
53.7851
20
-112.371
11
53.8804
21
-112.752
0
LINE
8
BLACK
6
CONTINUOUS
10
53.8804
20
-112.752
11
53.8804
21
-113.228
0
LINE
8
BLACK
6
CONTINUOUS
10
53.8804
20
-113.228
11
53.7851
21
-113.609
0
LINE
8
BLACK
6
CONTINUOUS
10
53.7851
20
-113.609
11
53.6899
21
-113.799
0
LINE
8
BLACK
6
CONTINUOUS
10
53.6899
20
-113.799
11
53.5947
21
-113.895
0
LINE
8
BLACK
6
CONTINUOUS
10
53.5947
20
-113.895
11
53.4042
21
-113.99
0
LINE
8
BLACK
6
CONTINUOUS
10
53.4042
20
-113.99
11
53.2137
21
-113.99
0
LINE
8
BLACK
6
CONTINUOUS
10
53.2137
20
-113.99
11
53.0232
21
-113.895
0
LINE
8
BLACK
6
CONTINUOUS
10
53.0232
20
-113.895
11
52.928
21
-113.799
0
LINE
8
BLACK
6
CONTINUOUS
10
52.928
20
-113.799
11
52.8328
21
-113.609
0
LINE
8
BLACK
6
CONTINUOUS
10
52.8328
20
-113.609
11
52.7375
21
-113.228
0
LINE
8
BLACK
6
CONTINUOUS
10
52.7375
20
-113.228
11
52.7375
21
-112.752
0
LINE
8
BLACK
6
CONTINUOUS
10
52.7375
20
-112.752
11
52.8328
21
-112.371
0
LINE
8
BLACK
6
CONTINUOUS
10
52.8328
20
-112.371
11
52.928
21
-112.18
0
LINE
8
BLACK
6
CONTINUOUS
10
52.928
20
-112.18
11
53.0232
21
-112.085
0
LINE
8
BLACK
6
CONTINUOUS
10
53.0232
20
-112.085
11
53.2137
21
-111.99
0
LINE
8
BLACK
6
CONTINUOUS
10
54.7375
20
-113.799
11
54.8328
21
-113.895
0
LINE
8
BLACK
6
CONTINUOUS
10
54.8328
20
-113.895
11
54.7375
21
-113.99
0
LINE
8
BLACK
6
CONTINUOUS
10
54.7375
20
-113.99
11
54.6423
21
-113.895
0
LINE
8
BLACK
6
CONTINUOUS
10
54.6423
20
-113.895
11
54.7375
21
-113.799
0
LINE
8
BLACK
6
CONTINUOUS
10
54.7375
20
-113.799
11
54.7375
21
-113.99
0
LINE
8
BLACK
6
CONTINUOUS
10
56.5471
20
-112.657
11
56.5471
21
-113.99
0
LINE
8
BLACK
6
CONTINUOUS
10
56.0709
20
-111.895
11
55.5947
21
-113.323
0
LINE
8
BLACK
6
CONTINUOUS
10
55.5947
20
-113.323
11
56.8328
21
-113.323
0
LINE
8
BLACK
6
CONTINUOUS
10
57.9756
20
-111.99
11
58.1661
21
-111.99
0
LINE
8
BLACK
6
CONTINUOUS
10
58.1661
20
-111.99
11
58.3566
21
-112.085
0
LINE
8
BLACK
6
CONTINUOUS
10
58.3566
20
-112.085
11
58.4518
21
-112.18
0
LINE
8
BLACK
6
CONTINUOUS
10
58.4518
20
-112.18
11
58.5471
21
-112.371
0
LINE
8
BLACK
6
CONTINUOUS
10
58.5471
20
-112.371
11
58.6423
21
-112.752
0
LINE
8
BLACK
6
CONTINUOUS
10
58.6423
20
-112.752
11
58.6423
21
-113.228
0
LINE
8
BLACK
6
CONTINUOUS
10
58.6423
20
-113.228
11
58.5471
21
-113.609
0
LINE
8
BLACK
6
CONTINUOUS
10
58.5471
20
-113.609
11
58.4518
21
-113.799
0
LINE
8
BLACK
6
CONTINUOUS
10
58.4518
20
-113.799
11
58.3566
21
-113.895
0
LINE
8
BLACK
6
CONTINUOUS
10
58.3566
20
-113.895
11
58.1661
21
-113.99
0
LINE
8
BLACK
6
CONTINUOUS
10
58.1661
20
-113.99
11
57.9756
21
-113.99
0
LINE
8
BLACK
6
CONTINUOUS
10
57.9756
20
-113.99
11
57.7851
21
-113.895
0
LINE
8
BLACK
6
CONTINUOUS
10
57.7851
20
-113.895
11
57.6899
21
-113.799
0
LINE
8
BLACK
6
CONTINUOUS
10
57.6899
20
-113.799
11
57.5947
21
-113.609
0
LINE
8
BLACK
6
CONTINUOUS
10
57.5947
20
-113.609
11
57.4994
21
-113.228
0
LINE
8
BLACK
6
CONTINUOUS
10
57.4994
20
-113.228
11
57.4994
21
-112.752
0
LINE
8
BLACK
6
CONTINUOUS
10
57.4994
20
-112.752
11
57.5947
21
-112.371
0
LINE
8
BLACK
6
CONTINUOUS
10
57.5947
20
-112.371
11
57.6899
21
-112.18
0
LINE
8
BLACK
6
CONTINUOUS
10
57.6899
20
-112.18
11
57.7851
21
-112.085
0
LINE
8
BLACK
6
CONTINUOUS
10
57.7851
20
-112.085
11
57.9756
21
-111.99
0
LINE
8
BLACK
6
CONTINUOUS
10
59.8804
20
-111.99
11
60.0709
21
-111.99
0
LINE
8
BLACK
6
CONTINUOUS
10
60.0709
20
-111.99
11
60.2613
21
-112.085
0
LINE
8
BLACK
6
CONTINUOUS
10
60.2613
20
-112.085
11
60.3566
21
-112.18
0
LINE
8
BLACK
6
CONTINUOUS
10
60.3566
20
-112.18
11
60.4518
21
-112.371
0
LINE
8
BLACK
6
CONTINUOUS
10
60.4518
20
-112.371
11
60.5471
21
-112.752
0
LINE
8
BLACK
6
CONTINUOUS
10
60.5471
20
-112.752
11
60.5471
21
-113.228
0
LINE
8
BLACK
6
CONTINUOUS
10
60.5471
20
-113.228
11
60.4518
21
-113.609
0
LINE
8
BLACK
6
CONTINUOUS
10
60.4518
20
-113.609
11
60.3566
21
-113.799
0
LINE
8
BLACK
6
CONTINUOUS
10
60.3566
20
-113.799
11
60.2613
21
-113.895
0
LINE
8
BLACK
6
CONTINUOUS
10
60.2613
20
-113.895
11
60.0709
21
-113.99
0
LINE
8
BLACK
6
CONTINUOUS
10
60.0709
20
-113.99
11
59.8804
21
-113.99
0
LINE
8
BLACK
6
CONTINUOUS
10
59.8804
20
-113.99
11
59.6899
21
-113.895
0
LINE
8
BLACK
6
CONTINUOUS
10
59.6899
20
-113.895
11
59.5947
21
-113.799
0
LINE
8
BLACK
6
CONTINUOUS
10
59.5947
20
-113.799
11
59.4994
21
-113.609
0
LINE
8
BLACK
6
CONTINUOUS
10
59.4994
20
-113.609
11
59.4042
21
-113.228
0
LINE
8
BLACK
6
CONTINUOUS
10
59.4042
20
-113.228
11
59.4042
21
-112.752
0
LINE
8
BLACK
6
CONTINUOUS
10
59.4042
20
-112.752
11
59.4994
21
-112.371
0
LINE
8
BLACK
6
CONTINUOUS
10
59.4994
20
-112.371
11
59.5947
21
-112.18
0
LINE
8
BLACK
6
CONTINUOUS
10
59.5947
20
-112.18
11
59.6899
21
-112.085
0
LINE
8
BLACK
6
CONTINUOUS
10
59.6899
20
-112.085
11
59.8804
21
-111.99
0
LINE
8
BLACK
6
CONTINUOUS
10
61.4042
20
-113.99
11
61.4042
21
-112.657
0
LINE
8
BLACK
6
CONTINUOUS
10
61.4042
20
-112.847
11
61.4994
21
-112.752
0
LINE
8
BLACK
6
CONTINUOUS
10
61.4994
20
-112.752
11
61.6899
21
-112.657
0
LINE
8
BLACK
6
CONTINUOUS
10
61.6899
20
-112.657
11
61.9756
21
-112.657
0
LINE
8
BLACK
6
CONTINUOUS
10
61.9756
20
-112.657
11
62.1661
21
-112.752
0
LINE
8
BLACK
6
CONTINUOUS
10
62.1661
20
-112.752
11
62.2613
21
-112.942
0
LINE
8
BLACK
6
CONTINUOUS
10
62.2613
20
-112.942
11
62.2613
21
-113.99
0
LINE
8
BLACK
6
CONTINUOUS
10
62.2613
20
-112.942
11
62.3566
21
-112.752
0
LINE
8
BLACK
6
CONTINUOUS
10
62.3566
20
-112.752
11
62.5471
21
-112.657
0
LINE
8
BLACK
6
CONTINUOUS
10
62.5471
20
-112.657
11
62.8328
21
-112.657
0
LINE
8
BLACK
6
CONTINUOUS
10
62.8328
20
-112.657
11
63.0232
21
-112.752
0
LINE
8
BLACK
6
CONTINUOUS
10
63.0232
20
-112.752
11
63.1185
21
-112.942
0
LINE
8
BLACK
6
CONTINUOUS
10
63.1185
20
-112.942
11
63.1185
21
-113.99
0
LINE
8
BLACK
6
CONTINUOUS
10
64.0709
20
-113.99
11
64.0709
21
-112.657
0
LINE
8
BLACK
6
CONTINUOUS
10
64.0709
20
-112.847
11
64.1661
21
-112.752
0
LINE
8
BLACK
6
CONTINUOUS
10
64.1661
20
-112.752
11
64.3566
21
-112.657
0
LINE
8
BLACK
6
CONTINUOUS
10
64.3566
20
-112.657
11
64.6423
21
-112.657
0
LINE
8
BLACK
6
CONTINUOUS
10
64.6423
20
-112.657
11
64.8328
21
-112.752
0
LINE
8
BLACK
6
CONTINUOUS
10
64.8328
20
-112.752
11
64.928
21
-112.942
0
LINE
8
BLACK
6
CONTINUOUS
10
64.928
20
-112.942
11
64.928
21
-113.99
0
LINE
8
BLACK
6
CONTINUOUS
10
64.928
20
-112.942
11
65.0232
21
-112.752
0
LINE
8
BLACK
6
CONTINUOUS
10
65.0232
20
-112.752
11
65.2137
21
-112.657
0
LINE
8
BLACK
6
CONTINUOUS
10
65.2137
20
-112.657
11
65.4994
21
-112.657
0
LINE
8
BLACK
6
CONTINUOUS
10
65.4994
20
-112.657
11
65.6899
21
-112.752
0
LINE
8
BLACK
6
CONTINUOUS
10
65.6899
20
-112.752
11
65.7852
21
-112.942
0
LINE
8
BLACK
6
CONTINUOUS
10
65.7852
20
-112.942
11
65.7852
21
-113.99
0
LINE
8
BLACK
6
CONTINUOUS
10
69.6899
20
-111.895
11
67.9756
21
-114.466
0
LINE
8
BLACK
6
CONTINUOUS
10
72.2613
20
-111.99
11
72.4518
21
-111.99
0
LINE
8
BLACK
6
CONTINUOUS
10
72.4518
20
-111.99
11
72.6423
21
-112.085
0
LINE
8
BLACK
6
CONTINUOUS
10
72.6423
20
-112.085
11
72.7375
21
-112.18
0
LINE
8
BLACK
6
CONTINUOUS
10
72.7375
20
-112.18
11
72.8328
21
-112.371
0
LINE
8
BLACK
6
CONTINUOUS
10
72.8328
20
-112.371
11
72.928
21
-112.752
0
LINE
8
BLACK
6
CONTINUOUS
10
72.928
20
-112.752
11
72.928
21
-113.228
0
LINE
8
BLACK
6
CONTINUOUS
10
72.928
20
-113.228
11
72.8328
21
-113.609
0
LINE
8
BLACK
6
CONTINUOUS
10
72.8328
20
-113.609
11
72.7375
21
-113.799
0
LINE
8
BLACK
6
CONTINUOUS
10
72.7375
20
-113.799
11
72.6423
21
-113.895
0
LINE
8
BLACK
6
CONTINUOUS
10
72.6423
20
-113.895
11
72.4518
21
-113.99
0
LINE
8
BLACK
6
CONTINUOUS
10
72.4518
20
-113.99
11
72.2613
21
-113.99
0
LINE
8
BLACK
6
CONTINUOUS
10
72.2613
20
-113.99
11
72.0709
21
-113.895
0
LINE
8
BLACK
6
CONTINUOUS
10
72.0709
20
-113.895
11
71.9756
21
-113.799
0
LINE
8
BLACK
6
CONTINUOUS
10
71.9756
20
-113.799
11
71.8804
21
-113.609
0
LINE
8
BLACK
6
CONTINUOUS
10
71.8804
20
-113.609
11
71.7852
21
-113.228
0
LINE
8
BLACK
6
CONTINUOUS
10
71.7852
20
-113.228
11
71.7852
21
-112.752
0
LINE
8
BLACK
6
CONTINUOUS
10
71.7852
20
-112.752
11
71.8804
21
-112.371
0
LINE
8
BLACK
6
CONTINUOUS
10
71.8804
20
-112.371
11
71.9756
21
-112.18
0
LINE
8
BLACK
6
CONTINUOUS
10
71.9756
20
-112.18
11
72.0709
21
-112.085
0
LINE
8
BLACK
6
CONTINUOUS
10
72.0709
20
-112.085
11
72.2613
21
-111.99
0
LINE
8
BLACK
6
CONTINUOUS
10
73.7852
20
-113.799
11
73.8804
21
-113.895
0
LINE
8
BLACK
6
CONTINUOUS
10
73.8804
20
-113.895
11
73.7852
21
-113.99
0
LINE
8
BLACK
6
CONTINUOUS
10
73.7852
20
-113.99
11
73.6899
21
-113.895
0
LINE
8
BLACK
6
CONTINUOUS
10
73.6899
20
-113.895
11
73.7852
21
-113.799
0
LINE
8
BLACK
6
CONTINUOUS
10
73.7852
20
-113.799
11
73.7852
21
-113.99
0
LINE
8
BLACK
6
CONTINUOUS
10
75.1185
20
-111.99
11
75.309
21
-111.99
0
LINE
8
BLACK
6
CONTINUOUS
10
75.309
20
-111.99
11
75.4994
21
-112.085
0
LINE
8
BLACK
6
CONTINUOUS
10
75.4994
20
-112.085
11
75.5947
21
-112.18
0
LINE
8
BLACK
6
CONTINUOUS
10
75.5947
20
-112.18
11
75.6899
21
-112.371
0
LINE
8
BLACK
6
CONTINUOUS
10
75.6899
20
-112.371
11
75.7852
21
-112.752
0
LINE
8
BLACK
6
CONTINUOUS
10
75.7852
20
-112.752
11
75.7852
21
-113.228
0
LINE
8
BLACK
6
CONTINUOUS
10
75.7852
20
-113.228
11
75.6899
21
-113.609
0
LINE
8
BLACK
6
CONTINUOUS
10
75.6899
20
-113.609
11
75.5947
21
-113.799
0
LINE
8
BLACK
6
CONTINUOUS
10
75.5947
20
-113.799
11
75.4994
21
-113.895
0
LINE
8
BLACK
6
CONTINUOUS
10
75.4994
20
-113.895
11
75.309
21
-113.99
0
LINE
8
BLACK
6
CONTINUOUS
10
75.309
20
-113.99
11
75.1185
21
-113.99
0
LINE
8
BLACK
6
CONTINUOUS
10
75.1185
20
-113.99
11
74.928
21
-113.895
0
LINE
8
BLACK
6
CONTINUOUS
10
74.928
20
-113.895
11
74.8328
21
-113.799
0
LINE
8
BLACK
6
CONTINUOUS
10
74.8328
20
-113.799
11
74.7375
21
-113.609
0
LINE
8
BLACK
6
CONTINUOUS
10
74.7375
20
-113.609
11
74.6423
21
-113.228
0
LINE
8
BLACK
6
CONTINUOUS
10
74.6423
20
-113.228
11
74.6423
21
-112.752
0
LINE
8
BLACK
6
CONTINUOUS
10
74.6423
20
-112.752
11
74.7375
21
-112.371
0
LINE
8
BLACK
6
CONTINUOUS
10
74.7375
20
-112.371
11
74.8328
21
-112.18
0
LINE
8
BLACK
6
CONTINUOUS
10
74.8328
20
-112.18
11
74.928
21
-112.085
0
LINE
8
BLACK
6
CONTINUOUS
10
74.928
20
-112.085
11
75.1185
21
-111.99
0
LINE
8
BLACK
6
CONTINUOUS
10
77.6899
20
-113.99
11
76.5471
21
-113.99
0
LINE
8
BLACK
6
CONTINUOUS
10
77.1185
20
-113.99
11
77.1185
21
-111.99
0
LINE
8
BLACK
6
CONTINUOUS
10
77.1185
20
-111.99
11
76.928
21
-112.276
0
LINE
8
BLACK
6
CONTINUOUS
10
76.928
20
-112.276
11
76.7375
21
-112.466
0
LINE
8
BLACK
6
CONTINUOUS
10
76.7375
20
-112.466
11
76.5471
21
-112.561
0
LINE
8
BLACK
6
CONTINUOUS
10
79.4994
20
-111.99
11
78.5471
21
-111.99
0
LINE
8
BLACK
6
CONTINUOUS
10
78.5471
20
-111.99
11
78.4518
21
-112.942
0
LINE
8
BLACK
6
CONTINUOUS
10
78.4518
20
-112.942
11
78.5471
21
-112.847
0
LINE
8
BLACK
6
CONTINUOUS
10
78.5471
20
-112.847
11
78.7375
21
-112.752
0
LINE
8
BLACK
6
CONTINUOUS
10
78.7375
20
-112.752
11
79.2137
21
-112.752
0
LINE
8
BLACK
6
CONTINUOUS
10
79.2137
20
-112.752
11
79.4042
21
-112.847
0
LINE
8
BLACK
6
CONTINUOUS
10
79.4042
20
-112.847
11
79.4994
21
-112.942
0
LINE
8
BLACK
6
CONTINUOUS
10
79.4994
20
-112.942
11
79.5947
21
-113.133
0
LINE
8
BLACK
6
CONTINUOUS
10
79.5947
20
-113.133
11
79.5947
21
-113.609
0
LINE
8
BLACK
6
CONTINUOUS
10
79.5947
20
-113.609
11
79.4994
21
-113.799
0
LINE
8
BLACK
6
CONTINUOUS
10
79.4994
20
-113.799
11
79.4042
21
-113.895
0
LINE
8
BLACK
6
CONTINUOUS
10
79.4042
20
-113.895
11
79.2137
21
-113.99
0
LINE
8
BLACK
6
CONTINUOUS
10
79.2137
20
-113.99
11
78.7375
21
-113.99
0
LINE
8
BLACK
6
CONTINUOUS
10
78.7375
20
-113.99
11
78.5471
21
-113.895
0
LINE
8
BLACK
6
CONTINUOUS
10
78.5471
20
-113.895
11
78.4518
21
-113.799
0
LINE
8
BLACK
6
CONTINUOUS
10
80.2613
20
-111.99
11
81.5947
21
-111.99
0
LINE
8
BLACK
6
CONTINUOUS
10
81.5947
20
-111.99
11
80.7375
21
-113.99
0
LINE
8
BLACK
6
CONTINUOUS
10
82.2613
20
-111.99
11
82.2613
21
-112.371
0
LINE
8
BLACK
6
CONTINUOUS
10
83.0232
20
-111.99
11
83.0232
21
-112.371
0
LINE
8
BLACK
6
CONTINUOUS
10
85.9756
20
-114.752
11
85.8804
21
-114.657
0
LINE
8
BLACK
6
CONTINUOUS
10
85.8804
20
-114.657
11
85.6899
21
-114.371
0
LINE
8
BLACK
6
CONTINUOUS
10
85.6899
20
-114.371
11
85.5947
21
-114.18
0
LINE
8
BLACK
6
CONTINUOUS
10
85.5947
20
-114.18
11
85.4994
21
-113.895
0
LINE
8
BLACK
6
CONTINUOUS
10
85.4994
20
-113.895
11
85.4042
21
-113.418
0
LINE
8
BLACK
6
CONTINUOUS
10
85.4042
20
-113.418
11
85.4042
21
-113.037
0
LINE
8
BLACK
6
CONTINUOUS
10
85.4042
20
-113.037
11
85.4994
21
-112.561
0
LINE
8
BLACK
6
CONTINUOUS
10
85.4994
20
-112.561
11
85.5947
21
-112.276
0
LINE
8
BLACK
6
CONTINUOUS
10
85.5947
20
-112.276
11
85.6899
21
-112.085
0
LINE
8
BLACK
6
CONTINUOUS
10
85.6899
20
-112.085
11
85.8804
21
-111.799
0
LINE
8
BLACK
6
CONTINUOUS
10
85.8804
20
-111.799
11
85.9756
21
-111.704
0
LINE
8
BLACK
6
CONTINUOUS
10
87.0232
20
-112.847
11
86.8328
21
-112.752
0
LINE
8
BLACK
6
CONTINUOUS
10
86.8328
20
-112.752
11
86.7375
21
-112.657
0
LINE
8
BLACK
6
CONTINUOUS
10
86.7375
20
-112.657
11
86.6423
21
-112.466
0
LINE
8
BLACK
6
CONTINUOUS
10
86.6423
20
-112.466
11
86.6423
21
-112.371
0
LINE
8
BLACK
6
CONTINUOUS
10
86.6423
20
-112.371
11
86.7375
21
-112.18
0
LINE
8
BLACK
6
CONTINUOUS
10
86.7375
20
-112.18
11
86.8328
21
-112.085
0
LINE
8
BLACK
6
CONTINUOUS
10
86.8328
20
-112.085
11
87.0232
21
-111.99
0
LINE
8
BLACK
6
CONTINUOUS
10
87.0232
20
-111.99
11
87.4042
21
-111.99
0
LINE
8
BLACK
6
CONTINUOUS
10
87.4042
20
-111.99
11
87.5947
21
-112.085
0
LINE
8
BLACK
6
CONTINUOUS
10
87.5947
20
-112.085
11
87.6899
21
-112.18
0
LINE
8
BLACK
6
CONTINUOUS
10
87.6899
20
-112.18
11
87.7852
21
-112.371
0
LINE
8
BLACK
6
CONTINUOUS
10
87.7852
20
-112.371
11
87.7852
21
-112.466
0
LINE
8
BLACK
6
CONTINUOUS
10
87.7852
20
-112.466
11
87.6899
21
-112.657
0
LINE
8
BLACK
6
CONTINUOUS
10
87.6899
20
-112.657
11
87.5947
21
-112.752
0
LINE
8
BLACK
6
CONTINUOUS
10
87.5947
20
-112.752
11
87.4042
21
-112.847
0
LINE
8
BLACK
6
CONTINUOUS
10
87.4042
20
-112.847
11
87.0232
21
-112.847
0
LINE
8
BLACK
6
CONTINUOUS
10
87.0232
20
-112.847
11
86.8328
21
-112.942
0
LINE
8
BLACK
6
CONTINUOUS
10
86.8328
20
-112.942
11
86.7375
21
-113.037
0
LINE
8
BLACK
6
CONTINUOUS
10
86.7375
20
-113.037
11
86.6423
21
-113.228
0
LINE
8
BLACK
6
CONTINUOUS
10
86.6423
20
-113.228
11
86.6423
21
-113.609
0
LINE
8
BLACK
6
CONTINUOUS
10
86.6423
20
-113.609
11
86.7375
21
-113.799
0
LINE
8
BLACK
6
CONTINUOUS
10
86.7375
20
-113.799
11
86.8328
21
-113.895
0
LINE
8
BLACK
6
CONTINUOUS
10
86.8328
20
-113.895
11
87.0232
21
-113.99
0
LINE
8
BLACK
6
CONTINUOUS
10
87.0232
20
-113.99
11
87.4042
21
-113.99
0
LINE
8
BLACK
6
CONTINUOUS
10
87.4042
20
-113.99
11
87.5947
21
-113.895
0
LINE
8
BLACK
6
CONTINUOUS
10
87.5947
20
-113.895
11
87.6899
21
-113.799
0
LINE
8
BLACK
6
CONTINUOUS
10
87.6899
20
-113.799
11
87.7852
21
-113.609
0
LINE
8
BLACK
6
CONTINUOUS
10
87.7852
20
-113.609
11
87.7852
21
-113.228
0
LINE
8
BLACK
6
CONTINUOUS
10
87.7852
20
-113.228
11
87.6899
21
-113.037
0
LINE
8
BLACK
6
CONTINUOUS
10
87.6899
20
-113.037
11
87.5947
21
-112.942
0
LINE
8
BLACK
6
CONTINUOUS
10
87.5947
20
-112.942
11
87.4042
21
-112.847
0
LINE
8
BLACK
6
CONTINUOUS
10
90.1661
20
-113.99
11
90.1661
21
-111.99
0
LINE
8
BLACK
6
CONTINUOUS
10
91.0232
20
-113.99
11
91.0232
21
-112.942
0
LINE
8
BLACK
6
CONTINUOUS
10
91.0232
20
-112.942
11
90.928
21
-112.752
0
LINE
8
BLACK
6
CONTINUOUS
10
90.928
20
-112.752
11
90.7375
21
-112.657
0
LINE
8
BLACK
6
CONTINUOUS
10
90.7375
20
-112.657
11
90.4518
21
-112.657
0
LINE
8
BLACK
6
CONTINUOUS
10
90.4518
20
-112.657
11
90.2613
21
-112.752
0
LINE
8
BLACK
6
CONTINUOUS
10
90.2613
20
-112.752
11
90.1661
21
-112.847
0
LINE
8
BLACK
6
CONTINUOUS
10
92.2613
20
-113.99
11
92.0709
21
-113.895
0
LINE
8
BLACK
6
CONTINUOUS
10
92.0709
20
-113.895
11
91.9756
21
-113.799
0
LINE
8
BLACK
6
CONTINUOUS
10
91.9756
20
-113.799
11
91.8804
21
-113.609
0
LINE
8
BLACK
6
CONTINUOUS
10
91.8804
20
-113.609
11
91.8804
21
-113.037
0
LINE
8
BLACK
6
CONTINUOUS
10
91.8804
20
-113.037
11
91.9756
21
-112.847
0
LINE
8
BLACK
6
CONTINUOUS
10
91.9756
20
-112.847
11
92.0709
21
-112.752
0
LINE
8
BLACK
6
CONTINUOUS
10
92.0709
20
-112.752
11
92.2613
21
-112.657
0
LINE
8
BLACK
6
CONTINUOUS
10
92.2613
20
-112.657
11
92.5471
21
-112.657
0
LINE
8
BLACK
6
CONTINUOUS
10
92.5471
20
-112.657
11
92.7375
21
-112.752
0
LINE
8
BLACK
6
CONTINUOUS
10
92.7375
20
-112.752
11
92.8328
21
-112.847
0
LINE
8
BLACK
6
CONTINUOUS
10
92.8328
20
-112.847
11
92.928
21
-113.037
0
LINE
8
BLACK
6
CONTINUOUS
10
92.928
20
-113.037
11
92.928
21
-113.609
0
LINE
8
BLACK
6
CONTINUOUS
10
92.928
20
-113.609
11
92.8328
21
-113.799
0
LINE
8
BLACK
6
CONTINUOUS
10
92.8328
20
-113.799
11
92.7375
21
-113.895
0
LINE
8
BLACK
6
CONTINUOUS
10
92.7375
20
-113.895
11
92.5471
21
-113.99
0
LINE
8
BLACK
6
CONTINUOUS
10
92.5471
20
-113.99
11
92.2613
21
-113.99
0
LINE
8
BLACK
6
CONTINUOUS
10
94.0709
20
-113.99
11
93.8804
21
-113.895
0
LINE
8
BLACK
6
CONTINUOUS
10
93.8804
20
-113.895
11
93.7852
21
-113.704
0
LINE
8
BLACK
6
CONTINUOUS
10
93.7852
20
-113.704
11
93.7852
21
-111.99
0
LINE
8
BLACK
6
CONTINUOUS
10
95.5947
20
-113.895
11
95.4042
21
-113.99
0
LINE
8
BLACK
6
CONTINUOUS
10
95.4042
20
-113.99
11
95.0232
21
-113.99
0
LINE
8
BLACK
6
CONTINUOUS
10
95.0232
20
-113.99
11
94.8328
21
-113.895
0
LINE
8
BLACK
6
CONTINUOUS
10
94.8328
20
-113.895
11
94.7375
21
-113.704
0
LINE
8
BLACK
6
CONTINUOUS
10
94.7375
20
-113.704
11
94.7375
21
-112.942
0
LINE
8
BLACK
6
CONTINUOUS
10
94.7375
20
-112.942
11
94.8328
21
-112.752
0
LINE
8
BLACK
6
CONTINUOUS
10
94.8328
20
-112.752
11
95.0232
21
-112.657
0
LINE
8
BLACK
6
CONTINUOUS
10
95.0232
20
-112.657
11
95.4042
21
-112.657
0
LINE
8
BLACK
6
CONTINUOUS
10
95.4042
20
-112.657
11
95.5947
21
-112.752
0
LINE
8
BLACK
6
CONTINUOUS
10
95.5947
20
-112.752
11
95.6899
21
-112.942
0
LINE
8
BLACK
6
CONTINUOUS
10
95.6899
20
-112.942
11
95.6899
21
-113.133
0
LINE
8
BLACK
6
CONTINUOUS
10
95.6899
20
-113.133
11
94.7375
21
-113.323
0
LINE
8
BLACK
6
CONTINUOUS
10
96.4518
20
-113.895
11
96.6423
21
-113.99
0
LINE
8
BLACK
6
CONTINUOUS
10
96.6423
20
-113.99
11
97.0232
21
-113.99
0
LINE
8
BLACK
6
CONTINUOUS
10
97.0232
20
-113.99
11
97.2137
21
-113.895
0
LINE
8
BLACK
6
CONTINUOUS
10
97.2137
20
-113.895
11
97.309
21
-113.704
0
LINE
8
BLACK
6
CONTINUOUS
10
97.309
20
-113.704
11
97.309
21
-113.609
0
LINE
8
BLACK
6
CONTINUOUS
10
97.309
20
-113.609
11
97.2137
21
-113.418
0
LINE
8
BLACK
6
CONTINUOUS
10
97.2137
20
-113.418
11
97.0232
21
-113.323
0
LINE
8
BLACK
6
CONTINUOUS
10
97.0232
20
-113.323
11
96.7375
21
-113.323
0
LINE
8
BLACK
6
CONTINUOUS
10
96.7375
20
-113.323
11
96.5471
21
-113.228
0
LINE
8
BLACK
6
CONTINUOUS
10
96.5471
20
-113.228
11
96.4518
21
-113.037
0
LINE
8
BLACK
6
CONTINUOUS
10
96.4518
20
-113.037
11
96.4518
21
-112.942
0
LINE
8
BLACK
6
CONTINUOUS
10
96.4518
20
-112.942
11
96.5471
21
-112.752
0
LINE
8
BLACK
6
CONTINUOUS
10
96.5471
20
-112.752
11
96.7375
21
-112.657
0
LINE
8
BLACK
6
CONTINUOUS
10
96.7375
20
-112.657
11
97.0232
21
-112.657
0
LINE
8
BLACK
6
CONTINUOUS
10
97.0232
20
-112.657
11
97.2137
21
-112.752
0
LINE
8
BLACK
6
CONTINUOUS
10
97.9756
20
-114.752
11
98.0709
21
-114.657
0
LINE
8
BLACK
6
CONTINUOUS
10
98.0709
20
-114.657
11
98.2613
21
-114.371
0
LINE
8
BLACK
6
CONTINUOUS
10
98.2613
20
-114.371
11
98.3566
21
-114.18
0
LINE
8
BLACK
6
CONTINUOUS
10
98.3566
20
-114.18
11
98.4518
21
-113.895
0
LINE
8
BLACK
6
CONTINUOUS
10
98.4518
20
-113.895
11
98.5471
21
-113.418
0
LINE
8
BLACK
6
CONTINUOUS
10
98.5471
20
-113.418
11
98.5471
21
-113.037
0
LINE
8
BLACK
6
CONTINUOUS
10
98.5471
20
-113.037
11
98.4518
21
-112.561
0
LINE
8
BLACK
6
CONTINUOUS
10
98.4518
20
-112.561
11
98.3566
21
-112.276
0
LINE
8
BLACK
6
CONTINUOUS
10
98.3566
20
-112.276
11
98.2613
21
-112.085
0
LINE
8
BLACK
6
CONTINUOUS
10
98.2613
20
-112.085
11
98.0709
21
-111.799
0
LINE
8
BLACK
6
CONTINUOUS
10
98.0709
20
-111.799
11
97.9756
21
-111.704
0
CIRCLE
8
BLACK
10
49.725
20
-115.715
40
0.5
0
LINE
8
BLACK
6
CONTINUOUS
10
53.8804
20
-116.63
11
52.7375
21
-116.63
0
LINE
8
BLACK
6
CONTINUOUS
10
53.309
20
-116.63
11
53.309
21
-114.63
0
LINE
8
BLACK
6
CONTINUOUS
10
53.309
20
-114.63
11
53.1185
21
-114.916
0
LINE
8
BLACK
6
CONTINUOUS
10
53.1185
20
-114.916
11
52.928
21
-115.106
0
LINE
8
BLACK
6
CONTINUOUS
10
52.928
20
-115.106
11
52.7375
21
-115.201
0
LINE
8
BLACK
6
CONTINUOUS
10
54.7375
20
-116.439
11
54.8328
21
-116.535
0
LINE
8
BLACK
6
CONTINUOUS
10
54.8328
20
-116.535
11
54.7375
21
-116.63
0
LINE
8
BLACK
6
CONTINUOUS
10
54.7375
20
-116.63
11
54.6423
21
-116.535
0
LINE
8
BLACK
6
CONTINUOUS
10
54.6423
20
-116.535
11
54.7375
21
-116.439
0
LINE
8
BLACK
6
CONTINUOUS
10
54.7375
20
-116.439
11
54.7375
21
-116.63
0
LINE
8
BLACK
6
CONTINUOUS
10
56.0709
20
-114.63
11
56.2613
21
-114.63
0
LINE
8
BLACK
6
CONTINUOUS
10
56.2613
20
-114.63
11
56.4518
21
-114.725
0
LINE
8
BLACK
6
CONTINUOUS
10
56.4518
20
-114.725
11
56.5471
21
-114.82
0
LINE
8
BLACK
6
CONTINUOUS
10
56.5471
20
-114.82
11
56.6423
21
-115.011
0
LINE
8
BLACK
6
CONTINUOUS
10
56.6423
20
-115.011
11
56.7375
21
-115.392
0
LINE
8
BLACK
6
CONTINUOUS
10
56.7375
20
-115.392
11
56.7375
21
-115.868
0
LINE
8
BLACK
6
CONTINUOUS
10
56.7375
20
-115.868
11
56.6423
21
-116.249
0
LINE
8
BLACK
6
CONTINUOUS
10
56.6423
20
-116.249
11
56.5471
21
-116.439
0
LINE
8
BLACK
6
CONTINUOUS
10
56.5471
20
-116.439
11
56.4518
21
-116.535
0
LINE
8
BLACK
6
CONTINUOUS
10
56.4518
20
-116.535
11
56.2613
21
-116.63
0
LINE
8
BLACK
6
CONTINUOUS
10
56.2613
20
-116.63
11
56.0709
21
-116.63
0
LINE
8
BLACK
6
CONTINUOUS
10
56.0709
20
-116.63
11
55.8804
21
-116.535
0
LINE
8
BLACK
6
CONTINUOUS
10
55.8804
20
-116.535
11
55.7851
21
-116.439
0
LINE
8
BLACK
6
CONTINUOUS
10
55.7851
20
-116.439
11
55.6899
21
-116.249
0
LINE
8
BLACK
6
CONTINUOUS
10
55.6899
20
-116.249
11
55.5947
21
-115.868
0
LINE
8
BLACK
6
CONTINUOUS
10
55.5947
20
-115.868
11
55.5947
21
-115.392
0
LINE
8
BLACK
6
CONTINUOUS
10
55.5947
20
-115.392
11
55.6899
21
-115.011
0
LINE
8
BLACK
6
CONTINUOUS
10
55.6899
20
-115.011
11
55.7851
21
-114.82
0
LINE
8
BLACK
6
CONTINUOUS
10
55.7851
20
-114.82
11
55.8804
21
-114.725
0
LINE
8
BLACK
6
CONTINUOUS
10
55.8804
20
-114.725
11
56.0709
21
-114.63
0
LINE
8
BLACK
6
CONTINUOUS
10
57.9756
20
-114.63
11
58.1661
21
-114.63
0
LINE
8
BLACK
6
CONTINUOUS
10
58.1661
20
-114.63
11
58.3566
21
-114.725
0
LINE
8
BLACK
6
CONTINUOUS
10
58.3566
20
-114.725
11
58.4518
21
-114.82
0
LINE
8
BLACK
6
CONTINUOUS
10
58.4518
20
-114.82
11
58.5471
21
-115.011
0
LINE
8
BLACK
6
CONTINUOUS
10
58.5471
20
-115.011
11
58.6423
21
-115.392
0
LINE
8
BLACK
6
CONTINUOUS
10
58.6423
20
-115.392
11
58.6423
21
-115.868
0
LINE
8
BLACK
6
CONTINUOUS
10
58.6423
20
-115.868
11
58.5471
21
-116.249
0
LINE
8
BLACK
6
CONTINUOUS
10
58.5471
20
-116.249
11
58.4518
21
-116.439
0
LINE
8
BLACK
6
CONTINUOUS
10
58.4518
20
-116.439
11
58.3566
21
-116.535
0
LINE
8
BLACK
6
CONTINUOUS
10
58.3566
20
-116.535
11
58.1661
21
-116.63
0
LINE
8
BLACK
6
CONTINUOUS
10
58.1661
20
-116.63
11
57.9756
21
-116.63
0
LINE
8
BLACK
6
CONTINUOUS
10
57.9756
20
-116.63
11
57.7851
21
-116.535
0
LINE
8
BLACK
6
CONTINUOUS
10
57.7851
20
-116.535
11
57.6899
21
-116.439
0
LINE
8
BLACK
6
CONTINUOUS
10
57.6899
20
-116.439
11
57.5947
21
-116.249
0
LINE
8
BLACK
6
CONTINUOUS
10
57.5947
20
-116.249
11
57.4994
21
-115.868
0
LINE
8
BLACK
6
CONTINUOUS
10
57.4994
20
-115.868
11
57.4994
21
-115.392
0
LINE
8
BLACK
6
CONTINUOUS
10
57.4994
20
-115.392
11
57.5947
21
-115.011
0
LINE
8
BLACK
6
CONTINUOUS
10
57.5947
20
-115.011
11
57.6899
21
-114.82
0
LINE
8
BLACK
6
CONTINUOUS
10
57.6899
20
-114.82
11
57.7851
21
-114.725
0
LINE
8
BLACK
6
CONTINUOUS
10
57.7851
20
-114.725
11
57.9756
21
-114.63
0
LINE
8
BLACK
6
CONTINUOUS
10
59.8804
20
-114.63
11
60.0709
21
-114.63
0
LINE
8
BLACK
6
CONTINUOUS
10
60.0709
20
-114.63
11
60.2613
21
-114.725
0
LINE
8
BLACK
6
CONTINUOUS
10
60.2613
20
-114.725
11
60.3566
21
-114.82
0
LINE
8
BLACK
6
CONTINUOUS
10
60.3566
20
-114.82
11
60.4518
21
-115.011
0
LINE
8
BLACK
6
CONTINUOUS
10
60.4518
20
-115.011
11
60.5471
21
-115.392
0
LINE
8
BLACK
6
CONTINUOUS
10
60.5471
20
-115.392
11
60.5471
21
-115.868
0
LINE
8
BLACK
6
CONTINUOUS
10
60.5471
20
-115.868
11
60.4518
21
-116.249
0
LINE
8
BLACK
6
CONTINUOUS
10
60.4518
20
-116.249
11
60.3566
21
-116.439
0
LINE
8
BLACK
6
CONTINUOUS
10
60.3566
20
-116.439
11
60.2613
21
-116.535
0
LINE
8
BLACK
6
CONTINUOUS
10
60.2613
20
-116.535
11
60.0709
21
-116.63
0
LINE
8
BLACK
6
CONTINUOUS
10
60.0709
20
-116.63
11
59.8804
21
-116.63
0
LINE
8
BLACK
6
CONTINUOUS
10
59.8804
20
-116.63
11
59.6899
21
-116.535
0
LINE
8
BLACK
6
CONTINUOUS
10
59.6899
20
-116.535
11
59.5947
21
-116.439
0
LINE
8
BLACK
6
CONTINUOUS
10
59.5947
20
-116.439
11
59.4994
21
-116.249
0
LINE
8
BLACK
6
CONTINUOUS
10
59.4994
20
-116.249
11
59.4042
21
-115.868
0
LINE
8
BLACK
6
CONTINUOUS
10
59.4042
20
-115.868
11
59.4042
21
-115.392
0
LINE
8
BLACK
6
CONTINUOUS
10
59.4042
20
-115.392
11
59.4994
21
-115.011
0
LINE
8
BLACK
6
CONTINUOUS
10
59.4994
20
-115.011
11
59.5947
21
-114.82
0
LINE
8
BLACK
6
CONTINUOUS
10
59.5947
20
-114.82
11
59.6899
21
-114.725
0
LINE
8
BLACK
6
CONTINUOUS
10
59.6899
20
-114.725
11
59.8804
21
-114.63
0
LINE
8
BLACK
6
CONTINUOUS
10
61.4042
20
-116.63
11
61.4042
21
-115.297
0
LINE
8
BLACK
6
CONTINUOUS
10
61.4042
20
-115.487
11
61.4994
21
-115.392
0
LINE
8
BLACK
6
CONTINUOUS
10
61.4994
20
-115.392
11
61.6899
21
-115.297
0
LINE
8
BLACK
6
CONTINUOUS
10
61.6899
20
-115.297
11
61.9756
21
-115.297
0
LINE
8
BLACK
6
CONTINUOUS
10
61.9756
20
-115.297
11
62.1661
21
-115.392
0
LINE
8
BLACK
6
CONTINUOUS
10
62.1661
20
-115.392
11
62.2613
21
-115.582
0
LINE
8
BLACK
6
CONTINUOUS
10
62.2613
20
-115.582
11
62.2613
21
-116.63
0
LINE
8
BLACK
6
CONTINUOUS
10
62.2613
20
-115.582
11
62.3566
21
-115.392
0
LINE
8
BLACK
6
CONTINUOUS
10
62.3566
20
-115.392
11
62.5471
21
-115.297
0
LINE
8
BLACK
6
CONTINUOUS
10
62.5471
20
-115.297
11
62.8328
21
-115.297
0
LINE
8
BLACK
6
CONTINUOUS
10
62.8328
20
-115.297
11
63.0232
21
-115.392
0
LINE
8
BLACK
6
CONTINUOUS
10
63.0232
20
-115.392
11
63.1185
21
-115.582
0
LINE
8
BLACK
6
CONTINUOUS
10
63.1185
20
-115.582
11
63.1185
21
-116.63
0
LINE
8
BLACK
6
CONTINUOUS
10
64.0709
20
-116.63
11
64.0709
21
-115.297
0
LINE
8
BLACK
6
CONTINUOUS
10
64.0709
20
-115.487
11
64.1661
21
-115.392
0
LINE
8
BLACK
6
CONTINUOUS
10
64.1661
20
-115.392
11
64.3566
21
-115.297
0
LINE
8
BLACK
6
CONTINUOUS
10
64.3566
20
-115.297
11
64.6423
21
-115.297
0
LINE
8
BLACK
6
CONTINUOUS
10
64.6423
20
-115.297
11
64.8328
21
-115.392
0
LINE
8
BLACK
6
CONTINUOUS
10
64.8328
20
-115.392
11
64.928
21
-115.582
0
LINE
8
BLACK
6
CONTINUOUS
10
64.928
20
-115.582
11
64.928
21
-116.63
0
LINE
8
BLACK
6
CONTINUOUS
10
64.928
20
-115.582
11
65.0232
21
-115.392
0
LINE
8
BLACK
6
CONTINUOUS
10
65.0232
20
-115.392
11
65.2137
21
-115.297
0
LINE
8
BLACK
6
CONTINUOUS
10
65.2137
20
-115.297
11
65.4994
21
-115.297
0
LINE
8
BLACK
6
CONTINUOUS
10
65.4994
20
-115.297
11
65.6899
21
-115.392
0
LINE
8
BLACK
6
CONTINUOUS
10
65.6899
20
-115.392
11
65.7852
21
-115.582
0
LINE
8
BLACK
6
CONTINUOUS
10
65.7852
20
-115.582
11
65.7852
21
-116.63
0
LINE
8
BLACK
6
CONTINUOUS
10
69.6899
20
-114.535
11
67.9756
21
-117.106
0
LINE
8
BLACK
6
CONTINUOUS
10
72.2613
20
-114.63
11
72.4518
21
-114.63
0
LINE
8
BLACK
6
CONTINUOUS
10
72.4518
20
-114.63
11
72.6423
21
-114.725
0
LINE
8
BLACK
6
CONTINUOUS
10
72.6423
20
-114.725
11
72.7375
21
-114.82
0
LINE
8
BLACK
6
CONTINUOUS
10
72.7375
20
-114.82
11
72.8328
21
-115.011
0
LINE
8
BLACK
6
CONTINUOUS
10
72.8328
20
-115.011
11
72.928
21
-115.392
0
LINE
8
BLACK
6
CONTINUOUS
10
72.928
20
-115.392
11
72.928
21
-115.868
0
LINE
8
BLACK
6
CONTINUOUS
10
72.928
20
-115.868
11
72.8328
21
-116.249
0
LINE
8
BLACK
6
CONTINUOUS
10
72.8328
20
-116.249
11
72.7375
21
-116.439
0
LINE
8
BLACK
6
CONTINUOUS
10
72.7375
20
-116.439
11
72.6423
21
-116.535
0
LINE
8
BLACK
6
CONTINUOUS
10
72.6423
20
-116.535
11
72.4518
21
-116.63
0
LINE
8
BLACK
6
CONTINUOUS
10
72.4518
20
-116.63
11
72.2613
21
-116.63
0
LINE
8
BLACK
6
CONTINUOUS
10
72.2613
20
-116.63
11
72.0709
21
-116.535
0
LINE
8
BLACK
6
CONTINUOUS
10
72.0709
20
-116.535
11
71.9756
21
-116.439
0
LINE
8
BLACK
6
CONTINUOUS
10
71.9756
20
-116.439
11
71.8804
21
-116.249
0
LINE
8
BLACK
6
CONTINUOUS
10
71.8804
20
-116.249
11
71.7852
21
-115.868
0
LINE
8
BLACK
6
CONTINUOUS
10
71.7852
20
-115.868
11
71.7852
21
-115.392
0
LINE
8
BLACK
6
CONTINUOUS
10
71.7852
20
-115.392
11
71.8804
21
-115.011
0
LINE
8
BLACK
6
CONTINUOUS
10
71.8804
20
-115.011
11
71.9756
21
-114.82
0
LINE
8
BLACK
6
CONTINUOUS
10
71.9756
20
-114.82
11
72.0709
21
-114.725
0
LINE
8
BLACK
6
CONTINUOUS
10
72.0709
20
-114.725
11
72.2613
21
-114.63
0
LINE
8
BLACK
6
CONTINUOUS
10
73.7852
20
-116.439
11
73.8804
21
-116.535
0
LINE
8
BLACK
6
CONTINUOUS
10
73.8804
20
-116.535
11
73.7852
21
-116.63
0
LINE
8
BLACK
6
CONTINUOUS
10
73.7852
20
-116.63
11
73.6899
21
-116.535
0
LINE
8
BLACK
6
CONTINUOUS
10
73.6899
20
-116.535
11
73.7852
21
-116.439
0
LINE
8
BLACK
6
CONTINUOUS
10
73.7852
20
-116.439
11
73.7852
21
-116.63
0
LINE
8
BLACK
6
CONTINUOUS
10
75.1185
20
-114.63
11
75.309
21
-114.63
0
LINE
8
BLACK
6
CONTINUOUS
10
75.309
20
-114.63
11
75.4994
21
-114.725
0
LINE
8
BLACK
6
CONTINUOUS
10
75.4994
20
-114.725
11
75.5947
21
-114.82
0
LINE
8
BLACK
6
CONTINUOUS
10
75.5947
20
-114.82
11
75.6899
21
-115.011
0
LINE
8
BLACK
6
CONTINUOUS
10
75.6899
20
-115.011
11
75.7852
21
-115.392
0
LINE
8
BLACK
6
CONTINUOUS
10
75.7852
20
-115.392
11
75.7852
21
-115.868
0
LINE
8
BLACK
6
CONTINUOUS
10
75.7852
20
-115.868
11
75.6899
21
-116.249
0
LINE
8
BLACK
6
CONTINUOUS
10
75.6899
20
-116.249
11
75.5947
21
-116.439
0
LINE
8
BLACK
6
CONTINUOUS
10
75.5947
20
-116.439
11
75.4994
21
-116.535
0
LINE
8
BLACK
6
CONTINUOUS
10
75.4994
20
-116.535
11
75.309
21
-116.63
0
LINE
8
BLACK
6
CONTINUOUS
10
75.309
20
-116.63
11
75.1185
21
-116.63
0
LINE
8
BLACK
6
CONTINUOUS
10
75.1185
20
-116.63
11
74.928
21
-116.535
0
LINE
8
BLACK
6
CONTINUOUS
10
74.928
20
-116.535
11
74.8328
21
-116.439
0
LINE
8
BLACK
6
CONTINUOUS
10
74.8328
20
-116.439
11
74.7375
21
-116.249
0
LINE
8
BLACK
6
CONTINUOUS
10
74.7375
20
-116.249
11
74.6423
21
-115.868
0
LINE
8
BLACK
6
CONTINUOUS
10
74.6423
20
-115.868
11
74.6423
21
-115.392
0
LINE
8
BLACK
6
CONTINUOUS
10
74.6423
20
-115.392
11
74.7375
21
-115.011
0
LINE
8
BLACK
6
CONTINUOUS
10
74.7375
20
-115.011
11
74.8328
21
-114.82
0
LINE
8
BLACK
6
CONTINUOUS
10
74.8328
20
-114.82
11
74.928
21
-114.725
0
LINE
8
BLACK
6
CONTINUOUS
10
74.928
20
-114.725
11
75.1185
21
-114.63
0
LINE
8
BLACK
6
CONTINUOUS
10
76.4518
20
-114.63
11
77.6899
21
-114.63
0
LINE
8
BLACK
6
CONTINUOUS
10
77.6899
20
-114.63
11
77.0232
21
-115.392
0
LINE
8
BLACK
6
CONTINUOUS
10
77.0232
20
-115.392
11
77.309
21
-115.392
0
LINE
8
BLACK
6
CONTINUOUS
10
77.309
20
-115.392
11
77.4994
21
-115.487
0
LINE
8
BLACK
6
CONTINUOUS
10
77.4994
20
-115.487
11
77.5947
21
-115.582
0
LINE
8
BLACK
6
CONTINUOUS
10
77.5947
20
-115.582
11
77.6899
21
-115.773
0
LINE
8
BLACK
6
CONTINUOUS
10
77.6899
20
-115.773
11
77.6899
21
-116.249
0
LINE
8
BLACK
6
CONTINUOUS
10
77.6899
20
-116.249
11
77.5947
21
-116.439
0
LINE
8
BLACK
6
CONTINUOUS
10
77.5947
20
-116.439
11
77.4994
21
-116.535
0
LINE
8
BLACK
6
CONTINUOUS
10
77.4994
20
-116.535
11
77.309
21
-116.63
0
LINE
8
BLACK
6
CONTINUOUS
10
77.309
20
-116.63
11
76.7375
21
-116.63
0
LINE
8
BLACK
6
CONTINUOUS
10
76.7375
20
-116.63
11
76.5471
21
-116.535
0
LINE
8
BLACK
6
CONTINUOUS
10
76.5471
20
-116.535
11
76.4518
21
-116.439
0
LINE
8
BLACK
6
CONTINUOUS
10
78.6423
20
-116.63
11
79.0232
21
-116.63
0
LINE
8
BLACK
6
CONTINUOUS
10
79.0232
20
-116.63
11
79.2137
21
-116.535
0
LINE
8
BLACK
6
CONTINUOUS
10
79.2137
20
-116.535
11
79.309
21
-116.439
0
LINE
8
BLACK
6
CONTINUOUS
10
79.309
20
-116.439
11
79.4994
21
-116.154
0
LINE
8
BLACK
6
CONTINUOUS
10
79.4994
20
-116.154
11
79.5947
21
-115.773
0
LINE
8
BLACK
6
CONTINUOUS
10
79.5947
20
-115.773
11
79.5947
21
-115.011
0
LINE
8
BLACK
6
CONTINUOUS
10
79.5947
20
-115.011
11
79.4994
21
-114.82
0
LINE
8
BLACK
6
CONTINUOUS
10
79.4994
20
-114.82
11
79.4042
21
-114.725
0
LINE
8
BLACK
6
CONTINUOUS
10
79.4042
20
-114.725
11
79.2137
21
-114.63
0
LINE
8
BLACK
6
CONTINUOUS
10
79.2137
20
-114.63
11
78.8328
21
-114.63
0
LINE
8
BLACK
6
CONTINUOUS
10
78.8328
20
-114.63
11
78.6423
21
-114.725
0
LINE
8
BLACK
6
CONTINUOUS
10
78.6423
20
-114.725
11
78.5471
21
-114.82
0
LINE
8
BLACK
6
CONTINUOUS
10
78.5471
20
-114.82
11
78.4518
21
-115.011
0
LINE
8
BLACK
6
CONTINUOUS
10
78.4518
20
-115.011
11
78.4518
21
-115.487
0
LINE
8
BLACK
6
CONTINUOUS
10
78.4518
20
-115.487
11
78.5471
21
-115.677
0
LINE
8
BLACK
6
CONTINUOUS
10
78.5471
20
-115.677
11
78.6423
21
-115.773
0
LINE
8
BLACK
6
CONTINUOUS
10
78.6423
20
-115.773
11
78.8328
21
-115.868
0
LINE
8
BLACK
6
CONTINUOUS
10
78.8328
20
-115.868
11
79.2137
21
-115.868
0
LINE
8
BLACK
6
CONTINUOUS
10
79.2137
20
-115.868
11
79.4042
21
-115.773
0
LINE
8
BLACK
6
CONTINUOUS
10
79.4042
20
-115.773
11
79.4994
21
-115.677
0
LINE
8
BLACK
6
CONTINUOUS
10
79.4994
20
-115.677
11
79.5947
21
-115.487
0
LINE
8
BLACK
6
CONTINUOUS
10
81.309
20
-115.297
11
81.309
21
-116.63
0
LINE
8
BLACK
6
CONTINUOUS
10
80.8328
20
-114.535
11
80.3566
21
-115.963
0
LINE
8
BLACK
6
CONTINUOUS
10
80.3566
20
-115.963
11
81.5947
21
-115.963
0
LINE
8
BLACK
6
CONTINUOUS
10
82.2613
20
-114.63
11
82.2613
21
-115.011
0
LINE
8
BLACK
6
CONTINUOUS
10
83.0232
20
-114.63
11
83.0232
21
-115.011
0
LINE
8
BLACK
6
CONTINUOUS
10
85.9756
20
-117.392
11
85.8804
21
-117.297
0
LINE
8
BLACK
6
CONTINUOUS
10
85.8804
20
-117.297
11
85.6899
21
-117.011
0
LINE
8
BLACK
6
CONTINUOUS
10
85.6899
20
-117.011
11
85.5947
21
-116.82
0
LINE
8
BLACK
6
CONTINUOUS
10
85.5947
20
-116.82
11
85.4994
21
-116.535
0
LINE
8
BLACK
6
CONTINUOUS
10
85.4994
20
-116.535
11
85.4042
21
-116.058
0
LINE
8
BLACK
6
CONTINUOUS
10
85.4042
20
-116.058
11
85.4042
21
-115.677
0
LINE
8
BLACK
6
CONTINUOUS
10
85.4042
20
-115.677
11
85.4994
21
-115.201
0
LINE
8
BLACK
6
CONTINUOUS
10
85.4994
20
-115.201
11
85.5947
21
-114.916
0
LINE
8
BLACK
6
CONTINUOUS
10
85.5947
20
-114.916
11
85.6899
21
-114.725
0
LINE
8
BLACK
6
CONTINUOUS
10
85.6899
20
-114.725
11
85.8804
21
-114.439
0
LINE
8
BLACK
6
CONTINUOUS
10
85.8804
20
-114.439
11
85.9756
21
-114.344
0
LINE
8
BLACK
6
CONTINUOUS
10
86.6423
20
-114.82
11
86.7375
21
-114.725
0
LINE
8
BLACK
6
CONTINUOUS
10
86.7375
20
-114.725
11
86.928
21
-114.63
0
LINE
8
BLACK
6
CONTINUOUS
10
86.928
20
-114.63
11
87.4042
21
-114.63
0
LINE
8
BLACK
6
CONTINUOUS
10
87.4042
20
-114.63
11
87.5947
21
-114.725
0
LINE
8
BLACK
6
CONTINUOUS
10
87.5947
20
-114.725
11
87.6899
21
-114.82
0
LINE
8
BLACK
6
CONTINUOUS
10
87.6899
20
-114.82
11
87.7852
21
-115.011
0
LINE
8
BLACK
6
CONTINUOUS
10
87.7852
20
-115.011
11
87.7852
21
-115.201
0
LINE
8
BLACK
6
CONTINUOUS
10
87.7852
20
-115.201
11
87.6899
21
-115.487
0
LINE
8
BLACK
6
CONTINUOUS
10
87.6899
20
-115.487
11
86.5471
21
-116.63
0
LINE
8
BLACK
6
CONTINUOUS
10
86.5471
20
-116.63
11
87.7852
21
-116.63
0
LINE
8
BLACK
6
CONTINUOUS
10
89.4994
20
-114.63
11
89.1185
21
-114.63
0
LINE
8
BLACK
6
CONTINUOUS
10
89.1185
20
-114.63
11
88.928
21
-114.725
0
LINE
8
BLACK
6
CONTINUOUS
10
88.928
20
-114.725
11
88.8328
21
-114.82
0
LINE
8
BLACK
6
CONTINUOUS
10
88.8328
20
-114.82
11
88.6423
21
-115.106
0
LINE
8
BLACK
6
CONTINUOUS
10
88.6423
20
-115.106
11
88.5471
21
-115.487
0
LINE
8
BLACK
6
CONTINUOUS
10
88.5471
20
-115.487
11
88.5471
21
-116.249
0
LINE
8
BLACK
6
CONTINUOUS
10
88.5471
20
-116.249
11
88.6423
21
-116.439
0
LINE
8
BLACK
6
CONTINUOUS
10
88.6423
20
-116.439
11
88.7375
21
-116.535
0
LINE
8
BLACK
6
CONTINUOUS
10
88.7375
20
-116.535
11
88.928
21
-116.63
0
LINE
8
BLACK
6
CONTINUOUS
10
88.928
20
-116.63
11
89.309
21
-116.63
0
LINE
8
BLACK
6
CONTINUOUS
10
89.309
20
-116.63
11
89.4994
21
-116.535
0
LINE
8
BLACK
6
CONTINUOUS
10
89.4994
20
-116.535
11
89.5947
21
-116.439
0
LINE
8
BLACK
6
CONTINUOUS
10
89.5947
20
-116.439
11
89.6899
21
-116.249
0
LINE
8
BLACK
6
CONTINUOUS
10
89.6899
20
-116.249
11
89.6899
21
-115.773
0
LINE
8
BLACK
6
CONTINUOUS
10
89.6899
20
-115.773
11
89.5947
21
-115.582
0
LINE
8
BLACK
6
CONTINUOUS
10
89.5947
20
-115.582
11
89.4994
21
-115.487
0
LINE
8
BLACK
6
CONTINUOUS
10
89.4994
20
-115.487
11
89.309
21
-115.392
0
LINE
8
BLACK
6
CONTINUOUS
10
89.309
20
-115.392
11
88.928
21
-115.392
0
LINE
8
BLACK
6
CONTINUOUS
10
88.928
20
-115.392
11
88.7375
21
-115.487
0
LINE
8
BLACK
6
CONTINUOUS
10
88.7375
20
-115.487
11
88.6423
21
-115.582
0
LINE
8
BLACK
6
CONTINUOUS
10
88.6423
20
-115.582
11
88.5471
21
-115.773
0
LINE
8
BLACK
6
CONTINUOUS
10
92.0709
20
-116.63
11
92.0709
21
-114.63
0
LINE
8
BLACK
6
CONTINUOUS
10
92.928
20
-116.63
11
92.928
21
-115.582
0
LINE
8
BLACK
6
CONTINUOUS
10
92.928
20
-115.582
11
92.8328
21
-115.392
0
LINE
8
BLACK
6
CONTINUOUS
10
92.8328
20
-115.392
11
92.6423
21
-115.297
0
LINE
8
BLACK
6
CONTINUOUS
10
92.6423
20
-115.297
11
92.3566
21
-115.297
0
LINE
8
BLACK
6
CONTINUOUS
10
92.3566
20
-115.297
11
92.1661
21
-115.392
0
LINE
8
BLACK
6
CONTINUOUS
10
92.1661
20
-115.392
11
92.0709
21
-115.487
0
LINE
8
BLACK
6
CONTINUOUS
10
94.1661
20
-116.63
11
93.9756
21
-116.535
0
LINE
8
BLACK
6
CONTINUOUS
10
93.9756
20
-116.535
11
93.8804
21
-116.439
0
LINE
8
BLACK
6
CONTINUOUS
10
93.8804
20
-116.439
11
93.7852
21
-116.249
0
LINE
8
BLACK
6
CONTINUOUS
10
93.7852
20
-116.249
11
93.7852
21
-115.677
0
LINE
8
BLACK
6
CONTINUOUS
10
93.7852
20
-115.677
11
93.8804
21
-115.487
0
LINE
8
BLACK
6
CONTINUOUS
10
93.8804
20
-115.487
11
93.9756
21
-115.392
0
LINE
8
BLACK
6
CONTINUOUS
10
93.9756
20
-115.392
11
94.1661
21
-115.297
0
LINE
8
BLACK
6
CONTINUOUS
10
94.1661
20
-115.297
11
94.4518
21
-115.297
0
LINE
8
BLACK
6
CONTINUOUS
10
94.4518
20
-115.297
11
94.6423
21
-115.392
0
LINE
8
BLACK
6
CONTINUOUS
10
94.6423
20
-115.392
11
94.7375
21
-115.487
0
LINE
8
BLACK
6
CONTINUOUS
10
94.7375
20
-115.487
11
94.8328
21
-115.677
0
LINE
8
BLACK
6
CONTINUOUS
10
94.8328
20
-115.677
11
94.8328
21
-116.249
0
LINE
8
BLACK
6
CONTINUOUS
10
94.8328
20
-116.249
11
94.7375
21
-116.439
0
LINE
8
BLACK
6
CONTINUOUS
10
94.7375
20
-116.439
11
94.6423
21
-116.535
0
LINE
8
BLACK
6
CONTINUOUS
10
94.6423
20
-116.535
11
94.4518
21
-116.63
0
LINE
8
BLACK
6
CONTINUOUS
10
94.4518
20
-116.63
11
94.1661
21
-116.63
0
LINE
8
BLACK
6
CONTINUOUS
10
95.9756
20
-116.63
11
95.7852
21
-116.535
0
LINE
8
BLACK
6
CONTINUOUS
10
95.7852
20
-116.535
11
95.6899
21
-116.344
0
LINE
8
BLACK
6
CONTINUOUS
10
95.6899
20
-116.344
11
95.6899
21
-114.63
0
LINE
8
BLACK
6
CONTINUOUS
10
97.4994
20
-116.535
11
97.309
21
-116.63
0
LINE
8
BLACK
6
CONTINUOUS
10
97.309
20
-116.63
11
96.928
21
-116.63
0
LINE
8
BLACK
6
CONTINUOUS
10
96.928
20
-116.63
11
96.7375
21
-116.535
0
LINE
8
BLACK
6
CONTINUOUS
10
96.7375
20
-116.535
11
96.6423
21
-116.344
0
LINE
8
BLACK
6
CONTINUOUS
10
96.6423
20
-116.344
11
96.6423
21
-115.582
0
LINE
8
BLACK
6
CONTINUOUS
10
96.6423
20
-115.582
11
96.7375
21
-115.392
0
LINE
8
BLACK
6
CONTINUOUS
10
96.7375
20
-115.392
11
96.928
21
-115.297
0
LINE
8
BLACK
6
CONTINUOUS
10
96.928
20
-115.297
11
97.309
21
-115.297
0
LINE
8
BLACK
6
CONTINUOUS
10
97.309
20
-115.297
11
97.4994
21
-115.392
0
LINE
8
BLACK
6
CONTINUOUS
10
97.4994
20
-115.392
11
97.5947
21
-115.582
0
LINE
8
BLACK
6
CONTINUOUS
10
97.5947
20
-115.582
11
97.5947
21
-115.773
0
LINE
8
BLACK
6
CONTINUOUS
10
97.5947
20
-115.773
11
96.6423
21
-115.963
0
LINE
8
BLACK
6
CONTINUOUS
10
98.3566
20
-116.535
11
98.5471
21
-116.63
0
LINE
8
BLACK
6
CONTINUOUS
10
98.5471
20
-116.63
11
98.928
21
-116.63
0
LINE
8
BLACK
6
CONTINUOUS
10
98.928
20
-116.63
11
99.1185
21
-116.535
0
LINE
8
BLACK
6
CONTINUOUS
10
99.1185
20
-116.535
11
99.2137
21
-116.344
0
LINE
8
BLACK
6
CONTINUOUS
10
99.2137
20
-116.344
11
99.2137
21
-116.249
0
LINE
8
BLACK
6
CONTINUOUS
10
99.2137
20
-116.249
11
99.1185
21
-116.058
0
LINE
8
BLACK
6
CONTINUOUS
10
99.1185
20
-116.058
11
98.928
21
-115.963
0
LINE
8
BLACK
6
CONTINUOUS
10
98.928
20
-115.963
11
98.6423
21
-115.963
0
LINE
8
BLACK
6
CONTINUOUS
10
98.6423
20
-115.963
11
98.4518
21
-115.868
0
LINE
8
BLACK
6
CONTINUOUS
10
98.4518
20
-115.868
11
98.3566
21
-115.677
0
LINE
8
BLACK
6
CONTINUOUS
10
98.3566
20
-115.677
11
98.3566
21
-115.582
0
LINE
8
BLACK
6
CONTINUOUS
10
98.3566
20
-115.582
11
98.4518
21
-115.392
0
LINE
8
BLACK
6
CONTINUOUS
10
98.4518
20
-115.392
11
98.6423
21
-115.297
0
LINE
8
BLACK
6
CONTINUOUS
10
98.6423
20
-115.297
11
98.928
21
-115.297
0
LINE
8
BLACK
6
CONTINUOUS
10
98.928
20
-115.297
11
99.1185
21
-115.392
0
LINE
8
BLACK
6
CONTINUOUS
10
99.8804
20
-117.392
11
99.9756
21
-117.297
0
LINE
8
BLACK
6
CONTINUOUS
10
99.9756
20
-117.297
11
100.166
21
-117.011
0
LINE
8
BLACK
6
CONTINUOUS
10
100.166
20
-117.011
11
100.261
21
-116.82
0
LINE
8
BLACK
6
CONTINUOUS
10
100.261
20
-116.82
11
100.357
21
-116.535
0
LINE
8
BLACK
6
CONTINUOUS
10
100.357
20
-116.535
11
100.452
21
-116.058
0
LINE
8
BLACK
6
CONTINUOUS
10
100.452
20
-116.058
11
100.452
21
-115.677
0
LINE
8
BLACK
6
CONTINUOUS
10
100.452
20
-115.677
11
100.357
21
-115.201
0
LINE
8
BLACK
6
CONTINUOUS
10
100.357
20
-115.201
11
100.261
21
-114.916
0
LINE
8
BLACK
6
CONTINUOUS
10
100.261
20
-114.916
11
100.166
21
-114.725
0
LINE
8
BLACK
6
CONTINUOUS
10
100.166
20
-114.725
11
99.9756
21
-114.439
0
LINE
8
BLACK
6
CONTINUOUS
10
99.9756
20
-114.439
11
99.8804
21
-114.344
0
LINE
8
BLACK
6
CONTINUOUS
10
49.225
20
-117.355
11
49.225
21
-119.355
0
LINE
8
BLACK
6
CONTINUOUS
10
48.225
20
-118.355
11
50.225
21
-118.355
0
LINE
8
BLACK
6
CONTINUOUS
10
52.6423
20
-117.27
11
53.8804
21
-117.27
0
LINE
8
BLACK
6
CONTINUOUS
10
53.8804
20
-117.27
11
53.2137
21
-118.032
0
LINE
8
BLACK
6
CONTINUOUS
10
53.2137
20
-118.032
11
53.4994
21
-118.032
0
LINE
8
BLACK
6
CONTINUOUS
10
53.4994
20
-118.032
11
53.6899
21
-118.127
0
LINE
8
BLACK
6
CONTINUOUS
10
53.6899
20
-118.127
11
53.7851
21
-118.222
0
LINE
8
BLACK
6
CONTINUOUS
10
53.7851
20
-118.222
11
53.8804
21
-118.413
0
LINE
8
BLACK
6
CONTINUOUS
10
53.8804
20
-118.413
11
53.8804
21
-118.889
0
LINE
8
BLACK
6
CONTINUOUS
10
53.8804
20
-118.889
11
53.7851
21
-119.079
0
LINE
8
BLACK
6
CONTINUOUS
10
53.7851
20
-119.079
11
53.6899
21
-119.175
0
LINE
8
BLACK
6
CONTINUOUS
10
53.6899
20
-119.175
11
53.4994
21
-119.27
0
LINE
8
BLACK
6
CONTINUOUS
10
53.4994
20
-119.27
11
52.928
21
-119.27
0
LINE
8
BLACK
6
CONTINUOUS
10
52.928
20
-119.27
11
52.7375
21
-119.175
0
LINE
8
BLACK
6
CONTINUOUS
10
52.7375
20
-119.175
11
52.6423
21
-119.079
0
LINE
8
BLACK
6
CONTINUOUS
10
54.7375
20
-119.079
11
54.8328
21
-119.175
0
LINE
8
BLACK
6
CONTINUOUS
10
54.8328
20
-119.175
11
54.7375
21
-119.27
0
LINE
8
BLACK
6
CONTINUOUS
10
54.7375
20
-119.27
11
54.6423
21
-119.175
0
LINE
8
BLACK
6
CONTINUOUS
10
54.6423
20
-119.175
11
54.7375
21
-119.079
0
LINE
8
BLACK
6
CONTINUOUS
10
54.7375
20
-119.079
11
54.7375
21
-119.27
0
LINE
8
BLACK
6
CONTINUOUS
10
55.5947
20
-117.46
11
55.6899
21
-117.365
0
LINE
8
BLACK
6
CONTINUOUS
10
55.6899
20
-117.365
11
55.8804
21
-117.27
0
LINE
8
BLACK
6
CONTINUOUS
10
55.8804
20
-117.27
11
56.3566
21
-117.27
0
LINE
8
BLACK
6
CONTINUOUS
10
56.3566
20
-117.27
11
56.5471
21
-117.365
0
LINE
8
BLACK
6
CONTINUOUS
10
56.5471
20
-117.365
11
56.6423
21
-117.46
0
LINE
8
BLACK
6
CONTINUOUS
10
56.6423
20
-117.46
11
56.7375
21
-117.651
0
LINE
8
BLACK
6
CONTINUOUS
10
56.7375
20
-117.651
11
56.7375
21
-117.841
0
LINE
8
BLACK
6
CONTINUOUS
10
56.7375
20
-117.841
11
56.6423
21
-118.127
0
LINE
8
BLACK
6
CONTINUOUS
10
56.6423
20
-118.127
11
55.4994
21
-119.27
0
LINE
8
BLACK
6
CONTINUOUS
10
55.4994
20
-119.27
11
56.7375
21
-119.27
0
LINE
8
BLACK
6
CONTINUOUS
10
57.9756
20
-117.27
11
58.1661
21
-117.27
0
LINE
8
BLACK
6
CONTINUOUS
10
58.1661
20
-117.27
11
58.3566
21
-117.365
0
LINE
8
BLACK
6
CONTINUOUS
10
58.3566
20
-117.365
11
58.4518
21
-117.46
0
LINE
8
BLACK
6
CONTINUOUS
10
58.4518
20
-117.46
11
58.5471
21
-117.651
0
LINE
8
BLACK
6
CONTINUOUS
10
58.5471
20
-117.651
11
58.6423
21
-118.032
0
LINE
8
BLACK
6
CONTINUOUS
10
58.6423
20
-118.032
11
58.6423
21
-118.508
0
LINE
8
BLACK
6
CONTINUOUS
10
58.6423
20
-118.508
11
58.5471
21
-118.889
0
LINE
8
BLACK
6
CONTINUOUS
10
58.5471
20
-118.889
11
58.4518
21
-119.079
0
LINE
8
BLACK
6
CONTINUOUS
10
58.4518
20
-119.079
11
58.3566
21
-119.175
0
LINE
8
BLACK
6
CONTINUOUS
10
58.3566
20
-119.175
11
58.1661
21
-119.27
0
LINE
8
BLACK
6
CONTINUOUS
10
58.1661
20
-119.27
11
57.9756
21
-119.27
0
LINE
8
BLACK
6
CONTINUOUS
10
57.9756
20
-119.27
11
57.7851
21
-119.175
0
LINE
8
BLACK
6
CONTINUOUS
10
57.7851
20
-119.175
11
57.6899
21
-119.079
0
LINE
8
BLACK
6
CONTINUOUS
10
57.6899
20
-119.079
11
57.5947
21
-118.889
0
LINE
8
BLACK
6
CONTINUOUS
10
57.5947
20
-118.889
11
57.4994
21
-118.508
0
LINE
8
BLACK
6
CONTINUOUS
10
57.4994
20
-118.508
11
57.4994
21
-118.032
0
LINE
8
BLACK
6
CONTINUOUS
10
57.4994
20
-118.032
11
57.5947
21
-117.651
0
LINE
8
BLACK
6
CONTINUOUS
10
57.5947
20
-117.651
11
57.6899
21
-117.46
0
LINE
8
BLACK
6
CONTINUOUS
10
57.6899
20
-117.46
11
57.7851
21
-117.365
0
LINE
8
BLACK
6
CONTINUOUS
10
57.7851
20
-117.365
11
57.9756
21
-117.27
0
LINE
8
BLACK
6
CONTINUOUS
10
59.8804
20
-117.27
11
60.0709
21
-117.27
0
LINE
8
BLACK
6
CONTINUOUS
10
60.0709
20
-117.27
11
60.2613
21
-117.365
0
LINE
8
BLACK
6
CONTINUOUS
10
60.2613
20
-117.365
11
60.3566
21
-117.46
0
LINE
8
BLACK
6
CONTINUOUS
10
60.3566
20
-117.46
11
60.4518
21
-117.651
0
LINE
8
BLACK
6
CONTINUOUS
10
60.4518
20
-117.651
11
60.5471
21
-118.032
0
LINE
8
BLACK
6
CONTINUOUS
10
60.5471
20
-118.032
11
60.5471
21
-118.508
0
LINE
8
BLACK
6
CONTINUOUS
10
60.5471
20
-118.508
11
60.4518
21
-118.889
0
LINE
8
BLACK
6
CONTINUOUS
10
60.4518
20
-118.889
11
60.3566
21
-119.079
0
LINE
8
BLACK
6
CONTINUOUS
10
60.3566
20
-119.079
11
60.2613
21
-119.175
0
LINE
8
BLACK
6
CONTINUOUS
10
60.2613
20
-119.175
11
60.0709
21
-119.27
0
LINE
8
BLACK
6
CONTINUOUS
10
60.0709
20
-119.27
11
59.8804
21
-119.27
0
LINE
8
BLACK
6
CONTINUOUS
10
59.8804
20
-119.27
11
59.6899
21
-119.175
0
LINE
8
BLACK
6
CONTINUOUS
10
59.6899
20
-119.175
11
59.5947
21
-119.079
0
LINE
8
BLACK
6
CONTINUOUS
10
59.5947
20
-119.079
11
59.4994
21
-118.889
0
LINE
8
BLACK
6
CONTINUOUS
10
59.4994
20
-118.889
11
59.4042
21
-118.508
0
LINE
8
BLACK
6
CONTINUOUS
10
59.4042
20
-118.508
11
59.4042
21
-118.032
0
LINE
8
BLACK
6
CONTINUOUS
10
59.4042
20
-118.032
11
59.4994
21
-117.651
0
LINE
8
BLACK
6
CONTINUOUS
10
59.4994
20
-117.651
11
59.5947
21
-117.46
0
LINE
8
BLACK
6
CONTINUOUS
10
59.5947
20
-117.46
11
59.6899
21
-117.365
0
LINE
8
BLACK
6
CONTINUOUS
10
59.6899
20
-117.365
11
59.8804
21
-117.27
0
LINE
8
BLACK
6
CONTINUOUS
10
61.4042
20
-119.27
11
61.4042
21
-117.937
0
LINE
8
BLACK
6
CONTINUOUS
10
61.4042
20
-118.127
11
61.4994
21
-118.032
0
LINE
8
BLACK
6
CONTINUOUS
10
61.4994
20
-118.032
11
61.6899
21
-117.937
0
LINE
8
BLACK
6
CONTINUOUS
10
61.6899
20
-117.937
11
61.9756
21
-117.937
0
LINE
8
BLACK
6
CONTINUOUS
10
61.9756
20
-117.937
11
62.1661
21
-118.032
0
LINE
8
BLACK
6
CONTINUOUS
10
62.1661
20
-118.032
11
62.2613
21
-118.222
0
LINE
8
BLACK
6
CONTINUOUS
10
62.2613
20
-118.222
11
62.2613
21
-119.27
0
LINE
8
BLACK
6
CONTINUOUS
10
62.2613
20
-118.222
11
62.3566
21
-118.032
0
LINE
8
BLACK
6
CONTINUOUS
10
62.3566
20
-118.032
11
62.5471
21
-117.937
0
LINE
8
BLACK
6
CONTINUOUS
10
62.5471
20
-117.937
11
62.8328
21
-117.937
0
LINE
8
BLACK
6
CONTINUOUS
10
62.8328
20
-117.937
11
63.0232
21
-118.032
0
LINE
8
BLACK
6
CONTINUOUS
10
63.0232
20
-118.032
11
63.1185
21
-118.222
0
LINE
8
BLACK
6
CONTINUOUS
10
63.1185
20
-118.222
11
63.1185
21
-119.27
0
LINE
8
BLACK
6
CONTINUOUS
10
64.0709
20
-119.27
11
64.0709
21
-117.937
0
LINE
8
BLACK
6
CONTINUOUS
10
64.0709
20
-118.127
11
64.1661
21
-118.032
0
LINE
8
BLACK
6
CONTINUOUS
10
64.1661
20
-118.032
11
64.3566
21
-117.937
0
LINE
8
BLACK
6
CONTINUOUS
10
64.3566
20
-117.937
11
64.6423
21
-117.937
0
LINE
8
BLACK
6
CONTINUOUS
10
64.6423
20
-117.937
11
64.8328
21
-118.032
0
LINE
8
BLACK
6
CONTINUOUS
10
64.8328
20
-118.032
11
64.928
21
-118.222
0
LINE
8
BLACK
6
CONTINUOUS
10
64.928
20
-118.222
11
64.928
21
-119.27
0
LINE
8
BLACK
6
CONTINUOUS
10
64.928
20
-118.222
11
65.0232
21
-118.032
0
LINE
8
BLACK
6
CONTINUOUS
10
65.0232
20
-118.032
11
65.2137
21
-117.937
0
LINE
8
BLACK
6
CONTINUOUS
10
65.2137
20
-117.937
11
65.4994
21
-117.937
0
LINE
8
BLACK
6
CONTINUOUS
10
65.4994
20
-117.937
11
65.6899
21
-118.032
0
LINE
8
BLACK
6
CONTINUOUS
10
65.6899
20
-118.032
11
65.7852
21
-118.222
0
LINE
8
BLACK
6
CONTINUOUS
10
65.7852
20
-118.222
11
65.7852
21
-119.27
0
LINE
8
BLACK
6
CONTINUOUS
10
69.6899
20
-117.175
11
67.9756
21
-119.746
0
LINE
8
BLACK
6
CONTINUOUS
10
72.2613
20
-117.27
11
72.4518
21
-117.27
0
LINE
8
BLACK
6
CONTINUOUS
10
72.4518
20
-117.27
11
72.6423
21
-117.365
0
LINE
8
BLACK
6
CONTINUOUS
10
72.6423
20
-117.365
11
72.7375
21
-117.46
0
LINE
8
BLACK
6
CONTINUOUS
10
72.7375
20
-117.46
11
72.8328
21
-117.651
0
LINE
8
BLACK
6
CONTINUOUS
10
72.8328
20
-117.651
11
72.928
21
-118.032
0
LINE
8
BLACK
6
CONTINUOUS
10
72.928
20
-118.032
11
72.928
21
-118.508
0
LINE
8
BLACK
6
CONTINUOUS
10
72.928
20
-118.508
11
72.8328
21
-118.889
0
LINE
8
BLACK
6
CONTINUOUS
10
72.8328
20
-118.889
11
72.7375
21
-119.079
0
LINE
8
BLACK
6
CONTINUOUS
10
72.7375
20
-119.079
11
72.6423
21
-119.175
0
LINE
8
BLACK
6
CONTINUOUS
10
72.6423
20
-119.175
11
72.4518
21
-119.27
0
LINE
8
BLACK
6
CONTINUOUS
10
72.4518
20
-119.27
11
72.2613
21
-119.27
0
LINE
8
BLACK
6
CONTINUOUS
10
72.2613
20
-119.27
11
72.0709
21
-119.175
0
LINE
8
BLACK
6
CONTINUOUS
10
72.0709
20
-119.175
11
71.9756
21
-119.079
0
LINE
8
BLACK
6
CONTINUOUS
10
71.9756
20
-119.079
11
71.8804
21
-118.889
0
LINE
8
BLACK
6
CONTINUOUS
10
71.8804
20
-118.889
11
71.7852
21
-118.508
0
LINE
8
BLACK
6
CONTINUOUS
10
71.7852
20
-118.508
11
71.7852
21
-118.032
0
LINE
8
BLACK
6
CONTINUOUS
10
71.7852
20
-118.032
11
71.8804
21
-117.651
0
LINE
8
BLACK
6
CONTINUOUS
10
71.8804
20
-117.651
11
71.9756
21
-117.46
0
LINE
8
BLACK
6
CONTINUOUS
10
71.9756
20
-117.46
11
72.0709
21
-117.365
0
LINE
8
BLACK
6
CONTINUOUS
10
72.0709
20
-117.365
11
72.2613
21
-117.27
0
LINE
8
BLACK
6
CONTINUOUS
10
73.7852
20
-119.079
11
73.8804
21
-119.175
0
LINE
8
BLACK
6
CONTINUOUS
10
73.8804
20
-119.175
11
73.7852
21
-119.27
0
LINE
8
BLACK
6
CONTINUOUS
10
73.7852
20
-119.27
11
73.6899
21
-119.175
0
LINE
8
BLACK
6
CONTINUOUS
10
73.6899
20
-119.175
11
73.7852
21
-119.079
0
LINE
8
BLACK
6
CONTINUOUS
10
73.7852
20
-119.079
11
73.7852
21
-119.27
0
LINE
8
BLACK
6
CONTINUOUS
10
75.7852
20
-119.27
11
74.6423
21
-119.27
0
LINE
8
BLACK
6
CONTINUOUS
10
75.2137
20
-119.27
11
75.2137
21
-117.27
0
LINE
8
BLACK
6
CONTINUOUS
10
75.2137
20
-117.27
11
75.0232
21
-117.556
0
LINE
8
BLACK
6
CONTINUOUS
10
75.0232
20
-117.556
11
74.8328
21
-117.746
0
LINE
8
BLACK
6
CONTINUOUS
10
74.8328
20
-117.746
11
74.6423
21
-117.841
0
LINE
8
BLACK
6
CONTINUOUS
10
76.5471
20
-117.46
11
76.6423
21
-117.365
0
LINE
8
BLACK
6
CONTINUOUS
10
76.6423
20
-117.365
11
76.8328
21
-117.27
0
LINE
8
BLACK
6
CONTINUOUS
10
76.8328
20
-117.27
11
77.309
21
-117.27
0
LINE
8
BLACK
6
CONTINUOUS
10
77.309
20
-117.27
11
77.4994
21
-117.365
0
LINE
8
BLACK
6
CONTINUOUS
10
77.4994
20
-117.365
11
77.5947
21
-117.46
0
LINE
8
BLACK
6
CONTINUOUS
10
77.5947
20
-117.46
11
77.6899
21
-117.651
0
LINE
8
BLACK
6
CONTINUOUS
10
77.6899
20
-117.651
11
77.6899
21
-117.841
0
LINE
8
BLACK
6
CONTINUOUS
10
77.6899
20
-117.841
11
77.5947
21
-118.127
0
LINE
8
BLACK
6
CONTINUOUS
10
77.5947
20
-118.127
11
76.4518
21
-119.27
0
LINE
8
BLACK
6
CONTINUOUS
10
76.4518
20
-119.27
11
77.6899
21
-119.27
0
LINE
8
BLACK
6
CONTINUOUS
10
79.4042
20
-117.27
11
79.0232
21
-117.27
0
LINE
8
BLACK
6
CONTINUOUS
10
79.0232
20
-117.27
11
78.8328
21
-117.365
0
LINE
8
BLACK
6
CONTINUOUS
10
78.8328
20
-117.365
11
78.7375
21
-117.46
0
LINE
8
BLACK
6
CONTINUOUS
10
78.7375
20
-117.46
11
78.5471
21
-117.746
0
LINE
8
BLACK
6
CONTINUOUS
10
78.5471
20
-117.746
11
78.4518
21
-118.127
0
LINE
8
BLACK
6
CONTINUOUS
10
78.4518
20
-118.127
11
78.4518
21
-118.889
0
LINE
8
BLACK
6
CONTINUOUS
10
78.4518
20
-118.889
11
78.5471
21
-119.079
0
LINE
8
BLACK
6
CONTINUOUS
10
78.5471
20
-119.079
11
78.6423
21
-119.175
0
LINE
8
BLACK
6
CONTINUOUS
10
78.6423
20
-119.175
11
78.8328
21
-119.27
0
LINE
8
BLACK
6
CONTINUOUS
10
78.8328
20
-119.27
11
79.2137
21
-119.27
0
LINE
8
BLACK
6
CONTINUOUS
10
79.2137
20
-119.27
11
79.4042
21
-119.175
0
LINE
8
BLACK
6
CONTINUOUS
10
79.4042
20
-119.175
11
79.4994
21
-119.079
0
LINE
8
BLACK
6
CONTINUOUS
10
79.4994
20
-119.079
11
79.5947
21
-118.889
0
LINE
8
BLACK
6
CONTINUOUS
10
79.5947
20
-118.889
11
79.5947
21
-118.413
0
LINE
8
BLACK
6
CONTINUOUS
10
79.5947
20
-118.413
11
79.4994
21
-118.222
0
LINE
8
BLACK
6
CONTINUOUS
10
79.4994
20
-118.222
11
79.4042
21
-118.127
0
LINE
8
BLACK
6
CONTINUOUS
10
79.4042
20
-118.127
11
79.2137
21
-118.032
0
LINE
8
BLACK
6
CONTINUOUS
10
79.2137
20
-118.032
11
78.8328
21
-118.032
0
LINE
8
BLACK
6
CONTINUOUS
10
78.8328
20
-118.032
11
78.6423
21
-118.127
0
LINE
8
BLACK
6
CONTINUOUS
10
78.6423
20
-118.127
11
78.5471
21
-118.222
0
LINE
8
BLACK
6
CONTINUOUS
10
78.5471
20
-118.222
11
78.4518
21
-118.413
0
LINE
8
BLACK
6
CONTINUOUS
10
80.8328
20
-117.27
11
81.0232
21
-117.27
0
LINE
8
BLACK
6
CONTINUOUS
10
81.0232
20
-117.27
11
81.2137
21
-117.365
0
LINE
8
BLACK
6
CONTINUOUS
10
81.2137
20
-117.365
11
81.309
21
-117.46
0
LINE
8
BLACK
6
CONTINUOUS
10
81.309
20
-117.46
11
81.4042
21
-117.651
0
LINE
8
BLACK
6
CONTINUOUS
10
81.4042
20
-117.651
11
81.4994
21
-118.032
0
LINE
8
BLACK
6
CONTINUOUS
10
81.4994
20
-118.032
11
81.4994
21
-118.508
0
LINE
8
BLACK
6
CONTINUOUS
10
81.4994
20
-118.508
11
81.4042
21
-118.889
0
LINE
8
BLACK
6
CONTINUOUS
10
81.4042
20
-118.889
11
81.309
21
-119.079
0
LINE
8
BLACK
6
CONTINUOUS
10
81.309
20
-119.079
11
81.2137
21
-119.175
0
LINE
8
BLACK
6
CONTINUOUS
10
81.2137
20
-119.175
11
81.0232
21
-119.27
0
LINE
8
BLACK
6
CONTINUOUS
10
81.0232
20
-119.27
11
80.8328
21
-119.27
0
LINE
8
BLACK
6
CONTINUOUS
10
80.8328
20
-119.27
11
80.6423
21
-119.175
0
LINE
8
BLACK
6
CONTINUOUS
10
80.6423
20
-119.175
11
80.5471
21
-119.079
0
LINE
8
BLACK
6
CONTINUOUS
10
80.5471
20
-119.079
11
80.4518
21
-118.889
0
LINE
8
BLACK
6
CONTINUOUS
10
80.4518
20
-118.889
11
80.3566
21
-118.508
0
LINE
8
BLACK
6
CONTINUOUS
10
80.3566
20
-118.508
11
80.3566
21
-118.032
0
LINE
8
BLACK
6
CONTINUOUS
10
80.3566
20
-118.032
11
80.4518
21
-117.651
0
LINE
8
BLACK
6
CONTINUOUS
10
80.4518
20
-117.651
11
80.5471
21
-117.46
0
LINE
8
BLACK
6
CONTINUOUS
10
80.5471
20
-117.46
11
80.6423
21
-117.365
0
LINE
8
BLACK
6
CONTINUOUS
10
80.6423
20
-117.365
11
80.8328
21
-117.27
0
LINE
8
BLACK
6
CONTINUOUS
10
82.2613
20
-117.27
11
82.2613
21
-117.651
0
LINE
8
BLACK
6
CONTINUOUS
10
83.0232
20
-117.27
11
83.0232
21
-117.651
0
LINE
8
BLACK
6
CONTINUOUS
10
85.9756
20
-120.032
11
85.8804
21
-119.937
0
LINE
8
BLACK
6
CONTINUOUS
10
85.8804
20
-119.937
11
85.6899
21
-119.651
0
LINE
8
BLACK
6
CONTINUOUS
10
85.6899
20
-119.651
11
85.5947
21
-119.46
0
LINE
8
BLACK
6
CONTINUOUS
10
85.5947
20
-119.46
11
85.4994
21
-119.175
0
LINE
8
BLACK
6
CONTINUOUS
10
85.4994
20
-119.175
11
85.4042
21
-118.698
0
LINE
8
BLACK
6
CONTINUOUS
10
85.4042
20
-118.698
11
85.4042
21
-118.317
0
LINE
8
BLACK
6
CONTINUOUS
10
85.4042
20
-118.317
11
85.4994
21
-117.841
0
LINE
8
BLACK
6
CONTINUOUS
10
85.4994
20
-117.841
11
85.5947
21
-117.556
0
LINE
8
BLACK
6
CONTINUOUS
10
85.5947
20
-117.556
11
85.6899
21
-117.365
0
LINE
8
BLACK
6
CONTINUOUS
10
85.6899
20
-117.365
11
85.8804
21
-117.079
0
LINE
8
BLACK
6
CONTINUOUS
10
85.8804
20
-117.079
11
85.9756
21
-116.984
0
LINE
8
BLACK
6
CONTINUOUS
10
87.5947
20
-117.937
11
87.5947
21
-119.27
0
LINE
8
BLACK
6
CONTINUOUS
10
87.1185
20
-117.175
11
86.6423
21
-118.603
0
LINE
8
BLACK
6
CONTINUOUS
10
86.6423
20
-118.603
11
87.8804
21
-118.603
0
LINE
8
BLACK
6
CONTINUOUS
10
90.1661
20
-119.27
11
90.1661
21
-117.27
0
LINE
8
BLACK
6
CONTINUOUS
10
91.0232
20
-119.27
11
91.0232
21
-118.222
0
LINE
8
BLACK
6
CONTINUOUS
10
91.0232
20
-118.222
11
90.928
21
-118.032
0
LINE
8
BLACK
6
CONTINUOUS
10
90.928
20
-118.032
11
90.7375
21
-117.937
0
LINE
8
BLACK
6
CONTINUOUS
10
90.7375
20
-117.937
11
90.4518
21
-117.937
0
LINE
8
BLACK
6
CONTINUOUS
10
90.4518
20
-117.937
11
90.2613
21
-118.032
0
LINE
8
BLACK
6
CONTINUOUS
10
90.2613
20
-118.032
11
90.1661
21
-118.127
0
LINE
8
BLACK
6
CONTINUOUS
10
92.2613
20
-119.27
11
92.0709
21
-119.175
0
LINE
8
BLACK
6
CONTINUOUS
10
92.0709
20
-119.175
11
91.9756
21
-119.079
0
LINE
8
BLACK
6
CONTINUOUS
10
91.9756
20
-119.079
11
91.8804
21
-118.889
0
LINE
8
BLACK
6
CONTINUOUS
10
91.8804
20
-118.889
11
91.8804
21
-118.317
0
LINE
8
BLACK
6
CONTINUOUS
10
91.8804
20
-118.317
11
91.9756
21
-118.127
0
LINE
8
BLACK
6
CONTINUOUS
10
91.9756
20
-118.127
11
92.0709
21
-118.032
0
LINE
8
BLACK
6
CONTINUOUS
10
92.0709
20
-118.032
11
92.2613
21
-117.937
0
LINE
8
BLACK
6
CONTINUOUS
10
92.2613
20
-117.937
11
92.5471
21
-117.937
0
LINE
8
BLACK
6
CONTINUOUS
10
92.5471
20
-117.937
11
92.7375
21
-118.032
0
LINE
8
BLACK
6
CONTINUOUS
10
92.7375
20
-118.032
11
92.8328
21
-118.127
0
LINE
8
BLACK
6
CONTINUOUS
10
92.8328
20
-118.127
11
92.928
21
-118.317
0
LINE
8
BLACK
6
CONTINUOUS
10
92.928
20
-118.317
11
92.928
21
-118.889
0
LINE
8
BLACK
6
CONTINUOUS
10
92.928
20
-118.889
11
92.8328
21
-119.079
0
LINE
8
BLACK
6
CONTINUOUS
10
92.8328
20
-119.079
11
92.7375
21
-119.175
0
LINE
8
BLACK
6
CONTINUOUS
10
92.7375
20
-119.175
11
92.5471
21
-119.27
0
LINE
8
BLACK
6
CONTINUOUS
10
92.5471
20
-119.27
11
92.2613
21
-119.27
0
LINE
8
BLACK
6
CONTINUOUS
10
94.0709
20
-119.27
11
93.8804
21
-119.175
0
LINE
8
BLACK
6
CONTINUOUS
10
93.8804
20
-119.175
11
93.7852
21
-118.984
0
LINE
8
BLACK
6
CONTINUOUS
10
93.7852
20
-118.984
11
93.7852
21
-117.27
0
LINE
8
BLACK
6
CONTINUOUS
10
95.5947
20
-119.175
11
95.4042
21
-119.27
0
LINE
8
BLACK
6
CONTINUOUS
10
95.4042
20
-119.27
11
95.0232
21
-119.27
0
LINE
8
BLACK
6
CONTINUOUS
10
95.0232
20
-119.27
11
94.8328
21
-119.175
0
LINE
8
BLACK
6
CONTINUOUS
10
94.8328
20
-119.175
11
94.7375
21
-118.984
0
LINE
8
BLACK
6
CONTINUOUS
10
94.7375
20
-118.984
11
94.7375
21
-118.222
0
LINE
8
BLACK
6
CONTINUOUS
10
94.7375
20
-118.222
11
94.8328
21
-118.032
0
LINE
8
BLACK
6
CONTINUOUS
10
94.8328
20
-118.032
11
95.0232
21
-117.937
0
LINE
8
BLACK
6
CONTINUOUS
10
95.0232
20
-117.937
11
95.4042
21
-117.937
0
LINE
8
BLACK
6
CONTINUOUS
10
95.4042
20
-117.937
11
95.5947
21
-118.032
0
LINE
8
BLACK
6
CONTINUOUS
10
95.5947
20
-118.032
11
95.6899
21
-118.222
0
LINE
8
BLACK
6
CONTINUOUS
10
95.6899
20
-118.222
11
95.6899
21
-118.413
0
LINE
8
BLACK
6
CONTINUOUS
10
95.6899
20
-118.413
11
94.7375
21
-118.603
0
LINE
8
BLACK
6
CONTINUOUS
10
96.4518
20
-119.175
11
96.6423
21
-119.27
0
LINE
8
BLACK
6
CONTINUOUS
10
96.6423
20
-119.27
11
97.0232
21
-119.27
0
LINE
8
BLACK
6
CONTINUOUS
10
97.0232
20
-119.27
11
97.2137
21
-119.175
0
LINE
8
BLACK
6
CONTINUOUS
10
97.2137
20
-119.175
11
97.309
21
-118.984
0
LINE
8
BLACK
6
CONTINUOUS
10
97.309
20
-118.984
11
97.309
21
-118.889
0
LINE
8
BLACK
6
CONTINUOUS
10
97.309
20
-118.889
11
97.2137
21
-118.698
0
LINE
8
BLACK
6
CONTINUOUS
10
97.2137
20
-118.698
11
97.0232
21
-118.603
0
LINE
8
BLACK
6
CONTINUOUS
10
97.0232
20
-118.603
11
96.7375
21
-118.603
0
LINE
8
BLACK
6
CONTINUOUS
10
96.7375
20
-118.603
11
96.5471
21
-118.508
0
LINE
8
BLACK
6
CONTINUOUS
10
96.5471
20
-118.508
11
96.4518
21
-118.317
0
LINE
8
BLACK
6
CONTINUOUS
10
96.4518
20
-118.317
11
96.4518
21
-118.222
0
LINE
8
BLACK
6
CONTINUOUS
10
96.4518
20
-118.222
11
96.5471
21
-118.032
0
LINE
8
BLACK
6
CONTINUOUS
10
96.5471
20
-118.032
11
96.7375
21
-117.937
0
LINE
8
BLACK
6
CONTINUOUS
10
96.7375
20
-117.937
11
97.0232
21
-117.937
0
LINE
8
BLACK
6
CONTINUOUS
10
97.0232
20
-117.937
11
97.2137
21
-118.032
0
LINE
8
BLACK
6
CONTINUOUS
10
97.9756
20
-120.032
11
98.0709
21
-119.937
0
LINE
8
BLACK
6
CONTINUOUS
10
98.0709
20
-119.937
11
98.2613
21
-119.651
0
LINE
8
BLACK
6
CONTINUOUS
10
98.2613
20
-119.651
11
98.3566
21
-119.46
0
LINE
8
BLACK
6
CONTINUOUS
10
98.3566
20
-119.46
11
98.4518
21
-119.175
0
LINE
8
BLACK
6
CONTINUOUS
10
98.4518
20
-119.175
11
98.5471
21
-118.698
0
LINE
8
BLACK
6
CONTINUOUS
10
98.5471
20
-118.698
11
98.5471
21
-118.317
0
LINE
8
BLACK
6
CONTINUOUS
10
98.5471
20
-118.317
11
98.4518
21
-117.841
0
LINE
8
BLACK
6
CONTINUOUS
10
98.4518
20
-117.841
11
98.3566
21
-117.556
0
LINE
8
BLACK
6
CONTINUOUS
10
98.3566
20
-117.556
11
98.2613
21
-117.365
0
LINE
8
BLACK
6
CONTINUOUS
10
98.2613
20
-117.365
11
98.0709
21
-117.079
0
LINE
8
BLACK
6
CONTINUOUS
10
98.0709
20
-117.079
11
97.9756
21
-116.984
  0
ENDSEC
  0
EOF
